<svg xmlns="http://www.w3.org/2000/svg" width="1593" height="995" viewBox="0 0 1593 995" fill="none"><path fill="#c2ff42" d="M0 0h1593v651H0z"/><path d="M539.893 511.338c-271.594 38.334-522.5 138.724-522.5 138.724v159.9h370L1593 651l-.608-335.038s-161.99 29.429-264.5 52.167c-132.3 29.35-255 90.501-409.5 123.791-154.5 33.29-261.72 2.936-378.5 19.418z" fill="#fcff78"/><path d="M1052.5 799.623C1324.09 761.29 1575 660.9 1575 660.9l18-9.9H0v344s161.995-29.428 264.5-52.167c132.305-29.35 197.5-86.044 352-119.333s319.221-7.394 436-23.877z" fill="#fcff78"/></svg>