<svg width="1440" height="896" viewBox="0 0 1440 896" fill="none" xmlns="http://www.w3.org/2000/svg"><path fill-rule="evenodd" clip-rule="evenodd" d="M-92.186 328.002c59.085-22.322 275.383-99.978 506.686-132.626 48.503-6.845 105.277-6.381 166.154-5.883 85.693.702 179.516 1.47 269.846-17.993 80.846-17.419 137.238-41.247 191.59-64.213 49.52-20.922 97.34-41.128 160.41-55.12C1305 29.428 1467 0 1467 0v344h-3.33c-20.46 36.007-136.33 220.443-381.17 255-107.349 15.152-239.156 43.609-379.756 73.964A86017.134 86017.134 0 0 1 665.5 681c-77.013 16.594-144.26 28.733-208.728 40.37C391.907 733.079 329.856 744.28 263.5 759 160.995 781.739-131 896-131 896l23-567.998h15.814z" fill="#FCFF78"/></svg>