<svg width="483" height="517" viewBox="0 0 483 517" fill="none" xmlns="http://www.w3.org/2000/svg"><path d="M291.705 137.586v13.557l69.079-40.671V97.098l-69.079 40.488z" fill="url(#paint0_linear)"/><path d="M291.705 137.586v13.557l-69.078-40.305V97.464l69.078 40.122z" fill="url(#paint1_linear)"/><path d="M222.627 97.464l69.078 40.122 69.079-40.488-69.262-40.305-68.895 40.671z" fill="url(#paint2_linear)"/><path d="M291.705 136.487l-68.162-39.572-.916.55 69.078 40.121 69.079-40.488-.916-.55-68.163 39.939z" fill="url(#paint3_radial)"/><path d="M291.705 118.716v13.374l69.079-40.488V78.045l-69.079 40.671z" fill="url(#paint4_linear)"/><path d="M291.705 118.716v13.374l-69.078-40.122V78.411l69.078 40.305z" fill="url(#paint5_linear)"/><path d="M222.627 78.411l69.078 40.305 69.079-40.671-69.262-40.122-68.895 40.488z" fill="url(#paint6_linear)"/><path d="M291.705 99.846v13.374l69.079-40.488V59.175l-69.079 40.671z" fill="url(#paint7_linear)"/><path d="M291.705 99.846v13.374l-69.078-40.305V59.541l69.078 40.305z" fill="url(#paint8_linear)"/><path d="M222.627 59.541l69.078 40.305 69.079-40.671-69.262-40.305-68.895 40.671z" fill="url(#paint9_linear)"/><path d="M291.705 80.793V94.35l69.079-40.671V40.305l-69.079 40.488z" fill="url(#paint10_linear)"/><path d="M291.705 80.793V94.35l-69.078-40.305V40.671l69.078 40.122z" fill="url(#paint11_linear)"/><path d="M222.627 40.671l69.078 40.122 69.079-40.488L291.522 0l-68.895 40.671z" fill="url(#paint12_linear)"/><path d="M233.438 40.671l58.084-34.259 58.268 33.893-58.085 34.259-58.267-33.893z" fill="url(#paint13_linear)"/><path d="M291.522 9.16l56.069 32.427 2.199-1.282-58.268-33.893-58.084 34.26 2.382 1.282L291.522 9.16z" fill="#00CC06"/><path d="M291.522 9.16l56.069 32.427 2.199-1.282-58.268-33.893V9.16zm35.73 34.626c-7.146-4.03-11.91-9.344-13.742-15.023-9.895-1.1-19.057-3.847-26.019-7.878l-.184-.183-3.847 2.748c-13.56 9.343-15.758 18.87-14.109 30.778l.366.183c20.889 1.1 37.196-.183 53.504-8.06l4.581-2.199-.55-.366z" fill="#00CC06"/><path d="M335.682 306.133v70.35l69.078-40.488v-70.35l-69.078 40.488zm-.001 0v70.35l-69.078-40.305v-70.167l69.078 40.122z" fill="#25E652"/><path d="M266.603 266.011l69.078 40.122 69.079-40.488-69.262-40.305-68.895 40.671z" fill="#45108A"/><path d="M335.681 305.034l-68.162-39.572-.916.549 69.078 40.122 69.079-40.488-.917-.55-68.162 39.939z" fill="url(#paint14_radial)"/><path d="M253.594 352.85v70.167l69.078-40.488v-70.35l-69.078 40.671z" fill="#00CC06"/><path d="M253.593 352.85v70.167l-69.078-40.305v-70.167l69.078 40.305z" fill="#330A66"/><path d="M184.515 312.545l69.078 40.305 69.079-40.671-69.262-40.305-68.895 40.671z" fill="#45108A"/><path d="M253.593 351.751l-68.162-39.756-.916.55 69.078 40.305 69.079-40.671-.916-.55-68.163 40.122z" fill="url(#paint15_radial)"/><path d="M413.738 353.583v70.166L483 383.261v-70.35l-69.262 40.672z" fill="#00CC06"/><path d="M413.921 353.582v70.167l-69.078-40.121v-70.35l69.078 40.304z" fill="#330A66"/><path d="M344.843 313.278l69.078 40.304L483 312.911l-69.262-40.121-68.895 40.488z" fill="#00AA05"/><path d="M333.666 400.116v70.167l69.079-40.488v-70.35l-69.079 40.671z" fill="url(#paint16_linear)"/><path d="M333.665 400.116v70.167l-69.078-40.122v-70.35l69.078 40.305z" fill="#10CC1A"/><path d="M264.587 359.811l69.078 40.305 69.079-40.671-69.079-40.122-69.078 40.488z" fill="#00AA05"/><path d="M59.55 296.423l-29.866 17.771 69.078 40.121v70.35l30.05-17.77v-70.35L59.55 296.423z" fill="#07B70C"/><path d="M69.08 372.086v70.167l30.05-17.588v-70.35l-30.05 17.771z" fill="url(#paint17_linear)"/><path d="M69.079 372.086v70.167L0 402.131v-70.35l69.079 40.305z" fill="url(#paint18_linear)"/><path d="M5.497 398.834v-57.343l58.085 33.71v57.525L5.497 398.834z" fill="url(#paint19_linear)"/><path d="M7.513 397.918V342.59l-2.016-1.099v57.343l58.085 33.892v-2.198l-56.07-32.61z" fill="#00CC06"/><path d="M7.513 397.918l-2.016.916 58.085 33.892v-2.198l-56.07-32.61z" fill="#00CC06"/><path d="M0 331.781l69.079 40.305 30.05-17.771-69.262-40.304L0 331.781z" fill="url(#paint20_linear)"/><path d="M69.079 370.987L.916 331.232l-.916.549 69.079 40.305 30.05-17.771-.917-.549-29.133 17.221z" fill="url(#paint21_radial)"/><path d="M37.746 390.773v15.389l-6.963-4.03v-15.39c-2.748-3.114-4.58-7.328-4.58-11.175 0-5.13 3.664-7.145 8.061-4.58 4.398 2.565 8.063 8.794 8.063 13.923 0 3.848-1.833 6.046-4.581 5.863z" fill="#00CC06"/><path d="M175.354 400.849v70.167l69.078-40.488v-70.35l-69.078 40.671z" fill="url(#paint22_linear)"/><path d="M175.353 400.849v70.167l-69.079-40.122v-70.35l69.079 40.305z" fill="url(#paint23_linear)"/><path d="M106.274 360.544l69.079 40.305 69.078-40.671-69.078-40.122-69.079 40.488z" fill="#00B705"/><path d="M97.113 274.805v70.35l69.079-40.671v-70.167l-69.079 40.488z" fill="url(#paint24_linear)"/><path d="M97.113 274.805v70.35L28.034 304.85v-70.166l69.079 40.121z" fill="url(#paint25_linear)"/><path d="M28.034 234.684l69.079 40.121 69.078-40.488-69.078-40.305-69.079 40.672z" fill="#00AA05"/><path d="M253.594 446.65V517l69.078-40.671v-70.167l-69.078 40.488z" fill="#00CC06"/><path d="M253.593 446.65V517l-69.078-40.305v-70.35l69.078 40.305z" fill="url(#paint26_linear)"/><path d="M184.515 406.345l69.078 40.305 69.079-40.488-69.262-40.305-68.895 40.488z" fill="#00B705"/><path d="M175.354 320.606v70.35l69.078-40.671v-70.167l-69.078 40.488z" fill="#01B206"/><path d="M175.353 320.606v70.35l-69.079-40.305v-70.167l69.079 40.122z" fill="url(#paint27_linear)"/><path d="M106.274 280.484l69.079 40.122 69.078-40.488-69.078-40.305-69.079 40.671z" fill="#00AA05"/><path d="M253.594 423.383v13.374l69.078-40.488v-13.557l-69.078 40.671z" fill="url(#paint28_linear)"/><path d="M253.593 423.383v13.374l-69.078-40.305v-13.374l69.078 40.305z" fill="#2DE43F"/><path d="M184.515 383.078l69.078 40.305 69.079-40.671-69.262-40.305-68.895 40.671z" fill="#00B705"/><path d="M191.111 377.582l62.482 36.458 62.482-36.641-62.482-36.457-62.482 36.64zm62.482 38.473c-.183 0-.366 0-.55-.183l-64.314-37.374c-.367-.183-.367-.549-.367-.733 0-.366.184-.549.367-.732l64.131-37.74c.366-.184.55-.184.916 0l64.315 37.556c.366.184.366.55.366.733 0 .367-.183.55-.366.733l-64.132 37.557s-.183.183-.366.183z" fill="#89FF9C"/><path d="M191.111 369.704l62.482 36.458 62.482-36.641-62.482-36.457-62.482 36.64zm62.482 38.29c-.183 0-.366 0-.55-.183l-64.314-37.374c-.367-.183-.367-.549-.367-.733 0-.366.184-.549.367-.732l64.131-37.74c.366-.184.55-.184.916 0l64.315 37.556c.366.184.366.55.366.733 0 .367-.183.55-.366.733l-64.315 37.74h-.183z" fill="#89FF9C"/><path d="M191.111 361.643l62.482 36.458 62.482-36.641-62.482-36.457-62.482 36.64zm62.482 38.29c-.183 0-.366 0-.55-.183l-64.314-37.374c-.367-.183-.367-.549-.367-.733 0-.366.184-.549.367-.732l64.131-37.74c.366-.183.55-.183.916 0l64.315 37.556c.366.184.366.55.366.733 0 .367-.183.55-.366.733l-64.315 37.74h-.183z" fill="#89FF9C"/><path d="M191.111 353.583l62.482 36.457 62.482-36.641-62.665-36.457-62.299 36.641zm62.482 38.289c-.183 0-.366 0-.55-.183l-64.314-37.374c-.367-.183-.367-.549-.367-.732 0-.367.184-.55.367-.733l64.131-37.74c.366-.183.55-.183.916 0l64.315 37.557c.366.183.366.549.366.732 0 .367-.183.55-.366.733l-64.315 37.74h-.183z" fill="#89FF9C"/><path opacity=".5" d="M191.111 345.522l62.482 36.457 62.482-36.641-62.482-36.457-62.482 36.641zm62.482 38.472c-.183 0-.366 0-.55-.183l-64.314-37.373c-.367-.184-.367-.55-.367-.733 0-.367.184-.55.367-.733l64.131-37.74c.366-.183.55-.183.916 0l64.315 37.557c.366.183.366.549.366.733 0 .366-.183.549-.366.732l-64.315 37.74c.183-.183 0 0-.183 0z" fill="#89FF9C"/><path d="M253.594 366.59v11.542l69.078-40.488v-11.725l-69.078 40.671z" fill="url(#paint29_linear)"/><path d="M253.593 366.59v11.542l-69.078-40.305v-11.542l69.078 40.305z" fill="#2DE43F"/><path d="M184.515 326.285l69.078 40.305 69.079-40.671-69.262-40.305-68.895 40.671z" fill="#00B705"/><path opacity=".2" d="M322.672 337.644v-11.725l-49.289 28.946 9.894 5.862 39.395-23.083z" fill="url(#paint30_radial)"/><path opacity=".3" d="M253.594 366.59v70.167l69.078-40.488v-70.35l-69.078 40.671z" fill="url(#paint31_linear)"/><path opacity=".1" d="M253.593 366.59v70.167l-69.078-40.305v-70.167l69.078 40.305z" fill="#2DE43F"/><path d="M413.738 273.34v70.35L483 303.018v-70.166l-69.262 40.488z" fill="url(#paint32_linear)"/><path d="M413.921 273.339v70.351l-69.078-40.305v-70.167l69.078 40.121z" fill="#16D822"/><path d="M344.843 233.218l69.078 40.121L483 232.852l-69.262-40.305-68.895 40.671z" fill="#28EF61"/><path d="M402.744 417.154v13.374l69.079-40.488v-13.557l-69.079 40.671z" fill="url(#paint33_linear)"/><path d="M402.745 417.154v13.374l-69.079-40.305v-13.374l69.079 40.305z" fill="url(#paint34_linear)"/><path d="M333.666 376.849l69.079 40.305 69.078-40.671-69.262-40.305-68.895 40.671z" fill="url(#paint35_linear)"/><path d="M402.744 398.101v13.557l69.079-40.671v-13.374l-69.079 40.488z" fill="url(#paint36_linear)"/><path d="M402.745 398.101v13.557l-69.079-40.305v-13.374l69.079 40.122z" fill="url(#paint37_linear)"/><path d="M333.666 357.979l69.079 40.122 69.078-40.488-69.262-40.305-68.895 40.671z" fill="url(#paint38_linear)"/><path d="M402.744 379.231v13.374l69.079-40.488V338.56l-69.079 40.671z" fill="url(#paint39_linear)"/><path d="M402.745 379.231v13.374l-69.079-40.122v-13.557l69.079 40.305z" fill="url(#paint40_linear)"/><path d="M333.666 338.926l69.079 40.305 69.078-40.671-69.262-40.122-68.895 40.488z" fill="url(#paint41_linear)"/><path d="M402.744 360.361v13.374l69.079-40.488V319.69l-69.079 40.671z" fill="url(#paint42_linear)"/><path d="M402.745 360.361v13.374l-69.079-40.305v-13.374l69.079 40.305z" fill="url(#paint43_linear)"/><path d="M333.666 320.056l69.079 40.305 69.078-40.671-69.262-40.305-68.895 40.671z" fill="url(#paint44_linear)"/><path d="M344.477 320.056l58.084-34.259 58.268 33.893-58.085 34.259-58.267-33.893z" fill="#32EA5D"/><path d="M402.561 288.545l56.069 32.611 2.199-1.466-58.268-33.893-58.084 34.259 2.382 1.283 55.702-32.794z" fill="#00CC06"/><path d="M402.562 288.545l56.069 32.611 2.198-1.466-58.267-33.893v2.748zm-19.606 45.618l4.031-2.382c-1.1-.549-2.199-1.282-3.482-2.015l-1.649-.916-4.031 2.199c-.549.366-1.466.366-2.015 0l-3.482-2.016c-.549-.366-.549-.732 0-1.099l4.031-2.198-4.031-2.382c-.549-.366-.549-.733 0-1.099l34.081-19.786c.55-.367 1.466-.367 2.016 0l4.031 2.382 4.031-2.199c.55-.366 1.466-.366 2.016 0l3.481 2.015c.55.367.55.733 0 1.1l-4.031 2.198 3.848 2.198c.55.184.916.55 1.283.733l4.031-2.381c.549-.367 1.466-.367 2.015 0l3.482 2.015c.549.366.549.733 0 1.099l-4.398 2.565c.916.916 1.649 1.832 2.016 2.748.366 1.099.366 2.198-.184 3.298-.549 1.282-1.649 2.198-3.298 3.297-1.282.733-3.115 1.283-4.947 1.649-2.565.367-5.314.366-7.879-.183 1.649 1.649 2.199 3.298 1.832 4.763-.366 1.649-1.649 2.931-3.664 4.214-1.649.916-3.665 1.649-5.864 2.015-2.382.366-4.581.55-6.963.367-2.198-.184-4.397-.733-6.413-1.833l-4.214 2.382c-.55.367-1.466.367-2.016 0l-3.664-1.649c-.55-.366-.55-.916 0-1.099zm25.469-24.732l-8.429 4.763 4.764 2.748a120.252 120.252 0 0 0 5.497 2.931c1.466.55 2.749.916 4.215.916a8.515 8.515 0 0 0 3.848-.916c1.099-.733 1.649-1.282 1.832-2.015 0-.733-.367-1.466-1.466-2.382-.733-.549-2.748-1.649-6.23-3.664l-4.031-2.381zm-14.292 8.427l-9.711 5.496 6.779 3.847c2.565 1.466 4.398 2.382 5.314 2.748 1.283.55 2.565.733 4.031.733 1.466 0 2.749-.366 4.031-1.099 1.1-.55 1.649-1.282 2.016-2.015.183-.733 0-1.466-.733-2.199-.733-.732-2.565-2.198-6.047-4.03l-5.68-3.481z" fill="#00CC06"/><path d="M335.682 147.479v70.167l69.078-40.488v-70.35l-69.078 40.671z" fill="url(#paint45_linear)"/><path d="M335.681 147.479v70.167l-69.078-40.305v-70.167l69.078 40.305z" fill="#10CC1A"/><path d="M266.603 107.174l69.078 40.305 69.079-40.671-69.262-40.122-68.895 40.488z" fill="url(#paint46_linear)"/><g opacity=".7" fill="#42CA2C"><path opacity=".7" d="M424.583 156.656l-14.187 36.155 5.8 2.275 14.186-36.156-5.799-2.274z"/><path opacity=".5" d="M425.282 158.301l-12.851 32.744 2.388.937 12.851-32.744-2.388-.937z"/></g><g opacity=".7" fill="#42CA2C"><path opacity=".7" d="M396.331 224.241c-1.283 0-2.382-.733-2.932-2.015l-12.826-34.442a4.473 4.473 0 0 1 0-2.199l11.91-31.694c0-.183.183-.183.183-.366l17.957-32.611 5.497 2.932-17.774 32.243-11.36 30.229 11.544 30.778 37.379-6.595 1.099 6.045-39.944 6.962c-.367.733-.55.733-.733.733z"/><path opacity=".5" d="M395.965 221.676c-.55 0-1.099-.366-1.283-.916l-12.826-34.259c-.183-.366-.183-.549 0-.916l12.094-31.694v-.183l17.04-30.962 2.199 1.283-16.857 30.778-11.727 31.145 12.276 32.976 37.196-6.595.367 2.565-38.112 6.778h-.367z"/></g><g opacity=".7" fill="#42CA2C"><path opacity=".7" d="M447.636 182.104a3.03 3.03 0 0 1-2.199-.916l-19.423-20.152-28.951-2.382.55-6.229 30.05 2.382c.733 0 1.466.366 2.016.916l18.14 19.053 23.454-18.87 3.847 4.947-25.652 20.702c-.367.183-1.099.549-1.832.549z"/><path opacity=".5" d="M447.269 179.539c-.366 0-.732-.183-.916-.366l-19.789-20.702-27.851-2.198.183-2.565 28.218 2.381c.366 0 .55.184.733.367l19.422 20.152 23.271-18.687 1.649 2.016-24.187 19.419c-.183 0-.366.183-.733.183z"/></g><g opacity=".7" fill="#42CA2C"><path opacity=".7" d="M470.723 218.745l-21.987-32.794-9.345 28.947-5.864-1.832 11.361-35.175c.366-1.1 1.282-2.016 2.565-2.199 1.283-.183 2.382.366 2.932 1.283l25.652 38.106-5.314 3.664z"/><path opacity=".5" d="M447.82 181.188l-9.895 30.778-2.382-.733 10.811-33.343c.183-.549.549-.732 1.099-.916h.183c.367 0 .733.184 1.1.55l24.553 36.457-2.199 1.466-23.27-34.259z"/></g><g opacity=".7" fill="#42CA2C"><path opacity=".7" d="M413.372 197.127c-.367 0-.733 0-1.1-.183-.733-.367-1.466-.916-1.649-1.649l-15.025-36.641-41.044 2.748c-1.466.183-2.748-.733-3.115-2.198-.366-1.283.183-2.931 1.283-3.664l59.184-35.725 3.298 5.313-48.19 29.129 30.417-2.015c1.282-.183 2.565.733 3.114 1.832l14.659 35.725 32.066-14.473 2.565 5.679-34.997 15.756c-.55.366-1.1.366-1.466.366z"/><path opacity=".5" d="M413.005 194.562h-.55c-.366-.183-.549-.366-.733-.733l-15.574-37.74-42.327 2.748c-.733 0-1.099-.366-1.283-.916-.183-.549 0-1.099.55-1.465l57.535-34.809 1.283 2.199-46.358 28.213 1.099 3.481 30.417-2.016c.55 0 1.099.367 1.282.733l15.392 37.374 32.066-14.473 1.099 2.381-33.348 15.023h-.55z"/></g><g opacity=".7" fill="#42CA2C"><path opacity=".7" d="M413.372 256.302c-.55 0-1.099-.184-1.649-.367l-59.184-35.358c-.916-.55-1.466-1.649-1.466-2.748v-59.541h6.23v57.892l55.886 33.343 52.954-31.877-53.87-20.702 2.199-5.863 59.916 22.901c1.1.366 1.833 1.465 2.016 2.564.183 1.1-.55 2.382-1.466 2.932l-60.1 36.274c-.366.366-.916.55-1.466.55z"/><path opacity=".5" d="M413.006 253.737c-.183 0-.55 0-.733-.184l-59.001-35.175c-.366-.183-.549-.732-.549-1.099v-57.892h2.565v56.976l57.718 34.442 57.168-34.442-55.885-21.251.916-2.382 58.268 22.168c.366.183.733.549.733 1.099 0 .549-.184.916-.55 1.282l-59.917 36.274c-.367 0-.55.184-.733.184z"/></g><g opacity=".7" fill="#42CA2C"><path opacity=".7" d="M471.822 161.036l-50.938-31.328 9.894 27.297-5.863 2.016-12.826-35.725c-.367-1.283 0-2.565.916-3.481 1.099-.916 2.382-.916 3.664-.183l58.268 36.091-3.115 5.313z"/><path opacity=".5" d="M417.036 124.761l10.994 30.595-2.382.916-12.276-34.075c-.184-.55 0-1.1.366-1.466.183-.183.55-.366.733-.366.183 0 .55 0 .733.183l56.985 34.992-1.282 2.198-53.871-32.977z"/></g><g opacity=".7" fill="#42CA2C"><path opacity=".7" d="M355.47 220.76l-2.382-5.862 57.168-23.084V122.93h6.23v71.082c0 1.283-.733 2.382-2.015 2.932L355.47 220.76z"/><path opacity=".5" d="M355.104 215.264l56.618-22.717v-68.518h2.566v69.251c0 .549-.367.916-.733 1.282l-57.352 23.084-1.099-2.382z"/></g><g opacity=".7" fill="#42CA2C"><path opacity=".7" d="M356.544 156.088l-4.484 4.324 29.001 30.066 4.484-4.324-29.001-30.066z"/><path opacity=".5" d="M356.114 157.934l-1.847 1.779 26.438 27.444 1.848-1.779-26.439-27.444z"/></g><g opacity=".7" fill="#42CA2C"><path opacity=".7" d="M399.079 222.775l-5.313-3.297 17.04-27.114c.733-1.283 2.565-1.832 3.848-1.283l27.118 11.908-2.565 5.68-24.553-10.809-15.575 24.915z"/><path opacity=".5" d="M395.965 218.012l15.941-25.465c.183-.367.55-.55 1.099-.55.184 0 .367 0 .55.183l25.286 11.176-1.099 2.381-24.37-10.809-15.392 24.55-2.015-1.466z"/></g><g opacity=".7" fill="#42CA2C"><path opacity=".7" d="M413.372 256.302c-1.099 0-2.199-.733-2.748-1.649l-16.125-30.595-40.494-3.115c-1.283 0-2.199-.916-2.749-2.015-.366-1.099-.183-2.382.55-3.298l29.317-31.144 4.581 4.214-24.736 26.564 35.73 2.748c1.099 0 2.016.733 2.565 1.649l14.292 27.114 24.187-42.32c.733-1.282 2.199-1.832 3.665-1.466l28.951 9.527v-51.48h-42.694v-6.229h45.808c1.65 0 3.115 1.466 3.115 3.114v58.992c0 .916-.549 2.015-1.282 2.565-.733.549-1.833.733-2.749.366l-30.6-10.076-25.835 44.885c-.55.916-1.649 1.649-2.749 1.649z"/><path opacity=".5" d="M413.006 253.737c-.367 0-.916-.183-1.1-.733l-16.674-31.511-41.41-3.115c-.55 0-.916-.366-1.1-.732-.183-.55 0-.916.184-1.283l28.034-29.862 1.832 1.832-26.202 27.847 39.395 2.931c.367 0 .916.367 1.1.733l15.941 30.045 25.835-45.068c.184-.366.733-.732 1.1-.732h.366l31.333 10.259v-55.877h-42.693v-2.565h43.976c.733 0 1.282.55 1.282 1.283v58.991c0 .366-.183.733-.549 1.099-.184.183-.55.183-.733.183h-.367l-32.065-10.442-26.386 45.984c-.183.366-.733.733-1.099.733z"/></g><path d="M363.532 217.829c0 5.13-4.214 9.343-9.344 9.343-5.131 0-9.345-4.213-9.345-9.343s4.214-9.344 9.345-9.344c5.313 0 9.344 4.214 9.344 9.344z" fill="url(#paint47_radial)"/><path d="M363.532 158.288c0 5.13-4.214 9.343-9.344 9.343-5.131 0-9.345-4.213-9.345-9.343s4.214-9.344 9.345-9.344c5.313 0 9.344 4.214 9.344 9.344z" fill="url(#paint48_radial)"/><path d="M422.716 194.012c0 5.13-4.214 9.344-9.345 9.344-5.13 0-9.345-4.214-9.345-9.344 0-5.129 4.215-9.343 9.345-9.343 5.131 0 9.345 4.214 9.345 9.343z" fill="url(#paint49_radial)"/><path d="M405.676 221.127c0 5.129-4.214 9.343-9.345 9.343-5.13 0-9.345-4.214-9.345-9.343 0-5.13 4.215-9.344 9.345-9.344 5.314 0 9.345 4.214 9.345 9.344z" fill="url(#paint50_radial)"/><path d="M482.633 158.288c0 5.13-4.214 9.343-9.345 9.343-5.13 0-9.345-4.213-9.345-9.343s4.215-9.344 9.345-9.344c5.314 0 9.345 4.214 9.345 9.344z" fill="url(#paint51_radial)"/><path d="M482.633 216.913c0 5.13-4.214 9.343-9.345 9.343-5.13 0-9.345-4.213-9.345-9.343s4.215-9.344 9.345-9.344c5.314 0 9.345 4.214 9.345 9.344z" fill="url(#paint52_radial)"/><path d="M422.716 253.187c0 5.13-4.214 9.344-9.345 9.344-5.13 0-9.345-4.214-9.345-9.344 0-5.13 4.215-9.343 9.345-9.343 5.131 0 9.345 4.213 9.345 9.343z" fill="url(#paint53_radial)"/><path d="M422.716 122.563c0 5.13-4.214 9.343-9.345 9.343-5.13 0-9.345-4.213-9.345-9.343s4.215-9.343 9.345-9.343c5.131 0 9.345 4.213 9.345 9.343z" fill="url(#paint54_radial)"/><path d="M436.825 157.921c0 5.13-4.214 9.344-9.344 9.344-5.131 0-9.345-4.214-9.345-9.344 0-5.129 4.214-9.343 9.345-9.343 5.313 0 9.344 4.214 9.344 9.343z" fill="url(#paint55_radial)"/><path d="M456.981 178.99c0 5.129-4.215 9.343-9.345 9.343-5.131 0-9.345-4.214-9.345-9.343 0-5.13 4.214-9.344 9.345-9.344 5.314 0 9.345 4.214 9.345 9.344z" fill="url(#paint56_radial)"/><path d="M445.804 213.249c0 5.129-4.214 9.343-9.345 9.343-5.13 0-9.345-4.214-9.345-9.343 0-5.13 4.215-9.344 9.345-9.344 5.131 0 9.345 4.214 9.345 9.344z" fill="url(#paint57_radial)"/><path d="M392.85 186.684c0 5.13-4.214 9.344-9.345 9.344-5.13 0-9.345-4.214-9.345-9.344 0-5.129 4.215-9.343 9.345-9.343 5.314 0 9.345 4.214 9.345 9.343z" fill="url(#paint58_radial)"/><path d="M404.76 155.173c0 5.13-4.214 9.344-9.345 9.344-5.13 0-9.345-4.214-9.345-9.344 0-5.129 4.215-9.343 9.345-9.343 5.314 0 9.345 4.214 9.345 9.343z" fill="url(#paint59_radial)"/><path d="M177.369 148.212v70.166l69.079-40.487V107.54l-69.079 40.672z" fill="#01AA06"/><path d="M177.369 148.211v70.167l-69.079-40.304v-70.167l69.079 40.304z" fill="#10CC1A"/><path d="M108.29 107.907l69.079 40.305 69.078-40.672-69.262-40.304-68.895 40.671z" fill="url(#paint60_linear)"/><path d="M253.594 194.012v70.167l69.078-40.488v-70.35l-69.078 40.671z" fill="#01AA06"/><path d="M253.593 194.012v70.167l-69.078-40.121v-70.35l69.078 40.304z" fill="#10CC1A"/><path d="M184.515 153.708l69.078 40.304 69.079-40.671-69.262-40.121-68.895 40.488z" fill="url(#paint61_linear)"/><path d="M333.666 239.813v70.35l69.079-40.671v-70.167l-69.079 40.488z" fill="#00CC06"/><path d="M333.665 239.813v70.35l-69.078-40.304v-70.167l69.078 40.121z" fill="#10CC1A"/><path d="M264.587 199.692l69.078 40.121 69.079-40.488-69.079-40.304-69.078 40.671z" fill="url(#paint62_linear)"/><path opacity=".2" d="M334.399 239.447l-.733.366v6.046l49.106 28.58-49.106 28.763v6.961l60.833-35.724-60.1-34.992z" fill="url(#paint63_radial)"/><path opacity=".2" d="M333.666 292.942l31.516-18.137c.55-.366.55-.733 0-1.099l-4.031-2.382 4.031-2.198c.55-.367.55-.733 0-1.099l-3.481-2.016c-.55-.366-1.466-.366-2.016 0l-4.031 2.199-1.649-.916c-1.283-.733-2.382-1.466-3.482-2.015l4.032-2.382c.549-.366.549-.733 0-1.099l-3.482-2.016c-.55-.366-1.466-.366-2.015 0l-4.581 2.199c-2.016-.916-4.215-1.466-6.413-1.832a17.685 17.685 0 0 0-4.398 0v6.412c.916-.366 1.832-.55 2.932-.55 1.466 0 2.748.184 4.031.733.916.367 2.565 1.283 5.314 2.748l6.779 3.848-9.711 5.496-5.864-3.481c-1.465-.733-2.565-1.466-3.481-2.015v6.961l3.298 2.016-3.298 2.015v8.61z" fill="url(#paint64_radial)"/><path d="M97.113 194.745v70.167l69.079-40.488v-70.35l-69.079 40.671z" fill="#01AA06"/><path d="M97.113 194.745v70.167l-69.079-40.305V154.44l69.079 40.305z" fill="url(#paint65_linear)"/><path d="M28.034 154.44l69.079 40.305 69.078-40.671-69.078-40.121-69.079 40.487z" fill="url(#paint66_linear)"/><path d="M175.354 240.546v70.167l69.078-40.488v-70.167l-69.078 40.488z" fill="#01AA06"/><path d="M175.353 240.546v70.167l-69.079-40.122v-70.35l69.079 40.305z" fill="url(#paint67_linear)"/><path d="M106.274 200.241l69.079 40.305 69.078-40.488-69.078-40.305-69.079 40.488z" fill="url(#paint68_linear)"/><path d="M112.138 266.927v-20.335l57.535 33.526v20.336l-57.535-33.527z" fill="#00CC06"/><path d="M161.794 282.133l2.199 1.283v-2.565l-2.199-1.283v2.565zm-4.215-2.381l2.199 1.282v-2.565l-2.199-1.282v2.565z" fill="#2AF6FF"/><path d="M153.365 277.37l2.199 1.282v-2.564l-2.199-1.283v2.565z" fill="#54B84B"/><path d="M149.151 274.988l2.199 1.283v-2.565l-2.199-1.283v2.565zm-4.214-2.565l2.382 1.283v-2.565l-2.382-1.282v2.564z" fill="#7DE774"/><path d="M140.905 270.042l2.199 1.282v-2.565l-2.199-1.282v2.565zm-4.214-2.382l2.199 1.283v-2.565l-2.199-1.283v2.565zm-4.214-2.381l2.198 1.282v-2.565l-2.198-1.282v2.565z" fill="#54B84B"/><path d="M128.263 262.897l2.198 1.282v-2.565l-2.198-1.282v2.565z" fill="#7DE774"/><path d="M124.048 260.332l2.199 1.466v-2.565l-2.199-1.283v2.382z" fill="#54B84B"/><path d="M120.018 257.95l2.198 1.283v-2.565l-2.198-1.283v2.565zm-4.215-2.381l2.199 1.282v-2.565l-2.199-1.282v2.565z" fill="#2AF6FF"/><path d="M161.794 286.713l2.199 1.283v-2.565l-2.199-1.283v2.565z" fill="#54B84B"/><path d="M157.579 284.332l2.199 1.282v-2.565l-2.199-1.282v2.565zm-4.214-2.382l2.199 1.283v-2.565l-2.199-1.283v2.565z" fill="#2AF6FF"/><path d="M149.151 279.385l2.199 1.283v-2.565l-2.199-1.283v2.565z" fill="#7DE774"/><path d="M144.937 277.004l2.382 1.282v-2.565l-2.382-1.282v2.565zm-4.032-2.382l2.199 1.282v-2.564l-2.199-1.283v2.565zm-4.214-2.382l2.199 1.283v-2.565l-2.199-1.283v2.565z" fill="#2AF6FF"/><path d="M132.477 269.859l2.198 1.282v-2.565l-2.198-1.282v2.565zm-4.214-2.565l2.198 1.282v-2.381l-2.198-1.283v2.382zm-4.215-2.382l2.199 1.283v-2.565l-2.199-1.283v2.565zm-4.03-2.382l2.198 1.283v-2.565l-2.198-1.282v2.564zm-4.215-2.381l2.199 1.282v-2.565l-2.199-1.282v2.565z" fill="#54B84B"/><path d="M161.794 291.11l2.199 1.283v-2.382l-2.199-1.282v2.381z" fill="#2AF6FF"/><path d="M157.579 288.729l2.199 1.282v-2.565l-2.199-1.282v2.565zm-4.214-2.382l2.199 1.282v-2.564l-2.199-1.283v2.565zm-4.214-2.382l2.199 1.283v-2.565l-2.199-1.283v2.565zm-4.214-2.381l2.382 1.282v-2.565l-2.382-1.282v2.565zm-4.032-2.382l2.199 1.282v-2.564l-2.199-1.283v2.565z" fill="#54B84B"/><path d="M136.691 276.637l2.199 1.283v-2.565l-2.199-1.283v2.565z" fill="#7DE774"/><path d="M132.477 274.256l2.198 1.282v-2.565l-2.198-1.282v2.565z" fill="#2AF6FF"/><path d="M128.263 271.874l2.198 1.282v-2.565l-2.198-1.282v2.565zm-4.215-2.382l2.199 1.283v-2.565l-2.199-1.283v2.565z" fill="#54B84B"/><path d="M120.018 267.11l2.198 1.283v-2.565l-2.198-1.282v2.564zm-4.215-2.381l2.199 1.282v-2.565l-2.199-1.282v2.565zm72.742 17.404l-2.198 1.283v-2.565l2.198-1.283v2.565z" fill="#2AF6FF"/><path d="M192.76 279.752l-2.198 1.282v-2.565l2.198-1.282v2.565z" fill="#7DE774"/><path d="M196.974 277.37l-2.199 1.282v-2.564l2.199-1.283v2.565z" fill="#54B84B"/><path d="M201.189 274.988l-2.382 1.283v-2.565l2.382-1.283v2.565zm4.03-2.565l-2.198 1.283v-2.565l2.198-1.282v2.564z" fill="#7DE774"/><path d="M209.434 270.042l-2.199 1.282v-2.565l2.199-1.282v2.565zm4.214-2.382l-2.199 1.283v-2.565l2.199-1.283v2.565zm4.215-2.381l-2.199 1.282v-2.565l2.199-1.282v2.565z" fill="#54B84B"/><path d="M222.077 262.897l-2.382 1.282v-2.565l2.382-1.282v2.565zm4.031-2.565l-2.199 1.466v-2.565l2.199-1.283v2.382z" fill="#7DE774"/><path d="M230.322 257.95l-2.199 1.283v-2.565l2.199-1.283v2.565zm4.215-2.381l-2.199 1.282v-2.565l2.199-1.282v2.565z" fill="#2AF6FF"/><path d="M188.545 286.713l-2.198 1.283v-2.565l2.198-1.283v2.565z" fill="#54B84B"/><path d="M192.76 284.332l-2.198 1.282v-2.565l2.198-1.282v2.565z" fill="#7DE774"/><path d="M196.974 281.95l-2.199 1.283v-2.565l2.199-1.283v2.565z" fill="#2AF6FF"/><path d="M201.189 279.385l-2.382 1.283v-2.565l2.382-1.283v2.565z" fill="#7DE774"/><path d="M205.219 277.004l-2.198 1.282v-2.565l2.198-1.282v2.565zm4.215-2.382l-2.199 1.282v-2.564l2.199-1.283v2.565zm4.214-2.382l-2.199 1.283v-2.565l2.199-1.283v2.565z" fill="#2AF6FF"/><path d="M217.863 269.859l-2.199 1.282v-2.565l2.199-1.282v2.565zm4.214-2.565l-2.382 1.282v-2.381l2.382-1.283v2.382zm4.031-2.382l-2.199 1.283v-2.565l2.199-1.283v2.565zm4.214-2.382l-2.199 1.283v-2.565l2.199-1.282v2.564zm4.215-2.381l-2.199 1.282v-2.565l2.199-1.282v2.565z" fill="#54B84B"/><path d="M188.545 291.11l-2.198 1.283v-2.382l2.198-1.282v2.381z" fill="#2AF6FF"/><path d="M192.76 288.729l-2.198 1.282v-2.565l2.198-1.282v2.565zm4.214-2.382l-2.199 1.282v-2.564l2.199-1.283v2.565zm4.215-2.382l-2.382 1.283v-2.565l2.382-1.283v2.565zm4.03-2.381l-2.198 1.282v-2.565l2.198-1.282v2.565zm4.215-2.382l-2.199 1.282v-2.564l2.199-1.283v2.565z" fill="#54B84B"/><path d="M213.648 276.637l-2.199 1.283v-2.565l2.199-1.283v2.565z" fill="#7DE774"/><path d="M217.863 274.256l-2.199 1.282v-2.565l2.199-1.282v2.565z" fill="#2AF6FF"/><path d="M222.077 271.874l-2.382 1.282v-2.565l2.382-1.282v2.565zm4.031-2.382l-2.199 1.283v-2.565l2.199-1.283v2.565zm4.214-2.382l-2.199 1.283v-2.565l2.199-1.282v2.564z" fill="#54B84B"/><path d="M234.537 264.729l-2.199 1.282v-2.565l2.199-1.282v2.565z" fill="#2AF6FF"/><path d="M112.138 230.653v-20.152l57.535 33.343v20.335l-57.535-33.526z" fill="#00CC06"/><path d="M161.794 246.042l2.199 1.283v-2.565l-2.199-1.283v2.565zm-4.215-2.565l2.199 1.283v-2.565l-2.199-1.283v2.565z" fill="#2AF6FF"/><path d="M153.365 241.096l2.199 1.282v-2.565l-2.199-1.282v2.565z" fill="#54B84B"/><path d="M149.151 238.714l2.199 1.282v-2.564l-2.199-1.283v2.565zm-4.214-2.382l2.382 1.283v-2.565l-2.382-1.282v2.564z" fill="#7DE774"/><path d="M140.905 233.951l2.199 1.282v-2.565l-2.199-1.282v2.565zm-4.214-2.382l2.199 1.283v-2.565l-2.199-1.283v2.565zm-4.214-2.565l2.198 1.283v-2.565l-2.198-1.283v2.565z" fill="#54B84B"/><path d="M128.263 226.623l2.198 1.282v-2.565l-2.198-1.282v2.565z" fill="#7DE774"/><path d="M124.048 224.241l2.199 1.282v-2.564l-2.199-1.283v2.565z" fill="#54B84B"/><path d="M120.018 221.859l2.198 1.283v-2.565l-2.198-1.282v2.564zm-4.215-2.381l2.199 1.282v-2.565l-2.199-1.282v2.565z" fill="#2AF6FF"/><path d="M161.794 250.439l2.199 1.283v-2.565l-2.199-1.283v2.565z" fill="#54B84B"/><path d="M157.579 248.057l2.199 1.283v-2.565l-2.199-1.282v2.564zm-4.214-2.381l2.199 1.282v-2.564l-2.199-1.283v2.565z" fill="#2AF6FF"/><path d="M149.151 243.294l2.199 1.283v-2.565l-2.199-1.283v2.565z" fill="#7DE774"/><path d="M144.937 240.913l2.382 1.282v-2.565l-2.382-1.282v2.565zm-4.032-2.565l2.199 1.282v-2.382l-2.199-1.282v2.382zm-4.214-2.382l2.199 1.283v-2.565l-2.199-1.283v2.565z" fill="#2AF6FF"/><path d="M132.477 233.584l2.198 1.283v-2.565l-2.198-1.282v2.564zm-4.214-2.381l2.198 1.282v-2.565l-2.198-1.282v2.565zm-4.215-2.382l2.199 1.283v-2.565l-2.199-1.283v2.565zm-4.03-2.382l2.198 1.283v-2.565l-2.198-1.282v2.564zm-4.215-2.564l2.199 1.282v-2.565l-2.199-1.282v2.565z" fill="#54B84B"/><path d="M161.794 255.019l2.199 1.282v-2.564l-2.199-1.283v2.565z" fill="#2AF6FF"/><path d="M157.579 252.637l2.199 1.283v-2.565l-2.199-1.282v2.564zm-4.214-2.381l2.199 1.282v-2.565l-2.199-1.282v2.565zm-4.214-2.565l2.199 1.282v-2.564l-2.199-1.283v2.565zm-4.214-2.382l2.382 1.283v-2.565l-2.382-1.282v2.564zm-4.032-2.381l2.199 1.282v-2.565l-2.199-1.282v2.565z" fill="#54B84B"/><path d="M136.691 240.546l2.199 1.282v-2.564l-2.199-1.283v2.565z" fill="#7DE774"/><path d="M132.477 238.164l2.198 1.283v-2.565l-2.198-1.282v2.564z" fill="#2AF6FF"/><path d="M128.263 235.783l2.198 1.282V234.5l-2.198-1.282v2.565zm-4.215-2.565l2.199 1.282v-2.565l-2.199-1.282v2.565z" fill="#54B84B"/><path d="M120.018 230.836l2.198 1.283v-2.565l-2.198-1.283v2.565zm-4.215-2.381l2.199 1.282v-2.565l-2.199-1.282v2.565z" fill="#2AF6FF"/><path d="M124.231 200.791l50.756 29.496 51.305-29.496-50.756-29.496-51.305 29.496z" fill="#00CC06"/><path d="M253.594 286.347v70.35l69.078-40.671v-70.167l-69.078 40.488z" fill="#00AA05"/><path d="M253.593 286.347v70.35l-69.078-40.305v-70.167l69.078 40.122z" fill="url(#paint69_linear)"/><path d="M184.515 246.225l69.078 40.122 69.079-40.488-69.262-40.305-68.895 40.671z" fill="url(#paint70_linear)"/><defs><linearGradient id="paint0_linear" x1="329.715" y1="131.98" x2="344.402" y2="164.94" gradientUnits="userSpaceOnUse"><stop offset=".035" stop-color="#FFA98C"/><stop offset=".317" stop-color="#FFB892"/><stop offset=".86" stop-color="#FEE1A3"/><stop offset="1" stop-color="#FEECA8"/></linearGradient><linearGradient id="paint1_linear" x1="183.634" y1="34.736" x2="324.76" y2="206.63" gradientUnits="userSpaceOnUse"><stop offset=".035" stop-color="#FFA98C"/><stop offset=".317" stop-color="#FFB892"/><stop offset=".86" stop-color="#FEE1A3"/><stop offset="1" stop-color="#FEECA8"/></linearGradient><linearGradient id="paint2_linear" x1="326.153" y1="-56.476" x2="282.19" y2="139.555" gradientUnits="userSpaceOnUse"><stop offset=".035" stop-color="#FFA98C"/><stop offset=".317" stop-color="#FFB892"/><stop offset=".86" stop-color="#FEE1A3"/><stop offset="1" stop-color="#FEECA8"/></linearGradient><radialGradient id="paint3_radial" cx="0" cy="0" r="1" gradientUnits="userSpaceOnUse" gradientTransform="matrix(50.9656 0 0 50.9576 291.67 117.076)"><stop offset=".096" stop-color="#FFE4A7"/><stop offset=".42" stop-color="#F4BE4C"/><stop offset=".672" stop-color="#ECA30A"/><stop offset="1"/></radialGradient><linearGradient id="paint4_linear" x1="329.715" y1="113.048" x2="344.402" y2="146.009" gradientUnits="userSpaceOnUse"><stop offset=".035" stop-color="#FFA98C"/><stop offset=".317" stop-color="#FFB892"/><stop offset=".86" stop-color="#FEE1A3"/><stop offset="1" stop-color="#FEECA8"/></linearGradient><linearGradient id="paint5_linear" x1="183.634" y1="15.805" x2="324.76" y2="187.699" gradientUnits="userSpaceOnUse"><stop offset=".035" stop-color="#FFA98C"/><stop offset=".317" stop-color="#FFB892"/><stop offset=".86" stop-color="#FEE1A3"/><stop offset="1" stop-color="#FEECA8"/></linearGradient><linearGradient id="paint6_linear" x1="326.153" y1="-75.407" x2="282.19" y2="120.624" gradientUnits="userSpaceOnUse"><stop offset=".035" stop-color="#FFA98C"/><stop offset=".317" stop-color="#FFB892"/><stop offset=".86" stop-color="#FEE1A3"/><stop offset="1" stop-color="#FEECA8"/></linearGradient><linearGradient id="paint7_linear" x1="329.715" y1="94.118" x2="344.402" y2="127.078" gradientUnits="userSpaceOnUse"><stop offset=".035" stop-color="#FFA98C"/><stop offset=".317" stop-color="#FFB892"/><stop offset=".86" stop-color="#FEE1A3"/><stop offset="1" stop-color="#FEECA8"/></linearGradient><linearGradient id="paint8_linear" x1="183.634" y1="-3.126" x2="324.76" y2="168.768" gradientUnits="userSpaceOnUse"><stop offset=".035" stop-color="#FFA98C"/><stop offset=".317" stop-color="#FFB892"/><stop offset=".86" stop-color="#FEE1A3"/><stop offset="1" stop-color="#FEECA8"/></linearGradient><linearGradient id="paint9_linear" x1="326.153" y1="-94.338" x2="282.19" y2="101.693" gradientUnits="userSpaceOnUse"><stop offset=".035" stop-color="#FFA98C"/><stop offset=".317" stop-color="#FFB892"/><stop offset=".86" stop-color="#FEE1A3"/><stop offset="1" stop-color="#FEECA8"/></linearGradient><linearGradient id="paint10_linear" x1="329.715" y1="75.187" x2="344.402" y2="108.147" gradientUnits="userSpaceOnUse"><stop offset=".035" stop-color="#FFA98C"/><stop offset=".317" stop-color="#FFB892"/><stop offset=".86" stop-color="#FEE1A3"/><stop offset="1" stop-color="#FEECA8"/></linearGradient><linearGradient id="paint11_linear" x1="183.634" y1="-22.057" x2="324.76" y2="149.837" gradientUnits="userSpaceOnUse"><stop offset=".035" stop-color="#FFA98C"/><stop offset=".317" stop-color="#FFB892"/><stop offset=".86" stop-color="#FEE1A3"/><stop offset="1" stop-color="#FEECA8"/></linearGradient><linearGradient id="paint12_linear" x1="336.896" y1="-161.158" x2="292.933" y2="34.873" gradientUnits="userSpaceOnUse"><stop offset=".035" stop-color="#FFA98C"/><stop offset=".317" stop-color="#FFB892"/><stop offset=".86" stop-color="#FEE1A3"/><stop offset="1" stop-color="#FEECA8"/></linearGradient><linearGradient id="paint13_linear" x1="291.614" y1="6.412" x2="291.614" y2="74.564" gradientUnits="userSpaceOnUse"><stop stop-color="#2EFC74"/><stop offset="1" stop-color="#20DB42"/></linearGradient><radialGradient id="paint14_radial" cx="0" cy="0" r="1" gradientUnits="userSpaceOnUse" gradientTransform="matrix(70.8372 0 0 70.8261 335.656 285.663)"><stop offset=".096" stop-color="#45108A"/><stop offset=".672" stop-color="#25054D"/><stop offset="1"/></radialGradient><radialGradient id="paint15_radial" cx="0" cy="0" r="1" gradientUnits="userSpaceOnUse" gradientTransform="matrix(70.8372 0 0 70.8261 253.557 332.214)"><stop offset=".096" stop-color="#45108A"/><stop offset=".672" stop-color="#25054D"/><stop offset="1"/></radialGradient><linearGradient id="paint16_linear" x1="380.351" y1="442.151" x2="430.928" y2="555.658" gradientUnits="userSpaceOnUse"><stop stop-color="#00C206"/><stop offset="1" stop-color="#11E517"/></linearGradient><linearGradient id="paint17_linear" x1="95.388" y1="423.687" x2="142.536" y2="529.498" gradientUnits="userSpaceOnUse"><stop offset=".035" stop-color="#FFA98C"/><stop offset=".317" stop-color="#FFB892"/><stop offset=".86" stop-color="#FEE1A3"/><stop offset="1" stop-color="#FEECA8"/></linearGradient><linearGradient id="paint18_linear" x1="-111.842" y1="208.825" x2="141.015" y2="516.808" gradientUnits="userSpaceOnUse"><stop offset=".035" stop-color="#FFA98C"/><stop offset=".317" stop-color="#FFB892"/><stop offset=".86" stop-color="#FEE1A3"/><stop offset="1" stop-color="#FEECA8"/></linearGradient><linearGradient id="paint19_linear" x1="34.539" y1="341.491" x2="34.539" y2="432.726" gradientUnits="userSpaceOnUse"><stop stop-color="#00CC06"/><stop offset="1" stop-color="#3FEE56"/></linearGradient><linearGradient id="paint20_linear" x1="72.957" y1="238.795" x2="46.171" y2="358.237" gradientUnits="userSpaceOnUse"><stop offset=".035" stop-color="#FFA98C"/><stop offset=".317" stop-color="#FFB892"/><stop offset=".86" stop-color="#FEE1A3"/><stop offset="1" stop-color="#FEECA8"/></linearGradient><radialGradient id="paint21_radial" cx="0" cy="0" r="1" gradientUnits="userSpaceOnUse" gradientTransform="matrix(65.7479 0 0 65.7376 49.56 351.686)"><stop offset=".096" stop-color="#FFE4A7"/><stop offset=".42" stop-color="#F4BE4C"/><stop offset=".672" stop-color="#ECA30A"/><stop offset="1"/></radialGradient><linearGradient id="paint22_linear" x1="222.016" y1="442.862" x2="272.593" y2="556.368" gradientUnits="userSpaceOnUse"><stop stop-color="#01B306"/><stop offset="1" stop-color="#00CC06"/></linearGradient><linearGradient id="paint23_linear" x1="140.814" y1="360.544" x2="140.814" y2="471.016" gradientUnits="userSpaceOnUse"><stop stop-color="#00CC06"/><stop offset="1" stop-color="#3FEE56"/></linearGradient><linearGradient id="paint24_linear" x1="143.826" y1="316.886" x2="194.402" y2="430.392" gradientUnits="userSpaceOnUse"><stop stop-color="#01B206"/><stop offset="1" stop-color="#01B206"/></linearGradient><linearGradient id="paint25_linear" x1="62.573" y1="234.684" x2="62.573" y2="345.155" gradientUnits="userSpaceOnUse"><stop stop-color="#00CC06"/><stop offset="1" stop-color="#3FEE56"/></linearGradient><linearGradient id="paint26_linear" x1="219.054" y1="406.345" x2="219.054" y2="517" gradientUnits="userSpaceOnUse"><stop stop-color="#00CC06"/><stop offset="1" stop-color="#3FEE56"/></linearGradient><linearGradient id="paint27_linear" x1="140.814" y1="280.484" x2="140.814" y2="390.956" gradientUnits="userSpaceOnUse"><stop stop-color="#00CC06"/><stop offset="1" stop-color="#3FEE56"/></linearGradient><linearGradient id="paint28_linear" x1="291.603" y1="417.662" x2="306.29" y2="450.622" gradientUnits="userSpaceOnUse"><stop stop-color="#00CC06"/><stop offset="1" stop-color="#00CC06"/></linearGradient><linearGradient id="paint29_linear" x1="291.326" y1="359.33" x2="304.855" y2="389.692" gradientUnits="userSpaceOnUse"><stop stop-color="#00AA05"/><stop offset="1" stop-color="#00AA05"/></linearGradient><radialGradient id="paint30_radial" cx="0" cy="0" r="1" gradientUnits="userSpaceOnUse" gradientTransform="matrix(70.8533 0 0 70.8422 327.703 356.339)"><stop stop-color="#FDD65B"/><stop offset=".206" stop-color="#B19540"/><stop offset=".474" stop-color="#52461E"/><stop offset=".663" stop-color="#171308"/><stop offset=".752"/></radialGradient><linearGradient id="paint31_linear" x1="300.207" y1="408.567" x2="350.783" y2="522.074" gradientUnits="userSpaceOnUse"><stop stop-color="#00AA05"/><stop offset="1" stop-color="#00AA05"/></linearGradient><linearGradient id="paint32_linear" x1="448.369" y1="232.852" x2="448.369" y2="343.69" gradientUnits="userSpaceOnUse"><stop stop-color="#00CC06"/><stop offset="1" stop-color="#1BF321"/></linearGradient><linearGradient id="paint33_linear" x1="440.765" y1="411.415" x2="455.451" y2="444.376" gradientUnits="userSpaceOnUse"><stop offset=".035" stop-color="#FFA98C"/><stop offset=".317" stop-color="#FFB892"/><stop offset=".86" stop-color="#FEE1A3"/><stop offset="1" stop-color="#FEECA8"/></linearGradient><linearGradient id="paint34_linear" x1="294.683" y1="314.172" x2="435.809" y2="486.066" gradientUnits="userSpaceOnUse"><stop offset=".035" stop-color="#FFA98C"/><stop offset=".317" stop-color="#FFB892"/><stop offset=".86" stop-color="#FEE1A3"/><stop offset="1" stop-color="#FEECA8"/></linearGradient><linearGradient id="paint35_linear" x1="437.202" y1="222.96" x2="393.24" y2="418.99" gradientUnits="userSpaceOnUse"><stop offset=".035" stop-color="#FFA98C"/><stop offset=".317" stop-color="#FFB892"/><stop offset=".86" stop-color="#FEE1A3"/><stop offset="1" stop-color="#FEECA8"/></linearGradient><linearGradient id="paint36_linear" x1="440.765" y1="392.484" x2="455.452" y2="425.445" gradientUnits="userSpaceOnUse"><stop offset=".035" stop-color="#FFA98C"/><stop offset=".317" stop-color="#FFB892"/><stop offset=".86" stop-color="#FEE1A3"/><stop offset="1" stop-color="#FEECA8"/></linearGradient><linearGradient id="paint37_linear" x1="294.684" y1="295.241" x2="435.81" y2="467.135" gradientUnits="userSpaceOnUse"><stop offset=".035" stop-color="#FFA98C"/><stop offset=".317" stop-color="#FFB892"/><stop offset=".86" stop-color="#FEE1A3"/><stop offset="1" stop-color="#FEECA8"/></linearGradient><linearGradient id="paint38_linear" x1="437.202" y1="204.029" x2="393.24" y2="400.059" gradientUnits="userSpaceOnUse"><stop offset=".035" stop-color="#FFA98C"/><stop offset=".317" stop-color="#FFB892"/><stop offset=".86" stop-color="#FEE1A3"/><stop offset="1" stop-color="#FEECA8"/></linearGradient><linearGradient id="paint39_linear" x1="440.765" y1="373.553" x2="455.452" y2="406.514" gradientUnits="userSpaceOnUse"><stop offset=".035" stop-color="#FFA98C"/><stop offset=".317" stop-color="#FFB892"/><stop offset=".86" stop-color="#FEE1A3"/><stop offset="1" stop-color="#FEECA8"/></linearGradient><linearGradient id="paint40_linear" x1="294.683" y1="276.31" x2="435.81" y2="448.204" gradientUnits="userSpaceOnUse"><stop offset=".035" stop-color="#FFA98C"/><stop offset=".317" stop-color="#FFB892"/><stop offset=".86" stop-color="#FEE1A3"/><stop offset="1" stop-color="#FEECA8"/></linearGradient><linearGradient id="paint41_linear" x1="437.202" y1="185.098" x2="393.24" y2="381.128" gradientUnits="userSpaceOnUse"><stop offset=".035" stop-color="#FFA98C"/><stop offset=".317" stop-color="#FFB892"/><stop offset=".86" stop-color="#FEE1A3"/><stop offset="1" stop-color="#FEECA8"/></linearGradient><linearGradient id="paint42_linear" x1="440.765" y1="354.622" x2="455.451" y2="387.582" gradientUnits="userSpaceOnUse"><stop offset=".035" stop-color="#FFA98C"/><stop offset=".317" stop-color="#FFB892"/><stop offset=".86" stop-color="#FEE1A3"/><stop offset="1" stop-color="#FEECA8"/></linearGradient><linearGradient id="paint43_linear" x1="294.683" y1="257.379" x2="435.809" y2="429.273" gradientUnits="userSpaceOnUse"><stop offset=".035" stop-color="#FFA98C"/><stop offset=".317" stop-color="#FFB892"/><stop offset=".86" stop-color="#FEE1A3"/><stop offset="1" stop-color="#FEECA8"/></linearGradient><linearGradient id="paint44_linear" x1="447.945" y1="118.278" x2="403.983" y2="314.308" gradientUnits="userSpaceOnUse"><stop offset=".035" stop-color="#FFA98C"/><stop offset=".317" stop-color="#FFB892"/><stop offset=".86" stop-color="#FEE1A3"/><stop offset="1" stop-color="#FEECA8"/></linearGradient><linearGradient id="paint45_linear" x1="382.306" y1="189.489" x2="432.882" y2="302.995" gradientUnits="userSpaceOnUse"><stop stop-color="#00AA05"/><stop offset="1" stop-color="#08D80E"/></linearGradient><linearGradient id="paint46_linear" x1="335.681" y1="66.686" x2="335.681" y2="147.479" gradientUnits="userSpaceOnUse"><stop stop-color="#2EFC74"/><stop offset="1" stop-color="#20DB42"/></linearGradient><radialGradient id="paint47_radial" cx="0" cy="0" r="1" gradientUnits="userSpaceOnUse" gradientTransform="matrix(12.9373 0 0 12.9352 351.167 214.756)"><stop offset=".151" stop-color="#B8FFB1"/><stop offset=".254" stop-color="#7EEF49"/><stop offset=".796" stop-color="#41D12A"/><stop offset=".969" stop-color="#37CB1E"/></radialGradient><radialGradient id="paint48_radial" cx="0" cy="0" r="1" gradientUnits="userSpaceOnUse" gradientTransform="matrix(12.9373 0 0 12.9352 351.167 155.215)"><stop offset=".151" stop-color="#B8FFB1"/><stop offset=".254" stop-color="#7EEF49"/><stop offset=".796" stop-color="#41D12A"/><stop offset=".969" stop-color="#37CB1E"/></radialGradient><radialGradient id="paint49_radial" cx="0" cy="0" r="1" gradientUnits="userSpaceOnUse" gradientTransform="matrix(12.9373 0 0 12.9353 410.259 190.94)"><stop offset=".151" stop-color="#AAFD9C"/><stop offset=".254" stop-color="#2AD93C"/><stop offset=".796" stop-color="#68C71E"/><stop offset=".969" stop-color="#45BC0D"/></radialGradient><radialGradient id="paint50_radial" cx="0" cy="0" r="1" gradientUnits="userSpaceOnUse" gradientTransform="matrix(12.9373 0 0 12.9352 393.31 217.962)"><stop offset=".151" stop-color="#B1FF9D"/><stop offset=".254" stop-color="#73E94A"/><stop offset=".796" stop-color="#60E93E"/><stop offset=".969" stop-color="#53CB29"/></radialGradient><radialGradient id="paint51_radial" cx="0" cy="0" r="1" gradientUnits="userSpaceOnUse" gradientTransform="matrix(12.9373 0 0 12.9352 470.267 155.215)"><stop offset=".151" stop-color="#B8FFB1"/><stop offset=".254" stop-color="#7EEF49"/><stop offset=".796" stop-color="#41D12A"/><stop offset=".969" stop-color="#37CB1E"/></radialGradient><radialGradient id="paint52_radial" cx="0" cy="0" r="1" gradientUnits="userSpaceOnUse" gradientTransform="matrix(12.9373 0 0 12.9353 470.267 213.84)"><stop offset=".151" stop-color="#B8FFB1"/><stop offset=".254" stop-color="#7EEF49"/><stop offset=".796" stop-color="#41D12A"/><stop offset=".969" stop-color="#37CB1E"/></radialGradient><radialGradient id="paint53_radial" cx="0" cy="0" r="1" gradientUnits="userSpaceOnUse" gradientTransform="matrix(12.9373 0 0 12.9353 410.259 250.023)"><stop offset=".151" stop-color="#BCE9AD"/><stop offset=".254" stop-color="#2BE00D"/><stop offset=".796" stop-color="#27A811"/><stop offset=".969" stop-color="#30B70E"/></radialGradient><radialGradient id="paint54_radial" cx="0" cy="0" r="1" gradientUnits="userSpaceOnUse" gradientTransform="matrix(12.9373 0 0 12.9353 410.259 119.491)"><stop offset=".151" stop-color="#AAFD9C"/><stop offset=".254" stop-color="#2AD93C"/><stop offset=".796" stop-color="#68C71E"/><stop offset=".969" stop-color="#45BC0D"/></radialGradient><radialGradient id="paint55_radial" cx="0" cy="0" r="1" gradientUnits="userSpaceOnUse" gradientTransform="matrix(12.9373 0 0 12.9353 424.46 154.757)"><stop offset=".151" stop-color="#B1FF9D"/><stop offset=".254" stop-color="#73E94A"/><stop offset=".796" stop-color="#60E93E"/><stop offset=".969" stop-color="#53CB29"/></radialGradient><radialGradient id="paint56_radial" cx="0" cy="0" r="1" gradientUnits="userSpaceOnUse" gradientTransform="matrix(12.9373 0 0 12.9353 444.615 175.826)"><stop offset=".151" stop-color="#B1FF9D"/><stop offset=".254" stop-color="#73E94A"/><stop offset=".796" stop-color="#60E93E"/><stop offset=".969" stop-color="#53CB29"/></radialGradient><radialGradient id="paint57_radial" cx="0" cy="0" r="1" gradientUnits="userSpaceOnUse" gradientTransform="matrix(12.9373 0 0 12.9353 433.393 210.176)"><stop offset=".151" stop-color="#BBF9A6"/><stop offset=".254" stop-color="#57CF1E"/><stop offset=".796" stop-color="#2BAE15"/><stop offset=".969" stop-color="#3EBA13"/></radialGradient><radialGradient id="paint58_radial" cx="0" cy="0" r="1" gradientUnits="userSpaceOnUse" gradientTransform="matrix(12.9373 0 0 12.9353 380.484 183.612)"><stop offset=".151" stop-color="#B8FFB1"/><stop offset=".254" stop-color="#7EEF49"/><stop offset=".796" stop-color="#41D12A"/><stop offset=".969" stop-color="#37CB1E"/></radialGradient><radialGradient id="paint59_radial" cx="0" cy="0" r="1" gradientUnits="userSpaceOnUse" gradientTransform="matrix(12.9373 0 0 12.9353 392.394 152.009)"><stop offset=".151" stop-color="#B1FF9D"/><stop offset=".254" stop-color="#73E94A"/><stop offset=".796" stop-color="#60E93E"/><stop offset=".969" stop-color="#53CB29"/></radialGradient><linearGradient id="paint60_linear" x1="177.369" y1="67.236" x2="177.369" y2="148.212" gradientUnits="userSpaceOnUse"><stop stop-color="#2EFC74"/><stop offset="1" stop-color="#20DB42"/></linearGradient><linearGradient id="paint61_linear" x1="253.593" y1="113.22" x2="253.593" y2="194.012" gradientUnits="userSpaceOnUse"><stop stop-color="#2EFC74"/><stop offset="1" stop-color="#20DB42"/></linearGradient><linearGradient id="paint62_linear" x1="333.665" y1="159.021" x2="333.665" y2="239.813" gradientUnits="userSpaceOnUse"><stop stop-color="#2EFC74"/><stop offset="1" stop-color="#20DB42"/></linearGradient><radialGradient id="paint63_radial" cx="0" cy="0" r="1" gradientUnits="userSpaceOnUse" gradientTransform="matrix(169.668 0 0 169.641 351.981 341.683)"><stop stop-color="#FDD65B"/><stop offset=".206" stop-color="#B19540"/><stop offset=".474" stop-color="#52461E"/><stop offset=".663" stop-color="#171308"/><stop offset=".752"/></radialGradient><radialGradient id="paint64_radial" cx="0" cy="0" r="1" gradientUnits="userSpaceOnUse" gradientTransform="matrix(116.788 0 0 116.769 327.551 310.843)"><stop stop-color="#43E8E1"/><stop offset=".162" stop-color="#33B1AB"/><stop offset=".452" stop-color="#185250"/><stop offset=".656" stop-color="#071716"/><stop offset=".752"/></radialGradient><linearGradient id="paint65_linear" x1="62.573" y1="154.44" x2="62.573" y2="264.912" gradientUnits="userSpaceOnUse"><stop stop-color="#00CC06"/><stop offset="1" stop-color="#3FEE56"/></linearGradient><linearGradient id="paint66_linear" x1="97.113" y1="113.953" x2="97.113" y2="194.745" gradientUnits="userSpaceOnUse"><stop stop-color="#2EFC74"/><stop offset="1" stop-color="#20DB42"/></linearGradient><linearGradient id="paint67_linear" x1="140.814" y1="200.241" x2="140.814" y2="310.713" gradientUnits="userSpaceOnUse"><stop stop-color="#0FD419"/><stop offset="1" stop-color="#35E949"/></linearGradient><linearGradient id="paint68_linear" x1="175.353" y1="159.753" x2="175.353" y2="240.546" gradientUnits="userSpaceOnUse"><stop stop-color="#2EFC74"/><stop offset="1" stop-color="#20DB42"/></linearGradient><linearGradient id="paint69_linear" x1="219.054" y1="246.225" x2="219.054" y2="356.697" gradientUnits="userSpaceOnUse"><stop stop-color="#00CC06"/><stop offset="1" stop-color="#3FEE56"/></linearGradient><linearGradient id="paint70_linear" x1="253.593" y1="205.554" x2="253.593" y2="286.347" gradientUnits="userSpaceOnUse"><stop stop-color="#2EFC74"/><stop offset="1" stop-color="#20DB42"/></linearGradient></defs></svg>