<svg width="458" height="362" viewBox="0 0 458 362" fill="none" xmlns="http://www.w3.org/2000/svg"><path opacity=".3" fill-rule="evenodd" clip-rule="evenodd" d="M72.59 186.495c-9.222 29.575-34.049 56.784-71.171 77.842L0 265.283l23.881 11.357c84.176 40.459 168.588 47.32 276.172 41.878l1.418-.71c9.458-62.226-177.336-136.755-228.409-131.55l-.472.237z" fill="#D1CB2B"/><path d="M0 197.799c37.122-21.058 63.368-36.2 72.59-65.775l.472-.237c51.073-5.205 98.126-19.638 134.539-41.169l1.419-.71 19.862 13.724c70.225 48.503 81.811 97.479 72.589 159.469l-1.418 2.602c-107.584 5.442-191.996-1.419-276.172-41.878L0 212.468v-14.669z" fill="#10F216"/><path d="M1.419 197.089c37.122-21.057 61.95-48.266 71.17-77.842l.474-.236c51.072-5.205 98.125-19.638 134.538-41.169l1.419-.71 19.862 13.723c70.225 48.503 81.811 97.48 72.589 159.469l-1.418.71c-107.584 5.442-191.996-1.419-276.172-41.878L0 197.799l1.419-.71z" fill="#00CC06"/><path d="M1.419 305.453c-.473.236-.946.473-1.419.946l1.419-.946z" fill="url(#paint0_linear)"/><path opacity=".2" d="M1.419 239.677c-.473.237-.946.473-1.419.947l1.419-.947c0 .237 0 0 0 0z" fill="url(#paint1_linear)"/><path d="M241.177 249.141c-88.432 0-152.745-13.013-215.64-43.061l-17.734-8.518c34.758-20.821 57.93-46.61 67.624-75.002 50.836-5.442 96.944-19.638 133.593-40.932l17.97 12.54c69.989 48.503 79.447 96.77 71.407 153.79-21.043.71-39.723 1.183-57.22 1.183z" fill="#00CC06"/><path d="M241.177 240.151c-86.776 0-150.144-12.54-211.62-42.352l-3.075-1.419c26.956-18.929 45.871-41.169 55.566-65.539 47.526-5.915 91.032-19.165 126.263-38.803l13.241 9.228c63.368 44.008 74.481 85.649 68.334 137.465-17.498.947-33.576 1.42-48.709 1.42z" fill="#16EE1C"/><path d="M30.266 198.272c24.827-18.218 42.56-39.512 51.782-62.699 47.526-5.915 91.032-19.165 126.263-38.803l13.241 9.228c52.728 36.673 69.279 71.69 69.752 112.149.71-42.589-15.132-78.789-69.752-116.881l-13.004-8.991c-35.468 19.638-78.738 32.887-126.264 38.802-9.93 24.134-28.847 46.611-55.802 65.302l3.074 1.42c.237.236.473.236.71.473z" fill="#06BD0B"/><path d="M165.986 226.191c-2.601 0-5.202-1.893-6.857-5.206-3.547-7.098-7.33-14.196-8.276-22.004-.473-4.258 0-8.517 1.419-12.066-1.419-1.656-2.601-3.313-3.783-4.732l-6.384-7.098c-3.784-4.259-7.567-8.281-10.877-12.777.473 4.969.236 9.464-.709 13.723-2.128 9.464-7.803 17.745-16.315 22.95l-1.183-1.892c7.803-4.969 13.242-12.777 15.37-21.768 1.182-4.968 1.182-10.41.236-16.562-4.256-5.678-7.566-11.593-9.694-17.981-.237-.474 0-.71.236-.947.237-.236.709-.473.946-.236 6.384 1.419 8.039 8.044 8.749 10.173.709 2.84 1.418 5.679 1.655 8.281 4.019 5.442 8.512 10.411 13.241 15.616 2.128 2.366 4.256 4.732 6.384 7.335.946 1.183 2.128 2.602 3.31 3.785 1.419-2.839 3.783-5.441 6.384-7.571.473-.473 1.182-.946 1.892-1.419 1.891-1.42 4.019-2.84 4.965-4.496 0-.946.237-1.893.473-2.839.237-.473.473-.946 1.182-.71.473 0 .946.473.946.947.237 1.183 0 2.366-.473 3.312-.236 3.549.473 6.861 2.365 10.174 1.182-5.205 2.128-10.647.709-15.852-1.419-4.969-5.911-11.357-14.66-13.014-.473 0-.946-.709-.946-1.183 0-.473.71-.946 1.183-.946l25.536 3.786c.237 0 .709.236.709.473.237.236.237.71 0 .946-4.492 10.411-4.256 20.821.71 30.049 3.31 1.656 8.039 1.656 12.295.236.237-3.076.709-6.151 1.419-8.991.473-1.892 1.182-4.022 3.31-5.441 1.655-.947 3.547-1.183 5.438-1.42 1.183-.237 2.365-.237 3.547-.71.237 0 .473-.236.709-.236-.236-4.733-.472-9.701-.709-14.433 0-.237 0-.71.237-.947.236-.236.472-.236.945-.236l4.966.473c.473 0 .709.237.946.71.472 1.419.945 2.602 1.182 4.259 1.418-3.786 1.418-6.625 1.655-9.228.236-3.549.236-7.334 3.31-13.486l1.892.946c-2.601 5.679-2.838 8.991-3.074 12.777-.236 3.549-.237 7.334-3.31 13.486l-.71 1.42c-.709 3.549-2.364 7.098-4.965 10.647.236 7.571.236 15.142.236 22.713 0 2.603 0 5.679-1.418 8.518-1.655 3.076-4.966 5.442-8.749 5.679-.473 0-.946-.237-.946-.474a51.088 51.088 0 0 1-5.674-23.423c-4.729 1.419-9.931.946-13.478-.947-.236 0-.473-.236-.473-.473-5.202-9.7-5.675-20.347-1.419-30.995l-15.605-2.366c3.783 2.603 6.857 6.625 8.039 11.121 1.892 6.625.237 13.249-1.182 19.164 0 .474-.473.71-.709.71-.473 0-.946 0-1.183-.473-2.364-3.312-3.783-7.098-4.019-10.884l-3.547 2.84c-.709.473-1.182.946-1.892 1.419-2.837 2.13-4.965 4.732-6.147 7.808 8.275 10.647 16.315 24.607 12.768 38.803 0 .473-.473.709-.946.709-.709.474-.946.474-1.182.474zm-12.059-37.383c-.946 3.075-1.419 6.388-.946 9.7.71 7.335 4.493 14.433 8.039 21.294.71 1.42 2.365 4.023 4.729 4.023 2.601-12.54-4.256-25.08-11.822-35.017zm44.925-.237c-.236 7.571 1.655 15.379 5.202 22.477 3.074-.473 5.438-2.602 6.148-4.495 1.182-2.366 1.182-5.206 1.182-7.572 0-6.624 0-13.249-.237-20.111-.472.71-1.182 1.183-1.655 1.893-3.31 4.022-6.857 6.388-10.64 7.808zm12.295-15.852c-1.182.473-2.6.473-3.783.71-1.655.236-3.31.473-4.492 1.183-1.419.709-1.892 2.129-2.365 4.022-.709 2.602-.945 5.205-1.182 7.808 3.074-1.42 6.148-3.549 9.222-6.625.945-.947 1.891-2.13 3.073-3.786-.473-1.183-.473-2.366-.473-3.312zm2.128-.947v.947c.237-.473.71-.947.946-1.656-.236.236-.709.473-.946.709zm-.709-14.669l.709 12.067c1.419-.947 2.365-2.366 3.074-4.023.473-2.602.473-5.205-.709-7.807l-3.074-.237zm-90.796-14.669c1.419 3.785 3.547 7.571 5.911 11.12-.236-1.183-.473-2.129-.946-3.312-1.182-4.023-2.6-6.625-4.965-7.808z" fill="#00CC06"/><path d="M233.61 136.992c-2.601 1.42-10.404 3.313-11.586.71-1.419-2.602 4.256-8.518 6.857-9.937 2.601-1.42 5.675-.473 7.093 2.129 1.183 2.603.237 5.915-2.364 7.098z" fill="url(#paint2_radial)"/><path d="M277.826 127.528c13.241-6.861-4.492-41.168-18.916-32.65-14.423 8.28-30.501 30.048-30.501 30.048-1.892 2.129-2.365 5.205-.237 8.754 1.892 3.785 3.783 4.732 7.567 4.732 0 0 28.846-3.786 42.087-10.884z" fill="url(#paint3_linear)"/><path d="M310.692 110.256l-18.207-33.597-33.812 18.218h-.236c-5.438 2.84-5.675 12.777-.709 22.004 4.965 9.228 13.477 14.433 18.915 11.594h.237l33.812-18.219z" fill="url(#paint4_linear)"/><path d="M310.692 110.256c-5.438 2.839-13.95-2.366-18.916-11.594-4.965-9.227-4.729-19.164.71-22.003 5.438-2.84 13.95 2.366 18.916 11.593 4.965 9.228 4.729 19.165-.71 22.004z" fill="url(#paint5_linear)"/><path d="M434.59 43.771l-18.206-33.597-123.899 66.958h-.237c-5.438 2.84-5.674 12.776-.709 22.24 4.966 9.228 13.478 14.433 18.916 11.594h.236L434.59 43.771z" fill="#16EE1C"/><path d="M434.354 43.771c-5.438 2.84-13.95-2.366-18.915-11.593-4.966-9.228-4.729-19.165.709-22.004 5.438-2.84 13.95 2.366 18.916 11.593 5.202 9.228 4.729 19.165-.71 22.004z" fill="#00CC06"/><path d="M454.217 29.339L438.848.71l-19.153 10.647c-4.492 2.366-4.965 10.884-.709 18.692 4.256 7.807 11.349 12.303 16.078 9.7l19.153-10.41z" fill="#10F517"/><path d="M454.216 29.339c-4.493 2.366-11.823-1.893-16.079-9.701-4.256-7.808-4.019-16.326.71-18.692 4.492-2.366 11.822 1.893 16.078 9.701 4.256 7.808 4.02 16.089-.709 18.692z" fill="#00CC06"/><defs><linearGradient id="paint0_linear" x1=".673" y1="306.241" x2=".554" y2="306.707" gradientUnits="userSpaceOnUse"><stop stop-color="#fff"/><stop offset="1" stop-color="#A3653D"/></linearGradient><linearGradient id="paint1_linear" x1=".675" y1="240.503" x2=".556" y2="240.97" gradientUnits="userSpaceOnUse"><stop stop-color="#FEE2A6"/><stop offset=".466" stop-color="#F9BA96"/><stop offset=".631" stop-color="#F7AA90"/><stop offset=".633" stop-color="#F7A990"/><stop offset=".692" stop-color="#F59E8B"/><stop offset=".773" stop-color="#F49788"/><stop offset="1" stop-color="#F49587"/></linearGradient><radialGradient id="paint2_radial" cx="0" cy="0" r="1" gradientUnits="userSpaceOnUse" gradientTransform="scale(7.33896 5.94576) rotate(90 4.422 26.8)"><stop stop-color="#21DF02"/><stop offset="1" stop-color="#4AC102"/></radialGradient><linearGradient id="paint3_linear" x1="254.628" y1="93.527" x2="254.628" y2="138.412" gradientUnits="userSpaceOnUse"><stop stop-color="#40FF45"/><stop offset="1" stop-color="#0CC608"/></linearGradient><linearGradient id="paint4_linear" x1="269" y1="77" x2="306.5" y2="129" gradientUnits="userSpaceOnUse"><stop stop-color="#16EE1C"/><stop offset=".156" stop-color="#7AFF7E"/><stop offset=".302" stop-color="#10DB16"/><stop offset="1" stop-color="#097C0C"/></linearGradient><linearGradient id="paint5_linear" x1="304.177" y1="56.149" x2="299.429" y2="125.885" gradientUnits="userSpaceOnUse"><stop stop-color="#D6DAE6"/><stop offset=".015" stop-color="#D4D8E6"/><stop offset=".278" stop-color="#B4B8E3"/><stop offset=".395" stop-color="#9A9FC8"/><stop offset=".53" stop-color="#838AB0"/><stop offset=".654" stop-color="#757DA1"/><stop offset=".758" stop-color="#70789C"/><stop offset=".853" stop-color="#777EA2"/><stop offset=".989" stop-color="#898EB3"/><stop offset="1" stop-color="#8B90B5"/></linearGradient></defs></svg>