<svg width="12" height="14" viewBox="0 0 12 14" fill="none" xmlns="http://www.w3.org/2000/svg"><path d="M10.594 1.75H8.188v-.438C8.188.59 7.598 0 6.875 0h-1.75c-.724 0-1.313.589-1.313 1.313v.437H1.406c-.603 0-1.093.49-1.093 1.094v1.531c0 .242.195.438.437.438h.24l.377 7.937A1.31 1.31 0 0 0 2.678 14h6.644a1.31 1.31 0 0 0 1.31-1.25l.379-7.938h.239a.438.438 0 0 0 .438-.437V2.844c0-.603-.491-1.094-1.094-1.094zm-5.906-.438c0-.24.196-.437.437-.437h1.75c.241 0 .438.196.438.438v.437H4.688v-.438zm-3.5 1.532a.22.22 0 0 1 .218-.219h9.188a.22.22 0 0 1 .219.219v1.094H1.187V2.843zm8.57 9.864a.437.437 0 0 1-.436.417H2.678a.437.437 0 0 1-.437-.417l-.376-7.896h8.27l-.376 7.896z" fill="#6F6767"/><path d="M6 12.25a.438.438 0 0 0 .438-.438V6.125a.438.438 0 0 0-.875 0v5.688c0 .241.195.437.437.437zm2.188 0a.438.438 0 0 0 .437-.438V6.125a.438.438 0 0 0-.875 0v5.688c0 .241.196.437.438.437zm-4.375 0a.438.438 0 0 0 .437-.438V6.125a.438.438 0 0 0-.875 0v5.688c0 .241.196.437.438.437z" fill="#6F6767"/></svg>