<svg width="689" height="468" viewBox="0 0 689 468" fill="none" xmlns="http://www.w3.org/2000/svg"><g clip-path="url(#clip0)"><g opacity=".3" fill="#2C75E4"><g opacity=".3"><path opacity=".3" d="M431.23 146.825c-1.259 0-2.378-.28-3.357-.839l-45.176-26.148c-.979-.559-1.539-1.398-1.539-2.237 0-.979.7-2.097 1.958-2.797l9.371-5.453c2.238-1.258 5.595-1.398 7.553-.28l45.176 26.148c.979.56 1.539 1.398 1.539 2.237 0 .979-.699 2.098-1.958 2.797l-9.371 5.453c-1.259.699-2.798 1.119-4.196 1.119zm-34.407-37.194c-1.259 0-2.518.279-3.497.839l-9.37 5.453c-.84.559-1.399 1.119-1.399 1.678 0 .559.419.979.839 1.119l45.176 26.147c1.539.839 4.336.699 6.154-.279l9.371-5.454c.84-.559 1.399-1.118 1.399-1.678 0-.559-.42-.978-.839-1.118l-45.176-26.148c-.7-.28-1.679-.559-2.658-.559zm21.12 102.214c-1.259 0-2.378-.28-3.357-.839l-22.938-13.284c-.979-.559-1.539-1.398-1.539-2.237 0-.979.7-2.098 1.958-2.797l5.735-3.356c2.238-1.258 5.595-1.398 7.553-.279l22.938 13.283c.979.56 1.538 1.399 1.538 2.238 0 .978-.699 2.097-1.958 2.796l-5.735 3.356c-1.258.699-2.797 1.119-4.195 1.119zm-15.805-22.233c-1.259 0-2.518.28-3.497.839l-5.734 3.356c-.84.559-1.399 1.118-1.399 1.678 0 .559.42.979.839 1.118l22.938 13.284c1.539.839 4.336.699 6.154-.28l5.735-3.356c.839-.559 1.398-1.118 1.398-1.677 0-.56-.419-.979-.839-1.119l-22.938-13.284c-.699-.279-1.678-.559-2.657-.559z"/><path opacity=".3" d="M392.487 234.916c-1.399 0-2.658-.28-3.777-.839l-61.68-35.656c-1.119-.699-1.679-1.538-1.679-2.517 0-.979.56-1.817 1.679-2.517l71.471-41.249c2.098-1.258 5.315-1.258 7.413 0l31.329 18.038-.699 1.119-31.33-18.038c-1.678-.979-4.475-.979-6.154 0l-71.471 41.249c-.699.419-1.119.979-1.119 1.398 0 .56.42.979 1.119 1.399l61.681 35.656c1.678.978 4.475.978 6.154 0l124.06-71.592c.699-.42 1.119-.979 1.119-1.398 0-.42-.42-.979-1.119-1.399L401.298 90.335c-1.678-.98-4.476-.98-6.154 0l-73.429 42.367c-.699.42-1.119.979-1.119 1.399 0 .559.42.978 1.119 1.398l22.378 12.864c1.119.699 1.679 1.538 1.679 2.517 0 .979-.56 1.818-1.679 2.517l-43.778 25.169c-2.097 1.258-5.314 1.258-7.412 0L243.95 150.46c-1.119-.699-1.679-1.538-1.679-2.517 0-.978.56-1.817 1.679-2.516L460.601 20.421c2.098-1.259 5.315-1.259 7.413 0l121.403 70.053c1.119.7 1.678 1.538 1.678 2.517 0 .98-.559 1.818-1.678 2.517l-30.351 17.479-.699-1.119 30.35-17.478c.7-.42 1.119-.98 1.119-1.399 0-.559-.419-.978-1.119-1.398L467.314 21.54c-1.678-.98-4.475-.98-6.154 0L244.509 146.544c-.699.42-1.119.979-1.119 1.398 0 .56.42.979 1.119 1.399l49.093 28.245c1.678.979 4.476.979 6.154 0l43.778-25.169c.699-.42 1.119-.979 1.119-1.398 0-.56-.42-.979-1.119-1.399l-22.379-12.864c-1.119-.699-1.678-1.538-1.678-2.517 0-.978.559-1.817 1.678-2.517l73.43-42.367c2.098-1.259 5.314-1.259 7.412 0l118.186 68.236c1.119.699 1.679 1.538 1.679 2.516 0 .979-.56 1.818-1.679 2.517l-124.06 71.592c-.839.419-2.238.699-3.636.699z"/><path opacity=".3" d="M511.092 112.288c-1.399 0-2.658-.28-3.777-.839l-70.771-40.83c-1.119-.7-1.679-1.538-1.679-2.517 0-.979.56-1.818 1.679-2.517l10.07-5.733c2.098-1.258 5.315-1.258 7.413 0l75.107 43.347-14.406 8.25c-.839.559-2.237.839-3.636.839zM437.383 69.5l70.772 40.83c1.678.979 4.475.979 6.154 0l12.448-7.131-73.15-42.228c-1.678-.979-4.475-.979-6.154 0l-10.07 5.733c-.7.42-1.119.979-1.119 1.398 0 .42.419.979 1.119 1.398zm31.191 209.322c-1.399 0-2.658-.28-3.777-.839l-19.581-11.326c-1.119-.699-1.678-1.538-1.678-2.517 0-.979.559-1.818 1.678-2.517l26.155-15.101c2.098-1.259 5.315-1.259 7.413 0l9.371 5.453c1.678.979 4.476.979 6.154 0l118.326-68.376c.699-.419 1.119-.978 1.119-1.398 0-.559-.42-.979-1.119-1.398l-7.973-4.614c-1.678-.979-4.475-.979-6.154 0L493.05 237.014c-2.098 1.258-5.315 1.258-7.413 0l-20.979-12.026c-1.679-.978-4.476-.978-6.155 0l-42.519 24.47-.699-1.118 42.519-24.47c2.098-1.259 5.315-1.259 7.413 0l20.98 12.025c1.678.979 4.475.979 6.154 0l105.458-60.825c2.098-1.258 5.315-1.258 7.413 0l7.972 4.614c1.119.699 1.679 1.538 1.679 2.517 0 .979-.56 1.818-1.679 2.517l-118.326 68.376c-2.098 1.258-5.314 1.258-7.412 0l-9.371-5.454c-1.679-.978-4.476-.978-6.154 0l-26.155 15.102c-.7.419-1.119.979-1.119 1.398 0 .559.419.979 1.119 1.398l19.581 11.326c1.678.979 4.476.979 6.154 0l167.139-96.481c.699-.419 1.119-.978 1.119-1.398 0-.559-.42-.979-1.119-1.398l-96.088-55.372.7-1.118 96.087 55.371c1.119.699 1.678 1.538 1.678 2.517 0 .979-.559 1.818-1.678 2.517L472.21 277.983c-.979.559-2.238.839-3.636.839z"/><path opacity=".3" d="M492.909 222.751c-1.259 0-2.378-.279-3.357-.839l-19.441-11.186c-.979-.559-1.539-1.398-1.539-2.237 0-.979.7-2.098 1.958-2.797l82.241-47.401c2.238-1.259 5.595-1.398 7.553-.28l19.441 11.186c.979.56 1.538 1.399 1.538 2.238 0 .978-.699 2.097-1.958 2.796l-82.24 47.541c-1.259.7-2.798.979-4.196.979zm64.058-64.181c-1.259 0-2.518.28-3.497.839l-82.24 47.402c-.839.559-1.399 1.119-1.399 1.678 0 .559.42.979.839 1.118l19.441 11.187c1.539.839 4.336.699 6.155-.28l82.24-47.401c.839-.56 1.399-1.119 1.399-1.678 0-.56-.42-.979-.839-1.119l-19.442-11.186c-.699-.42-1.538-.56-2.657-.56zm93.85 13.004c-1.399 0-2.658-.279-3.777-.839l-75.387-43.486c-1.119-.699-1.678-1.538-1.678-2.517 0-.979.559-1.818 1.678-2.517l12.868-7.411c2.098-1.258 5.314-1.258 7.412 0l52.73 30.483-.7 1.118-52.729-30.482c-1.678-.979-4.476-.979-6.154 0l-12.868 7.411c-.699.419-1.118.979-1.118 1.398 0 .56.419.979 1.118 1.399l75.388 43.486c1.678.979 4.475.979 6.154 0l32.588-18.877c.7-.419 1.119-.979 1.119-1.398 0-.559-.419-.979-1.119-1.398l-81.121-46.843.699-1.118 81.122 46.842c1.119.699 1.678 1.538 1.678 2.517 0 .979-.559 1.818-1.678 2.517l-32.589 18.876c-.839.56-2.238.839-3.636.839zm-291.478 30.902c-1.258 0-2.377-.28-3.356-.839l-6.714-3.915c-.979-.559-1.539-1.398-1.539-2.237 0-.979.7-2.098 1.959-2.797l5.734-3.356c2.238-1.258 5.595-1.398 7.553-.279l6.713 3.915c.979.559 1.539 1.398 1.539 2.237 0 .979-.699 2.097-1.958 2.797l-5.735 3.355c-1.259.7-2.797 1.119-4.196 1.119zm.42-12.864c-1.259 0-2.518.28-3.497.839l-5.734 3.356c-.839.559-1.399 1.118-1.399 1.678 0 .559.42.979.839 1.118l6.714 3.916c1.538.838 4.336.699 6.154-.28l5.734-3.356c.84-.559 1.399-1.119 1.399-1.678 0-.559-.42-.979-.839-1.119l-6.714-3.915c-.699-.419-1.678-.559-2.657-.559zm20.699.559c-1.258 0-2.377-.279-3.356-.839l-6.714-3.915c-.979-.559-1.538-1.398-1.538-2.237 0-.979.699-2.097 1.958-2.796l5.734-3.356c2.238-1.259 5.595-1.399 7.553-.28l6.713 3.915c.979.559 1.539 1.398 1.539 2.237 0 .979-.699 2.098-1.958 2.797l-5.735 3.356c-1.258.839-2.657 1.118-4.196 1.118zm.42-12.864c-1.259 0-2.518.28-3.497.839l-5.734 3.356c-.839.559-1.399 1.119-1.399 1.678 0 .559.42.979.839 1.119l6.714 3.915c1.539.839 4.336.699 6.154-.28l5.735-3.356c.839-.559 1.398-1.118 1.398-1.678 0-.559-.419-.978-.839-1.118l-6.714-3.915c-.699-.28-1.678-.56-2.657-.56zm20.84.699c-1.259 0-2.378-.279-3.357-.839l-6.713-3.915c-.979-.559-1.539-1.398-1.539-2.237 0-.979.7-2.098 1.958-2.797l5.735-3.356c2.238-1.258 5.595-1.398 7.553-.279l6.713 3.915c.979.559 1.539 1.398 1.539 2.237 0 .979-.7 2.098-1.958 2.797l-5.735 3.356c-1.259.699-2.797 1.118-4.196 1.118zm.28-12.864c-1.259 0-2.518.28-3.497.839l-5.734 3.356c-.839.559-1.399 1.119-1.399 1.678 0 .559.42.979.839 1.119l6.714 3.915c1.538.839 4.336.699 6.154-.28l5.734-3.356c.84-.559 1.399-1.118 1.399-1.678 0-.559-.42-.979-.839-1.118l-6.714-3.916c-.699-.419-1.538-.559-2.657-.559zm-21.401 49.639c-1.259 0-2.378-.28-3.357-.839l-6.713-3.915c-.979-.559-1.539-1.398-1.539-2.237 0-.979.7-2.098 1.958-2.797l5.735-3.356c2.238-1.258 5.594-1.398 7.553-.279l6.713 3.915c.979.559 1.539 1.398 1.539 2.237 0 .979-.7 2.097-1.958 2.797l-5.735 3.355c-1.259.7-2.797 1.119-4.196 1.119zm.42-12.864c-1.259 0-2.518.28-3.497.839l-5.734 3.356c-.84.559-1.399 1.118-1.399 1.678 0 .559.42.978.839 1.118l6.714 3.915c1.538.839 4.336.7 6.154-.279l5.734-3.356c.839-.559 1.399-1.119 1.399-1.678 0-.559-.42-.979-.839-1.119l-6.714-3.915c-.699-.419-1.678-.559-2.657-.559zm41.961-11.606c-1.259 0-2.378-.279-3.357-.839l-6.713-3.915c-.979-.559-1.539-1.398-1.539-2.237 0-.979.699-2.097 1.958-2.797l5.735-3.355c2.238-1.259 5.594-1.399 7.552-.28l6.714 3.915c.979.559 1.538 1.398 1.538 2.237 0 .979-.699 2.098-1.958 2.797l-5.734 3.356c-1.259.699-2.797 1.118-4.196 1.118zm.42-12.864c-1.259 0-2.518.28-3.497.839l-5.735 3.356c-.839.559-1.398 1.119-1.398 1.678 0 .559.419.979.839 1.119l6.713 3.915c1.539.839 4.336.699 6.155-.28l5.734-3.356c.839-.559 1.399-1.118 1.399-1.678 0-.559-.42-.979-.84-1.118l-6.713-3.915c-.699-.42-1.678-.56-2.657-.56z"/></g><g opacity=".3"><path opacity=".3" d="M244.509 275.047c-1.259 0-2.378-.28-3.357-.839l-10.35-6.013c-.979-.559-1.538-1.398-1.538-2.237 0-.979.699-2.098 1.958-2.797l44.197-25.448c2.238-1.259 5.595-1.399 7.553-.28l10.35 6.013c.979.559 1.538 1.398 1.538 2.237 0 .979-.699 2.097-1.958 2.796l-44.197 25.449c-1.119.839-2.658 1.119-4.196 1.119zm-2.657-1.818c1.538.839 4.335.699 6.154-.28l44.197-25.448c.839-.56 1.399-1.119 1.399-1.678 0-.56-.42-.979-.84-1.119l-10.35-6.012c-1.538-.839-4.335-.7-6.154.279l-44.197 25.449c-.839.559-1.399 1.118-1.399 1.678 0 .559.42.978.84 1.118l10.35 6.013zm-113.571-7.83c-1.259 0-2.378-.28-3.357-.839l-6.714-3.915c-.979-.56-1.538-1.399-1.538-2.238 0-.978.699-2.097 1.958-2.796l21.959-12.725c2.238-1.258 5.594-1.398 7.553-.279l6.713 3.915c.979.559 1.539 1.398 1.539 2.237 0 .979-.7 2.098-1.959 2.797l-21.958 12.724c-1.259.699-2.798 1.119-4.196 1.119zm16.644-22.233c-1.259 0-2.518.28-3.497.839l-21.959 12.724c-.839.56-1.398 1.119-1.398 1.678 0 .56.419.979.839 1.119l6.713 3.915c1.539.839 4.336.699 6.154-.28l21.959-12.724c.839-.559 1.399-1.119 1.399-1.678 0-.559-.42-.979-.839-1.118l-6.714-3.916c-.699-.419-1.678-.559-2.657-.559z"/><path opacity=".3" d="M322.134 358.524c-1.398 0-2.657-.28-3.776-.839l-30.211-17.619.699-1.118 30.351 17.478c1.679.979 4.476.979 6.154 0l121.403-70.053c.699-.42 1.119-.979 1.119-1.399 0-.559-.42-.978-1.119-1.398L229.963 158.57c-1.678-.978-4.475-.978-6.154 0l-49.092 28.246c-.7.419-1.119.978-1.119 1.398 0 .559.419.979 1.119 1.398l43.777 25.169c1.679.979 4.476.979 6.154 0l22.379-12.864c2.098-1.259 5.315-1.259 7.413 0l73.429 42.368c1.119.699 1.678 1.538 1.678 2.516 0 .979-.559 1.818-1.678 2.517l-118.186 68.236c-2.098 1.259-5.315 1.259-7.413 0L78.21 245.963c-1.12-.7-1.679-1.539-1.679-2.517 0-.979.56-1.818 1.679-2.517l61.68-35.656c2.098-1.259 5.315-1.259 7.413 0l71.471 41.249c1.119.699 1.678 1.538 1.678 2.517 0 .979-.559 1.817-1.678 2.517l-31.33 18.037-.699-1.118 31.33-18.038c.699-.419 1.119-.979 1.119-1.398 0-.56-.42-.979-1.119-1.399l-71.471-41.249c-1.679-.978-4.476-.978-6.154 0l-61.68 35.656c-.7.42-1.12.979-1.12 1.399 0 .559.42.978 1.12 1.398l124.059 71.592c1.679.978 4.476.978 6.154 0L327.169 248.2c.7-.42 1.119-.979 1.119-1.399 0-.559-.419-.978-1.119-1.398l-73.289-42.368c-1.678-.978-4.476-.978-6.154 0L225.348 215.9c-2.098 1.258-5.315 1.258-7.413 0l-43.778-25.169c-1.119-.699-1.678-1.538-1.678-2.517 0-.979.559-1.818 1.678-2.517l49.093-28.245c2.098-1.259 5.315-1.259 7.413 0l216.651 125.005c1.119.7 1.678 1.539 1.678 2.517 0 .979-.559 1.818-1.678 2.517l-121.403 70.054c-.979.699-2.378.979-3.777.979z"/><path opacity=".3" d="M304.51 322.448l-13.707-7.97c-1.119-.699-1.678-1.538-1.678-2.517 0-.979.559-1.818 1.678-2.517l70.772-40.829c2.098-1.259 5.315-1.259 7.413 0l10.07 5.733c1.119.699 1.679 1.538 1.679 2.516 0 .979-.56 1.818-1.679 2.517l-74.548 43.067zm57.625-52.715l-70.632 40.83c-.7.419-1.119.979-1.119 1.398 0 .559.419.979 1.119 1.398l13.147 7.551.28-.14 73.429-42.367c.699-.42 1.119-.979 1.119-1.399 0-.419-.42-.979-1.119-1.398l-10.07-5.733c-1.539-1.119-4.476-1.119-6.154-.14zM173.177 387.328c-1.398 0-2.657-.28-3.776-.839L2.262 290.008c-1.119-.699-1.678-1.678-1.678-2.656 0-.979.56-1.818 1.678-2.517l19.581-11.326c2.099-1.259 5.315-1.259 7.413 0l26.155 15.101c1.119.699 1.678 1.538 1.678 2.517 0 .979-.559 1.818-1.678 2.517l-9.37 5.453c-.7.42-1.12.979-1.12 1.398 0 .56.42.979 1.12 1.399l118.325 68.375c1.678.979 4.476.979 6.154 0l7.972-4.614c.7-.42 1.119-.979 1.119-1.398 0-.56-.419-.979-1.119-1.399L73.314 301.894c-1.12-.7-1.679-1.539-1.679-2.517 0-.979.56-1.818 1.679-2.517l20.98-12.025c.699-.42 1.118-.979 1.118-1.399 0-.559-.42-.978-1.118-1.398l-42.52-24.47.7-1.118 42.519 24.469c1.119.7 1.678 1.539 1.678 2.517 0 .979-.56 1.818-1.678 2.517l-20.98 12.025c-.7.42-1.119.979-1.119 1.399 0 .559.42.978 1.12 1.398L179.47 361.6c1.119.699 1.679 1.538 1.679 2.517 0 .979-.56 1.818-1.679 2.517l-7.972 4.614c-2.098 1.258-5.315 1.258-7.413 0L45.76 302.872c-1.118-.699-1.678-1.538-1.678-2.516 0-.979.56-1.818 1.678-2.517l9.371-5.454c.7-.419 1.12-.978 1.12-1.398 0-.559-.42-.979-1.12-1.398l-26.154-15.102c-1.679-.978-4.476-.978-6.154 0L3.24 285.813c-.699.42-1.119.979-1.119 1.399 0 .559.42.979 1.12 1.398l167.138 96.481c1.679.979 4.476.979 6.154 0l96.088-55.372.699 1.119-96.087 55.371c-1.399.839-2.658 1.119-4.057 1.119z"/><path opacity=".3" d="M185.625 352.651c-1.259 0-2.378-.28-3.357-.839l-83.22-47.961c-.979-.559-1.538-1.398-1.538-2.237 0-.979.7-2.097 1.958-2.797l18.462-10.627c2.238-1.258 5.595-1.398 7.553-.279l83.22 47.961c.979.559 1.538 1.398 1.538 2.237 0 .979-.699 2.097-1.958 2.796l-18.462 10.627c-1.259.839-2.658 1.119-4.196 1.119zm-63.219-64.181c-1.259 0-2.518.28-3.497.839l-18.462 10.627c-.84.559-1.399 1.119-1.399 1.678 0 .559.42.979.84 1.119l83.219 47.96c1.539.839 4.336.699 6.154-.279l18.462-10.627c.84-.559 1.399-1.119 1.399-1.678 0-.559-.419-.979-.839-1.119l-83.22-47.961c-.839-.419-1.678-.559-2.657-.559zm102.102 126.404c-1.398 0-2.657-.28-3.776-.839l-32.589-18.877c-1.119-.699-1.678-1.538-1.678-2.517 0-.978.559-1.817 1.678-2.517l75.388-43.486c2.098-1.258 5.314-1.258 7.412 0l12.868 7.411c1.119.699 1.678 1.538 1.678 2.517 0 .979-.559 1.818-1.678 2.517l-52.729 30.482-.699-1.118 52.729-30.483c.699-.419 1.119-.979 1.119-1.398 0-.559-.42-.979-1.119-1.398l-12.868-7.411c-1.678-.979-4.476-.979-6.154 0l-75.387 43.486c-.7.42-1.119.979-1.119 1.398 0 .56.419.979 1.119 1.399l32.588 18.876c1.679.979 4.476.979 6.154 0l81.122-46.842.699 1.119-81.121 46.842c-.979.559-2.378.839-3.637.839zM144.505 231.56c-1.258 0-2.377-.279-3.356-.839l-6.714-3.915c-.979-.559-1.539-1.398-1.539-2.237 0-.979.7-2.097 1.959-2.797l5.734-3.355c2.238-1.259 5.595-1.399 7.553-.28l6.713 3.915c.979.559 1.539 1.398 1.539 2.237 0 .979-.7 2.098-1.958 2.797l-5.735 3.356c-1.119.699-2.657 1.118-4.196 1.118zm-2.657-1.957c1.538.839 4.336.699 6.154-.28l5.734-3.356c.84-.559 1.399-1.118 1.399-1.678 0-.559-.42-.978-.839-1.118l-6.714-3.915c-1.538-.839-4.336-.7-6.154.279l-5.734 3.356c-.839.559-1.399 1.119-1.399 1.678 0 .559.42.979.839 1.119l6.714 3.915zm23.917 14.122c-1.259 0-2.378-.279-3.357-.839l-6.713-3.915c-.979-.559-1.539-1.398-1.539-2.237 0-.979.7-2.097 1.958-2.797l5.735-3.356c2.238-1.258 5.594-1.398 7.553-.279l6.713 3.915c.979.559 1.539 1.398 1.539 2.237 0 .979-.7 2.098-1.959 2.797l-5.734 3.356c-1.259.839-2.797 1.118-4.196 1.118zm.42-12.864c-1.259 0-2.518.28-3.497.839l-5.734 3.356c-.84.559-1.399 1.119-1.399 1.678 0 .559.419.979.839 1.119l6.714 3.915c1.538.839 4.335.699 6.154-.28l5.734-3.356c.839-.559 1.399-1.118 1.399-1.678 0-.559-.42-.979-.839-1.118l-6.714-3.916c-.699-.279-1.678-.559-2.657-.559zm20.699 25.169c-1.259 0-2.378-.279-3.357-.839l-6.713-3.915c-.979-.559-1.539-1.398-1.539-2.237 0-.979.7-2.098 1.959-2.797l5.734-3.356c2.238-1.258 5.595-1.398 7.553-.279l6.713 3.915c.979.559 1.539 1.398 1.539 2.237 0 .979-.7 2.098-1.958 2.797l-5.735 3.356c-1.119.699-2.657 1.118-4.196 1.118zm-2.657-1.957c1.538.839 4.336.699 6.154-.28l5.734-3.356c.839-.559 1.399-1.119 1.399-1.678 0-.559-.42-.979-.839-1.118l-6.714-3.916c-1.538-.839-4.336-.699-6.154.28l-5.734 3.356c-.839.559-1.399 1.119-1.399 1.678 0 .559.42.979.839 1.118l6.714 3.916zm-60.981-10.208c-1.259 0-2.378-.28-3.357-.839l-6.714-3.915c-.979-.559-1.538-1.398-1.538-2.237 0-.979.699-2.098 1.958-2.797l5.734-3.356c2.238-1.258 5.595-1.398 7.553-.279l6.714 3.915c.979.559 1.538 1.398 1.538 2.237 0 .979-.699 2.097-1.958 2.797l-5.735 3.355c-1.258.7-2.657 1.119-4.195 1.119zm.419-12.864c-1.259 0-2.517.28-3.497.839l-5.734 3.356c-.839.559-1.399 1.118-1.399 1.678 0 .559.42.978.84 1.118l6.713 3.915c1.539.839 4.336.7 6.154-.279l5.735-3.356c.839-.559 1.398-1.119 1.398-1.678 0-.559-.419-.979-.839-1.119l-6.713-3.915c-.7-.419-1.679-.559-2.658-.559zm41.959 37.194c-1.258 0-2.377-.28-3.356-.839l-6.714-3.915c-.979-.559-1.538-1.398-1.538-2.237 0-.979.699-2.098 1.958-2.797l5.734-3.356c2.238-1.258 5.595-1.398 7.553-.279l6.713 3.915c.979.559 1.539 1.398 1.539 2.237 0 .979-.699 2.097-1.958 2.797l-5.735 3.355c-1.258.839-2.797 1.119-4.196 1.119zm-2.657-1.818c1.539.839 4.336.699 6.154-.279l5.735-3.356c.839-.56 1.398-1.119 1.398-1.678 0-.56-.419-.979-.839-1.119l-6.714-3.915c-1.538-.839-4.335-.699-6.154.28l-5.734 3.356c-.839.559-1.399 1.118-1.399 1.677 0 .56.42.979.839 1.119l6.714 3.915z"/></g></g><path d="M455.565 308.605c-3.077 0-6.014-.699-8.392-1.957l-32.868-18.877.699-1.119 32.868 18.877c4.196 2.377 11.05 2.377 15.386 0l83.639-48.241c1.958-1.118 2.937-2.516 2.937-4.055 0-1.538-1.119-2.936-2.937-4.055L418.78 175.21c-2.377-1.399-3.636-3.216-3.636-5.174 0-1.957 1.259-3.915 3.636-5.173l33.288-19.157.7 1.119-33.288 19.156c-1.958 1.119-2.937 2.517-2.937 4.055 0 1.538 1.118 2.937 2.937 4.055l128.116 73.969c2.378 1.398 3.637 3.216 3.637 5.173 0 1.958-1.259 3.916-3.637 5.174l-83.639 48.241c-2.378 1.398-5.315 1.957-8.392 1.957zM268.706 418.929l-111.473-64.321c-2.797-1.538-4.196-3.775-4.196-6.012 0-2.377 1.539-4.475 4.196-6.013l46.575-26.847.699 1.119-46.575 26.847c-2.237 1.258-3.496 3.076-3.496 4.894s1.259 3.495 3.496 4.894l111.473 64.32-.699 1.119zM92.335 313.919c-3.356 0-6.713-.7-9.23-2.238L24.36 277.843c-2.658-1.538-4.056-3.496-4.056-5.733 0-2.237 1.398-4.195 4.056-5.733l205.182-118.433c2.098-1.259 3.357-2.797 3.357-4.475 0-1.678-1.119-3.356-3.357-4.474l-33.148-19.157.699-1.118 33.148 19.156c2.658 1.538 4.056 3.496 4.056 5.733 0 2.237-1.398 4.195-4.056 5.733L25.06 267.636c-2.098 1.258-3.357 2.796-3.357 4.474 0 1.678 1.12 3.356 3.357 4.475l58.743 33.838c4.756 2.657 12.309 2.657 17.064 0l47.135-27.127.699 1.119-47.135 27.127c-2.517 1.678-5.874 2.377-9.23 2.377z" fill="#09BD30"/><path d="M284.93 359.502c-4.336 0-8.952-1.118-12.588-3.076l-143.921-83.057c-3.637-2.098-5.595-4.894-5.595-7.691 0-2.377 1.399-4.474 4.056-6.012L273.88 174.79c5.735-3.355 15.665-2.936 22.239.839l143.921 83.058c3.637 2.097 5.595 4.894 5.595 7.69 0 2.377-1.399 4.475-4.056 6.013l-146.998 84.875c-2.518 1.538-6.015 2.237-9.651 2.237zm-1.399-185.551c-3.357 0-6.573.7-9.091 2.098l-146.858 84.875c-2.238 1.259-3.357 2.936-3.357 4.894 0 2.237 1.818 4.614 4.895 6.432l143.921 83.058c6.154 3.635 15.525 3.915 20.98.839l146.998-84.876c2.238-1.258 3.357-2.936 3.357-4.894 0-2.237-1.818-4.614-4.895-6.432L295.56 176.888c-3.497-1.958-7.833-2.937-12.029-2.937zm265.604 127.943c-1.819 0-3.637-.42-5.315-1.399l-34.966-20.275.559-.979 34.966 20.275a9.614 9.614 0 0 0 9.511 0l99.444-56.769c.42-.28.7-.7.7-1.259 0-.559-.28-.979-.7-1.258l-37.624-22.652.56-.839 37.624 22.652c.839.419 1.258 1.258 1.258 2.237 0 .839-.419 1.678-1.258 2.097l-99.444 56.77c-1.539.979-3.357 1.399-5.315 1.399z" fill="#09BD30"/><path opacity=".2" d="M197.954 396.704L175.296 383.7c-2.797-1.538-2.378-4.334.839-6.152l21.819-12.585c3.217-1.817 7.972-2.097 10.77-.419l22.658 13.004c2.797 1.538 2.378 4.335-.839 6.152l-21.819 12.585c-3.217 1.818-7.973 1.957-10.77.419z" fill="#136112"/><path d="M202.43 402.018c-2.238 0-4.336-.419-6.014-1.398l-27.693-15.941c-1.679-.978-2.518-2.237-2.518-3.775 0-1.678 1.259-3.496 3.497-4.754l26.574-15.381c4.056-2.377 10.21-2.517 13.707-.559l27.693 15.94c1.678.979 2.518 2.237 2.518 3.775 0 1.678-1.259 3.496-3.497 4.754l-26.574 15.381c-2.098 1.399-5.035 1.958-7.693 1.958zm1.679-41.948c-2.518 0-5.036.559-7.134 1.818l-26.574 15.381c-1.818 1.118-2.937 2.516-2.937 3.775 0 1.118.699 2.097 1.958 2.796l27.693 15.941c3.217 1.818 8.812 1.538 12.588-.56l26.574-15.381c1.819-1.118 2.938-2.516 2.938-3.775 0-1.119-.7-2.097-1.958-2.796l-27.694-15.941c-1.398-.839-3.357-1.258-5.454-1.258z" fill="#09BD30"/><path d="M233.201 354.896h-19.162l-5.314-3.076c-2.798-1.538-7.553-1.398-10.77.419l-5.315 3.077h-19.161v12.864c-.14 1.118.559 2.097 1.818 2.936l22.658 13.004c2.797 1.538 7.553 1.398 10.77-.419l21.819-12.585c1.678-.979 2.517-2.097 2.657-3.356v-12.864z" fill="url(#paint0_linear)"/><path d="M197.954 371.256l-22.658-13.004c-2.797-1.538-2.378-4.335.839-6.152l21.819-12.585c3.217-1.818 7.972-2.097 10.77-.419l22.658 13.004c2.797 1.538 2.378 4.334-.839 6.152l-21.819 12.584c-3.217 1.818-7.973 2.098-10.77.42z" fill="url(#paint1_linear)"/><path opacity=".2" d="M503.308 295.242l-22.659-13.004c-2.797-1.538-2.377-4.335.84-6.153l21.819-12.584c3.216-1.818 7.972-2.098 10.769-.42l22.658 13.004c2.798 1.538 2.378 4.335-.839 6.153l-21.819 12.584c-3.217 1.818-7.972 1.958-10.769.42z" fill="#136112"/><path d="M507.784 300.555c-2.238 0-4.336-.419-6.015-1.398l-27.693-15.94c-1.678-.979-2.517-2.238-2.517-3.776 0-1.678 1.258-3.495 3.496-4.754l26.575-15.381c4.056-2.377 10.21-2.517 13.706-.559l27.694 15.94c1.678.979 2.517 2.237 2.517 3.775 0 1.678-1.259 3.496-3.496 4.755l-26.575 15.381c-2.098 1.398-5.035 1.957-7.692 1.957zm1.678-41.948c-2.518 0-5.035.559-7.133 1.818l-26.574 15.381c-1.819 1.118-2.938 2.517-2.938 3.775 0 1.119.7 2.098 1.958 2.797l27.694 15.94c3.217 1.818 8.811 1.538 12.588-.559l26.574-15.381c1.818-1.119 2.937-2.517 2.937-3.776 0-1.118-.699-2.097-1.958-2.796l-27.693-15.941c-1.399-.839-3.357-1.258-5.455-1.258z" fill="#09BD30"/><path d="M538.555 253.433h-19.162l-5.315-3.076c-2.797-1.538-7.553-1.398-10.77.42l-5.314 3.076h-19.162v12.864c-.14 1.119.56 2.097 1.818 2.936l22.658 13.004c2.798 1.538 7.553 1.399 10.77-.419l21.819-12.585c1.678-.978 2.518-2.097 2.658-3.356v-12.864z" fill="url(#paint2_linear)"/><path d="M503.308 269.793l-22.659-13.004c-2.797-1.538-2.377-4.334.84-6.152l21.819-12.585c3.216-1.817 7.972-2.097 10.769-.419l22.658 13.004c2.798 1.538 2.378 4.334-.839 6.152l-21.819 12.585c-3.217 1.817-7.972 2.097-10.769.419z" fill="url(#paint3_linear)"/><path d="M508.574 261.064c7.415 0 13.427-3.444 13.427-7.691s-6.012-7.69-13.427-7.69c-7.416 0-13.428 3.443-13.428 7.69s6.012 7.691 13.428 7.691z" fill="#91F66D"/><path d="M499.202 250.157c5.175-3.076 13.707-3.076 19.022 0 2.098 1.259 3.357 2.797 3.776 4.335.56-2.377-.699-4.754-3.776-6.572-5.175-3.076-13.707-3.076-19.022 0-3.077 1.818-4.335 4.195-3.776 6.572.28-1.678 1.539-3.216 3.776-4.335z" fill="#00CC06"/><path opacity=".2" d="M51.075 310.703l-22.658-13.004c-2.797-1.538-2.378-4.335.84-6.153l21.818-12.584c3.217-1.818 7.972-2.098 10.77-.42l22.658 13.004c2.797 1.538 2.378 4.335-.84 6.153l-21.818 12.584c-3.217 1.818-7.972 1.958-10.77.42z" fill="#136112"/><path d="M55.551 316.016c-2.238 0-4.336-.419-6.014-1.398l-27.693-15.94c-1.679-.979-2.518-2.238-2.518-3.776 0-1.678 1.259-3.495 3.497-4.754l26.574-15.381c4.056-2.377 10.21-2.517 13.707-.559l27.693 15.94c1.679.979 2.518 2.237 2.518 3.775 0 1.678-1.259 3.496-3.497 4.755l-26.574 15.381c-2.098 1.398-5.035 1.957-7.693 1.957zm1.679-41.948c-2.518 0-5.035.559-7.133 1.818l-26.575 15.381c-1.818 1.118-2.937 2.517-2.937 3.775 0 1.119.7 2.097 1.958 2.797l27.693 15.94c3.217 1.818 8.812 1.538 12.588-.559L89.4 297.839c1.818-1.119 2.937-2.517 2.937-3.776 0-1.118-.7-2.097-1.958-2.796l-27.694-15.941c-1.398-.839-3.356-1.258-5.454-1.258z" fill="#09BD30"/><path d="M86.322 268.894H67.161l-5.315-3.076c-2.798-1.538-7.553-1.398-10.77.42l-5.315 3.076H26.6v12.864c-.14 1.118.56 2.097 1.818 2.936l22.658 13.004c2.797 1.538 7.553 1.398 10.77-.419l21.819-12.585c1.678-.979 2.517-2.097 2.657-3.356v-12.864z" fill="url(#paint4_linear)"/><path d="M51.075 285.254L28.417 272.25c-2.797-1.538-2.378-4.334.84-6.152l21.818-12.585c3.217-1.817 7.972-2.097 10.77-.419l22.658 13.004c2.797 1.538 2.378 4.334-.84 6.152l-21.818 12.585c-3.217 1.817-7.972 2.097-10.77.419z" fill="url(#paint5_linear)"/><path opacity=".2" d="M292.621 460.597l44.477-25.728c3.217-1.818 2.797-5.034-.839-7.131l-42.659-24.61c-3.637-2.097-9.231-2.377-12.308-.559l-44.477 25.728c-3.217 1.818-2.798 5.034.839 7.131l42.659 24.61c3.636 2.097 9.091 2.377 12.308.559z" fill="#136112"/><path d="M287.307 467.728c-2.937 0-6.014-.699-8.532-2.097l-50.212-29.084c-2.377-1.398-3.776-3.356-3.776-5.174 0-1.678.979-3.076 2.797-4.055l52.45-30.202c3.916-2.238 10.63-1.958 15.105.559l50.352 29.084c2.377 1.398 3.776 3.356 3.776 5.174 0 1.678-.979 3.076-2.797 4.055l-52.45 30.202c-1.818.979-4.196 1.538-6.713 1.538zm-.839-71.172c-2.238 0-4.476.42-6.015 1.399l-52.449 30.202c-1.399.839-2.238 1.958-2.238 3.216 0 1.538 1.259 3.077 3.357 4.335l50.351 29.084c4.196 2.377 10.49 2.657 13.987.559l52.449-30.202c1.399-.839 2.238-1.958 2.238-3.216 0-1.538-1.259-3.077-3.357-4.335l-50.351-29.084c-2.238-1.259-5.175-1.958-7.972-1.958z" fill="#09BD30"/><path d="M234.578 405.505h22.099l24.616-14.122c3.217-1.818 8.672-1.538 12.308.559l23.637 13.703h22.099v14.822c.14 1.258-.559 2.377-2.098 3.356l-44.477 25.728c-3.217 1.818-8.672 1.538-12.308-.559l-42.659-24.61c-1.958-1.119-2.937-2.517-2.937-3.775v-15.102h-.28z" fill="url(#paint6_linear)"/><path d="M292.621 434.589l44.477-25.728c3.217-1.818 2.797-5.034-.839-7.131L293.6 377.12c-3.637-2.097-9.231-2.377-12.308-.559l-44.477 25.728c-3.217 1.818-2.798 5.034.839 7.131l42.659 24.61c3.636 2.098 9.091 2.377 12.308.559z" fill="url(#paint7_linear)"/><path d="M291.224 427.179l33.148-19.157c2.377-1.398 2.098-3.775-.7-5.313l-31.749-18.317c-2.657-1.539-6.853-1.678-9.231-.42l-33.148 19.156c-2.378 1.399-2.098 3.776.699 5.314l31.75 18.317c2.657 1.538 6.853 1.678 9.231.42z" fill="#00CC06"/><path d="M289.965 421.166l24.056-13.843c1.679-.979 1.539-2.656-.419-3.775l-23.078-13.284c-1.958-1.118-4.895-1.258-6.713-.279l-24.057 13.843c-1.679.978-1.539 2.656.419 3.775l23.078 13.284c2.098 1.118 5.035 1.258 6.714.279z" fill="#91F66D"/><path d="M313.461 405.366l-23.078-13.284c-1.958-1.119-4.895-1.258-6.713-.28l-24.057 13.843c-.42.28-.699.42-.839.699-.56-.978-.28-1.957.839-2.656l24.057-13.843c1.678-.979 4.755-.839 6.713.279l23.078 13.284c1.539.839 1.958 2.097 1.259 3.076-.14-.279-.56-.699-1.259-1.118z" fill="#26E572"/><path d="M313.46 407.603l-23.078-13.284c-1.958-1.119-4.895-1.258-6.713-.28l-24.057 13.843c-.28.14-.559.42-.699.56-.699-.979-.56-2.098.699-2.797l24.057-13.843c1.678-.979 4.755-.839 6.713.28l23.078 13.283c1.679.979 2.098 2.238 1.119 3.216-.14-.279-.559-.699-1.119-.978z" fill="#53EB2F"/><path d="M314.44 411.099c-.28-.28-.559-.56-.979-.7l-23.078-13.283c-1.958-1.119-4.895-1.259-6.713-.28l-24.057 13.843c-.14.14-.28.28-.42.28-.979-1.119-.839-2.377.42-3.077l24.057-13.842c1.678-.979 4.755-.839 6.713.279l23.078 13.284c1.818.979 2.098 2.517.979 3.496z" fill="#18F721"/><path opacity=".2" d="M487.816 154.276l44.477-25.728c3.217-1.818 2.798-5.034-.839-7.131l-42.659-24.61c-3.636-2.097-9.231-2.377-12.308-.559l-44.477 25.728c-3.217 1.818-2.797 5.034.839 7.131l42.659 24.61c3.637 2.097 9.091 2.377 12.308.559z" fill="#136112"/><path d="M482.502 161.407c-2.937 0-6.014-.699-8.532-2.097l-50.211-29.084c-2.378-1.398-3.777-3.356-3.777-5.174 0-1.678.979-3.076 2.798-4.055l52.449-30.202c3.916-2.238 10.63-1.958 15.106.559l50.351 29.084c2.378 1.398 3.776 3.356 3.776 5.174 0 1.678-.979 3.076-2.797 4.055l-52.449 30.202c-1.819.979-4.196 1.538-6.714 1.538zm-.839-71.172c-2.238 0-4.476.42-6.014 1.398l-52.45 30.203c-1.398.839-2.238 1.958-2.238 3.216 0 1.538 1.259 3.077 3.357 4.335l50.352 29.084c4.196 2.377 10.49 2.657 13.986.559l52.45-30.202c1.398-.839 2.237-1.958 2.237-3.216 0-1.538-1.258-3.077-3.356-4.335l-50.352-29.084c-2.238-1.259-5.175-1.958-7.972-1.958z" fill="#09BD30"/><path d="M429.773 99.184h22.099l24.616-14.122c3.217-1.818 8.672-1.538 12.309.56l23.637 13.702h22.098v14.822c.14 1.258-.559 2.377-2.098 3.356l-44.477 25.728c-3.217 1.818-8.671 1.538-12.308-.559l-42.659-24.61c-1.958-1.119-2.937-2.517-2.937-3.775V99.184h-.28z" fill="url(#paint8_linear)"/><path d="M487.816 128.268l44.477-25.728c3.217-1.818 2.798-5.034-.839-7.131l-42.659-24.61c-3.636-2.097-9.231-2.377-12.308-.559L432.01 95.968c-3.217 1.818-2.797 5.034.839 7.131l42.659 24.61c3.637 2.098 9.091 2.377 12.308.559z" fill="url(#paint9_linear)"/><path d="M486.419 120.858l33.148-19.157c2.378-1.398 2.098-3.775-.699-5.313l-31.75-18.318c-2.657-1.538-6.853-1.677-9.231-.419l-33.148 19.156c-2.378 1.399-2.098 3.776.7 5.314l31.749 18.317c2.657 1.538 6.853 1.678 9.231.42z" fill="#00CC06"/><path d="M485.16 114.845l24.057-13.843c1.678-.979 1.538-2.656-.42-3.775l-23.078-13.284c-1.958-1.118-4.895-1.258-6.713-.28l-24.057 13.844c-1.678.978-1.538 2.656.42 3.775l23.077 13.283c2.098 1.119 5.036 1.259 6.714.28z" fill="#91F66D"/><path d="M508.656 99.045L485.579 85.76c-1.958-1.119-4.896-1.258-6.714-.28l-24.057 13.843c-.419.28-.699.42-.839.699-.559-.978-.28-1.957.839-2.656l24.057-13.843c1.679-.98 4.756-.84 6.714.28l23.077 13.283c1.539.839 1.959 2.097 1.259 3.076-.14-.28-.559-.699-1.259-1.118z" fill="#26E572"/><path d="M508.656 101.282l-23.078-13.284c-1.958-1.119-4.895-1.258-6.714-.28l-24.057 13.843c-.279.14-.559.42-.699.56-.699-.979-.559-2.098.699-2.797l24.057-13.843c1.679-.979 4.756-.839 6.714.28l23.078 13.283c1.678.979 2.098 2.238 1.118 3.216-.139-.279-.559-.699-1.118-.978z" fill="#53EB2F"/><path d="M509.635 104.777c-.279-.279-.559-.559-.979-.699l-23.077-13.283c-1.959-1.119-4.896-1.259-6.714-.28l-24.057 13.843c-.14.14-.28.28-.419.28-.979-1.119-.84-2.377.419-3.077l24.057-13.843c1.678-.978 4.755-.839 6.714.28l23.077 13.284c1.819.979 2.098 2.517.979 3.495z" fill="#18F721"/><path d="M574.871 237.573c-5.455 0-11.19-1.259-15.525-3.915-4.336-2.517-6.854-5.873-6.854-9.229 0-2.796 1.818-5.453 4.895-7.271l60.282-34.817c7.133-4.055 19.442-3.635 27.554 1.119 4.336 2.517 6.853 5.872 6.853 9.228 0 2.797-1.818 5.454-4.895 7.271l-60.282 34.817c-3.217 1.958-7.553 2.797-12.028 2.797zm54.827-56.91c-4.336 0-8.392.839-11.469 2.657l-60.282 34.817c-2.797 1.678-4.476 3.915-4.476 6.292 0 2.936 2.378 6.013 6.294 8.39 7.833 4.474 19.721 5.034 26.575 1.118l60.281-34.817c2.798-1.678 4.476-3.915 4.476-6.292 0-2.936-2.378-6.012-6.294-8.39-4.336-2.516-9.93-3.775-15.105-3.775z" fill="#09BD30"/><path d="M565.079 217.158l7.133-1.258 66.296-38.453 6.993-6.292 6.993-10.207 3.637-10.488.979-8.809-1.679-6.711-3.916-5.314-5.594-1.398-28.673-15.661s-33.428 22.932-34.826 23.491c-1.399.56-22.938 44.885-22.938 44.885l-4.755 29.923 5.314 4.894 5.036 1.398z" fill="#4A0E91"/><path d="M525.078 187.934c0-11.466 8.112-25.448 18.043-31.181 2.377-1.399 4.755-2.238 6.853-2.377.979-10.348 8.252-21.953 16.924-26.987 1.259-.699 2.377-1.259 3.496-1.538 2.658-8.39 8.672-16.779 15.525-20.695 4.896-2.796 9.371-2.936 12.448-.978l12.588 6.851c3.357-.839 6.294-.559 8.672.699l.28.14 31.189 16.919-7.972-.14-9.651 3.636-.699-6.292-3.916-4.335-3.217-1.398-1.259-.14-5.035 1.678c-.14-.699-1.119-.42-1.538-.42-2.518 1.538-4.056 4.055-6.015 5.454-6.014 4.055-6.014 13.143-11.049 16.639-7.972 6.013-15.525 14.262-19.441 23.351-.28.56 0 .839.419 1.259l-.839 4.474-6.993 1.958-6.714 5.313-6.014 7.691-2.098 4.754-2.377 6.432-.56 6.432.56 4.894 4.475 7.131-30.49-17.478.279.14c-3.496-1.678-5.874-5.733-5.874-11.886z" fill="url(#paint10_linear)"/><path d="M581.445 166.82c4.056-8.949 10.35-20.275 20.28-23.351 1.539-4.474 4.196-12.584 10.21-16.5 1.958-1.538 3.497-4.055 6.015-5.453.419 0 1.538-.279 1.538.42h-.14c0 13.563-9.511 29.923-21.259 36.634l-16.225 9.369v.14c-.419-.42-.699-.839-.419-1.259z" fill="#35047C"/><path d="M573.752 173.951c2.377-1.398 4.755-2.237 6.853-2.377.979-10.347 8.252-22.092 17.063-27.126 1.259-.699 2.378-1.259 3.497-1.678 2.658-8.53 8.672-16.779 15.665-20.834 9.511-5.454 17.063-.979 17.203 9.787.7-.559 1.399-.978 2.238-1.398 11.889-6.851 21.4-1.258 21.4 12.305 0 13.703-9.651 30.203-21.4 37.054l-62.38 36.076c-10.07 5.733-18.042 1.118-18.042-10.487-.28-11.606 7.832-25.589 17.903-31.322z" fill="url(#paint11_linear)"/><path d="M622.564 162.346c0 2.936 2.098 4.194 4.616 2.656 2.518-1.538 4.616-5.033 4.616-8.11 0-2.936-2.098-4.195-4.616-2.656-2.518 1.538-4.616 5.173-4.616 8.11z" fill="#91F66D"/><path d="M624.943 163.884c2.518-1.538 4.616-5.034 4.616-8.11 0-.839-.14-1.678-.56-2.098 1.679-.14 2.798 1.119 2.798 3.356 0 2.937-2.098 6.572-4.616 8.11-1.818.979-3.357.699-4.056-.559.559-.14 1.119-.28 1.818-.699z" fill="#00CC06"/><path d="M608.299 170.595c0 2.937 2.098 4.195 4.615 2.657 2.518-1.538 4.616-5.034 4.616-8.11 0-2.936-2.098-4.195-4.616-2.657-2.517 1.538-4.615 5.174-4.615 8.11zm-14.406 8.39c0 2.936 2.098 4.195 4.615 2.657 2.518-1.538 4.616-5.034 4.616-8.11 0-3.076-2.098-4.195-4.616-2.657-2.517 1.398-4.615 5.034-4.615 8.11z" fill="#91F66D"/><path d="M610.537 172.133c2.518-1.538 4.615-5.033 4.615-8.11 0-.838-.139-1.677-.559-2.097 1.678-.14 2.797 1.119 2.797 3.356 0 2.936-2.098 6.572-4.615 8.11-1.818.979-3.357.699-4.056-.559.559 0 1.259-.28 1.818-.7zm-14.268 8.39c2.518-1.538 4.616-5.034 4.616-8.11 0-.839-.14-1.678-.56-2.097 1.679-.14 2.798 1.118 2.798 3.356 0 2.936-2.098 6.571-4.616 8.11-1.818.978-3.357.699-4.056-.56.56-.14 1.119-.419 1.818-.699z" fill="#00CC06"/><path d="M230.031 101.594h22.239l24.756-14.262c3.217-1.818 8.811-1.538 12.448.56l23.777 13.702h22.239v64.321c.139 1.259-.56 2.377-2.098 3.356l-44.757 25.868c-3.217 1.818-8.812 1.538-12.448-.559l-43.079-24.89c-1.958-1.118-2.937-2.516-3.077-3.775v-64.321z" fill="url(#paint12_linear)"/><path d="M288.495 130.831l44.757-25.868c3.217-1.817 2.798-5.033-.839-7.13l-42.938-24.89c-3.637-2.097-9.232-2.377-12.448-.56l-44.757 25.87c-3.217 1.817-2.798 5.033.839 7.131l42.938 24.889c3.637 2.098 9.232 2.377 12.448.559z" fill="url(#paint13_linear)"/><path d="M287.097 123.268l33.288-19.296c2.378-1.399 2.098-3.776-.699-5.314l-32.029-18.457c-2.798-1.538-6.854-1.818-9.232-.42l-33.287 19.297c-2.378 1.398-2.098 3.775.699 5.313l32.029 18.457c2.657 1.678 6.853 1.818 9.231.42z" fill="#00CC06"/><path d="M285.837 117.255l24.197-13.983c1.678-.978 1.538-2.656-.42-3.915l-23.218-13.423c-1.958-1.119-5.035-1.259-6.713-.28l-24.197 13.983c-1.678.979-1.538 2.657.42 3.915l23.217 13.423c1.958 1.259 5.035 1.399 6.714.28z" fill="#91F66D"/><path d="M309.475 101.455l-23.217-13.424c-1.958-1.118-5.036-1.258-6.714-.28l-24.197 13.983c-.419.28-.699.42-.839.699-.559-.978-.279-1.957.839-2.656l24.197-13.983c1.678-.979 4.756-.839 6.714.28l23.217 13.423c1.539.839 1.958 2.097 1.259 3.076-.14-.419-.559-.839-1.259-1.118z" fill="#26E572"/><path d="M309.474 103.692l-23.217-13.424c-1.958-1.118-5.035-1.258-6.714-.28l-24.196 13.983c-.28.14-.56.42-.7.56-.699-.979-.559-2.098.7-2.797l24.196-13.983c1.679-.978 4.756-.839 6.714.28l23.217 13.424c1.679.978 2.098 2.237 1.119 3.216-.14-.42-.559-.7-1.119-.979z" fill="#59EC25"/><path d="M310.454 107.188c-.28-.28-.559-.56-.979-.7l-23.218-13.423c-1.958-1.119-5.035-1.258-6.713-.28l-24.197 13.983c-.14.14-.279.28-.419.28-.979-1.119-.84-2.377.419-3.076l24.197-13.983c1.678-.979 4.755-.84 6.713.28l23.218 13.423c1.818.979 2.238 2.517.979 3.496z" fill="#18F721"/><path d="M267.234 178.08l2.518 1.398c.699.42 1.119 0 1.119-.839v-34.677c0-.839-.56-1.818-1.119-2.237l-2.518-1.398c-.699-.42-1.119 0-1.119.839v34.677c0 .839.56 1.957 1.119 2.237z" fill="#75FF89"/><path d="M267.235 140.327l.56.279v34.118c0 .839.559 1.818 1.119 2.237l1.818 1.119v.559c0 .839-.56 1.259-1.119.839l-2.518-1.398c-.699-.419-1.118-1.398-1.118-2.237v-34.677c.139-.839.699-1.259 1.258-.839z" fill="#00CC06"/><path d="M258.144 172.767l2.518 1.398c.699.419 1.119 0 1.119-.839v-34.677c0-.839-.56-1.818-1.119-2.238l-2.518-1.398c-.699-.419-1.119 0-1.119.839v34.677c0 .979.42 1.958 1.119 2.238zm-9.091-5.174l2.517 1.398c.699.42 1.119 0 1.119-.839v-34.677c0-.839-.559-1.818-1.119-2.237l-2.517-1.399c-.7-.419-1.119 0-1.119.839v34.678c-.14.839.419 1.817 1.119 2.237zm-9.231-5.313l2.518 1.398c.699.419 1.119 0 1.119-.839v-34.677c0-.839-.56-1.818-1.119-2.238l-2.518-1.398c-.699-.419-1.119 0-1.119.839v34.677c0 .839.56 1.818 1.119 2.238z" fill="#75FF89"/><path d="M258.144 135.013l.559.28v34.118c0 .839.559 1.817 1.119 2.237l1.818 1.118v.56c0 .839-.559 1.258-1.119.839l-2.517-1.399c-.7-.419-1.119-1.398-1.119-2.237v-34.677c.14-.839.559-1.119 1.259-.839zm-9.092-5.174l.559.28v34.118c0 .839.56 1.818 1.119 2.237l1.818 1.119v.559c0 .839-.559 1.259-1.119.839l-2.517-1.398c-.699-.42-1.119-1.398-1.119-2.237v-34.678c0-.839.559-1.258 1.259-.839zm-9.231-5.313l.56.28v34.118c0 .839.559 1.817 1.119 2.237l1.818 1.119v.559c0 .839-.56 1.258-1.119.839l-2.518-1.398c-.699-.42-1.119-1.399-1.119-2.238v-34.677c.14-.839.7-1.258 1.259-.839z" fill="#00CC06"/><path d="M292.132 182.415c-.279 0-.419 0-.699-.14-.56-.28-.839-.979-.839-1.818v-36.635c0-1.538.839-3.076 1.958-3.775l32.309-18.737c.559-.279 1.119-.419 1.538-.14.56.28.839.979.839 1.818v36.635c0 1.538-.839 3.076-1.958 3.775l-32.309 18.737c-.139.14-.419.28-.839.28zm33.848-60.685c-.14 0-.42.14-.56.14l-32.309 18.736c-.839.56-1.678 1.958-1.678 3.077v36.634c0 .56.14.979.42 1.119.279.14.559 0 .839-.14l32.448-18.597c.84-.559 1.679-1.957 1.679-3.076v-36.635c0-.559-.14-.979-.42-1.118-.28-.14-.28-.14-.419-.14z" fill="#9AFFB0"/><path d="M321.084 130.119c0 .979.699 1.398 1.539.979.839-.56 1.538-1.678 1.538-2.657 0-.979-.699-1.398-1.538-.839-.84.28-1.539 1.538-1.539 2.517zm0 5.174c0 .978.699 1.398 1.539.839.839-.56 1.538-1.678 1.538-2.657 0-.979-.699-1.398-1.538-.839-.84.419-1.539 1.538-1.539 2.657zm2.783 4.748c.618-1.07.631-2.219.029-2.566-.602-.348-1.591.238-2.209 1.308-.618 1.07-.631 2.219-.029 2.567.602.347 1.592-.239 2.209-1.309z" fill="#75FF89"/><path d="M321.923 140.606c.839-.559 1.539-1.678 1.539-2.657 0-.139 0-.279-.14-.559.559 0 .839.42.839 1.119 0 .978-.699 2.237-1.538 2.656-.7.42-1.259.14-1.539-.419.28.14.559 0 .839-.14zm0-5.033c.839-.56 1.539-1.678 1.539-2.657 0-.14 0-.28-.14-.56.559 0 .839.42.839 1.119 0 .979-.699 2.237-1.538 2.657-.7.419-1.259.14-1.539-.42.28 0 .559 0 .839-.139zm0-5.174c.839-.56 1.539-1.678 1.539-2.657 0-.14 0-.28-.14-.559.559 0 .839.419.839 1.118 0 .979-.699 2.238-1.538 2.657-.7.42-1.259.14-1.539-.419.28.139.559 0 .839-.14z" fill="#00CC06"/><path d="M295.069 164.097l.979-.559c.28-.14.56-.699.56-1.119v-5.033c0-.42-.28-.7-.56-.42l-.979.559c-.28.14-.559.7-.559 1.119v5.034c0 .279.279.559.559.419z" fill="#9AFFB0"/><path d="M294.02 91.873c0 1.118.979 2.097 2.098 2.097 1.118 0 2.098-.979 2.098-2.097 0-1.12-.98-2.098-2.098-2.098-1.119 0-2.098.979-2.098 2.098zM276.537 77.75c0 1.957 1.678 3.635 3.637 3.635 1.958 0 3.636-1.678 3.636-3.635 0-1.958-1.678-3.636-3.636-3.636-1.959 0-3.637 1.538-3.637 3.636zm7.133-2.377c0 .56.42.979.979.979.559 0 .979-.42.979-.979 0-.56-.42-.979-.979-.979a.956.956 0 0 0-.979.979zm-16.645-18.178c0 .98.84 1.818 1.819 1.818s1.818-.839 1.818-1.818c0-.978-.839-1.817-1.818-1.817-.979 0-1.819.839-1.819 1.817zm11.329-13.982a1.258 1.258 0 1 0 .001-2.517 1.258 1.258 0 0 0-.001 2.517zm15.666-8.67a2.378 2.378 0 1 0 0-4.755 2.378 2.378 0 0 0 0 4.755zm-8.112-21.813c0 .7.56 1.259 1.259 1.259.699 0 1.259-.56 1.259-1.259 0-.699-.42-1.258-1.119-1.258-.839 0-1.399.56-1.399 1.258zm-9.931 8.67c0 .838.699 1.538 1.538 1.538.839 0 1.539-.7 1.539-1.538 0-.84-.7-1.538-1.539-1.538s-1.538.699-1.538 1.538zm-1.118-3.217c0 .42.28.7.7.7.419 0 .699-.28.699-.7 0-.42-.28-.699-.699-.699-.42 0-.7.28-.7.7zM267.446 4.48a2.098 2.098 0 1 0 0-4.196 2.098 2.098 0 0 0 0 4.196z" fill="#88F66D"/><path opacity=".2" d="M366.192 294.482l44.757-25.868c3.217-1.817 2.797-5.033-.839-7.131l-43.079-24.889c-3.636-2.098-9.231-2.377-12.448-.559l-44.757 25.868c-3.217 1.817-2.797 5.033.84 7.131l42.938 24.889c3.776 2.098 9.371 2.377 12.588.559z" fill="#136112"/><path d="M360.737 301.614c-2.937 0-6.154-.699-8.531-2.098l-50.632-29.224c-2.377-1.398-3.916-3.355-3.916-5.173 0-1.678.979-3.076 2.798-4.195l52.729-30.482c3.916-2.238 10.629-1.958 15.105.559l50.631 29.224c2.378 1.398 3.916 3.356 3.916 5.173 0 1.678-.979 3.077-2.797 4.195l-52.729 30.483c-1.678.978-4.056 1.538-6.574 1.538zm-.839-71.732c-2.238 0-4.476.42-6.154 1.399l-52.729 30.482c-1.399.839-2.238 1.957-2.238 3.216 0 1.538 1.259 3.076 3.357 4.335l50.631 29.224c4.196 2.377 10.49 2.656 14.126.559l52.73-30.483c1.398-.839 2.237-1.957 2.237-3.216 0-1.538-1.258-3.076-3.356-4.334L367.87 231.84c-2.237-1.259-5.175-1.958-7.972-1.958z" fill="#09BD30"/><path d="M307.699 150.513h22.239l24.756-14.263c3.217-1.817 8.811-1.538 12.448.56l23.777 13.703h22.239v64.32c.139 1.259-.56 2.377-2.098 3.356l-44.757 25.868c-3.217 1.818-8.812 1.538-12.448-.559l-43.079-24.889c-1.958-1.119-2.937-2.517-3.077-3.776v-64.32z" fill="url(#paint14_linear)"/><path d="M366.163 179.75l44.757-25.868c3.217-1.818 2.798-5.034-.839-7.132l-42.938-24.889c-3.637-2.097-9.232-2.377-12.448-.559l-44.757 25.868c-3.217 1.818-2.798 5.034.839 7.131l42.938 24.889c3.637 2.098 9.232 2.377 12.448.56z" fill="url(#paint15_linear)"/><path d="M364.765 172.186l33.288-19.296c2.378-1.398 2.098-3.776-.699-5.314l-32.029-18.457c-2.798-1.538-6.854-1.818-9.232-.419l-33.287 19.296c-2.378 1.398-2.098 3.775.699 5.313l32.029 18.457c2.657 1.678 6.853 1.818 9.231.42z" fill="#00CC06"/><path d="M363.505 166.173l24.197-13.982c1.678-.979 1.538-2.657-.42-3.916l-23.218-13.423c-1.958-1.119-5.035-1.259-6.713-.28l-24.197 13.983c-1.678.979-1.538 2.657.42 3.915l23.217 13.424c1.958 1.258 5.035 1.398 6.714.279z" fill="#91F66D"/><path d="M387.143 150.373l-23.217-13.424c-1.959-1.118-5.036-1.258-6.714-.279l-24.197 13.982c-.419.28-.699.42-.839.7-.559-.979-.28-1.958.839-2.657l24.197-13.983c1.678-.979 4.755-.839 6.714.28l23.217 13.423c1.539.839 1.958 2.098 1.259 3.076-.14-.419-.559-.838-1.259-1.118z" fill="#26E572"/><path d="M387.142 152.61l-23.217-13.423c-1.958-1.119-5.035-1.259-6.714-.28l-24.196 13.983c-.28.139-.56.419-.7.559-.699-.979-.559-2.097.7-2.797l24.196-13.982c1.679-.979 4.756-.839 6.714.279l23.217 13.424c1.679.979 2.098 2.237 1.119 3.216-.14-.42-.559-.699-1.119-.979z" fill="#59EC25"/><path d="M388.122 156.106c-.28-.28-.559-.56-.979-.699l-23.218-13.424c-1.958-1.118-5.035-1.258-6.713-.279l-24.197 13.982c-.14.14-.28.28-.419.28-.979-1.119-.84-2.377.419-3.076l24.197-13.983c1.678-.979 4.755-.839 6.713.28l23.218 13.423c1.818.979 2.238 2.517.979 3.496z" fill="#18F721"/><path d="M344.902 226.998l2.518 1.398c.699.42 1.119 0 1.119-.839V192.88c0-.839-.56-1.817-1.119-2.237l-2.518-1.398c-.699-.42-1.119 0-1.119.839v34.677c0 .839.56 1.957 1.119 2.237z" fill="#75FF89"/><path d="M344.903 189.245l.56.279v34.118c0 .839.559 1.818 1.119 2.237l1.818 1.119v.559c0 .839-.56 1.259-1.119.839l-2.518-1.398c-.699-.419-1.118-1.398-1.118-2.237v-34.677c.139-.839.699-1.259 1.258-.839z" fill="#00CC06"/><path d="M335.812 221.685l2.518 1.398c.699.42 1.119 0 1.119-.839v-34.677c0-.839-.56-1.818-1.119-2.237l-2.518-1.399c-.699-.419-1.119 0-1.119.839v34.678c0 .978.42 1.957 1.119 2.237zm-9.091-5.174l2.517 1.398c.699.42 1.119 0 1.119-.839v-34.677c0-.839-.559-1.818-1.119-2.237l-2.517-1.398c-.7-.42-1.119 0-1.119.839v34.677c-.14.839.419 1.818 1.119 2.237zm-9.231-5.313l2.518 1.398c.699.42 1.119 0 1.119-.839V177.08c0-.839-.56-1.818-1.119-2.237l-2.518-1.399c-.699-.419-1.119 0-1.119.839v34.678c0 .838.56 1.817 1.119 2.237z" fill="#75FF89"/><path d="M335.812 183.931l.559.28v34.118c0 .839.559 1.818 1.119 2.237l1.818 1.119v.559c0 .839-.559 1.258-1.119.839l-2.517-1.398c-.7-.42-1.119-1.399-1.119-2.238V184.77c.14-.839.559-1.118 1.259-.839zm-9.092-5.173l.559.279v34.118c0 .839.56 1.818 1.119 2.237l1.818 1.119v.559c0 .839-.559 1.259-1.119.839l-2.517-1.398c-.699-.419-1.119-1.398-1.119-2.237v-34.677c0-.839.559-1.259 1.259-.839zm-9.231-5.314l.56.28v34.118c0 .839.559 1.818 1.119 2.237l1.818 1.119v.559c0 .839-.56 1.259-1.119.839l-2.518-1.398c-.699-.42-1.119-1.399-1.119-2.237v-34.678c.14-.839.7-1.258 1.259-.839z" fill="#00CC06"/><path d="M369.8 231.333c-.28 0-.419 0-.699-.14-.56-.28-.839-.979-.839-1.818v-36.634c0-1.538.839-3.077 1.958-3.776l32.309-18.737c.559-.279 1.119-.419 1.538-.139.56.279.839.978.839 1.817v36.635c0 1.538-.839 3.076-1.958 3.775l-32.309 18.737c-.139.14-.419.28-.839.28zm33.848-60.685c-.14 0-.42.14-.56.14l-32.309 18.737c-.839.559-1.678 1.957-1.678 3.076v36.635c0 .559.14.978.419 1.118.28.14.56 0 .84-.14l32.448-18.597c.84-.559 1.679-1.957 1.679-3.076v-36.635c0-.559-.14-.978-.42-1.118-.28-.14-.28-.14-.419-.14z" fill="#9AFFB0"/><path d="M398.752 179.037c0 .979.699 1.398 1.538.979.84-.559 1.539-1.678 1.539-2.657 0-.979-.699-1.398-1.539-.839-.839.28-1.538 1.538-1.538 2.517zm0 5.174c0 .979.699 1.398 1.538.839.84-.56 1.539-1.678 1.539-2.657 0-.979-.699-1.398-1.539-.839-.839.42-1.538 1.538-1.538 2.657zm2.783 4.749c.618-1.07.631-2.22.029-2.567-.602-.348-1.591.238-2.209 1.308-.618 1.07-.631 2.219-.029 2.567.602.347 1.591-.238 2.209-1.308z" fill="#75FF89"/><path d="M399.591 189.524c.839-.559 1.539-1.678 1.539-2.656 0-.14 0-.28-.14-.56.559 0 .839.42.839 1.119 0 .979-.699 2.237-1.539 2.657-.699.419-1.258.139-1.538-.42.28.14.559 0 .839-.14zm0-5.033c.839-.56 1.539-1.678 1.539-2.657 0-.14 0-.28-.14-.559.559 0 .839.419.839 1.118 0 .979-.699 2.238-1.539 2.657-.699.419-1.258.14-1.538-.419.28 0 .559 0 .839-.14zm0-5.174c.839-.559 1.539-1.678 1.539-2.657 0-.14 0-.279-.14-.559.559 0 .839.419.839 1.119 0 .978-.699 2.237-1.539 2.656-.699.42-1.258.14-1.538-.419.28.14.559 0 .839-.14z" fill="#00CC06"/><path d="M372.737 213.015l.979-.559c.28-.14.56-.699.56-1.118v-5.034c0-.42-.28-.699-.56-.42l-.979.56c-.28.139-.559.699-.559 1.118v5.034c0 .28.279.559.559.419z" fill="#9AFFB0"/><path d="M371.646 140.113c0 1.119.98 2.097 2.098 2.097 1.119 0 2.098-.978 2.098-2.097s-.979-2.097-2.098-2.097c-1.118 0-2.098.978-2.098 2.097zm-17.343-14.262c0 1.957 1.678 3.635 3.636 3.635 1.958 0 3.637-1.678 3.637-3.635 0-1.958-1.679-3.636-3.637-3.636s-3.636 1.678-3.636 3.636zm7.135-2.238c0 .56.419.979.979.979a.956.956 0 0 0 .979-.979.956.956 0 0 0-.979-.978.955.955 0 0 0-.979.978zm-14.967-16.359a1.818 1.818 0 1 0 0-3.636 1.818 1.818 0 0 0 0 3.636zm8.252-17.059c0 .699.559 1.258 1.258 1.258.7 0 1.259-.56 1.259-1.258 0-.7-.559-1.259-1.259-1.259-.699 0-1.258.56-1.258 1.259zm14.685-9.788c0 1.258.979 2.377 2.378 2.377 1.259 0 2.378-.979 2.378-2.377 0-1.259-.979-2.377-2.378-2.377s-2.378 1.118-2.378 2.377zm-5.734-19.437c0 .7.559 1.26 1.259 1.26.699 0 1.258-.56 1.258-1.26 0-.698-.559-1.258-1.258-1.258-.7 0-1.259.56-1.259 1.259zm-10.07 8.67c0 .839.699 1.538 1.538 1.538.839 0 1.539-.699 1.539-1.538 0-.839-.7-1.538-1.539-1.538s-1.538.7-1.538 1.538zm-1.12-3.216c0 .42.28.699.7.699.419 0 .699-.28.699-.7 0-.419-.28-.698-.699-.698-.28 0-.7.28-.7.699zm-9.509-15.801c0 1.12.979 2.098 2.098 2.098 1.118 0 2.098-.979 2.098-2.097 0-1.12-.98-2.098-2.098-2.098-1.119 0-2.098.979-2.098 2.097z" fill="#88F66D"/><path opacity=".2" d="M212.201 293.923l44.756-25.868c3.217-1.818 2.798-5.034-.839-7.131l-42.938-24.889c-3.637-2.098-9.231-2.377-12.448-.56l-44.757 25.868c-3.217 1.818-2.798 5.034.839 7.132l42.939 24.889c3.636 2.237 9.231 2.377 12.448.559z" fill="#136112"/><path d="M206.886 301.055c-2.937 0-6.154-.7-8.532-2.098l-50.631-29.224c-2.378-1.398-3.916-3.356-3.916-5.173 0-1.678.979-3.077 2.797-4.195l52.729-30.483c3.916-2.237 10.63-1.957 15.105.56l50.632 29.224c2.377 1.398 3.916 3.355 3.916 5.173 0 1.678-.979 3.076-2.797 4.195l-52.73 30.482c-1.818 1.119-4.196 1.539-6.573 1.539zm-.979-71.592c-2.238 0-4.476.419-6.154 1.398l-52.729 30.483c-1.399.838-2.238 1.957-2.238 3.216 0 1.538 1.258 3.076 3.356 4.334l50.632 29.224c4.196 2.377 10.489 2.657 14.126.559l52.729-30.482c1.399-.839 2.238-1.958 2.238-3.216 0-1.538-1.259-3.076-3.357-4.335l-50.631-29.224c-2.238-1.258-5.175-1.957-7.972-1.957z" fill="#09BD30"/><path d="M154.057 149.546h22.238l24.756-14.262c3.217-1.818 8.812-1.538 12.448.559l23.777 13.703h22.239v64.321c.14 1.258-.56 2.377-2.098 3.356l-44.757 25.868c-3.217 1.818-8.811 1.538-12.448-.559l-43.078-24.89c-1.958-1.118-2.937-2.517-3.077-3.775v-64.321z" fill="url(#paint16_linear)"/><path d="M212.521 178.783l44.757-25.868c3.217-1.818 2.797-5.034-.839-7.131L213.5 120.895c-3.637-2.098-9.231-2.377-12.448-.56l-44.757 25.869c-3.217 1.817-2.797 5.033.839 7.131l42.939 24.889c3.636 2.097 9.231 2.377 12.448.559z" fill="url(#paint17_linear)"/><path d="M211.123 171.22l33.287-19.297c2.378-1.398 2.098-3.775-.699-5.313l-32.029-18.457c-2.797-1.538-6.853-1.818-9.231-.42l-33.288 19.297c-2.378 1.398-2.098 3.775.699 5.313l32.029 18.457c2.658 1.678 6.854 1.818 9.232.42z" fill="#00CC06"/><path d="M209.862 165.207l24.197-13.983c1.678-.979 1.538-2.657-.42-3.915l-23.217-13.423c-1.958-1.119-5.035-1.259-6.714-.28l-24.196 13.983c-1.679.978-1.539 2.656.419 3.915l23.218 13.423c1.958 1.259 5.035 1.399 6.713.28z" fill="#91F66D"/><path d="M233.501 149.407l-23.218-13.424c-1.958-1.119-5.035-1.258-6.714-.28l-24.196 13.983c-.42.28-.7.42-.839.699-.56-.978-.28-1.957.839-2.656l24.196-13.983c1.679-.979 4.756-.839 6.714.28l23.218 13.423c1.538.839 1.958 2.097 1.258 3.076-.139-.419-.559-.839-1.258-1.118z" fill="#26E572"/><path d="M233.5 151.644l-23.218-13.424c-1.958-1.118-5.035-1.258-6.713-.279l-24.197 13.982c-.28.14-.56.42-.699.56-.7-.979-.56-2.098.699-2.797l24.197-13.983c1.678-.978 4.755-.839 6.713.28l23.218 13.423c1.678.979 2.098 2.238 1.119 3.216-.14-.419-.56-.699-1.119-.978z" fill="#59EC25"/><path d="M234.48 155.139c-.28-.279-.56-.559-.98-.699l-23.217-13.423c-1.958-1.119-5.035-1.259-6.714-.28l-24.196 13.983c-.14.14-.28.28-.42.28-.979-1.119-.839-2.377.42-3.077l24.196-13.982c1.679-.979 4.756-.839 6.714.279l23.217 13.424c1.819.979 2.238 2.517.98 3.495z" fill="#18F721"/><path d="M191.26 226.032l2.517 1.398c.699.42 1.119 0 1.119-.839v-34.677c0-.839-.559-1.818-1.119-2.237l-2.517-1.399c-.7-.419-1.119 0-1.119.839v34.678c0 .839.559 1.957 1.119 2.237z" fill="#75FF89"/><path d="M191.261 188.278l.559.28v34.118c0 .839.56 1.818 1.119 2.237l1.818 1.119v.559c0 .839-.559 1.259-1.119.839l-2.517-1.398c-.699-.42-1.119-1.398-1.119-2.237v-34.678c.14-.839.699-1.258 1.259-.839z" fill="#00CC06"/><path d="M182.17 220.719l2.517 1.398c.7.419 1.119 0 1.119-.839v-34.677c0-.839-.559-1.818-1.119-2.238l-2.517-1.398c-.7-.419-1.119 0-1.119.839v34.677c0 .979.419 1.958 1.119 2.238zm-9.092-5.174l2.518 1.398c.699.42 1.118 0 1.118-.839v-34.677c0-.839-.559-1.818-1.118-2.237l-2.518-1.399c-.699-.419-1.119 0-1.119.839v34.678c-.14.839.42 1.817 1.119 2.237zm-9.231-5.314l2.518 1.399c.699.419 1.119 0 1.119-.839v-34.677c0-.839-.56-1.818-1.119-2.238l-2.518-1.398c-.699-.419-1.118 0-1.118.839v34.677c0 .839.559 1.818 1.118 2.237z" fill="#75FF89"/><path d="M182.169 182.965l.559.28v34.118c0 .838.56 1.817 1.119 2.237l1.819 1.118v.56c0 .839-.56 1.258-1.119.839l-2.518-1.399c-.699-.419-1.119-1.398-1.119-2.237v-34.677c.14-.839.56-1.119 1.259-.839zm-9.092-5.174l.56.28v34.118c0 .839.559 1.818 1.119 2.237l1.818 1.119v.559c0 .839-.56 1.259-1.119.839l-2.518-1.398c-.699-.42-1.119-1.398-1.119-2.237V178.63c0-.839.56-1.258 1.259-.839zm-9.23-5.313l.559.28v34.118c0 .839.56 1.817 1.119 2.237l1.818 1.118v.56c0 .839-.559 1.258-1.119.839l-2.517-1.399c-.7-.419-1.119-1.398-1.119-2.237v-34.677c.14-.839.699-1.258 1.259-.839z" fill="#00CC06"/><path d="M216.158 230.367c-.28 0-.42 0-.7-.14-.559-.28-.839-.979-.839-1.818v-36.635c0-1.538.839-3.076 1.958-3.775l32.309-18.737c.56-.28 1.119-.419 1.539-.14.559.28.839.979.839 1.818v36.635c0 1.538-.839 3.076-1.958 3.775l-32.309 18.737c-.14.14-.42.28-.839.28zm33.847-60.685c-.14 0-.42.139-.559.139l-32.309 18.737c-.839.56-1.679 1.958-1.679 3.076v36.635c0 .56.14.979.42 1.119.28.14.559 0 .839-.14l32.449-18.597c.839-.559 1.678-1.958 1.678-3.076V170.94c0-.559-.14-.979-.419-1.119-.28-.139-.28-.139-.42-.139z" fill="#9AFFB0"/><path d="M245.109 178.071c0 .979.7 1.398 1.539.979.839-.56 1.538-1.678 1.538-2.657 0-.979-.699-1.398-1.538-.839-.839.28-1.539 1.538-1.539 2.517zm0 5.174c0 .978.7 1.398 1.539.838.839-.559 1.538-1.677 1.538-2.656 0-.979-.699-1.399-1.538-.839-.839.419-1.539 1.538-1.539 2.657zm2.784 4.748c.618-1.07.631-2.219.029-2.566-.602-.348-1.591.238-2.209 1.308-.618 1.07-.631 2.219-.029 2.566.602.348 1.591-.238 2.209-1.308z" fill="#75FF89"/><path d="M245.949 188.558c.839-.559 1.538-1.678 1.538-2.657 0-.14 0-.279-.14-.559.56 0 .839.419.839 1.119 0 .978-.699 2.237-1.538 2.656-.699.42-1.259.14-1.539-.419.28.14.56 0 .84-.14zm0-5.034c.839-.559 1.538-1.678 1.538-2.656 0-.14 0-.28-.14-.56.56 0 .839.42.839 1.119 0 .979-.699 2.237-1.538 2.657-.699.419-1.259.14-1.539-.42.28 0 .56 0 .84-.14zm0-5.173c.839-.56 1.538-1.678 1.538-2.657 0-.14 0-.28-.14-.559.56 0 .839.419.839 1.118 0 .979-.699 2.238-1.538 2.657-.699.419-1.259.14-1.539-.419.28.139.56-.001.84-.14z" fill="#00CC06"/><path d="M219.095 212.049l.979-.559c.279-.14.559-.699.559-1.119v-5.034c0-.419-.28-.699-.559-.419l-.979.559c-.28.14-.56.699-.56 1.119v5.034c0 .279.28.559.56.419z" fill="#9AFFB0"/><path d="M217.795 139.554c0 1.118.979 2.097 2.098 2.097 1.119 0 2.098-.979 2.098-2.097 0-1.119-.979-2.098-2.098-2.098-1.119 0-2.098.979-2.098 2.098zm-17.484-14.123c0 1.958 1.678 3.636 3.636 3.636 1.958 0 3.637-1.678 3.637-3.636 0-1.957-1.679-3.635-3.637-3.635s-3.636 1.678-3.636 3.635zm7.134-2.377c0 .559.42.979.979.979.56 0 .979-.42.979-.979a.956.956 0 0 0-.979-.979c-.559 0-.979.56-.979.979zm-14.826-16.22a1.818 1.818 0 1 0 0-3.636 1.818 1.818 0 0 0 0 3.636zm8.252-17.199c0 .7.56 1.259 1.259 1.259.699 0 1.259-.56 1.259-1.259 0-.699-.56-1.258-1.259-1.258-.699 0-1.259.56-1.259 1.258zm14.545-9.788c0 1.259.979 2.378 2.378 2.378 1.259 0 2.377-.98 2.377-2.377 0-1.259-.979-2.377-2.377-2.377-1.259.14-2.378 1.118-2.378 2.376zm-5.734-19.296c0 .7.559 1.259 1.258 1.259.7 0 1.259-.56 1.259-1.259 0-.699-.559-1.258-1.259-1.258-.699 0-1.258.56-1.258 1.258zm-9.93 8.529c0 .84.699 1.539 1.538 1.539.84 0 1.539-.7 1.539-1.538 0-.84-.699-1.538-1.539-1.538-.979 0-1.538.699-1.538 1.538zm-1.258-3.215c0 .42.28.699.699.699.42 0 .7-.28.7-.7 0-.419-.28-.699-.7-.699-.279 0-.699.42-.699.7zm-9.512-15.661c0 1.119.979 2.097 2.098 2.097 1.119 0 2.098-.978 2.098-2.097s-.979-2.097-2.098-2.097c-1.119-.14-2.098.839-2.098 2.097z" fill="#88F66D"/><path opacity=".2" d="M289.826 342.164l44.756-25.868c3.217-1.818 2.798-5.034-.839-7.132l-42.938-24.889c-3.637-2.097-9.231-2.377-12.448-.559L233.6 309.584c-3.217 1.818-2.798 5.034.839 7.131l42.939 24.889c3.636 2.098 9.231 2.377 12.448.56z" fill="#136112"/><path d="M284.511 349.295c-2.937 0-6.154-.699-8.532-2.098l-50.631-29.223c-2.378-1.399-3.916-3.356-3.916-5.174 0-1.678.979-3.076 2.797-4.195l52.729-30.482c3.916-2.238 10.63-1.958 15.106.559l50.631 29.224c2.377 1.398 3.916 3.356 3.916 5.174 0 1.678-.979 3.076-2.797 4.194l-52.73 30.483c-1.678 1.118-4.056 1.538-6.573 1.538zm-.839-71.592c-2.238 0-4.476.42-6.154 1.398l-52.73 30.483c-1.398.839-2.237 1.957-2.237 3.216 0 1.538 1.258 3.076 3.356 4.335l50.632 29.224c4.195 2.377 10.489 2.656 14.126.559l52.729-30.483c1.399-.839 2.238-1.957 2.238-3.216 0-1.538-1.259-3.076-3.357-4.334l-50.631-29.224c-2.238-1.259-5.175-1.958-7.972-1.958z" fill="#09BD30"/><path d="M231.361 197.862H253.6l24.756-14.262c3.217-1.818 8.812-1.538 12.448.559l23.777 13.703h22.239v64.321c.139 1.258-.56 2.377-2.098 3.355l-44.757 25.869c-3.217 1.817-8.812 1.538-12.448-.56l-43.079-24.889c-1.958-1.119-2.937-2.517-3.077-3.775v-64.321z" fill="url(#paint18_linear)"/><path d="M289.826 227.086l44.756-25.868c3.217-1.818 2.798-5.034-.839-7.131l-42.938-24.89c-3.637-2.097-9.231-2.377-12.448-.559L233.6 194.506c-3.217 1.818-2.798 5.034.839 7.131l42.939 24.889c3.636 2.098 9.231 2.378 12.448.56z" fill="url(#paint19_linear)"/><path d="M288.427 219.535l33.288-19.296c2.378-1.398 2.098-3.775-.699-5.313l-32.029-18.458c-2.798-1.538-6.854-1.817-9.231-.419l-33.288 19.296c-2.378 1.398-2.098 3.775.699 5.314l32.029 18.457c2.658 1.678 6.853 1.817 9.231.419z" fill="#00CC06"/><path d="M287.167 213.523l24.197-13.983c1.678-.979 1.538-2.657-.42-3.915l-23.218-13.424c-1.958-1.118-5.035-1.258-6.713-.279l-24.197 13.982c-1.678.979-1.538 2.657.42 3.916l23.217 13.423c1.959 1.258 5.036 1.398 6.714.28z" fill="#91F66D"/><path d="M310.805 197.722l-23.217-13.423c-1.958-1.119-5.035-1.259-6.714-.28l-24.196 13.983c-.42.28-.7.419-.84.699-.559-.979-.279-1.958.84-2.657l24.196-13.982c1.679-.979 4.756-.839 6.714.279l23.217 13.424c1.539.839 1.958 2.097 1.259 3.076-.14-.42-.559-.839-1.259-1.119z" fill="#26E572"/><path d="M310.804 199.959l-23.217-13.423c-1.958-1.119-5.035-1.258-6.714-.28l-24.196 13.983c-.28.14-.56.42-.7.559-.699-.978-.559-2.097.7-2.796l24.196-13.983c1.679-.979 4.756-.839 6.714.28l23.217 13.423c1.679.979 2.098 2.237 1.119 3.216-.139-.419-.559-.699-1.119-.979z" fill="#59EC25"/><path d="M311.784 203.455c-.28-.28-.559-.559-.979-.699l-23.217-13.423c-1.959-1.119-5.036-1.259-6.714-.28l-24.197 13.983c-.14.139-.279.279-.419.279-.979-1.118-.839-2.377.419-3.076l24.197-13.983c1.678-.978 4.755-.839 6.714.28l23.217 13.423c1.818.979 2.238 2.517.979 3.496z" fill="#18F721"/><path d="M268.564 274.347l2.518 1.399c.699.419 1.119 0 1.119-.839V240.23c0-.839-.56-1.818-1.119-2.238l-2.518-1.398c-.699-.419-1.119 0-1.119.839v34.677c0 .839.56 1.958 1.119 2.237z" fill="#75FF89"/><path d="M268.565 236.594l.56.28v34.117c0 .839.559 1.818 1.119 2.238l1.818 1.118v.56c0 .839-.559 1.258-1.119.839l-2.517-1.399c-.7-.419-1.119-1.398-1.119-2.237v-34.677c.14-.839.699-1.258 1.258-.839z" fill="#00CC06"/><path d="M259.474 269.034l2.518 1.398c.699.42 1.119 0 1.119-.839v-34.677c0-.839-.56-1.818-1.119-2.237l-2.518-1.398c-.699-.42-1.119 0-1.119.839v34.677c0 .979.42 1.957 1.119 2.237zm-9.091-5.174l2.517 1.399c.7.419 1.119 0 1.119-.839v-34.678c0-.838-.559-1.817-1.119-2.237l-2.517-1.398c-.7-.42-1.119 0-1.119.839v34.677c-.14.839.419 1.818 1.119 2.237zm-9.231-5.313l2.518 1.398c.699.42 1.119 0 1.119-.839v-34.677c0-.839-.56-1.818-1.119-2.237l-2.518-1.398c-.699-.42-1.119 0-1.119.839v34.677c0 .839.56 1.817 1.119 2.237z" fill="#75FF89"/><path d="M259.474 231.281l.559.279v34.118c0 .839.56 1.818 1.119 2.237l1.818 1.119v.559c0 .839-.559 1.259-1.119.839l-2.517-1.398c-.7-.42-1.119-1.398-1.119-2.237V232.12c.14-.839.559-1.119 1.259-.839zm-9.092-5.174l.559.28v34.118c0 .838.56 1.817 1.119 2.237l1.818 1.118v.56c0 .839-.559 1.258-1.118.839l-2.518-1.399c-.699-.419-1.119-1.398-1.119-2.237v-34.677c0-.839.56-1.259 1.259-.839zm-9.231-5.313l.56.279v34.118c0 .839.559 1.818 1.119 2.237l1.818 1.119v.559c0 .839-.559 1.259-1.119.839l-2.518-1.398c-.699-.42-1.118-1.398-1.118-2.237v-34.677c.139-.839.699-1.259 1.258-.839z" fill="#00CC06"/><path d="M293.462 278.682c-.279 0-.419 0-.699-.14-.559-.279-.839-.978-.839-1.817V240.09c0-1.538.839-3.076 1.958-3.775l32.309-18.737c.559-.28 1.119-.42 1.538-.14.56.279.839.979.839 1.818v36.634c0 1.538-.839 3.077-1.958 3.776l-32.308 18.737c-.14.139-.42.279-.84.279zm33.848-60.685c-.14 0-.42.14-.56.14l-32.309 18.737c-.839.559-1.678 1.957-1.678 3.076v36.635c0 .559.14.979.42 1.118.279.14.559 0 .839-.139l32.449-18.597c.839-.56 1.678-1.958 1.678-3.077v-36.634c0-.56-.14-.979-.42-1.119-.279-.14-.279-.14-.419-.14z" fill="#9AFFB0"/><path d="M322.414 226.387c0 .978.699 1.398 1.539.978.839-.559 1.538-1.678 1.538-2.656 0-.979-.699-1.399-1.538-.839-.84.279-1.539 1.538-1.539 2.517zm0 5.173c0 .979.699 1.398 1.539.839.839-.559 1.538-1.678 1.538-2.657 0-.978-.699-1.398-1.538-.839-.84.42-1.539 1.539-1.539 2.657zm2.784 4.749c.618-1.07.63-2.219.028-2.567-.602-.347-1.591.238-2.209 1.308-.618 1.07-.631 2.22-.028 2.567.602.348 1.591-.238 2.209-1.308z" fill="#75FF89"/><path d="M323.253 236.874c.839-.56 1.539-1.678 1.539-2.657 0-.14 0-.28-.14-.559.559 0 .839.419.839 1.118 0 .979-.699 2.237-1.538 2.657-.7.419-1.259.14-1.539-.42.28.14.56 0 .839-.139zm0-5.034c.839-.559 1.539-1.678 1.539-2.657 0-.139 0-.279-.14-.559.559 0 .839.42.839 1.119 0 .978-.699 2.237-1.538 2.656-.7.42-1.259.14-1.539-.419.28 0 .56 0 .839-.14zm0-5.174c.839-.559 1.539-1.678 1.539-2.656 0-.14 0-.28-.14-.56.559 0 .839.42.839 1.119 0 .979-.699 2.237-1.538 2.657-.7.419-1.259.139-1.539-.42.28.14.56 0 .839-.14z" fill="#00CC06"/><path d="M296.399 260.365l.979-.559c.28-.14.56-.7.56-1.119v-5.034c0-.419-.28-.699-.56-.419l-.979.559c-.279.14-.559.699-.559 1.119v5.033c0 .28.28.56.559.42z" fill="#9AFFB0"/><path d="M295.42 187.794c0 1.119.979 2.098 2.098 2.098 1.119 0 2.098-.979 2.098-2.098 0-1.118-.979-2.097-2.098-2.097-1.119 0-2.098.979-2.098 2.097zm-17.482-14.122c0 1.957 1.678 3.635 3.636 3.635 1.958 0 3.637-1.678 3.637-3.635 0-1.958-1.679-3.636-3.637-3.636s-3.636 1.678-3.636 3.636zm7.132-2.377c0 .559.42.978.979.978.56 0 .979-.419.979-.978a.955.955 0 0 0-.979-.979c-.559.14-.979.559-.979.979zm-16.644-18.038c0 .979.839 1.818 1.818 1.818.979 0 1.818-.839 1.818-1.818 0-.979-.839-1.818-1.818-1.818-.979 0-1.818.839-1.818 1.818zm11.329-14.123a1.259 1.259 0 1 0 0-2.517 1.259 1.259 0 0 0 0 2.517zm15.666-8.669a2.377 2.377 0 1 0 0-4.753 2.377 2.377 0 0 0 0 4.753zm-17.483-18.737c0 2.517 2.097 4.614 4.615 4.614 2.518 0 4.616-2.097 4.616-4.614s-2.098-4.614-4.616-4.614-4.615 1.957-4.615 4.614zm9.371-2.936c0 .699.559 1.258 1.258 1.258.7 0 1.259-.559 1.259-1.258 0-.7-.559-1.259-1.259-1.259-.699-.14-1.258.559-1.258 1.259zm-9.932 8.529c0 .839.699 1.538 1.538 1.538.84 0 1.539-.699 1.539-1.538 0-.839-.699-1.538-1.539-1.538-.839 0-1.538.699-1.538 1.538zm-1.117-3.216c0 .42.279.699.699.699.42 0 .699-.279.699-.699 0-.419-.279-.699-.699-.699-.42 0-.699.28-.699.699zm-7.414-13.703a2.097 2.097 0 1 0 .001-4.195 2.097 2.097 0 0 0-.001 4.195z" fill="#88F66D"/><path opacity=".2" d="M455.927 419.046l44.478-25.728c3.216-1.818 2.797-5.034-.84-7.132l-42.658-24.609c-3.637-2.098-9.232-2.377-12.309-.56l-44.477 25.729c-3.217 1.817-2.797 5.034.839 7.131l42.659 24.61c3.637 2.097 9.092 2.377 12.308.559z" fill="#136112"/><path d="M450.613 426.177c-2.937 0-6.014-.699-8.531-2.097l-50.212-29.085c-2.378-1.398-3.776-3.355-3.776-5.173 0-1.678.979-3.076 2.797-4.055l52.449-30.203c3.917-2.237 10.63-1.957 15.106.559l50.351 29.085c2.378 1.398 3.777 3.355 3.777 5.173 0 1.678-.979 3.076-2.798 4.055l-52.449 30.203c-1.818.979-4.196 1.538-6.714 1.538zm-.839-71.172c-2.238 0-4.475.419-6.014 1.398l-52.449 30.203c-1.399.839-2.238 1.957-2.238 3.216 0 1.538 1.259 3.076 3.357 4.334l50.351 29.085c4.196 2.377 10.49 2.656 13.987.559l52.449-30.203c1.399-.839 2.238-1.957 2.238-3.216 0-1.538-1.259-3.076-3.357-4.334l-50.351-29.085c-2.238-1.258-5.175-1.957-7.973-1.957z" fill="#09BD30"/><path d="M397.885 363.954h22.098l24.617-14.123c3.217-1.817 8.671-1.538 12.308.56l23.637 13.703h22.099v14.821c.14 1.259-.56 2.377-2.098 3.356l-44.477 25.728c-3.217 1.818-8.672 1.539-12.308-.559l-42.659-24.609c-1.958-1.119-2.938-2.517-2.938-3.776v-15.101h-.279z" fill="url(#paint20_linear)"/><path d="M455.927 393.038l44.478-25.728c3.216-1.818 2.797-5.034-.84-7.132l-42.658-24.609c-3.637-2.098-9.232-2.377-12.309-.559l-44.477 25.728c-3.217 1.818-2.797 5.034.839 7.131l42.659 24.61c3.637 2.097 9.092 2.377 12.308.559z" fill="url(#paint21_linear)"/><path opacity=".1" d="M450.692 382.313c17.533 0 31.746-8.188 31.746-18.289s-14.213-18.29-31.746-18.29-31.747 8.189-31.747 18.29c0 10.101 14.214 18.289 31.747 18.289z" fill="#0D5B15"/><path d="M440.494 348.519s-.708.851-1.559 1.701c-.85.851-3.118 2.269-3.968 2.836-.992.567-5.244 3.828-6.236 7.089-.85 3.261 2.126 3.686 5.386 3.119 3.117-.567 6.094-3.544 6.944-4.537.85-.992 3.827-3.403 7.795-5.529 3.826-1.985 1.559-4.679 1.559-4.679h-9.921zm28.911 9.499s.709 1.418.851 3.261c.141 1.843.425 5.955.566 7.089.142 1.135.142 4.112-1.984 6.806-2.126 2.835-3.118 3.828-5.952 2.835-2.835-1.134-2.693-5.813-2.268-8.081.425-2.41.992-7.798.851-8.365 0-.567.141-.993.141-.993l7.795-2.552z" fill="#029406"/><path d="M430.998 293.508s.567 21.409 5.527 32.751c0 0 3.543 9.925 3.969 21.835 0 0-.851 1.985.283 3.686 1.134 1.701 8.504 3.119 9.637-2.269 1.276-5.529.709-15.737-.567-19.991-1.275-4.253.426-16.021.426-16.021s1.984 1.276 4.677 9.783c2.551 8.507 4.535 11.626 5.385 14.036.85 2.269 1.701 16.589 1.134 23.678 0 0 5.952.85 7.653-1.985 1.701-2.836 2.268-17.439 1.842-22.118-.425-4.679-2.409-19.566-2.125-24.244.283-4.679 1.275-8.366.141-13.044-.992-4.679-32.313-14.887-32.313-14.887l-5.669 8.79z" fill="url(#paint22_linear)"/><path d="M441.486 223.611s-6.944 1.559-9.212 2.126a1.455 1.455 0 0 0-.85.709c-.709 1.702-2.409 6.947-1.134 14.745 1.559 9.5 1.134 15.88 1.134 15.88l-3.26 16.73s-3.968 15.879-3.685 16.305c.284.425 9.212 7.23 12.047 6.238 2.834-.993 1.842-2.552 1.842-2.552s2.268 11.484 12.33 11.342c10.063-.142 18.141-.142 19.842-4.111 1.701-4.112-.425-21.126-2.268-27.789-1.7-6.664-5.952-20.133-5.952-20.133l14.597-16.163-12.471-9.499s-2.977-5.53-4.252-6.239c-1.276-.709-1.842-.141-1.842-.141l-16.866 2.552z" fill="#3FD94C"/><path d="M436.667 292.657c0 .568-.284 1.418-2.126 1.985-1.984.709-6.661-2.268-9.779-4.395 1.559 1.276 9.212 6.947 11.763 5.955.567-.142.992-.425 1.275-.567-.708-1.134-.992-2.269-1.133-2.978zm33.73 7.09c-1.843 4.253-10.488 4.253-20.975 4.395-2.693 0-4.819-.709-6.52-1.843 1.843 1.701 4.394 3.119 7.795 2.977 10.063-.142 18.141-.142 19.842-4.112.567-1.276.708-4.111.567-7.372 0 2.694-.142 4.82-.709 5.955z" fill="#00CC06"/><path d="M459.91 220.917s2.551 3.119-1.134 7.231c-2.267 2.552-6.094 8.081-9.495 13.894-2.126 3.545-3.968 5.529-5.102 8.649 0 0-.142-3.687-.284-9.358-.141-5.387-.141-10.917 0-12.335.567-2.835 13.181-9.499 16.015-8.081z" fill="#F0F6FF"/><path d="M450.415 230.274s-1.275.851-1.701.709c-.425 0-1.842-1.418-1.842-1.418s-3.685 0-3.968-1.559c-.425-1.56-.709-3.12-.992-3.97-.425-.851-1.984-4.679-1.984-6.239 0-1.559 0-4.395-.567-5.813-.709-1.559-1.559-16.446 12.755-16.021 14.456.426 9.921 15.313 9.921 15.313s.992.425.425 2.41-.709 2.127-1.134 3.119c-.283.992-.425 1.56-1.417 2.41l-.284 1.843s.709 2.694-1.134 5.388c-1.984 2.269-8.078 3.828-8.078 3.828z" fill="#FCD1C5"/><path d="M431.707 225.879s-1.559.284-6.52 12.76c-2.834 6.947-7.086 14.178-7.936 19.424-.85 5.246-.425 10.775.567 11.201.992.425 18.849 7.089 24.518 9.216.284.141.709-.142.709-.426l1.559-8.648-11.055-4.254s-2.126-2.552-4.11-3.544c0 0 2.268-4.112 2.126-5.246-.142-1.134.142-12.76-1.134-17.439-1.275-4.821 1.276-13.044 1.276-13.044z" fill="#4CE756"/><path d="M438.227 259.056s-1.559-.993-1.843-1.135c-.425-.141-2.409-.85-2.834-.992-.284-.142-1.417 0-2.126 0-.283 0-.425.142-.567.283-.425.851-1.842 3.403-1.701 4.396 0 0 3.685 2.268 4.11 3.402l.567.142c.142 0 2.693-5.388 4.394-6.096z" fill="#FCD1C5"/><path d="M468.271 273.375c-.425-1.559-.992-3.686-1.559-5.813l-22.534 9.641s6.661 8.224 18.566 7.798c3.259-.141 5.527-1.276 7.369-2.268-.567-3.686-1.275-7.089-1.842-9.358z" fill="#00CC06"/><path d="M476.917 236.938s-5.952.85-10.771 8.365c-4.818 7.656-8.22 16.446-8.22 16.446l-.142.993c-.425 2.552-3.117 4.111-5.527 2.977-5.102-2.268-12.613-5.671-13.889-6.664 0 0-4.535 2.411-5.669 8.366-.992 4.678-.708 4.678-.708 4.678s19.983 9.358 27.636 9.216c7.653-.142 17.432-25.52 18.566-30.766.992-5.246 2.126-12.193-1.276-13.611z" fill="#24126A"/><path d="M476.917 236.938s-5.952.85-10.771 8.365c-4.818 7.656-8.22 16.446-8.22 16.446l-.142.993c-.425 2.552-3.117 4.111-5.527 2.977-5.102-2.268-12.613-5.671-13.889-6.664 0 0-4.535 2.411-5.669 8.366-.992 4.678-.708 4.678-.708 4.678s19.983 9.358 27.636 9.216c7.653-.142 17.432-25.52 18.566-30.766.992-5.246 2.126-12.193-1.276-13.611z" fill="#4CE756"/><path d="M455.092 266.853s2.551 2.411 3.685 1.135c1.133-1.276.708-1.418.708-1.418s2.268 0 2.551-1.418c.284-1.418 1.418-.709 1.418-2.269 0-1.559-1.843-1.276-1.843-1.276l-6.519 5.246z" fill="#00CC06"/><path d="M451.973 265.578s.708-.709 1.559-1.418c.85-.709 2.267-3.828 2.551-4.112.283-.283 3.259-2.552 4.677-2.694 1.417 0 .425 1.56 0 1.844-.284.283-1.701.992-1.701.992s-1.417 1.276-1.559 1.418c-.142.142 4.11-.284 4.677.142.708.425.567 1.559 0 1.843-.425.283-.851.283-.851.283s.426 1.276-.85 1.843c-1.275.568-1.559.284-1.559.284s-.142 2.127-2.267 1.701l-4.677-2.126z" fill="#FCD1C5"/><path d="M438.794 204.187s-1.843 5.954 3.118 4.253c4.96-1.701 9.353-4.537 10.912-3.403 1.134.851 1.134 3.403.993 4.537 0 .426.141.851.283 1.134l1.417 2.127c.142.284.284.567.284.851l.141 1.418c0 .425.284.709.709.709h.283c.426 0 .709-.284.709-.568l.425-2.126s1.134-2.978 3.685-1.843c0 0 1.701-2.269 1.134-6.948-.567-4.678-2.693-9.641-11.905-10.491-9.354-.709-12.188 10.35-12.188 10.35z" fill="#2DC939"/><path d="M452.966 235.52l-1.417-1.134s-1.276 1.134-1.843 2.268 0 4.679 0 4.679l-.425.709-.567-.993-.425-4.253s.425-3.119.567-3.261c0-.142 2.693.284 2.693.284s.992.85 1.417 1.701zm-6.662-4.254s-1.418.142-2.126.709c0 0 1.559.142 1.842.142.142 0 .284-.851.284-.851z" fill="#C4CCD6"/><path d="M449.139 231.692l2.552 2.268s-2.126.993-2.835 2.978c0 0-2.693.567-2.976-.426-.284-.992 0-3.402-.284-4.537-.425-1.134 3.543-.283 3.543-.283z" fill="#00CC06"/><path d="M445.879 236.371s-.426 1.985-.992 2.835c-.567.851-.992 1.843-.992 1.843v11.91s4.393-9.074 5.385-10.917c0 0-.142-4.395-.567-5.246-.425-.709-2.834-.425-2.834-.425z" fill="#00CC06"/><path d="M457.642 218.79c-2.834 8.365-11.054 10.775-11.054 10.775s1.417 1.418 1.842 1.418c.425 0 1.701-.709 1.701-.709s6.236-1.559 7.937-4.112c1.842-2.693 1.133-5.387 1.133-5.387l.284-1.843c-1.134.567-1.843-.142-1.843-.142z" fill="#E2B1A6"/><path d="M464.304 228.431s-1.134 3.97-1.276 4.112c-.141.141-2.834-.142-2.834-.142l1.275 2.552s-13.605 14.603-16.44 22.543c0 0 6.52-10.067 17.858-21.976l-1.559-2.41 2.834.567.142-5.246zm-22.393-3.403l-.709.851.851.851-2.551 2.268s-.709 16.021 2.267 26.655c0 0-4.252-9.783-3.26-27.08l2.693-1.843-.85-.851 1.559-.851zm8.503 88.471s.142 0 0 0l-3.402-3.686c1.701 2.268-.283 12.902-.425 15.312-.141 2.411 1.843 7.373 2.693 13.328.85 5.813-.85 14.178-.85 14.178.992-.567 1.842-1.56 2.126-3.12 1.275-5.529.708-15.737-.567-19.991-1.276-4.253.425-16.021.425-16.021zm9.07-32.184c7.653-.142 17.432-25.52 18.566-30.766.142-.851.425-1.843.567-2.694 0 .142-1.984 5.529-3.968 10.35-1.984 4.82-12.189 19.707-17.574 20.7-4.819.851-21.826-7.089-25.085-8.649-.284 1.843-.142 1.843-.142 1.843s19.983 9.216 27.636 9.216z" fill="#00CC06"/><path d="M457.075 215.813c.425 0 .708-.284.708-.567l.426-2.127s1.133-2.978 3.684-1.843c0 0 1.559-2.127 1.134-6.522-2.693 4.111-8.787 5.955-8.787 5.955l1.417 2.126c.142.284.284.567.284.851l.142 1.418c0 .425.283.709.708.709h.284z" fill="#2DCC3B"/></g><defs><linearGradient id="paint0_linear" x1="176.608" y1="372.021" x2="233.201" y2="380.534" gradientUnits="userSpaceOnUse"><stop stop-color="#3FE652"/><stop offset="1" stop-color="#3FC644"/></linearGradient><linearGradient id="paint1_linear" x1="192.307" y1="337.981" x2="203.339" y2="372.37" gradientUnits="userSpaceOnUse"><stop stop-color="#32DE45"/><stop offset="1" stop-color="#23A424"/></linearGradient><linearGradient id="paint2_linear" x1="481.962" y1="270.559" x2="538.555" y2="279.071" gradientUnits="userSpaceOnUse"><stop stop-color="#3FE652"/><stop offset="1" stop-color="#3FC644"/></linearGradient><linearGradient id="paint3_linear" x1="497.66" y1="236.519" x2="508.692" y2="270.907" gradientUnits="userSpaceOnUse"><stop stop-color="#32DE45"/><stop offset="1" stop-color="#23A424"/></linearGradient><linearGradient id="paint4_linear" x1="29.729" y1="286.019" x2="86.322" y2="294.532" gradientUnits="userSpaceOnUse"><stop stop-color="#3FE652"/><stop offset="1" stop-color="#3FC644"/></linearGradient><linearGradient id="paint5_linear" x1="45.428" y1="251.98" x2="56.46" y2="286.368" gradientUnits="userSpaceOnUse"><stop stop-color="#32DE45"/><stop offset="1" stop-color="#23A424"/></linearGradient><linearGradient id="paint6_linear" x1="234.578" y1="424.66" x2="342.948" y2="427.976" gradientUnits="userSpaceOnUse"><stop stop-color="#3FE752"/><stop offset="1" stop-color="#3FC744"/></linearGradient><linearGradient id="paint7_linear" x1="286.956" y1="375.356" x2="286.956" y2="435.795" gradientUnits="userSpaceOnUse"><stop stop-color="#30D43F"/><stop offset="1" stop-color="#25AE29"/></linearGradient><linearGradient id="paint8_linear" x1="429.773" y1="118.339" x2="538.143" y2="121.655" gradientUnits="userSpaceOnUse"><stop stop-color="#3FE752"/><stop offset="1" stop-color="#3FC744"/></linearGradient><linearGradient id="paint9_linear" x1="482.152" y1="69.035" x2="482.152" y2="129.474" gradientUnits="userSpaceOnUse"><stop stop-color="#30D43F"/><stop offset="1" stop-color="#25AE29"/></linearGradient><linearGradient id="paint10_linear" x1="551.467" y1="186.327" x2="637.397" y2="113.373" gradientUnits="userSpaceOnUse"><stop stop-color="#50F163"/><stop offset="1" stop-color="#37B63C"/></linearGradient><linearGradient id="paint11_linear" x1="606.756" y1="119.607" x2="606.756" y2="218.219" gradientUnits="userSpaceOnUse"><stop stop-color="#3FB030"/><stop offset="1" stop-color="#3FD74B"/></linearGradient><linearGradient id="paint12_linear" x1="330.476" y1="132.955" x2="222.213" y2="141.236" gradientUnits="userSpaceOnUse"><stop stop-color="#3FC644"/><stop offset="1" stop-color="#3FEB54"/></linearGradient><linearGradient id="paint13_linear" x1="336.302" y1="101.593" x2="237.436" y2="126.064" gradientUnits="userSpaceOnUse"><stop stop-color="#139B21"/><stop offset=".165" stop-color="#1BA120"/><stop offset=".428" stop-color="#45B233"/><stop offset=".755" stop-color="#49CD5E"/><stop offset="1" stop-color="#29E43C"/></linearGradient><linearGradient id="paint14_linear" x1="408.144" y1="181.873" x2="299.881" y2="190.154" gradientUnits="userSpaceOnUse"><stop stop-color="#3FC644"/><stop offset="1" stop-color="#3FEB54"/></linearGradient><linearGradient id="paint15_linear" x1="413.97" y1="150.511" x2="315.104" y2="174.982" gradientUnits="userSpaceOnUse"><stop stop-color="#139B21"/><stop offset=".165" stop-color="#1BA120"/><stop offset=".428" stop-color="#45B233"/><stop offset=".755" stop-color="#49CD5E"/><stop offset="1" stop-color="#29E43C"/></linearGradient><linearGradient id="paint16_linear" x1="254.502" y1="180.907" x2="146.238" y2="189.187" gradientUnits="userSpaceOnUse"><stop stop-color="#3FC644"/><stop offset="1" stop-color="#3FEB54"/></linearGradient><linearGradient id="paint17_linear" x1="260.328" y1="149.545" x2="161.461" y2="174.016" gradientUnits="userSpaceOnUse"><stop stop-color="#139B21"/><stop offset=".165" stop-color="#1BA120"/><stop offset=".428" stop-color="#45B233"/><stop offset=".755" stop-color="#49CD5E"/><stop offset="1" stop-color="#29E43C"/></linearGradient><linearGradient id="paint18_linear" x1="331.806" y1="229.222" x2="223.543" y2="237.503" gradientUnits="userSpaceOnUse"><stop stop-color="#3FC644"/><stop offset="1" stop-color="#3FEB54"/></linearGradient><linearGradient id="paint19_linear" x1="337.632" y1="197.848" x2="238.766" y2="222.318" gradientUnits="userSpaceOnUse"><stop stop-color="#139B21"/><stop offset=".165" stop-color="#1BA120"/><stop offset=".428" stop-color="#45B233"/><stop offset=".755" stop-color="#49CD5E"/><stop offset="1" stop-color="#29E43C"/></linearGradient><linearGradient id="paint20_linear" x1="397.885" y1="383.108" x2="506.255" y2="386.425" gradientUnits="userSpaceOnUse"><stop stop-color="#3FE752"/><stop offset="1" stop-color="#3FC744"/></linearGradient><linearGradient id="paint21_linear" x1="450.263" y1="333.804" x2="450.263" y2="394.243" gradientUnits="userSpaceOnUse"><stop stop-color="#30D43F"/><stop offset="1" stop-color="#25AE29"/></linearGradient><linearGradient id="paint22_linear" x1="451.049" y1="284.718" x2="451.049" y2="361.115" gradientUnits="userSpaceOnUse"><stop stop-color="#3FE551"/><stop offset="1" stop-color="#3FCB46"/></linearGradient><clipPath id="clip0"><path fill="#fff" transform="translate(.584 .286)" d="M0 0h688.416v467.443H0z"/></clipPath></defs></svg>