<svg width="551" height="493" viewBox="0 0 551 493" fill="none" xmlns="http://www.w3.org/2000/svg"><path opacity=".15" d="M436.394 334.762c7.999 4.654 7.999 12.1.134 16.753l-151.172 87.623c-7.865 4.653-20.929 4.653-28.927 0l-152.105-87.623c-7.998-4.653-7.998-12.099-.133-16.753l151.171-87.622c7.999-4.654 20.929-4.654 28.928 0l152.104 87.622z" fill="#585624"/><path d="M450.607 434.045c-.137 0-.273 0-.273-.136l-.683-.409c-.273-.136-.41-.545-.137-.817.137-.273.547-.409.82-.136l.683.408c.273.137.409.545.136.818-.136.136-.273.272-.546.272z" fill="url(#paint0_linear)"/><path d="M399.796 402.847c-.136 0-.273 0-.273-.136l-.683-.409c-.273-.136-.41-.545-.136-.817.136-.273.546-.409.819-.136l.683.408c.273.137.41.545.137.818-.274.136-.41.272-.547.272z" fill="url(#paint1_linear)"/><path d="M325.492 344.539c-.137 0-.274 0-.274-.137l-.682-.408c-.274-.136-.41-.545-.137-.818.136-.272.546-.408.819-.136l.683.409c.274.136.41.545.137.817-.137.136-.41.273-.546.273z" fill="url(#paint2_linear)"/><path d="M107.769 210.892c-.137 0-.273 0-.273-.136l-.683-.409c-.273-.136-.41-.545-.137-.817.137-.273.547-.409.82-.137l.683.409c.273.136.41.545.136.817-.136.273-.273.273-.546.273z" fill="url(#paint3_linear)"/><path opacity=".1" d="M60.531 276.52l22.156-12.816c1.602-.905 1.393-2.507-.418-3.552l-21.25-12.259c-1.811-1.045-4.598-1.184-6.131-.279L32.732 260.43c-1.602.906-1.393 2.508.418 3.553l21.25 12.259c1.812 1.044 4.529 1.184 6.131.278z" fill="#136112"/><path d="M83.941 251.784c-.192.192-.192.192 0 0v.576l-.192.192-.192.192h-.577l-23.462 13.618v3.07l23.654-13.619h.385l.192-.192v-.576l.192-3.261zm-52.694 1.151c-.577-.383-.962-.767-.962-1.342v3.069c0 .383.385.959.962 1.342L54.9 269.623v-3.069l-23.654-13.619z" fill="#00CC06"/><path d="M82.979 250.442c1.154.767 1.346 1.918 0 2.685l-23.462 13.619c-1.154.767-3.27.767-4.424 0L31.44 253.127c-1.154-.767-1.346-1.918 0-2.685l23.654-13.619c1.154-.767 3.27-.767 4.424 0l23.462 13.619z" fill="#91F66D"/><path d="M57.21 264.253c-.77 0-1.538-.192-2.115-.576l-20.77-11.701c-.577-.383-.962-.767-.962-1.342 0-.576.385-.959.962-1.343l20.577-11.893c.577-.383 1.347-.575 2.116-.575.77 0 1.538.192 2.115.575l20.77 11.893c.577.384.962.767.962 1.343 0 .575-.385.959-.962 1.342l-20.577 11.893c-.77.384-1.347.384-2.116.384zm-.192-27.046c-.77 0-1.346.191-1.923.383l-20.578 12.085c-.385.191-.77.575-.77.959 0 .383.193.767.77.959l20.77 11.892c.577.384 1.154.384 1.923.384.77 0 1.346-.192 1.923-.384l20.578-11.892c.385-.192.77-.576.77-.959 0-.384-.193-.768-.77-.959l-20.77-11.893c-.577-.384-1.346-.575-1.923-.575zm1.922 32.608c.192 0 .577-.192.577-.383v-3.069s-.385.191-.577.383c0 0-.193 0-.193.192h-3.654c-.192 0-.192 0-.384-.192h-.193l-.576-.383v3.069s.384.191.576.383h.193c.192 0 .192 0 .384.192h2.308c1.346 0 1.539-.192 1.539-.192z" fill="#00CC06"/><path d="M57.015 253.127c-.192 0-.385 0-.385-.191l-3.846-2.302c-.192 0-.192-.192-.192-.384s0-.192.192-.383l3.846-2.302c.193-.192.577-.192.962 0l3.846 2.302c.192 0 .192.191.192.383s0 .192-.192.384l-3.846 2.302c-.192.191-.385.191-.577.191zm0-4.987h-.192l-3.847 2.302 3.847 2.302h.577l3.846-2.302-3.846-2.302h-.385z" fill="#00CC06"/><path d="M57.017 252.168h-.384l-2.308-1.343c-.192 0-.192-.191-.192-.191 0-.192 0-.192.192-.192l2.308-1.343c.192-.192.384 0 .577 0l2.308 1.343c.192 0 .192.192.192.192 0 .191 0 .191-.192.191l-2.308 1.343h-.193zm0-3.069l-2.5 1.343 2.308 1.343h.192l2.308-1.343-2.308-1.343c.193 0 0 0 0 0z" fill="#00CC06"/><path opacity=".1" d="M174.531 209.52l22.156-12.816c1.602-.905 1.393-2.507-.418-3.552l-21.25-12.259c-1.811-1.045-4.598-1.184-6.131-.279l-22.156 12.816c-1.602.906-1.393 2.508.418 3.553l21.25 12.259c1.812 1.044 4.529 1.184 6.131.278z" fill="#136112"/><path d="M197.941 184.784c-.192.192-.192.192 0 0v.576l-.192.192-.192.192h-.577l-23.462 13.618v3.07l23.654-13.619h.385l.192-.192v-.576l.192-3.261zm-52.694 1.151c-.577-.383-.962-.767-.962-1.342v3.069c0 .383.385.959.962 1.342l23.654 13.619v-3.069l-23.654-13.619z" fill="#00CC06"/><path d="M196.979 183.442c1.154.767 1.346 1.918 0 2.685l-23.462 13.619c-1.154.767-3.27.767-4.424 0l-23.654-13.619c-1.154-.767-1.346-1.918 0-2.685l23.654-13.619c1.154-.767 3.27-.767 4.424 0l23.462 13.619z" fill="#91F66D"/><path d="M171.21 197.253c-.769 0-1.538-.192-2.115-.576l-20.77-11.701c-.577-.383-.962-.767-.962-1.342 0-.576.385-.959.962-1.343l20.577-11.893c.577-.383 1.347-.575 2.116-.575.769 0 1.538.192 2.115.575l20.77 11.893c.577.384.962.767.962 1.343 0 .575-.385.959-.962 1.342l-20.577 11.893c-.77.384-1.347.384-2.116.384zm-.192-27.046c-.769 0-1.346.191-1.923.383l-20.578 12.085c-.384.191-.769.575-.769.959 0 .383.192.767.769.959l20.77 11.892c.577.384 1.154.384 1.923.384.769 0 1.346-.192 1.923-.384l20.578-11.892c.384-.192.769-.576.769-.959 0-.384-.192-.768-.769-.959l-20.77-11.893c-.577-.384-1.346-.575-1.923-.575zm1.922 32.608c.192 0 .577-.192.577-.383v-3.069s-.385.191-.577.383c0 0-.193 0-.193.192h-3.654c-.192 0-.192 0-.384-.192h-.193l-.577-.383v3.069s.385.191.577.383h.193c.192 0 .192 0 .384.192h2.308c1.346 0 1.539-.192 1.539-.192z" fill="#00CC06"/><path d="M171.015 186.127c-.192 0-.385 0-.385-.191l-3.846-2.302c-.192 0-.192-.192-.192-.384s0-.192.192-.383l3.846-2.302c.193-.192.577-.192.962 0l3.846 2.302c.193 0 .193.191.193.383s0 .192-.193.384l-3.846 2.302c-.192.191-.385.191-.577.191zm0-4.987h-.192l-3.847 2.302 3.847 2.302h.577l3.846-2.302-3.846-2.302h-.385z" fill="#00CC06"/><path d="M171.018 185.168h-.385l-2.308-1.343c-.192 0-.192-.191-.192-.191 0-.192 0-.192.192-.192l2.308-1.343c.192-.192.385 0 .577 0l2.308 1.343c.192 0 .192.192.192.192 0 .191 0 .191-.192.191l-2.308 1.343h-.192zm0-3.069l-2.501 1.343 2.308 1.342h.193l2.307-1.342-2.307-1.343c.192 0 0 0 0 0z" fill="#00CC06"/><path d="M102.443 422.465c-.137 0-.41-.136-.547-.272-.136-.273-.136-.682.137-.818l.683-.409c.273-.136.683-.136.819.137.137.272.137.681-.136.817l-.683.409c-.137 0-.273.136-.273.136z" fill="url(#paint4_linear)"/><path d="M450.609 210.483c-.137 0-.41-.136-.547-.272-.136-.273-.136-.682.137-.818l.683-.408c.273-.137.683-.137.819.136.137.272.137.681-.136.817l-.683.409c0 .136-.137.136-.273.136z" fill="url(#paint5_linear)"/><path opacity=".1" d="M153.531 488.52l22.156-12.816c1.602-.905 1.393-2.507-.418-3.552l-21.25-12.259c-1.811-1.045-4.598-1.184-6.131-.279l-22.156 12.816c-1.602.906-1.393 2.508.418 3.553l21.25 12.259c1.812 1.044 4.529 1.184 6.131.278z" fill="#136112"/><path d="M176.941 463.784c-.192.192-.192.192 0 0v.576l-.192.192-.192.192h-.577l-23.462 13.618v3.07l23.654-13.619h.385l.192-.192v-.576l.192-3.261zm-52.694 1.151c-.577-.383-.962-.767-.962-1.342v3.069c0 .383.385.959.962 1.342l23.654 13.619v-3.069l-23.654-13.619z" fill="#00CC06"/><path d="M175.979 462.442c1.154.767 1.346 1.918 0 2.685l-23.462 13.619c-1.154.767-3.27.767-4.424 0l-23.654-13.619c-1.154-.767-1.346-1.918 0-2.685l23.654-13.619c1.154-.767 3.27-.767 4.424 0l23.462 13.619z" fill="#91F66D"/><path d="M150.21 476.253c-.769 0-1.538-.192-2.115-.576l-20.77-11.701c-.577-.383-.962-.767-.962-1.342 0-.576.385-.959.962-1.343l20.577-11.893c.577-.383 1.347-.575 2.116-.575.769 0 1.538.192 2.115.575l20.77 11.893c.577.384.962.767.962 1.343 0 .575-.385.959-.962 1.342l-20.577 11.893c-.77.384-1.347.384-2.116.384zm-.192-27.046c-.769 0-1.346.191-1.923.383l-20.578 12.085c-.384.191-.769.575-.769.959 0 .383.192.767.769.959l20.77 11.892c.577.384 1.154.384 1.923.384.769 0 1.346-.192 1.923-.384l20.578-11.892c.384-.192.769-.576.769-.959 0-.384-.192-.768-.769-.959l-20.77-11.893c-.577-.384-1.346-.575-1.923-.575zm1.922 32.608c.192 0 .577-.192.577-.383v-3.069s-.385.191-.577.383c0 0-.193 0-.193.192h-3.654c-.192 0-.192 0-.384-.192h-.193l-.577-.383v3.069s.385.191.577.383h.193c.192 0 .192 0 .384.192h2.308c1.346 0 1.539-.192 1.539-.192z" fill="#00CC06"/><path d="M150.015 465.127c-.192 0-.385 0-.385-.191l-3.846-2.302c-.192 0-.192-.192-.192-.384s0-.192.192-.383l3.846-2.302c.193-.192.577-.192.962 0l3.846 2.302c.193 0 .193.191.193.383s0 .192-.193.384l-3.846 2.302c-.192.191-.385.191-.577.191zm0-4.987h-.192l-3.847 2.302 3.847 2.302h.577l3.846-2.302-3.846-2.302h-.385z" fill="#00CC06"/><path d="M150.018 464.168h-.385l-2.308-1.343c-.192 0-.192-.191-.192-.191 0-.192 0-.192.192-.192l2.308-1.343c.192-.192.385 0 .577 0l2.308 1.343c.192 0 .192.192.192.192 0 .191 0 .191-.192.191l-2.308 1.343h-.192zm0-3.069l-2.501 1.343 2.308 1.343h.193l2.307-1.343-2.307-1.343c.192 0 0 0 0 0z" fill="#00CC06"/><path opacity=".1" d="M30.531 417.52l22.156-12.816c1.602-.905 1.393-2.507-.418-3.552l-21.25-12.259c-1.811-1.045-4.598-1.184-6.131-.279L2.732 401.43c-1.602.906-1.393 2.508.418 3.553l21.25 12.259c1.812 1.044 4.529 1.184 6.131.278z" fill="#136112"/><path d="M53.941 392.784c-.192.192-.192.192 0 0v.576l-.192.192-.192.192h-.577l-23.462 13.618v3.07l23.654-13.619h.385l.192-.192v-.576l.192-3.261zm-52.694 1.151c-.577-.383-.962-.767-.962-1.342v3.069c0 .383.385.959.962 1.342L24.9 410.623v-3.069L1.247 393.935z" fill="#00CC06"/><path d="M52.979 391.442c1.154.767 1.346 1.918 0 2.685l-23.462 13.619c-1.154.767-3.27.767-4.424 0L1.44 394.127c-1.154-.767-1.346-1.918 0-2.685l23.654-13.619c1.154-.767 3.27-.767 4.424 0l23.462 13.619z" fill="#91F66D"/><path d="M27.21 405.253c-.77 0-1.538-.192-2.115-.576l-20.77-11.701c-.577-.383-.962-.767-.962-1.342 0-.576.385-.959.962-1.343l20.577-11.893c.577-.383 1.347-.575 2.116-.575.77 0 1.538.192 2.115.575l20.77 11.893c.577.384.962.767.962 1.343 0 .575-.385.959-.962 1.342l-20.577 11.893c-.77.384-1.347.384-2.116.384zm-.192-27.046c-.77 0-1.346.191-1.923.383L4.517 390.675c-.384.191-.77.575-.77.959 0 .383.193.767.77.959l20.77 11.892c.577.384 1.154.384 1.923.384.77 0 1.346-.192 1.923-.384l20.578-11.892c.385-.192.77-.576.77-.959 0-.384-.193-.768-.77-.959l-20.77-11.893c-.577-.384-1.346-.575-1.923-.575zm1.922 32.608c.192 0 .576-.192.576-.383v-3.069s-.384.191-.576.383c0 0-.193 0-.193.192h-3.654c-.192 0-.192 0-.384-.192h-.193l-.576-.383v3.069s.384.191.576.383h.193c.192 0 .192 0 .384.192h2.308c1.346 0 1.539-.192 1.539-.192z" fill="#00CC06"/><path d="M27.015 394.127c-.192 0-.385 0-.385-.191l-3.846-2.302c-.192 0-.192-.192-.192-.384s0-.192.192-.383l3.846-2.302c.193-.192.577-.192.962 0l3.846 2.302c.193 0 .193.191.193.383s0 .192-.193.384l-3.846 2.302c-.192.191-.385.191-.577.191zm0-4.987h-.192l-3.847 2.302 3.847 2.302h.577l3.846-2.302-3.846-2.302h-.385z" fill="#00CC06"/><path d="M27.017 393.168h-.384l-2.308-1.343c-.192 0-.192-.191-.192-.191 0-.192 0-.192.192-.192l2.308-1.343c.192-.192.384 0 .577 0l2.308 1.343c.192 0 .192.192.192.192 0 .191 0 .191-.192.191l-2.308 1.343h-.193zm0-3.069l-2.5 1.343 2.308 1.343h.192l2.308-1.343-2.308-1.343c.193 0 0 0 0 0z" fill="#00CC06"/><path opacity=".1" d="M518.531 267.52l22.156-12.816c1.602-.905 1.393-2.507-.418-3.552l-21.25-12.259c-1.811-1.045-4.598-1.184-6.131-.279l-22.156 12.816c-1.602.906-1.393 2.508.418 3.553l21.25 12.259c1.812 1.044 4.529 1.184 6.131.278z" fill="#136112"/><path d="M541.941 242.784c-.192.192-.192.192 0 0v.576l-.192.192-.192.192h-.577l-23.462 13.618v3.07l23.654-13.619h.385l.192-.192v-.576l.192-3.261zm-52.694 1.151c-.577-.383-.962-.767-.962-1.342v3.069c0 .383.385.959.962 1.342l23.654 13.619v-3.069l-23.654-13.619z" fill="#00CC06"/><path d="M540.979 241.442c1.154.767 1.346 1.918 0 2.685l-23.462 13.619c-1.154.767-3.27.767-4.424 0l-23.654-13.619c-1.154-.767-1.346-1.918 0-2.685l23.654-13.619c1.154-.767 3.27-.767 4.424 0l23.462 13.619z" fill="#91F66D"/><path d="M515.21 255.253c-.769 0-1.538-.192-2.115-.576l-20.77-11.701c-.577-.383-.962-.767-.962-1.342 0-.576.385-.959.962-1.343l20.577-11.893c.577-.383 1.347-.575 2.116-.575.769 0 1.538.192 2.115.575l20.77 11.893c.577.384.962.767.962 1.343 0 .575-.385.959-.962 1.342l-20.577 11.893c-.77.384-1.347.384-2.116.384zm-.192-27.046c-.769 0-1.346.191-1.923.383l-20.578 12.085c-.384.191-.769.575-.769.959 0 .383.192.767.769.959l20.77 11.892c.577.384 1.154.384 1.923.384.769 0 1.346-.192 1.923-.384l20.578-11.892c.384-.192.769-.576.769-.959 0-.384-.192-.768-.769-.959l-20.77-11.893c-.577-.384-1.346-.575-1.923-.575zm1.922 32.608c.192 0 .577-.192.577-.383v-3.069s-.385.191-.577.383c0 0-.193 0-.193.192h-3.654c-.192 0-.192 0-.384-.192h-.193l-.577-.383v3.069s.385.191.577.383h.193c.192 0 .192 0 .384.192h2.308c1.346 0 1.539-.192 1.539-.192z" fill="#00CC06"/><path d="M515.015 244.127c-.192 0-.385 0-.385-.191l-3.846-2.302c-.192 0-.192-.192-.192-.384s0-.192.192-.383l3.846-2.302c.193-.192.577-.192.962 0l3.846 2.302c.193 0 .193.191.193.383s0 .192-.193.384l-3.846 2.302c-.192.191-.385.191-.577.191zm0-4.987h-.192l-3.847 2.302 3.847 2.302h.577l3.846-2.302-3.846-2.302h-.385z" fill="#00CC06"/><path d="M515.018 243.168h-.385l-2.308-1.343c-.192 0-.192-.191-.192-.191 0-.192 0-.192.192-.192l2.308-1.343c.192-.192.385 0 .577 0l2.308 1.343c.192 0 .192.192.192.192 0 .191 0 .191-.192.191l-2.308 1.343h-.192zm0-3.069l-2.501 1.343 2.308 1.343h.193l2.307-1.343-2.307-1.343c.192 0 0 0 0 0z" fill="#00CC06"/><path opacity=".1" d="M393.531 197.52l22.156-12.816c1.602-.905 1.393-2.507-.418-3.552l-21.25-12.259c-1.811-1.045-4.598-1.184-6.131-.279l-22.156 12.816c-1.602.906-1.393 2.508.418 3.553l21.25 12.259c1.812 1.044 4.529 1.184 6.131.278z" fill="#136112"/><path d="M416.941 172.784c-.192.192-.192.192 0 0v.576l-.192.192-.192.192h-.577l-23.462 13.618v3.07l23.654-13.619h.385l.192-.192v-.576l.192-3.261zm-52.694 1.151c-.577-.383-.962-.767-.962-1.342v3.069c0 .383.385.959.962 1.342l23.654 13.619v-3.069l-23.654-13.619z" fill="#00CC06"/><path d="M415.979 171.442c1.154.767 1.346 1.918 0 2.685l-23.462 13.619c-1.154.767-3.27.767-4.424 0l-23.654-13.619c-1.154-.767-1.346-1.918 0-2.685l23.654-13.619c1.154-.767 3.27-.767 4.424 0l23.462 13.619z" fill="#91F66D"/><path d="M390.21 185.253c-.769 0-1.538-.192-2.115-.576l-20.77-11.701c-.577-.383-.962-.767-.962-1.342 0-.576.385-.959.962-1.343l20.577-11.893c.577-.383 1.347-.575 2.116-.575.769 0 1.538.192 2.115.575l20.77 11.893c.577.384.962.767.962 1.343 0 .575-.385.959-.962 1.342l-20.577 11.893c-.77.384-1.347.384-2.116.384zm-.192-27.046c-.769 0-1.346.191-1.923.383l-20.578 12.085c-.384.191-.769.575-.769.959 0 .383.192.767.769.959l20.77 11.892c.577.384 1.154.384 1.923.384.769 0 1.346-.192 1.923-.384l20.578-11.892c.384-.192.769-.576.769-.959 0-.384-.192-.768-.769-.959l-20.77-11.893c-.577-.384-1.346-.575-1.923-.575zm1.922 32.608c.192 0 .577-.192.577-.383v-3.069s-.385.191-.577.383c0 0-.193 0-.193.192h-3.654c-.192 0-.192 0-.384-.192h-.193l-.577-.383v3.069s.385.191.577.383h.193c.192 0 .192 0 .384.192h2.308c1.346 0 1.539-.192 1.539-.192z" fill="#00CC06"/><path d="M390.015 174.127c-.192 0-.385 0-.385-.191l-3.846-2.302c-.192 0-.192-.192-.192-.384s0-.192.192-.383l3.846-2.302c.193-.192.577-.192.962 0l3.846 2.302c.193 0 .193.191.193.383s0 .192-.193.384l-3.846 2.302c-.192.191-.385.191-.577.191zm0-4.987h-.192l-3.847 2.302 3.847 2.302h.577l3.846-2.302-3.846-2.302h-.385z" fill="#00CC06"/><path d="M390.018 173.168h-.385l-2.308-1.343c-.192 0-.192-.191-.192-.191 0-.192 0-.192.192-.192l2.308-1.343c.192-.192.385 0 .577 0l2.308 1.343c.192 0 .192.192.192.192 0 .191 0 .191-.192.191l-2.308 1.343h-.192zm0-3.069l-2.501 1.343 2.308 1.342h.193l2.307-1.342-2.307-1.343c.192 0 0 0 0 0z" fill="#00CC06"/><path opacity=".4" d="M95.816 324.444c-8.195-4.768-8.195-12.398-.137-17.166l154.892-75.747c8.059-4.768 21.445-4.768 29.64 0l155.848 75.747c8.196 4.768 8.196 12.398.137 17.166l-154.892 89.779c-8.059 4.768-21.445 4.768-29.64 0L95.816 324.444z" fill="#B7C0EB"/><path d="M95.816 324.444c-8.195-4.632-8.195-12.397-.137-17.166l154.892 14.85c8.059-4.632 21.445-4.632 29.64 0l155.848-14.85c8.196 4.769 8.196 12.398.137 17.166l-154.892 89.779c-8.059 4.768-21.445 4.768-29.64 0L95.816 324.444z" fill="#00CC06"/><path d="M436.059 297.878c8.196 4.768 8.196 12.397.137 17.166l-154.892 89.779c-8.059 4.768-21.445 4.768-29.64 0L95.816 315.044c-8.195-4.769-8.195-12.398-.137-17.166l154.892-89.779c8.196-4.768 21.445-4.768 29.64 0l155.848 89.779z" fill="url(#paint6_linear)"/><path d="M496.774 356.255c-.273-.409-6.147 1.635-6.693 1.907l-.546.273c-.274.136-.41.272-.547.408-.136.273-.136.409-.136.681 0 .409.273.954.546 1.363.273.409.683.817 1.229.681.273 0 .41-.136.547-.272.273-.137.546-.273.683-.409.546-.136 5.19-4.224 4.917-4.632z" fill="#00CC06"/><path d="M490.354 357.753c-7.649-.136-30.733 5.45-34.557 7.63l-4.371 2.588c-1.639.954-3.278 1.635-4.234 3.27-.82 1.635-.956 3.542-.82 5.313.41 3.678 2.049 7.357 4.235 10.217 2.185 2.861 5.6 5.995 9.561 5.722 1.775-.136 1.775-2.724 3.278-3.678 1.912-1.09 3.688-.136 5.6-1.226 3.142-1.771 19.806-19.89 23.22-26.838.547-1.09-.546-2.998-1.912-2.998z" fill="url(#paint7_linear)"/><path d="M471.095 381.731c-.137-3.27-1.366-6.539-3.005-9.264-1.639-2.725-3.961-5.313-6.829-6.676-1.093-.545-2.322-.953-3.552-.953-1.775 0-3.141.953-4.507 1.907-4.371 2.588-8.742 5.041-13.113 7.629-4.371 2.589-8.741 5.177-13.249 7.629-1.639.954-3.278 1.635-4.234 3.27-.82 1.635-.956 3.542-.82 5.313.274 3.678 1.913 7.357 4.235 10.218 2.185 2.861 5.6 5.994 9.561 5.722 1.639-.137 3.005-1.09 4.507-2.044 1.913-1.09 3.688-2.18 5.6-3.27 3.688-2.179 7.376-4.223 11.064-6.403 3.688-2.179 7.376-4.223 11.064-6.403 1.366-.817 2.322-1.634 2.868-2.997.273-.953.41-2.316.41-3.678 0-.136 0 .136 0 0z" fill="#00CC06"/><path d="M436.401 401.757c-.136-2.588-.956-5.177-2.049-7.493-1.365-2.724-3.278-5.585-5.873-7.22-1.639-1.499-4.644-2.589-6.829-1.907-.547.136-.956.408-1.503.681-1.502.817-2.868 1.771-4.371 2.588-6.419 3.679-12.702 7.357-19.122 11.035-8.605 5.041-17.21 9.946-25.679 14.986-8.059 4.632-15.981 9.264-24.039 13.896-4.645 2.725-9.289 5.45-13.933 8.038-.273.136-.683.409-.956.545-2.185 1.226-2.868 4.087-2.731 6.539.136 3.679 1.775 7.357 3.824 10.354 2.049 2.861 5.464 6.131 9.288 6.267 2.049.136 3.688-1.09 5.327-2.18 2.185-1.226 4.371-2.588 6.556-3.814a659.033 659.033 0 0 1 13.249-7.629c8.742-5.177 17.62-10.218 26.499-15.395a2342.788 2342.788 0 0 0 24.859-14.441c4.098-2.452 8.332-4.768 12.429-7.22 1.64-.954 3.415-1.772 4.371-3.543.547-1.226.683-2.724.683-4.087 0-.136 0 .137 0 0z" fill="url(#paint8_linear)"/><path d="M338.194 436.497c5.601 3.27 10.108 11.172 10.108 17.575 0 6.403-4.644 8.991-10.244 5.858-5.6-3.27-10.244-11.035-10.108-17.575 0-6.403 4.644-8.991 10.244-5.858z" fill="#00CC06"/><path d="M352.536 451.211c-.137-5.586-3.141-11.035-7.239-14.85-1.776-1.635-4.098-3.133-6.556-3.542-3.005-.409-5.464 1.635-7.923 3.133 2.322-1.362 5.054-.544 7.24.682 2.868 1.634 5.19 4.359 6.966 7.084a21.743 21.743 0 0 1 3.141 8.583c.41 2.861 0 6.675-2.868 8.446 1.093-.681 2.322-1.362 3.415-2.043.956-.545 1.912-1.226 2.595-2.18 1.092-1.635 1.229-3.542 1.229-5.313 0-.136 0 .136 0 0z" fill="#00CC06"/><path d="M389.005 408.705v1.771l-48.626 28.065v-1.771l48.626-28.065zm-48.626 29.836l-5.6-3.27V433.5l5.6 3.27v1.771z" fill="#00CC06"/><path d="M340.379 436.77l-5.6-3.27 48.626-28.064 5.6 3.269-48.626 28.065z" fill="url(#paint9_linear)"/><path d="M188.766 320.425c0 .136-.136.409-.136.545-.137.273-.137.545-.274.817 0 .137-.136.273-.136.409a4.066 4.066 0 0 1-.547 1.09c-.136.136-.136.272-.136.272-.273.545-.683 1.09-.956 1.635l-1.366 2.18v4.768l1.366-2.179c.41-.545.683-1.09.956-1.499 0 0 0-.136.136-.136 0-.137.137-.273.137-.273.273-.408.41-.817.546-1.09 0-.136.137-.272.137-.408 0-.137.137-.137.137-.273.136-.136.136-.409.136-.545 0-.136.137-.408.137-.545v-.136c0-.272.136-.545.136-.817v-4.905a2.571 2.571 0 0 0-.273 1.09z" fill="#00CC06"/><path d="M254.33 328.872v4.768l.546-1.771v-4.768l-.546 1.771z" fill="#E4E7FB"/><path d="M250.642 329.553h-1.366c-.82 0-1.776-.136-2.595-.136h-13.932c-2.459.136-5.054.136-7.786.408-.41 0-.82 0-1.229.136-1.503.137-3.142.137-4.644.273-1.913.136-3.688.272-5.464.409-.546 0-1.093.136-1.639.136-1.229.136-2.595.272-3.824.409h-.274c-.409 0-.683.136-1.092.136a350.6 350.6 0 0 0-3.961.409c-.683.136-1.23.136-1.913.272l-3.278.409c-.683.136-1.366.136-1.912.272-1.093.136-2.049.273-3.005.409-.683.136-1.229.136-1.776.272-1.092.137-2.049.409-3.141.545-.41.137-.82.137-1.23.137h-.273c-1.502.272-3.005.544-4.371.817l-4.507-.545c-.82-.136-1.502-.136-2.185-.272h-.274c-.683 0-1.229-.137-1.775-.137h-3.688v4.769h3.824c.547 0 1.093.136 1.639.136h.547c.683 0 1.366.136 2.049.136l4.507.545c1.502-.273 2.868-.545 4.371-.817.546-.137.956-.137 1.502-.273 1.093-.136 2.049-.409 3.142-.545.546-.136 1.229-.136 1.912-.272.956-.137 2.049-.273 3.005-.409.683-.136 1.366-.136 2.049-.273 1.093-.136 2.049-.272 3.141-.408.683-.136 1.366-.136 2.049-.273 1.093-.136 2.186-.272 3.415-.408.683-.137 1.366-.137 2.049-.273.956-.136 1.776-.136 2.732-.272.819-.137 1.639-.137 2.458-.273 1.776-.136 3.552-.272 5.464-.409 1.639-.136 3.141-.272 4.78-.272h1.093c1.503-.136 2.869-.136 4.234-.272h.274c1.365 0 2.731-.137 4.097-.137h13.386c.82 0 1.776 0 2.595.137h1.366c1.229 0 2.459.136 3.688.272v-4.768c-1.639.136-2.868 0-4.234 0z" fill="#B7C0EB"/><path d="M177.157 333.504c-.82-.137-1.503-.137-2.186-.273h-.273c-.683 0-1.229-.136-1.776-.136h-3.688v4.768h3.825c.546 0 1.093.136 1.639.136h.546c.683 0 1.366.137 2.049.137l4.508.545v-4.769l-4.644-.408zm51.904 0h.273c1.366-.137 2.732-.137 4.098-.137h13.385c.82 0 1.776 0 2.596.137h1.365c1.23.136 2.459.136 3.688.272v-4.768c-1.229-.136-2.458-.136-3.688-.273h-1.365c-.82 0-1.776 0-2.596-.136h-8.741c-1.093 0-2.049 0-3.142.136h-2.049c-2.458.137-5.053.137-7.785.409-.41 0-.82 0-1.23.136-1.502.137-3.141.137-4.644.273-1.912.136-3.687.272-5.463.408-.546 0-1.093.137-1.639.137-1.23.136-2.595.272-3.825.408h-.273c-.41 0-.683.137-1.093.137-1.365.136-2.731.272-3.961.408-.683 0-1.229.137-1.912.273l-3.278.409c-.683.136-1.366.136-1.912.272-1.093.136-2.049.272-3.005.409-.683.136-1.23.136-1.776.272-1.093.136-2.049.273-3.141.545-.41.136-.82.136-1.23.273h-.273c-1.502.272-3.005.545-4.371.817v4.768c1.503-.272 2.869-.545 4.371-.817.546-.136.956-.136 1.503-.273 1.092-.136 2.048-.408 3.141-.545.546-.136 1.229-.136 1.912-.272.956-.136 2.049-.273 3.005-.409.683-.136 1.366-.136 2.049-.272 1.093-.136 2.049-.273 3.142-.409.683-.136 1.366-.136 2.049-.272 1.092-.137 2.185-.273 3.414-.409.683-.136 1.366-.136 2.049-.273.956-.136 1.776-.136 2.732-.272.819-.136 1.639-.136 2.458-.273 1.776-.136 3.552-.272 5.464-.408 1.639-.136 3.142-.273 4.781-.273h1.092c1.093-.272 2.459-.408 3.825-.408z" fill="#00CC06"/><path d="M254.876 328.054l-.547 1.771c-9.151-.681-20.898-.545-35.376.409-14.479 1.09-26.908 2.588-37.289 4.768l-4.508-.545c-3.824-.408-6.419-.545-8.058-.681v-.954l4.78-5.449c1.913-2.861 3.005-5.041 3.415-6.675.41-1.635 1.229-3.134.273-4.36 5.327-.136 7.922.545 10.108 1.771 1.912 1.09 1.366 3.815-1.366 8.038l-1.366 2.18c11.064-1.635 22.947-2.453 35.923-2.453 12.566 0 24.449-.272 33.874 1.227v.953h.137z" fill="#91F66D"/><path opacity=".1" d="M468.531 463.52l22.156-12.816c1.602-.905 1.393-2.507-.418-3.552l-21.25-12.259c-1.811-1.045-4.598-1.184-6.131-.279l-22.156 12.816c-1.602.906-1.393 2.508.418 3.553l21.25 12.259c1.812 1.044 4.529 1.184 6.131.278z" fill="#136112"/><path d="M491.941 438.784c-.192.192-.192.192 0 0v.576l-.192.192-.192.192h-.577l-23.462 13.618v3.07l23.654-13.619h.385l.192-.192v-.576l.192-3.261zm-52.694 1.151c-.577-.383-.962-.767-.962-1.342v3.069c0 .383.385.959.962 1.342l23.654 13.619v-3.069l-23.654-13.619z" fill="#00CC06"/><path d="M490.979 437.442c1.154.767 1.346 1.918 0 2.685l-23.462 13.619c-1.154.767-3.27.767-4.424 0l-23.654-13.619c-1.154-.767-1.346-1.918 0-2.685l23.654-13.619c1.154-.767 3.27-.767 4.424 0l23.462 13.619z" fill="#91F66D"/><path d="M465.21 451.253c-.769 0-1.538-.192-2.115-.576l-20.77-11.701c-.577-.383-.962-.767-.962-1.342 0-.576.385-.959.962-1.343l20.577-11.893c.577-.383 1.347-.575 2.116-.575.769 0 1.538.192 2.115.575l20.77 11.893c.577.384.962.767.962 1.343 0 .575-.385.959-.962 1.342l-20.577 11.893c-.77.384-1.347.384-2.116.384zm-.192-27.046c-.769 0-1.346.191-1.923.383l-20.578 12.085c-.384.191-.769.575-.769.959 0 .383.192.767.769.959l20.77 11.892c.577.384 1.154.384 1.923.384.769 0 1.346-.192 1.923-.384l20.578-11.892c.384-.192.769-.576.769-.959 0-.384-.192-.768-.769-.959l-20.77-11.893c-.577-.384-1.346-.575-1.923-.575zm1.922 32.608c.192 0 .577-.192.577-.383v-3.069s-.385.191-.577.383c0 0-.193 0-.193.192h-3.654c-.192 0-.192 0-.384-.192h-.193l-.577-.383v3.069s.385.191.577.383h.193c.192 0 .192 0 .384.192h2.308c1.346 0 1.539-.192 1.539-.192z" fill="#00CC06"/><path d="M465.015 440.127c-.192 0-.385 0-.385-.191l-3.846-2.302c-.192 0-.192-.192-.192-.384s0-.192.192-.383l3.846-2.302c.193-.192.577-.192.962 0l3.846 2.302c.193 0 .193.191.193.383s0 .192-.193.384l-3.846 2.302c-.192.191-.385.191-.577.191zm0-4.987h-.192l-3.847 2.302 3.847 2.302h.577l3.846-2.302-3.846-2.302h-.385z" fill="#00CC06"/><path d="M465.018 439.168h-.385l-2.308-1.343c-.192 0-.192-.191-.192-.191 0-.192 0-.192.192-.192l2.308-1.343c.192-.192.385 0 .577 0l2.308 1.343c.192 0 .192.192.192.192 0 .191 0 .191-.192.191l-2.308 1.343h-.192zm0-3.069l-2.501 1.343 2.308 1.343h.193l2.307-1.343-2.307-1.343c.192 0 0 0 0 0z" fill="#00CC06"/><path opacity=".1" d="M93.577 452.136l24.939-5.166c1.803-.363 1.616-1.189-.366-1.829l-23.24-7.509c-1.981-.64-5.07-.879-6.796-.512l-24.939 5.166c-1.803.363-1.616 1.189.366 1.829l23.24 7.509c1.981.64 4.992.875 6.796.512z" fill="#136112"/><path d="M85.096 386.227c1.366.817 2.732 1.907 3.688 3.269.41.682 7.512 13.079 14.615 17.166 3.688 2.18 6.146 2.588 6.283 2.588.41.137.819.273 1.093.409 1.775.954 3.004 3.406 3.004 5.994v9.401c0 20.435-25.678 16.757-28.683 14.986-3.005-1.771-28.684-27.384-28.684-47.819v-9.4c0-2.589 1.23-3.542 3.005-2.452.41.136.683.545 1.093.817.136.136 2.458 2.316 6.146 4.496 7.103 4.087 14.342-.137 14.752-.409.956-.136 2.322.273 3.688.954z" fill="#B7C0EB"/><path d="M128.532 377.508l-14.888 8.582v40.462c0 .273 0 .545-.137.818v.272c0 .409-.137.681-.137 1.09v.136c0 .273-.136.681-.136.954 0 .136 0 .272-.137.272 0 .137-.136.409-.136.545 0 .273-.137.409-.273.681 0 .137-.137.273-.137.409-.137.273-.273.545-.273.818 0 0 0 .136-.137.272 0 .136-.136.136-.136.272-.137.137-.137.409-.274.545 0 .137-.136.273-.136.273-.137.136-.137.272-.273.409-.137.136-.137.272-.274.272-.136.136-.136.273-.273.409l-.273.272c-.136.136-.273.273-.273.409l-.273.272-.41.409-.273.273c-.137.136-.273.272-.41.272l-.273.273c-.137.136-.273.272-.41.272-.137 0-.137.136-.273.136-.137.136-.273.273-.41.273-.136 0-.136.136-.273.136-.273.136-.41.272-.683.409 4.917-2.861 9.971-5.722 14.888-8.583.273-.136.547-.273.683-.409.137 0 .137-.136.273-.136.137-.136.274-.273.41-.273.137 0 .137-.136.273-.136.137-.136.273-.272.41-.272l.273-.273.41-.408.273-.273.41-.409.273-.272c.137-.136.273-.273.273-.409l.273-.272c.137-.137.274-.273.274-.409 0-.136.136-.136.136-.272l.137-.137c.136-.136.136-.272.273-.408 0-.137.137-.137.137-.273.136-.136.273-.409.273-.545 0-.136.136-.136.136-.272 0 0 0-.137.137-.137.137-.272.273-.544.273-.817v-.136c0-.136 0-.136.137-.273.136-.272.136-.408.273-.681v-.136c0-.136.136-.273.136-.409 0-.136 0-.272.137-.272v-.136c0-.273.137-.545.137-.818 0-.272.136-.545.136-.953v-2.725l.137-38.963z" fill="#00CC06"/><path fill-rule="evenodd" clip-rule="evenodd" d="M95.576 347.394c.022 0 .044.003.068.009a.212.212 0 0 0 .031-.002l-.008.008c.155.048.362.199.611.382.508.371 1.188.869 1.95.869.068 0 .102.035.136.069.034.034.068.068.136.068h.41s.137.136.273.136h.137c.068 0 .102.034.137.068.034.034.068.068.136.068s.102.034.137.068c.034.034.068.068.136.068h.137s.136.137.273.137l.137.136.136.136c.068 0 .103.034.137.068.034.034.068.068.136.068h.137c0 .085.052.117.124.161.045.028.097.06.149.112h.137c0 .136.136.136.136.136l.137.136c.136 0 .273.137.273.137h.137l.273.272.136.136.137.136.137.137.273.272.136.136.274.273.136.136c0 .027.026.09.07.176l.047-.028s.136.136.273.409c0 .068.034.102.068.136.034.034.068.068.068.136s.034.102.069.136c.034.034.068.068.068.137v.01l.157.25a1.87 1.87 0 0 1-.157-.208v.084c0 .068.034.102.068.136.034.034.068.068.068.136v.136c.069.069.103.137.137.205a.696.696 0 0 0 .137.204c.136 0 .136.136.136.136s.137.137.137.273c.136 0 .136.136.136.136.069.068.103.136.137.204a.687.687 0 0 0 .137.205c.136 0 .136.136.136.136a.716.716 0 0 1 .137.204.702.702 0 0 0 .136.205l.137.136c0 .272.137.409.273.545.137 0 .137.136.137.136a.702.702 0 0 1 .136.205.716.716 0 0 0 .137.204l.136.136c0 .068.035.102.069.136.034.034.068.068.068.137a.716.716 0 0 1 .137.204.711.711 0 0 0 .136.204c0 .068.034.103.069.137.034.034.068.068.068.136a.711.711 0 0 1 .136.204c.035.068.069.136.137.205.084 0 .117.052.161.123.028.045.06.097.112.149a.716.716 0 0 1 .137.204c.034.068.068.137.136.205a.696.696 0 0 1 .137.204.696.696 0 0 0 .137.204.729.729 0 0 1 .136.205.696.696 0 0 0 .137.204c.084 0 .116.052.161.124a.76.76 0 0 0 .112.149l.41.408.273.273c.136.272.273.408.41.545 0 .068.034.102.068.136.034.034.068.068.068.136.41.409.683.681.956 1.09 0 .068.034.102.069.136.034.034.068.068.068.137.137.136.273.306.41.476.136.171.273.341.409.477l.82.818.273.272.547.545.273.272.409.409.274.273.409.408.274.273.273.272c.068.068.136.102.205.137a.729.729 0 0 1 .205.136c.136 0 .136 0 .273.136.136 0 .273.136.409.272l.137.137c.137 0 .273.136.41.272.068 0 .102.034.136.068.035.034.069.068.137.068a.72.72 0 0 0 .205.137.729.729 0 0 1 .205.136c0 .136.136.136.136.136.137.068.239.136.342.204.102.069.205.137.341.205.137.068.239.136.342.204.102.068.205.136.341.205.069.068.171.102.273.136.103.034.205.068.274.136 0 .136.136.136.136.136.069 0 .137.034.205.068a.487.487 0 0 0 .205.068c.068 0 .102.035.137.069.034.034.068.068.136.068 0 0 .137.136.273.136.137.136.137.136.274.136.068 0 .102.034.136.068.034.034.068.068.137.068.136.137.136.137.273.137.068 0 .102.034.136.068.035.034.069.068.137.068 0 .136.137.136.137.136.068 0 .102.034.136.068.034.034.069.068.137.068a.421.421 0 0 0 .273.137c0 .136.137.136.137.136.136.136.136.136.273.136h.136c.137.136.137.136.273.136h.137c.137.136.137.136.273.136h.137v.001c.136.136.136.136.273.136h1.366c0 .136.137.136.137.136h.136c0 .136.137.136.137.136 0 .136.136.136.136.136h.137c0 .137.136.137.136.137h.137l.137.136.136.136.137.136.136.137.137.136.137.136c.136 0 .136.136.136.136.137 0 .137.137.137.137v.136s.136.136.136.272c0 .068.035.102.069.137.034.034.068.068.068.136v.136c.137 0 .137.136.137.136.136 0 .136.136.136.136v2.861c0 .069.034.212.069.355.034.143.068.286.068.354l-14.745 8.504-.008-.02c-.079-.19-.272-.653-.272-.746v-.409c-.137-.136-.137-.272-.137-.408-.136-.137-.136-.273-.136-.409-.069-.136-.103-.273-.137-.409-.034-.136-.068-.272-.136-.409 0-.068-.035-.136-.069-.204a.483.483 0 0 1-.068-.204c0-.068-.034-.136-.068-.205-.034-.068-.069-.136-.069-.204a.483.483 0 0 0-.068-.204.487.487 0 0 1-.068-.205s0-.136-.137-.272c-.052-.052-.104-.084-.149-.112-.072-.044-.124-.076-.124-.161l-.273-.272-.273-.273-.273-.272-.137-.136s-.137-.136-.273-.136c-.069 0-.103-.035-.137-.069-.034-.034-.068-.068-.136-.068-.137-.136-.137-.136-.274-.136-.136-.136-.136-.136-.273-.136h-1.502c-.137-.136-.137-.136-.273-.136h-.137c0-.137-.137-.137-.137-.137-.136-.136-.136-.136-.273-.136-.068 0-.102-.034-.136-.068-.035-.034-.069-.068-.137-.068h-.137c-.068 0-.102-.034-.136-.068-.034-.034-.068-.068-.137-.068-.068 0-.102-.034-.136-.069-.034-.034-.069-.068-.137-.068-.136-.136-.137-.136-.273-.136 0-.136-.137-.136-.137-.136h-.136c0-.136-.137-.136-.137-.136s-.136-.137-.273-.137c-.068 0-.102-.034-.137-.068-.034-.034-.068-.068-.136-.068h-.137c-.068 0-.102-.034-.136-.068-.035-.034-.069-.068-.137-.068 0-.136-.137-.136-.137-.136-.136 0-.409-.136-.546-.273-.137-.068-.239-.136-.341-.204-.103-.068-.205-.136-.342-.204 0-.137-.136-.137-.136-.137a.729.729 0 0 0-.205-.136.702.702 0 0 1-.205-.136c0-.136-.137-.136-.137-.136-.068 0-.102-.034-.136-.068-.035-.035-.069-.069-.137-.069l-.137-.136c-.136 0-.273-.136-.273-.136 0-.136-.136-.136-.136-.136 0-.085-.053-.117-.125-.161-.044-.028-.096-.06-.149-.112l-.136-.136c0-.084-.052-.116-.124-.161a.697.697 0 0 1-.149-.112l-.273-.272-.274-.272c-.136 0-.273-.137-.409-.273l-.137-.136c-.068-.068-.171-.136-.273-.204-.103-.069-.205-.137-.273-.205l-.137-.136-.546-.545-.137-.136-.136-.136-.547-.545-.136-.137-.137-.136c-.273-.272-.546-.579-.82-.885a20.963 20.963 0 0 0-.82-.886c-.136 0-.136-.136-.136-.136l-.136-.136v-.001c-.41-.408-.683-.681-.956-1.089v-.137l-.137-.136c-.137-.272-.273-.408-.41-.545l-.273-.272a1.871 1.871 0 0 0-.41-.545l-.136-.136-.137-.137c0-.136-.136-.272-.273-.408 0-.137 0-.137-.137-.273a.71.71 0 0 1-.136-.204.716.716 0 0 0-.137-.204.714.714 0 0 0-.149-.112c-.072-.045-.124-.077-.124-.161-.068-.068-.102-.136-.137-.204-.034-.068-.068-.137-.136-.205a.74.74 0 0 0-.15-.111c-.071-.045-.123-.077-.123-.161-.085 0-.117-.052-.162-.124a.746.746 0 0 0-.111-.149c0-.068-.035-.102-.069-.136-.034-.034-.068-.068-.068-.136-.137 0-.137-.136-.137-.136-.136 0-.136-.137-.136-.137 0-.136-.137-.272-.273-.408v-.137a1.878 1.878 0 0 0-.41-.544c-.137 0-.137-.137-.137-.137a.71.71 0 0 1-.136-.204c-.035-.068-.069-.136-.137-.204v-.137a.71.71 0 0 1-.137-.204c-.034-.068-.068-.136-.136-.204-.069-.068-.103-.137-.137-.205a.71.71 0 0 0-.136-.204v-.136a.703.703 0 0 1-.137-.205.71.71 0 0 0-.137-.204.71.71 0 0 1-.136-.204c-.034-.068-.068-.137-.137-.205-.068-.068-.136-.17-.205-.272-.068-.102-.136-.204-.205-.273a.415.415 0 0 0-.085-.28c-.028-.039-.051-.072-.051-.128l-.137-.137.07-.041a18.205 18.205 0 0 1-.118-.175c-.136-.204-.273-.408-.341-.476l-.41-.409-.41-.409-.136-.136-.41-.409a.715.715 0 0 0-.205-.136.715.715 0 0 1-.205-.136l-.136-.136a1.866 1.866 0 0 0-.547-.409c-.136-.136-.273-.136-.41.136h-.136c-.069-.068-.137-.102-.205-.136a.715.715 0 0 1-.205-.136c-.068-.068-.137-.102-.205-.137-.068-.034-.136-.068-.205-.136h-.136a.483.483 0 0 1-.205-.068.487.487 0 0 0-.205-.068h-.137c-.068 0-.136-.034-.205-.068a.483.483 0 0 0-.204-.068.487.487 0 0 1-.205-.068c-.069-.034-.137-.068-.205-.068-.137-.137-.273-.137-.41-.137H81.29l1.706-1.176c-.513.109-1.13.313-1.753.52-.933.309-1.878.622-2.5.622h-.136a.892.892 0 0 0-.367.085c-.067.027-.123.051-.18.051h-.136a.483.483 0 0 0-.205.068c-.069.034-.137.068-.205.068h-.137c-.068 0-.136.034-.205.068a.487.487 0 0 1-.204.068h-.137c-.068 0-.17.034-.273.068-.103.034-.205.069-.273.069-.137 0-.24.034-.342.068a1.014 1.014 0 0 1-.341.068h-.137c-.136.136-.41.136-.683.136h-3.551c-.273-.136-.41-.136-.546-.136h-.274c-.136-.136-.273-.136-.41-.136h-.273v-.001c-.136-.136-.136-.136-.273-.136-.136-.136-.136-.136-.273-.136h-.137c-.136-.136-.136-.136-.273-.136-.136-.136-.136-.136-.273-.136h-.137c0-.137-.136-.137-.136-.137h-.137c-.068 0-.102-.034-.136-.068-.035-.034-.069-.068-.137-.068 0-.136-.136-.136-.136-.136a.715.715 0 0 0-.205-.136.687.687 0 0 1-.205-.137c0-.136-.137-.136-.137-.136-.068 0-.102-.034-.136-.068-.035-.034-.069-.068-.137-.068 0 0-.137-.136-.273-.136-.069 0-.103-.034-.137-.068-.034-.035-.068-.069-.136-.069-.069 0-.103-.034-.137-.068-.034-.034-.068-.068-.137-.068l-.136-.136a1.89 1.89 0 0 0-.273-.204c-.103-.069-.205-.137-.274-.205 0-.136-.136-.136-.136-.136-.068-.068-.137-.102-.205-.136a.715.715 0 0 1-.205-.136c-.068 0-.102-.034-.137-.069-.034-.034-.068-.068-.136-.068s-.102-.034-.137-.068c-.034-.034-.068-.068-.136-.068h-.137c-.068 0-.102-.034-.136-.068-.035-.034-.069-.068-.137-.068s-.102-.034-.137-.068c-.034-.034-.068-.068-.136-.068-.069 0-.103-.034-.137-.068-.034-.035-.068-.069-.136-.069l-.137-.136h-.137l-.273-.272-.136-.137c0-.084-.052-.116-.125-.16-.044-.028-.096-.06-.148-.112l-.137-.136c-.273-.273-.547-.545-.82-.681l-.136-.137h-.137l-.136-.136h-.137l-.137-.136-.136-.136-.137-.137-.273-.272c-.068 0-.102-.034-.136-.068-.035-.034-.069-.068-.137-.068s-.103-.034-.137-.068c-.034-.035-.068-.069-.136-.069-.069 0-.103-.034-.137-.068-.034-.034-.068-.068-.137-.068-.068 0-.102-.034-.136-.068-.034-.034-.068-.068-.137-.068-.068 0-.102-.034-.136-.068-.034-.034-.069-.068-.137-.068-.136-.136-.136-.136-.273-.136h-1.093a.193.193 0 0 0-.047.005c2.385-1.387 4.801-2.774 7.218-4.16v-.001a1407.87 1407.87 0 0 0 7.444-4.291c.137-.136.137-.136.273-.136h1.366c0 .136.137.136.137.136h.137c0 .136.136.136.136.136l.137.136.136.137.137.136.136.136.137.136.137.137.136.136.137.136c.068 0 .102.034.136.068.035.034.069.068.137.068 0 .084.052.117.124.161.045.028.097.06.15.112.136 0 .272.136.409.272l.137.136.273.273.136.136c0 .084.052.117.125.161.044.027.096.06.148.112.069 0 .103.034.137.068.034.034.068.068.137.068.068 0 .102.034.136.068.034.034.069.068.137.068s.102.034.136.068c.035.034.069.068.137.068.137 0 .137 0 .273.137 0 .084.052.116.124.16.045.028.097.06.15.112l.136.136c.068.068.17.136.273.205.103.068.205.136.273.204.069.068.171.136.273.204.103.068.205.137.274.205l.136.136c.137 0 .41.136.547.272.068.068.17.103.273.137.102.034.205.068.273.136h.137c.068.068.17.102.273.136.102.034.205.068.273.136 0 .137.137.137.137.137.068 0 .136.034.204.068a.487.487 0 0 0 .205.068c.137.136.137.136.273.136.069 0 .137.034.205.068.069.034.137.068.205.068.137.136.137.137.273.137.137.136.274.136.41.136.137.136.137.136.273.136h.274c.136.136.273.136.41.136h.273c.273.136.41.136.546.136h3.551c.273-.136.546-.136.82-.136h.136c.137 0 .24-.034.342-.068.102-.034.205-.068.341-.068.069 0 .171-.034.273-.068.103-.034.205-.068.274-.068h.136a.483.483 0 0 0 .205-.068.487.487 0 0 1 .205-.068h.136c.069 0 .137-.035.205-.069a.487.487 0 0 1 .205-.068h.137c.16 0 .273-.046.367-.085a.48.48 0 0 1 .18-.051h.136a.487.487 0 0 0 .205-.068.487.487 0 0 1 .205-.068h.136a.487.487 0 0 0 .205-.068.487.487 0 0 1 .205-.068h.136c.069 0 .137-.035.205-.069.069-.034.137-.068.205-.068h.137c.068 0 .102-.034.137-.068.034-.034.068-.068.136-.068h.137c.136-.136.273-.136.273-.136.136-.136.273-.136.273-.136h.024l.133.003.013-.009zm-38.414 3.548l.226-.131c-.12.025-.226.131-.226.131zm56.62 36.099l.003-.002c.03.072.037.09-.003.002zM95.68 347.4c0-.001-.002-.001-.005.001l.005-.001z" fill="#00CC06"/><path d="M85.096 356.664c1.366.817 2.732 1.907 3.688 3.269.41.682 7.512 13.079 14.615 17.166 3.688 2.18 6.146 2.588 6.283 2.588.41.137.819.273 1.093.409 1.775.954 3.004 3.406 3.004 5.995v38.963c0 20.435-25.678 16.757-28.683 14.986-3.005-1.771-28.684-27.384-28.684-47.819v-38.963c0-2.589 1.23-3.542 3.005-2.452.41.136.683.545 1.093.817.136.136 2.458 2.316 6.146 4.496 7.103 4.087 14.342-.136 14.752-.409.956-.136 2.322.273 3.688.954z" fill="url(#paint10_linear)"/><path d="M286.276 380.219c-.136.136-.136.136 0 0v.408l-.136.136-.137.137h-.409l-16.664 9.672v2.18l16.8-9.673h.273l.137-.136v-.408l.136-2.316zm-37.425.817c-.41-.273-.683-.545-.683-.954v2.18c0 .272.273.681.683.954l16.8 9.672v-2.179l-16.8-9.673z" fill="#00CC06"/><path d="M285.593 379.265c.82.545.956 1.362 0 1.907l-16.664 9.673c-.819.545-2.322.545-3.141 0l-16.801-9.673c-.819-.545-.956-1.362 0-1.907l16.801-9.673c.819-.545 2.322-.545 3.141 0l16.664 9.673z" fill="#91F66D"/><path d="M267.291 389.074c-.547 0-1.093-.136-1.503-.409l-14.752-8.31c-.409-.273-.682-.545-.682-.954 0-.408.273-.681.682-.953l14.615-8.447c.41-.272.957-.409 1.503-.409.546 0 1.093.137 1.502.409l14.752 8.447c.41.272.683.545.683.953 0 .409-.273.681-.683.954l-14.615 8.446c-.546.273-.956.273-1.502.273zm-.137-19.209c-.546 0-.956.136-1.366.272l-14.615 8.583c-.273.136-.546.409-.546.681 0 .273.136.545.546.681l14.752 8.447c.409.272.819.272 1.366.272.546 0 .956-.136 1.365-.272l14.615-8.447c.274-.136.547-.408.547-.681 0-.272-.137-.545-.547-.681l-14.751-8.447a2.644 2.644 0 0 0-1.366-.408zm1.366 23.16c.137 0 .41-.136.41-.273v-2.179s-.273.136-.41.272c0 0-.137 0-.137.136h-2.595c-.136 0-.136 0-.273-.136h-.136l-.41-.272v2.179s.273.137.41.273h.136c.137 0 .137 0 .273.136h1.639c.956 0 1.093-.136 1.093-.136z" fill="#00CC06"/><path d="M267.153 381.172c-.136 0-.273 0-.273-.136l-2.732-1.635c-.136 0-.136-.136-.136-.272s0-.136.136-.273l2.732-1.634c.137-.137.41-.137.683 0l2.732 1.634c.136 0 .136.137.136.273s0 .136-.136.272l-2.732 1.635c-.137.136-.273.136-.41.136zm0-3.542h-.136l-2.732 1.635 2.732 1.635h.409l2.732-1.635-2.732-1.635h-.273z" fill="#00CC06"/><path d="M267.154 380.491h-.273l-1.639-.954c-.137 0-.137-.136-.137-.136 0-.136 0-.136.137-.136l1.639-.954c.137-.136.273 0 .41 0l1.639.954c.137 0 .137.136.137.136 0 .136 0 .136-.137.136l-1.639.954h-.137zm0-2.18l-1.775.954 1.639.954h.136l1.639-.954-1.639-.954c.137 0 0 0 0 0zm-126.878-80.092c-.136.136-.136.136 0 0v.408l-.136.136-.137.137h-.409l-16.664 9.672v2.18l16.8-9.673h.273l.137-.136v-.408l.136-2.316zm-37.425.817c-.41-.273-.683-.545-.683-.954v2.18c0 .272.273.681.683.954l16.8 9.672v-2.179l-16.8-9.673z" fill="#00CC06"/><path d="M139.593 297.265c.82.545.956 1.362 0 1.907l-16.664 9.673c-.819.545-2.322.545-3.141 0l-16.801-9.673c-.819-.545-.956-1.362 0-1.907l16.801-9.673c.819-.545 2.322-.545 3.141 0l16.664 9.673z" fill="#91F66D"/><path d="M121.291 307.074c-.547 0-1.093-.136-1.503-.409l-14.752-8.31c-.409-.273-.682-.545-.682-.954 0-.408.273-.681.682-.953l14.615-8.447c.41-.272.957-.409 1.503-.409.546 0 1.093.137 1.502.409l14.752 8.447c.41.272.683.545.683.953 0 .409-.273.681-.683.954l-14.615 8.446c-.546.273-.956.273-1.502.273zm-.137-19.209c-.546 0-.956.136-1.366.272l-14.615 8.583c-.273.136-.546.409-.546.681 0 .273.136.545.546.681l14.752 8.447c.409.272.819.272 1.366.272.546 0 .956-.136 1.365-.272l14.615-8.447c.274-.136.547-.408.547-.681 0-.272-.137-.545-.547-.681l-14.751-8.447a2.644 2.644 0 0 0-1.366-.408zm1.366 23.16c.137 0 .41-.136.41-.273v-2.179s-.273.136-.41.272c0 0-.137 0-.137.136h-2.595c-.136 0-.136 0-.273-.136h-.136l-.41-.272v2.179s.273.137.41.273h.136c.137 0 .137 0 .273.136h1.639c.956 0 1.093-.136 1.093-.136z" fill="#00CC06"/><path d="M121.153 299.172c-.136 0-.273 0-.273-.136l-2.732-1.635c-.136 0-.136-.136-.136-.272s0-.136.136-.273l2.732-1.634c.137-.137.41-.137.683 0l2.732 1.634c.136 0 .136.137.136.273s0 .136-.136.272l-2.732 1.635c-.137.136-.273.136-.41.136zm0-3.542h-.136l-2.732 1.635 2.732 1.635h.409l2.732-1.635-2.732-1.635h-.273z" fill="#00CC06"/><path d="M121.154 298.491h-.273l-1.639-.954c-.137 0-.137-.136-.137-.136 0-.136 0-.136.137-.136l1.639-.954c.137-.136.273 0 .41 0l1.639.954c.137 0 .137.136.137.136 0 .136 0 .136-.137.136l-1.639.954h-.137zm0-2.18l-1.775.954 1.639.954h.136l1.639-.954-1.639-.954c.137 0 0 0 0 0zm309.122.908c-.136.136-.136.136 0 0v.408l-.136.136-.137.137h-.409l-16.664 9.672v2.18l16.8-9.673h.273l.137-.136v-.408l.136-2.316zm-37.425.817c-.41-.273-.683-.545-.683-.954v2.18c0 .272.273.681.683.954l16.8 9.672v-2.179l-16.8-9.673z" fill="#00CC06"/><path d="M429.593 296.265c.82.545.956 1.362 0 1.907l-16.664 9.673c-.819.545-2.322.545-3.141 0l-16.801-9.673c-.819-.545-.956-1.362 0-1.907l16.801-9.673c.819-.545 2.322-.545 3.141 0l16.664 9.673z" fill="#91F66D"/><path d="M411.291 306.074c-.547 0-1.093-.136-1.503-.409l-14.752-8.31c-.409-.273-.682-.545-.682-.954 0-.408.273-.681.682-.953l14.615-8.447c.41-.272.957-.409 1.503-.409.546 0 1.093.137 1.502.409l14.752 8.447c.41.272.683.545.683.953 0 .409-.273.681-.683.954l-14.615 8.446c-.546.273-.956.273-1.502.273zm-.137-19.209c-.546 0-.956.136-1.366.272l-14.615 8.583c-.273.136-.546.409-.546.681 0 .273.136.545.546.681l14.752 8.447c.409.272.819.272 1.366.272.546 0 .956-.136 1.365-.272l14.615-8.447c.274-.136.547-.408.547-.681 0-.272-.137-.545-.547-.681l-14.751-8.447a2.644 2.644 0 0 0-1.366-.408zm1.366 23.16c.137 0 .41-.136.41-.273v-2.179s-.273.136-.41.272c0 0-.137 0-.137.136h-2.595c-.136 0-.136 0-.273-.136h-.136l-.41-.272v2.179s.273.137.41.273h.136c.137 0 .137 0 .273.136h1.639c.956 0 1.093-.136 1.093-.136z" fill="#00CC06"/><path d="M411.153 298.172c-.136 0-.273 0-.273-.136l-2.732-1.635c-.136 0-.136-.136-.136-.272s0-.136.136-.273l2.732-1.634c.137-.137.41-.137.683 0l2.732 1.634c.136 0 .136.137.136.273s0 .136-.136.272l-2.732 1.635c-.137.136-.273.136-.41.136zm0-3.542h-.136l-2.732 1.635 2.732 1.635h.409l2.732-1.635-2.732-1.635h-.273z" fill="#00CC06"/><path d="M411.154 297.491h-.273l-1.639-.954c-.137 0-.137-.136-.137-.136 0-.136 0-.136.137-.136l1.639-.954c.137-.136.273 0 .41 0l1.639.954c.137 0 .137.136.137.136 0 .136 0 .136-.137.136l-1.639.954h-.137zm0-2.18l-1.775.954 1.639.954h.136l1.639-.954-1.639-.954c.137 0 0 0 0 0z" fill="#00CC06"/><path d="M420.968 71.932C382.04 49.317 343.112 26.838 304.184 4.223c0 0-.136 0-.136-.136-.137 0-.137-.136-.274-.136-.409-.273-.819-.409-1.229-.545-.136 0-.136-.136-.273-.136h-.137c-.409-.137-.956-.41-1.502-.545l-1.639-.41h-.41c-.546-.135-.956-.135-1.502-.135h-3.415c-.41 0-.82.136-1.366.136-.41.136-.956.136-1.366.272-.136 0-.273.137-.41.137-.273.136-.683.136-.956.272h-.136c-.547.136-1.093.273-1.776.545-.137 0-.273.136-.41.136-.41.137-.956.273-1.366.545 0 0-.136 0-.136.136-.137 0-.273.137-.41.137-.546.272-.956.408-1.502.68-.137.137-.41.137-.547.273-.683.273-1.366.682-2.049 1.09-.546.273-.956.545-1.502.954-.137.136-.273.272-.547.272-.409.273-.682.409-.956.682-.136.136-.409.272-.546.408-.273.273-.683.409-.956.681-.137.137-.41.273-.546.41a4.155 4.155 0 0 1-.957.68c-.136.136-.409.273-.546.409-.41.272-.683.545-1.093.954-.136.136-.273.136-.409.272-.41.409-.957.818-1.366 1.226l-.274.273c-.273.272-.682.545-.956.953l-.136.137c-1.093 1.09-2.186 2.18-3.278 3.405l-.137.137-.137.136c-.819.954-1.639 1.907-2.322 2.86v.137c0 .136-.136.136-.136.273-.546.817-1.229 1.634-1.776 2.452 0 .136-.136.136-.136.272 0 0 0 .137-.137.137l-1.639 2.452c0 .136-.137.136-.137.272-.136.136-.136.273-.273.409l-1.229 2.043c0 .137-.137.273-.137.273s0 .136-.136.136c-.41.817-.956 1.635-1.366 2.316 0 .136-.137.136-.137.136-.136.137-.136.273-.273.41-.273.68-.683 1.225-.956 1.906 0 .137-.137.273-.137.41 0 .135-.136.135-.136.272-.41.817-.82 1.634-1.093 2.452v.136c0 .136-.137.136-.137.273-.273.68-.682 1.498-.956 2.18 0 .136-.136.272-.136.408 0 .136 0 .136-.137.272-.273.954-.683 1.772-.956 2.725v.136c-.273.954-.546 1.771-.82 2.725 0 .136-.136.273-.136.409 0 .136 0 .272-.137.272-.136.273-.136.545-.273.818-.136.408-.136.68-.273 1.09 0 .272-.137.544-.137.817 0 .272-.136.409-.136.681 0 .136 0 .273-.137.409-.136.409-.136.817-.273 1.226 0 .272-.137.545-.137.817-.136.41-.136.818-.136 1.227 0 .272 0 .408-.137.68v.137c-.136.953-.273 1.77-.273 2.725v.544c0 .954-.137 1.908-.137 2.725v12.67l.41 147.815c0 .818 0 1.635-.136 2.452v.409c0 .818-.137 1.635-.274 2.452 0 .273 0 .409-.136.682 0 .136 0 .408-.137.545l-20.488-11.853s-.137 0-.137-.136c0 0-.136 0-.136-.136l-.82-.409s-.136 0-.136-.136h-.137c-.41-.137-.683-.273-1.093-.409-.409-.136-.819-.136-1.092-.273h-.274c-.409 0-.682-.136-1.092-.136h-1.776c-.546 0-.956.136-1.502.136-.274 0-.683.137-1.093.137h-.273c-.273 0-.41.136-.683.136l-1.23.409c-.136 0-.136.136-.273.136-.273.136-.683.272-.956.409h-.136c-.137 0-.137.136-.274.136a4.068 4.068 0 0 0-1.092.545c-.137 0-.273.136-.41.272-.546.273-.956.545-1.503.818-.683.408-1.365.817-2.185 1.362-.273.136-.41.409-.683.545-.41.272-.956.681-1.366.954-.273.272-.546.408-.819.681-.41.408-.82.681-1.23 1.09l-.819.817-.547.545c-.273.272-.546.545-.682.817l-.41.409c-.547.545-.956 1.09-1.366 1.499-.137.136-.137.136-.137.272-.273.409-.546.681-.819 1.09-.273.273-.547.545-.683.954l-.273.272c-.274.273-.41.545-.683.818-.274.272-.41.545-.683.953-.137.136-.273.409-.41.545-.137.273-.41.545-.546.818-.137.272-.274.408-.41.681-.273.272-.41.681-.683.953-.137.273-.273.409-.41.682 0 .136-.136.136-.136.272-.41.681-.683 1.226-1.093 1.907v.137c0 .136-.137.272-.137.408-.273.545-.546.954-.683 1.499-.136.136-.136.409-.273.545l-.41.817c-.136.273-.273.409-.273.681l-.41 1.227c-.136.272-.136.408-.273.681 0 .136-.136.136-.136.272-.274.681-.547 1.499-.82 2.18 0 .136-.137.272-.137.409-.273.681-.409 1.226-.546 1.907v.272c-.136.409-.273.818-.273 1.363-.137.408-.273.817-.273 1.226 0 .136 0 .272-.137.409 0 .136 0 .272-.136.408l-.41 2.453v.136c-.137.953-.137 1.771-.273 2.724v1.363c0 2.452.273 4.496.819 6.539 1.366 5.858 4.234 10.354 8.605 12.806l116.921 67.709c6.009 3.406 14.068 2.589 22.673-2.316 8.605-4.904 16.528-13.351 22.537-23.705 6.01-10.354 9.289-21.525 9.289-31.334v-12.67l-.41-147.815c0-17.711 12.293-39.372 27.727-48.5l29.367 17.03-.137-.137c.274.273.82.273 1.503 0 .956-.544 1.776-2.043 1.776-3.133 0-10.49-3.688-17.574-9.425-20.844z" fill="#48E357"/><path d="M349.24 297.723c0-.137 0-.409.137-.545v-.409c0-.409.137-.954.137-1.362.136-3.815-1.093-6.54-3.279-7.902l-71.162-45.23c2.048 1.362 3.414 4.087 3.278 7.902 0 .408 0 .817-.137 1.362v.409c0 .272-.136.545-.136.817 0 .272-.137.681-.137.954 0 .272-.137.408-.137.681 0 .272-.136.409-.136.681-.137.272-.137.545-.273.817 0 .137-.137.273-.137.545-.137.273-.273.682-.41.954 0 .136-.136.272-.136.409-.137.408-.41.817-.547 1.362 0 0 0 .136-.136.136-.137.409-.41.818-.547 1.09 0 .136-.136.273-.136.409-.137.409-.41.681-.683 1.09l-.137.136-.819 1.226c-.137.136-.137.273-.273.409-.137.272-.41.545-.683.817l-.41.409c-.137.272-.41.409-.547.681-.136.136-.273.409-.546.545-.137.136-.273.409-.546.545l-.82.817c-.136.137-.41.273-.546.545l-.41.409c-.273.136-.41.409-.683.545-.136.136-.273.272-.41.272-.273.137-.546.409-.819.545-.137.137-.273.137-.41.273-.41.272-.819.409-1.229.681l-.82.409c-.136 0-.136 0-.273.136s-.41.136-.546.272c0 0-.137 0-.137.137-.136 0-.41.136-.546.136h-.137c-.273 0-.41.136-.683.136h-.136c-.41.136-.683.136-.956.136h-1.776c-.137 0-.41 0-.547-.136h-.136c-.137 0-.41-.136-.546-.136-.137 0-.41-.136-.547-.273 0 0-.136 0-.136-.136-.137-.136-.274-.136-.41-.272 0 0-.137 0-.137-.137 23.767 15.123 47.397 30.108 71.163 45.231h.137c.136.136.273.136.409.272h.274c.136.136.409.136.546.272.137 0 .41.137.546.137h.273c.137 0 .41 0 .547.136h1.912c.273 0 .683-.136.956-.136.273 0 .41-.137.683-.137h.137c.136 0 .41-.136.546-.136h.137c.136-.136.409-.136.546-.272.137 0 .137 0 .273-.136l.82-.409c.41-.273.819-.409 1.229-.681.137-.137.273-.137.41-.273.273-.136.546-.409.819-.545.137-.136.274-.272.41-.272.273-.136.547-.409.683-.545l.41-.409.273-.272.273-.273.82-.817.273-.273.273-.272c.137-.136.273-.409.546-.545.137-.136.274-.273.274-.409.136-.136.136-.272.273-.272l.41-.409.273-.272c.136-.137.273-.409.41-.545.136-.137.136-.273.273-.409 0 0 0-.136.136-.136.273-.273.41-.681.683-.954 0-.136.137-.136.137-.272.136-.273.273-.409.41-.682 0-.136.136-.272.136-.272.137-.136.137-.273.137-.409 0-.136.136-.272.136-.272l.41-.818s0-.136.137-.136c.136-.409.273-.681.546-1.09 0 0 0-.136.137-.136 0-.136.136-.272.136-.409.137-.136.137-.408.273-.545 0-.136.137-.272.137-.408 0-.137.137-.273.137-.545 0-.137.136-.273.136-.273 0-.136.137-.408.137-.545 0-.272.136-.408.136-.545v-.272c.137-.273.137-.681.274-.954v-.136c-.41-.545-.274-.681-.274-.817z" fill="url(#paint11_linear)"/><path d="M306.369 330.098c-.547-1.908-.82-4.088-.82-6.54v-1.362l-116.92-67.709v1.362c0 2.453.273 4.496.819 6.54 1.366 5.858 4.235 10.354 8.606 12.806l116.92 67.709c-4.371-2.453-7.239-6.812-8.605-12.806z" fill="url(#paint12_linear)"/><path d="M306.233 317.155c0-.136 0-.272.136-.545.137-.545.274-1.09.41-1.498.137-.409.273-.954.273-1.363.137-.681.41-1.498.683-2.179 0-.137.137-.273.137-.409.273-.818.546-1.771.956-2.589.137-.272.137-.408.273-.681.273-.681.546-1.226.82-1.907.136-.273.273-.545.409-.681.274-.681.683-1.363.957-2.044.136-.136.136-.272.136-.408.41-.818.82-1.499 1.366-2.316.137-.273.273-.409.41-.682.41-.545.683-1.09 1.093-1.634.136-.273.409-.545.546-.818.273-.545.683-.954 1.093-1.498.273-.273.409-.545.683-.818.273-.409.682-.817.956-1.226.273-.409.546-.681.819-1.09.547-.681 1.093-1.226 1.639-1.771l.41-.409 1.366-1.362c.273-.272.546-.545.819-.681.41-.409.82-.681 1.23-1.09.273-.273.546-.409.819-.681.41-.409.956-.681 1.366-.954.273-.136.41-.409.683-.545.683-.409 1.366-.953 2.186-1.362.546-.273.956-.545 1.502-.818.137-.136.273-.136.41-.136.41-.136.683-.272 1.092-.545.137 0 .274-.136.41-.136.273-.136.683-.272.956-.409.137 0 .137-.136.274-.136l1.229-.409c.273-.136.546-.136.819-.136.137 0 .137 0 .274-.136.409-.136.683-.136 1.092-.136.547-.137 1.093-.137 1.503-.137h1.775c.41 0 .683 0 1.093.137h.273c.41.136.82.136 1.093.272.41.136.683.273 1.093.409.136 0 .273.136.273.136l.819.409c.137 0 .137.136.274.136L228.24 214.57s-.136 0-.136-.136c0 0-.137 0-.137-.136l-.819-.409s-.137 0-.137-.136h-.136c-.41-.137-.683-.273-1.093-.409-.41-.136-.82-.136-1.093-.272h-.273c-.41 0-.683-.137-1.093-.137h-1.775c-.547 0-.956.137-1.503.137-.273 0-.683.136-1.093.136h-.273c-.273 0-.409.136-.683.136l-1.229.409c-.137 0-.137.136-.273.136-.273.136-.683.272-.956.409h-.137c-.136 0-.136.136-.273.136-.41.136-.683.272-1.093.545-.136 0-.273.136-.41.272-.546.273-.956.545-1.502.818-.683.408-1.366.817-2.185 1.362-.274.136-.41.409-.683.545-.41.272-.957.681-1.366.954-.273.272-.547.408-.82.681-.41.272-.819.681-1.229 1.09l-.82.817-.546.545c-.273.273-.546.545-.683.817l-.41.409c-.546.545-.956 1.09-1.366 1.499-.136.136-.136.136-.136.272-.273.409-.547.681-.82 1.09-.273.273-.546.545-.683.954-.136.136-.136.272-.273.272-.273.273-.41.545-.683.818-.273.272-.41.545-.683.953-.136.137-.273.409-.409.545-.137.273-.41.545-.547.818-.136.272-.273.408-.41.681-.273.272-.409.681-.683.953-.136.273-.273.409-.409.682 0 .136-.137.136-.137.272-.41.681-.683 1.226-1.093 1.907v.137c0 .136-.136.272-.136.408-.273.545-.547.954-.683 1.499-.137.136-.137.409-.273.545l-.41.817c-.137.273-.273.409-.273.681l-.41 1.227c-.137.272-.137.408-.273.681 0 .136-.137.136-.137.272-.273.681-.546 1.499-.819 2.18 0 .136-.137.272-.137.409-.273.681-.41 1.226-.546 1.907v.272c-.137.409-.273.818-.273 1.363-.137.409-.274.817-.274 1.226 0 .136 0 .272-.136.409 0 .136 0 .272-.137.408l-.41 2.453v.136c-.136.953-.136 1.771-.273 2.725l116.92 67.708c0-.953.137-1.771.274-2.724v-.137c-.683-.953-.547-1.771-.41-2.452z" fill="url(#paint13_linear)"/><path d="M425.612 92.504c0-8.856-3.142-15.123-8.332-18.12-38.928-22.615-77.856-45.23-116.784-67.709 5.054 2.998 8.195 9.264 8.332 18.12 0 .545.273.953.546 1.226l116.784 67.572c-.273-.136-.546-.544-.546-1.09z" fill="#0CE713"/><path d="M365.375 139.777v-12.533l-116.92-67.846v12.67l.41 147.815 116.92 67.846-.41-147.952z" fill="url(#paint14_linear)"/><path d="M397.2 72.068c17.62-10.217 31.962-2.043 32.098 18.256 0 1.226-.819 2.588-1.775 3.133-.956.545-1.776.136-1.913-1.09 0-17.847-12.839-25.067-28.41-16.212-15.571 8.992-28.274 30.789-28.274 48.772l.41 147.816v12.669c0 9.809-3.278 20.981-9.288 31.335-6.01 10.353-14.069 18.8-22.537 23.704-8.606 4.905-16.528 5.722-22.674 2.317-4.371-2.453-7.239-6.812-8.605-12.807-.547-1.907-.82-4.087-.82-6.539v-1.362c.82-14.714 10.791-31.334 22.947-38.419 12.703-7.356 23.084-1.362 23.084 13.079 0 14.577-10.245 32.288-22.947 39.644-2.732 1.635-5.464 2.589-7.923 2.998 4.918 1.362 10.654.136 16.801-3.406 7.512-4.36 14.615-11.853 19.942-20.98 5.327-9.264 8.195-19.073 8.195-27.656l-.41-147.815v-12.67c.137-19.891 14.479-44.55 32.099-54.767zM309.92 327.1c2.322 8.038 9.834 10.627 18.712 5.45 10.654-6.131 19.259-21.117 19.259-33.378s-8.741-17.165-19.395-11.035c-10.518 5.995-18.986 20.572-19.259 32.697 0 2.316.273 4.359.683 6.266z" fill="#00CC06"/><path d="M365.785 121.113c0-.273.137-.545.137-.817 0-.409.136-.818.136-1.227 0-.272.137-.545.137-.817.136-.409.136-.817.273-1.226.137-.273.137-.681.273-.954 0-.272.137-.545.137-.817.136-.409.136-.681.273-1.09 0-.273.137-.545.273-.817 0-.273.137-.409.137-.682.273-.953.546-1.771.819-2.724v-.273c.273-.953.683-1.771.956-2.725.137-.272.137-.408.274-.681.273-.681.546-1.498.956-2.179 0-.137.136-.273.136-.409.41-.818.683-1.635 1.093-2.452.137-.273.137-.409.273-.682.273-.68.683-1.226.956-1.907.137-.136.273-.409.273-.545.41-.817.82-1.635 1.366-2.316.137-.136.137-.272.273-.408l1.23-2.044c.136-.136.273-.409.41-.545l1.639-2.452c.136-.136.136-.273.273-.409.546-.817 1.229-1.635 1.775-2.452l.274-.273c.819-.953 1.502-1.907 2.322-2.86.136-.137.136-.273.273-.41 1.093-1.225 2.049-2.315 3.141-3.405l1.093-1.09.273-.272c.41-.41.956-.818 1.366-1.227.137-.136.273-.136.273-.272.41-.273.683-.681 1.093-.954.137-.136.41-.272.546-.408.274-.273.683-.545.957-.818.136-.136.409-.272.546-.409.273-.272.683-.408.956-.68.137-.137.41-.273.546-.41.274-.272.683-.408.956-.68.137-.137.274-.273.547-.273.546-.273.956-.681 1.502-.954.683-.408 1.366-.68 2.049-1.09.137-.136.41-.136.547-.272.546-.273.956-.409 1.502-.681.137-.137.41-.137.546-.273.41-.136.956-.408 1.366-.545.137 0 .273-.136.41-.136.546-.136 1.093-.409 1.776-.545.409-.136.683-.136 1.092-.272.137 0 .274-.136.41-.136.547-.137.956-.137 1.503-.273.409 0 .956-.136 1.365-.136h3.415c.547 0 .956.136 1.503.136.136 0 .273 0 .409.136l1.64.409c.546.136.956.272 1.502.545.137 0 .273.136.41.136.41.136.819.409 1.229.545.137.136.273.136.41.272-38.928-22.615-77.856-45.23-116.92-67.708 0 0-.137 0-.137-.137l.137.137-.137-.137c-.136 0-.136-.136-.273-.136-.41-.272-.82-.409-1.229-.545-.137 0-.137-.136-.274-.136h-.136c-.41-.136-.956-.409-1.503-.545L297.9.272h-.409c-.547-.136-.957-.136-1.503-.136h-3.415c-.409 0-.819.136-1.366.136-.409.137-.956.137-1.365.273-.137 0-.274.136-.41.136-.273.136-.683.136-.956.273h-.137c-.546.136-1.093.272-1.776.544-.136 0-.273.137-.409.137-.41.136-.956.272-1.366.545 0 0-.137 0-.137.136-.136 0-.273.136-.41.136-.546.273-.956.409-1.502.681-.137.137-.41.137-.546.273-.683.272-1.366.68-2.049 1.09-.547.272-.956.545-1.503.953 0 0-.136 0-.273.137-.41.272-.683.408-.956.68-.137.137-.41.273-.546.41-.274.272-.683.408-.957.68-.136.137-.409.273-.546.41a4.15 4.15 0 0 1-.956.68c-.137.137-.41.273-.546.41-.41.272-.683.544-1.093.953-.137.136-.273.136-.41.272-.41.409-.956.818-1.366 1.226l-.273.273c-.273.272-.683.545-.956.954l-.137.136c-1.092 1.09-2.185 2.18-3.278 3.406l-.136.136-.137.136c-.819.954-1.639 1.907-2.322 2.861v.136c0 .137-.137.137-.137.273-.682.817-1.229 1.635-1.775 2.452 0 .136-.137.136-.137.272 0 0 0 .137-.136.137l-1.639 2.452c0 .136-.137.136-.137.272-.137.137-.137.273-.273.41-.41.68-.82 1.361-1.229 2.043 0 .136-.137.272-.137.272s0 .136-.137.136c-.409.818-.956 1.635-1.366 2.316l-.136.137c-.137.136-.137.272-.273.408-.274.681-.683 1.226-.956 1.908 0 .136-.137.272-.137.408 0 .136-.137.136-.137.273-.409.817-.819 1.634-1.092 2.452v.136c0 .136-.137.136-.137.273-.273.68-.683 1.498-.956 2.18 0 .136-.137.272-.137.408 0 .136-.136.136-.136.273-.273.953-.683 1.77-.956 2.724v.136c-.274.954-.547 1.772-.82 2.725 0 .137-.136.273-.136.409 0 .136 0 .272-.137.272-.137.273-.137.545-.273.818-.137.408-.137.681-.273 1.09 0 .272-.137.545-.137.817 0 .273-.137.409-.137.681 0 .136 0 .273-.136.409-.137.409-.137.817-.273 1.226 0 .273-.137.545-.137.818-.137.408-.137.817-.137 1.226 0 .272 0 .408-.136.68v.137c-.137.954-.273 1.771-.273 2.725v.545c0 .953-.137 1.907-.137 2.724l116.92 67.709c0-.953 0-1.771.137-2.724v-.545c0-.954.136-1.771.273-2.725z" fill="url(#paint15_linear)"/><path d="M340.107 178.877l-73.212-42.097c-.546-.409-1.092-.136-1.092.681 0 .681.546 1.499 1.092 1.907l73.212 42.097c.546.409 1.093 0 1.093-.681 0-.818-.41-1.635-1.093-1.907zm0 11.852l-73.212-42.233c-.546-.409-1.092-.136-1.092.681 0 .681.546 1.499 1.092 1.908l73.212 42.096c.546.409 1.093 0 1.093-.681 0-.545-.547-1.499-1.093-1.771zm0 11.853l-73.212-42.097c-.546-.409-1.092-.136-1.092.681 0 .681.546 1.499 1.092 1.907l73.212 42.097c.546.409 1.093 0 1.093-.681s-.547-1.499-1.093-1.907zm0 11.852l-73.212-42.097c-.546-.408-1.092-.136-1.092.681 0 .682.546 1.499 1.092 1.908l73.212 42.096c.546.409 1.093 0 1.093-.681s-.547-1.498-1.093-1.907zm-.137 11.989l-73.211-42.097c-.547-.409-1.093 0-1.093.681 0 .682.546 1.499 1.093 1.908l73.211 42.096c.547.409 1.093 0 1.093-.681s-.41-1.635-1.093-1.907zm-10.927 5.585l-62.284-35.83c-.547-.408-1.093 0-1.093.682 0 .681.546 1.498 1.093 1.907l62.284 35.83c.547.408 1.093 0 1.093-.681 0-.682-.41-1.635-1.093-1.908zm-10.927 5.586l-51.357-29.563c-.547-.409-1.093-.136-1.093.681 0 .681.546 1.499 1.093 1.908l51.357 29.563c.547.408 1.093.136 1.093-.682 0-.681-.546-1.498-1.093-1.907z" fill="#00CC06"/><defs><linearGradient id="paint0_linear" x1="414.667" y1="446.226" x2="451.091" y2="432.934" gradientUnits="userSpaceOnUse"><stop stop-color="#437FEC"/><stop offset=".544" stop-color="#48B2ED"/><stop offset="1" stop-color="#4CD9ED"/></linearGradient><linearGradient id="paint1_linear" x1="398.647" y1="402.309" x2="435.086" y2="389.012" gradientUnits="userSpaceOnUse"><stop stop-color="#437FEC"/><stop offset=".544" stop-color="#48B2ED"/><stop offset="1" stop-color="#4CD9ED"/></linearGradient><linearGradient id="paint2_linear" x1="175.21" y1="398.165" x2="325.825" y2="343.203" gradientUnits="userSpaceOnUse"><stop stop-color="#437FEC"/><stop offset=".544" stop-color="#48B2ED"/><stop offset="1" stop-color="#4CD9ED"/></linearGradient><linearGradient id="paint3_linear" x1="106.682" y1="210.456" x2="257.399" y2="155.455" gradientUnits="userSpaceOnUse"><stop stop-color="#437FEC"/><stop offset=".544" stop-color="#48B2ED"/><stop offset="1" stop-color="#4CD9ED"/></linearGradient><linearGradient id="paint4_linear" x1="342.986" y1="508.852" x2="102.105" y2="420.949" gradientUnits="userSpaceOnUse"><stop stop-color="#437FEC"/><stop offset=".544" stop-color="#48B2ED"/><stop offset="1" stop-color="#4CD9ED"/></linearGradient><linearGradient id="paint5_linear" x1="451.743" y1="210.021" x2="210.907" y2="122.134" gradientUnits="userSpaceOnUse"><stop stop-color="#437FEC"/><stop offset=".544" stop-color="#48B2ED"/><stop offset="1" stop-color="#4CD9ED"/></linearGradient><linearGradient id="paint6_linear" x1="265.938" y1="204.523" x2="265.938" y2="408.399" gradientUnits="userSpaceOnUse"><stop stop-color="#3FE651"/><stop offset="1" stop-color="#3FD84B"/></linearGradient><linearGradient id="paint7_linear" x1="446.389" y1="375.099" x2="492.356" y2="375.099" gradientUnits="userSpaceOnUse"><stop stop-color="#91F66D"/><stop offset=".58" stop-color="#91F66D"/><stop offset="1" stop-color="#3FDE4D"/></linearGradient><linearGradient id="paint8_linear" x1="329.106" y1="422.544" x2="436.344" y2="422.544" gradientUnits="userSpaceOnUse"><stop stop-color="#3FDE4E"/><stop offset=".58" stop-color="#3FDC4C"/><stop offset="1" stop-color="#3FDC4D"/></linearGradient><linearGradient id="paint9_linear" x1="360.13" y1="417.774" x2="363.624" y2="424.363" gradientUnits="userSpaceOnUse"><stop stop-color="#3FDC4D"/><stop offset=".544" stop-color="#3FDC4C"/><stop offset="1" stop-color="#3FDC4C"/></linearGradient><linearGradient id="paint10_linear" x1="85.096" y1="350.362" x2="85.096" y2="441.485" gradientUnits="userSpaceOnUse"><stop stop-color="#3FE24F"/><stop offset="1" stop-color="#4CE85B"/></linearGradient><linearGradient id="paint11_linear" x1="256.808" y1="279.721" x2="349.463" y2="279.721" gradientUnits="userSpaceOnUse"><stop stop-color="#3FDE4E"/><stop offset=".544" stop-color="#3FDF4E"/><stop offset="1" stop-color="#52E95F"/></linearGradient><linearGradient id="paint12_linear" x1="248.431" y1="304.597" x2="255.146" y2="292.936" gradientUnits="userSpaceOnUse"><stop stop-color="#4AE557"/><stop offset=".04" stop-color="#4AE558"/><stop offset=".424" stop-color="#72FB7E"/><stop offset=".757" stop-color="#78FF84"/><stop offset="1" stop-color="#53FF62"/></linearGradient><linearGradient id="paint13_linear" x1="250.982" y1="290.979" x2="278.242" y2="243.639" gradientUnits="userSpaceOnUse"><stop offset=".304" stop-color="#53FF62"/><stop offset=".524" stop-color="#78FF84"/><stop offset="1" stop-color="#47E355"/></linearGradient><linearGradient id="paint14_linear" x1="314.058" y1="86.702" x2="285.549" y2="262.693" gradientUnits="userSpaceOnUse"><stop stop-color="#62FF70"/><stop offset="1" stop-color="#48E357"/></linearGradient><linearGradient id="paint15_linear" x1="311.561" y1="96.205" x2="350.129" y2="29.23" gradientUnits="userSpaceOnUse"><stop offset=".304" stop-color="#62FF70"/><stop offset=".524" stop-color="#5CF36A"/><stop offset="1" stop-color="#5CF46A"/></linearGradient></defs></svg>