<svg width="1440" height="933" viewBox="0 0 1440 933" fill="none" xmlns="http://www.w3.org/2000/svg"><mask id="a" maskUnits="userSpaceOnUse" x="-98" y="0" width="1575" height="933"><path d="M424.5 181.051C152.906 216.574-98 309.602-98 309.602V933h1575V0s-162 27.27-264.5 48.342c-132.3 27.197-197.5 79.734-352 110.583-154.5 30.848-319.221 6.851-436 22.126z" fill="#FCFF78"/><path d="M130.464 395.6h-18.2l-3.472 8.4h-9.296l17.472-39.2h8.96l17.528 39.2h-9.52l-3.472-8.4zm-2.856-6.888l-6.216-15.008-6.216 15.008h12.432zm37.611-15.288c3.733 0 6.739 1.12 9.016 3.36 2.315 2.24 3.472 5.563 3.472 9.968V404h-8.736v-15.904c0-2.389-.523-4.163-1.568-5.32-1.045-1.195-2.557-1.792-4.536-1.792-2.203 0-3.957.691-5.264 2.072-1.307 1.344-1.96 3.36-1.96 6.048V404h-8.736v-30.128h8.344v3.528c1.157-1.269 2.595-2.24 4.312-2.912 1.717-.709 3.603-1.064 5.656-1.064zm49.764.448l-13.608 31.976c-1.381 3.472-3.099 5.917-5.152 7.336-2.016 1.419-4.461 2.128-7.336 2.128-1.568 0-3.117-.243-4.648-.728-1.531-.485-2.781-1.157-3.752-2.016l3.192-6.216a7.588 7.588 0 0 0 2.296 1.4c.896.336 1.773.504 2.632.504 1.195 0 2.165-.299 2.912-.896.747-.56 1.419-1.512 2.016-2.856l.112-.28-13.048-30.352h9.016l8.456 20.44 8.512-20.44h8.4zm50 0v40.992h-8.736v-14.056c-2.165 2.427-5.171 3.64-9.016 3.64-2.837 0-5.413-.635-7.728-1.904-2.277-1.269-4.069-3.08-5.376-5.432-1.307-2.352-1.96-5.077-1.96-8.176s.653-5.824 1.96-8.176c1.307-2.352 3.099-4.163 5.376-5.432 2.315-1.269 4.891-1.904 7.728-1.904 4.107 0 7.243 1.307 9.408 3.92v-3.472h8.344zm-16.24 23.408c2.203 0 4.032-.747 5.488-2.24 1.456-1.531 2.184-3.565 2.184-6.104s-.728-4.555-2.184-6.048c-1.456-1.531-3.285-2.296-5.488-2.296-2.24 0-4.088.765-5.544 2.296-1.456 1.493-2.184 3.509-2.184 6.048s.728 4.573 2.184 6.104c1.456 1.493 3.304 2.24 5.544 2.24zm54.68-23.408V404h-8.288v-3.584a11.881 11.881 0 0 1-4.144 3.024c-1.605.672-3.341 1.008-5.208 1.008-3.957 0-7.093-1.139-9.408-3.416-2.315-2.277-3.472-5.656-3.472-10.136v-17.024h8.736v15.736c0 4.853 2.035 7.28 6.104 7.28 2.091 0 3.771-.672 5.04-2.016 1.269-1.381 1.904-3.416 1.904-6.104v-14.896h8.736zm37.605 15.176c0 .112-.056.896-.168 2.352h-22.792c.411 1.867 1.382 3.341 2.912 4.424 1.531 1.083 3.435 1.624 5.712 1.624 1.568 0 2.95-.224 4.144-.672 1.232-.485 2.371-1.232 3.416-2.24l4.648 5.04c-2.837 3.248-6.981 4.872-12.432 4.872-3.397 0-6.402-.653-9.016-1.96-2.613-1.344-4.629-3.192-6.048-5.544-1.418-2.352-2.128-5.021-2.128-8.008 0-2.949.691-5.6 2.072-7.952 1.419-2.389 3.342-4.237 5.768-5.544 2.464-1.344 5.208-2.016 8.232-2.016 2.95 0 5.619.635 8.008 1.904 2.39 1.269 4.256 3.099 5.6 5.488 1.382 2.352 2.072 5.096 2.072 8.232zm-15.624-9.016c-1.978 0-3.64.56-4.984 1.68-1.344 1.12-2.165 2.651-2.464 4.592h14.84c-.298-1.904-1.12-3.416-2.464-4.536-1.344-1.157-2.986-1.736-4.928-1.736zm31.577 24.416c-2.502 0-4.947-.299-7.336-.896-2.39-.635-4.294-1.419-5.712-2.352l2.912-6.272c1.344.859 2.968 1.568 4.872 2.128 1.904.523 3.77.784 5.6.784 3.696 0 5.544-.915 5.544-2.744 0-.859-.504-1.475-1.512-1.848s-2.558-.691-4.648-.952c-2.464-.373-4.499-.803-6.104-1.288a9.655 9.655 0 0 1-4.2-2.576c-1.158-1.232-1.737-2.987-1.737-5.264 0-1.904.542-3.584 1.625-5.04 1.12-1.493 2.725-2.651 4.816-3.472 2.128-.821 4.629-1.232 7.504-1.232 2.128 0 4.237.243 6.328.728 2.128.448 3.882 1.083 5.264 1.904l-2.912 6.216c-2.651-1.493-5.544-2.24-8.68-2.24-1.867 0-3.267.261-4.2.784-.934.523-1.4 1.195-1.4 2.016 0 .933.504 1.587 1.512 1.96s2.613.728 4.816 1.064c2.464.411 4.48.859 6.048 1.344 1.568.448 2.93 1.288 4.088 2.52 1.157 1.232 1.736 2.949 1.736 5.152 0 1.867-.56 3.528-1.68 4.984-1.12 1.456-2.763 2.595-4.928 3.416-2.128.784-4.667 1.176-7.616 1.176zm39.046-1.904c-.859.635-1.923 1.12-3.192 1.456a16.578 16.578 0 0 1-3.92.448c-3.584 0-6.366-.915-8.344-2.744-1.942-1.829-2.912-4.517-2.912-8.064v-12.376h-4.648v-6.72h4.648v-7.336h8.736v7.336h7.504v6.72h-7.504v12.264c0 1.269.317 2.259.951 2.968.673.672 1.606 1.008 2.801 1.008 1.381 0 2.557-.373 3.528-1.12l2.352 6.16zm4.903-28.672h8.736V404h-8.736v-30.128zm4.368-4.2c-1.605 0-2.912-.467-3.92-1.4-1.008-.933-1.512-2.091-1.512-3.472 0-1.381.504-2.539 1.512-3.472 1.008-.933 2.315-1.4 3.92-1.4 1.606 0 2.912.448 3.92 1.344 1.008.896 1.512 2.016 1.512 3.36 0 1.456-.504 2.669-1.512 3.64-1.008.933-2.314 1.4-3.92 1.4zm26.812 34.776c-3.173 0-6.029-.653-8.568-1.96-2.501-1.344-4.461-3.192-5.88-5.544-1.418-2.352-2.128-5.021-2.128-8.008 0-2.987.71-5.656 2.128-8.008 1.419-2.352 3.379-4.181 5.88-5.488 2.539-1.344 5.395-2.016 8.568-2.016 3.174 0 6.011.672 8.512 2.016 2.502 1.307 4.462 3.136 5.88 5.488 1.419 2.352 2.128 5.021 2.128 8.008 0 2.987-.709 5.656-2.128 8.008-1.418 2.352-3.378 4.2-5.88 5.544-2.501 1.307-5.338 1.96-8.512 1.96zm0-7.168c2.24 0 4.07-.747 5.488-2.24 1.456-1.531 2.184-3.565 2.184-6.104s-.728-4.555-2.184-6.048c-1.418-1.531-3.248-2.296-5.488-2.296s-4.088.765-5.544 2.296c-1.456 1.493-2.184 3.509-2.184 6.048s.728 4.573 2.184 6.104c1.456 1.493 3.304 2.24 5.544 2.24zm40.672-23.856c3.733 0 6.738 1.12 9.016 3.36 2.314 2.24 3.472 5.563 3.472 9.968V404h-8.736v-15.904c0-2.389-.523-4.163-1.568-5.32-1.046-1.195-2.558-1.792-4.536-1.792-2.203 0-3.958.691-5.264 2.072-1.307 1.344-1.96 3.36-1.96 6.048V404h-8.736v-30.128h8.344v3.528c1.157-1.269 2.594-2.24 4.312-2.912 1.717-.709 3.602-1.064 5.656-1.064zm30.542 31.024c-2.501 0-4.946-.299-7.336-.896-2.389-.635-4.293-1.419-5.712-2.352l2.912-6.272c1.344.859 2.968 1.568 4.872 2.128 1.904.523 3.771.784 5.6.784 3.696 0 5.544-.915 5.544-2.744 0-.859-.504-1.475-1.512-1.848s-2.557-.691-4.648-.952c-2.464-.373-4.498-.803-6.104-1.288a9.666 9.666 0 0 1-4.2-2.576c-1.157-1.232-1.736-2.987-1.736-5.264 0-1.904.542-3.584 1.624-5.04 1.12-1.493 2.726-2.651 4.816-3.472 2.128-.821 4.63-1.232 7.504-1.232 2.128 0 4.238.243 6.328.728 2.128.448 3.883 1.083 5.264 1.904l-2.912 6.216c-2.65-1.493-5.544-2.24-8.68-2.24-1.866 0-3.266.261-4.2.784-.933.523-1.4 1.195-1.4 2.016 0 .933.504 1.587 1.512 1.96s2.614.728 4.816 1.064c2.464.411 4.48.859 6.048 1.344 1.568.448 2.931 1.288 4.088 2.52 1.158 1.232 1.736 2.949 1.736 5.152 0 1.867-.56 3.528-1.68 4.984-1.12 1.456-2.762 2.595-4.928 3.416-2.128.784-4.666 1.176-7.616 1.176zm26.969-14.056c0-1.941.429-3.547 1.288-4.816.896-1.269 2.184-2.669 3.864-4.2 1.232-1.12 2.128-2.053 2.688-2.8a4.237 4.237 0 0 0 .896-2.632c0-1.381-.56-2.464-1.68-3.248-1.083-.821-2.539-1.232-4.368-1.232-1.755 0-3.323.373-4.704 1.12-1.344.709-2.483 1.717-3.416 3.024l-6.776-3.976c1.568-2.389 3.677-4.237 6.328-5.544 2.688-1.307 5.861-1.96 9.52-1.96 4.293 0 7.728.915 10.304 2.744 2.613 1.829 3.92 4.368 3.92 7.616 0 1.531-.262 2.875-.784 4.032-.486 1.157-1.102 2.147-1.848 2.968-.71.784-1.643 1.699-2.8 2.744-1.382 1.232-2.39 2.277-3.024 3.136-.635.821-.952 1.829-.952 3.024h-8.456zm4.256 14.056c-1.531 0-2.819-.485-3.864-1.456-1.008-1.008-1.512-2.221-1.512-3.64s.504-2.595 1.512-3.528c1.008-.971 2.296-1.456 3.864-1.456s2.856.485 3.864 1.456c1.008.933 1.512 2.109 1.512 3.528s-.523 2.632-1.568 3.64c-1.008.971-2.278 1.456-3.808 1.456z" fill="#161515"/><rect x="1059" y="731" width="282" height="60" rx="30" fill="#00CC06"/><path d="M1171.89 769.264c-1.22 0-2.4-.161-3.55-.484-1.13-.337-2.03-.77-2.72-1.298l1.21-2.684c.66.484 1.44.873 2.35 1.166.91.293 1.82.44 2.73.44 1.01 0 1.76-.147 2.24-.44.49-.308.73-.711.73-1.21 0-.367-.15-.667-.44-.902-.28-.249-.65-.447-1.1-.594-.44-.147-1.04-.308-1.81-.484-1.17-.279-2.13-.557-2.88-.836a4.719 4.719 0 0 1-1.93-1.342c-.53-.616-.8-1.437-.8-2.464 0-.895.25-1.701.73-2.42.48-.733 1.21-1.313 2.18-1.738.98-.425 2.18-.638 3.58-.638.99 0 1.95.117 2.89.352.93.235 1.76.572 2.46 1.012l-1.1 2.706c-1.42-.807-2.85-1.21-4.27-1.21-1 0-1.74.161-2.22.484-.47.323-.7.748-.7 1.276s.27.924.81 1.188c.56.249 1.4.499 2.53.748 1.17.279 2.13.557 2.88.836.75.279 1.39.719 1.92 1.32.54.601.81 1.415.81 2.442 0 .88-.25 1.687-.75 2.42-.48.719-1.22 1.291-2.2 1.716-.98.425-2.18.638-3.58.638zm22.32-3.124V769h-11.92v-15.4h11.63v2.86h-8.09v3.344h7.15v2.772h-7.15v3.564h8.38zm18.39-12.54V769h-2.93l-7.67-9.35V769h-3.52v-15.4h2.94l7.66 9.35v-9.35h3.52zm5.07 0h7c1.67 0 3.14.323 4.42.968 1.29.631 2.29 1.525 2.99 2.684.72 1.159 1.08 2.508 1.08 4.048s-.36 2.889-1.08 4.048c-.7 1.159-1.7 2.061-2.99 2.706-1.28.631-2.75.946-4.42.946h-7v-15.4zm6.82 12.474c1.54 0 2.77-.425 3.68-1.276.92-.865 1.38-2.031 1.38-3.498s-.46-2.625-1.38-3.476c-.91-.865-2.14-1.298-3.68-1.298h-3.25v9.548h3.25z" fill="#fff"/><path d="M115.08 527.16V532h-1.46v-4.84l-5.6-9.16h1.58l4.8 7.86 4.8-7.86h1.48l-5.6 9.16zm10.704 4.94c-1.013 0-1.927-.227-2.74-.68a5.114 5.114 0 0 1-1.92-1.92c-.467-.813-.7-1.733-.7-2.76 0-1.027.233-1.947.7-2.76a4.965 4.965 0 0 1 1.92-1.9c.813-.453 1.727-.68 2.74-.68 1.013 0 1.927.227 2.74.68a4.823 4.823 0 0 1 1.9 1.9c.467.813.7 1.733.7 2.76 0 1.027-.233 1.947-.7 2.76a4.965 4.965 0 0 1-1.9 1.92c-.813.453-1.727.68-2.74.68zm0-1.26c.747 0 1.413-.167 2-.5a3.601 3.601 0 0 0 1.4-1.46c.333-.627.5-1.34.5-2.14s-.167-1.513-.5-2.14a3.466 3.466 0 0 0-1.4-1.44c-.587-.347-1.253-.52-2-.52-.747 0-1.42.173-2.02.52a3.636 3.636 0 0 0-1.4 1.44c-.333.627-.5 1.34-.5 2.14s.167 1.513.5 2.14a3.784 3.784 0 0 0 1.4 1.46c.6.333 1.273.5 2.02.5zm17.719-9.36V532h-1.36v-1.92a3.965 3.965 0 0 1-1.54 1.5c-.653.347-1.4.52-2.24.52-1.373 0-2.46-.38-3.26-1.14-.787-.773-1.18-1.9-1.18-3.38v-6.1h1.42v5.96c0 1.107.273 1.947.82 2.52.547.573 1.327.86 2.34.86 1.107 0 1.98-.333 2.62-1 .64-.68.96-1.62.96-2.82v-5.52h1.42zm5.337 2.06a3.453 3.453 0 0 1 1.48-1.6c.667-.36 1.487-.54 2.46-.54v1.38l-.34-.02c-1.107 0-1.973.34-2.6 1.02-.627.68-.94 1.633-.94 2.86V532h-1.42v-10.52h1.36v2.06zm17.262-2.14c1.32 0 2.366.387 3.14 1.16.786.76 1.18 1.873 1.18 3.34v6.1h-1.42v-5.96c0-1.093-.274-1.927-.82-2.5-.547-.573-1.327-.86-2.34-.86-1.134 0-2.034.34-2.7 1.02-.654.667-.98 1.593-.98 2.78V532h-1.42v-10.52h1.36v1.94c.386-.64.92-1.133 1.6-1.48.693-.36 1.493-.54 2.4-.54zm11.855 0c1.373 0 2.427.347 3.16 1.04.733.68 1.1 1.693 1.1 3.04V532h-1.36v-1.64c-.32.547-.793.973-1.42 1.28-.613.307-1.347.46-2.2.46-1.173 0-2.107-.28-2.8-.84-.693-.56-1.04-1.3-1.04-2.22 0-.893.32-1.613.96-2.16.653-.547 1.687-.82 3.1-.82h3.34v-.64c0-.907-.253-1.593-.76-2.06-.507-.48-1.247-.72-2.22-.72-.667 0-1.307.113-1.92.34a4.695 4.695 0 0 0-1.58.9l-.64-1.06c.533-.453 1.173-.8 1.92-1.04a7.304 7.304 0 0 1 2.36-.38zm-.5 9.58c.8 0 1.487-.18 2.06-.54.573-.373 1-.907 1.28-1.6v-1.72h-3.3c-1.8 0-2.7.627-2.7 1.88 0 .613.233 1.1.7 1.46.467.347 1.12.52 1.96.52zm21.737-9.58c1.32 0 2.353.38 3.1 1.14.76.76 1.14 1.88 1.14 3.36v6.1h-1.42v-5.96c0-1.093-.267-1.927-.8-2.5-.52-.573-1.26-.86-2.22-.86-1.094 0-1.954.34-2.58 1.02-.627.667-.94 1.593-.94 2.78V532h-1.42v-5.96c0-1.093-.267-1.927-.8-2.5-.52-.573-1.267-.86-2.24-.86-1.08 0-1.94.34-2.58 1.02-.627.667-.94 1.593-.94 2.78V532h-1.42v-10.52h1.36v1.92a3.793 3.793 0 0 1 1.56-1.48c.666-.347 1.433-.52 2.3-.52.88 0 1.64.187 2.28.56.653.373 1.14.927 1.46 1.66a4.05 4.05 0 0 1 1.66-1.62c.733-.4 1.566-.6 2.5-.6zm17.29 5.78h-8.8c.08 1.093.5 1.98 1.26 2.66.76.667 1.72 1 2.88 1a4.65 4.65 0 0 0 1.8-.34 4.05 4.05 0 0 0 1.42-1.04l.8.92a4.494 4.494 0 0 1-1.76 1.28c-.694.293-1.46.44-2.3.44-1.08 0-2.04-.227-2.88-.68a5.062 5.062 0 0 1-1.94-1.92c-.467-.813-.7-1.733-.7-2.76 0-1.027.22-1.947.66-2.76a4.937 4.937 0 0 1 1.84-1.9c.786-.453 1.666-.68 2.64-.68.973 0 1.846.227 2.62.68a4.805 4.805 0 0 1 1.82 1.9c.44.8.66 1.72.66 2.76l-.02.44zm-5.08-4.56c-1.014 0-1.867.327-2.56.98-.68.64-1.067 1.48-1.16 2.52h7.46c-.094-1.04-.487-1.88-1.18-2.52-.68-.653-1.534-.98-2.56-.98zM124.38 657.18c-.427.52-.933.913-1.52 1.18-.573.28-1.2.42-1.88.42a4.806 4.806 0 0 1-2.36-.62c-.733-.4-1.56-1.08-2.48-2.04-1.347-.04-2.56-.373-3.64-1a6.826 6.826 0 0 1-2.54-2.54c-.613-1.067-.92-2.26-.92-3.58 0-1.347.313-2.56.94-3.64a6.81 6.81 0 0 1 2.64-2.54c1.133-.627 2.393-.94 3.78-.94s2.633.307 3.74.92c1.12.613 2 1.467 2.64 2.56.64 1.08.96 2.293.96 3.64 0 1.173-.247 2.253-.74 3.24a6.68 6.68 0 0 1-2.04 2.44c-.867.653-1.867 1.087-3 1.3 1.027 1.08 2.04 1.62 3.04 1.62 1.04 0 1.927-.427 2.66-1.28l.72.86zM110.5 649c0 1.093.253 2.08.76 2.96a5.673 5.673 0 0 0 2.12 2.08c.907.507 1.913.76 3.02.76s2.107-.253 3-.76a5.527 5.527 0 0 0 2.1-2.08c.507-.88.76-1.867.76-2.96s-.253-2.08-.76-2.96a5.527 5.527 0 0 0-2.1-2.08c-.893-.507-1.893-.76-3-.76s-2.113.253-3.02.76c-.893.507-1.6 1.2-2.12 2.08-.507.88-.76 1.867-.76 2.96zm25.737-3.52V656h-1.36v-1.92a3.958 3.958 0 0 1-1.54 1.5c-.653.347-1.4.52-2.24.52-1.373 0-2.46-.38-3.26-1.14-.786-.773-1.18-1.9-1.18-3.38v-6.1h1.42v5.96c0 1.107.274 1.947.82 2.52.547.573 1.327.86 2.34.86 1.107 0 1.98-.333 2.62-1 .64-.68.96-1.62.96-2.82v-5.52h1.42zm13.137 5.7h-8.8c.08 1.093.5 1.98 1.26 2.66.76.667 1.72 1 2.88 1 .654 0 1.254-.113 1.8-.34a4.04 4.04 0 0 0 1.42-1.04l.8.92a4.48 4.48 0 0 1-1.76 1.28c-.693.293-1.46.44-2.3.44-1.08 0-2.04-.227-2.88-.68a5.075 5.075 0 0 1-1.94-1.92c-.466-.813-.7-1.733-.7-2.76 0-1.027.22-1.947.66-2.76a4.952 4.952 0 0 1 1.84-1.9c.787-.453 1.667-.68 2.64-.68.974 0 1.847.227 2.62.68a4.799 4.799 0 0 1 1.82 1.9c.44.8.66 1.72.66 2.76l-.02.44zm-5.08-4.56c-1.013 0-1.866.327-2.56.98-.68.64-1.066 1.48-1.16 2.52h7.46c-.093-1.04-.486-1.88-1.18-2.52-.68-.653-1.533-.98-2.56-.98zm10.811 9.48c-.854 0-1.674-.12-2.46-.36-.774-.253-1.38-.567-1.82-.94l.64-1.12c.44.347.993.633 1.66.86a6.79 6.79 0 0 0 2.08.32c.96 0 1.666-.147 2.12-.44.466-.307.7-.733.7-1.28 0-.387-.127-.687-.38-.9a2.36 2.36 0 0 0-.96-.5c-.387-.12-.9-.233-1.54-.34-.854-.16-1.54-.32-2.06-.48a3.176 3.176 0 0 1-1.34-.86c-.36-.4-.54-.953-.54-1.66 0-.88.366-1.6 1.1-2.16.733-.56 1.753-.84 3.06-.84.68 0 1.36.093 2.04.28.68.173 1.24.407 1.68.7l-.62 1.14c-.867-.6-1.9-.9-3.1-.9-.907 0-1.594.16-2.06.48-.454.32-.68.74-.68 1.26 0 .4.126.72.38.96.266.24.593.42.98.54.386.107.92.22 1.6.34.84.16 1.513.32 2.02.48.506.16.94.433 1.3.82.36.387.54.92.54 1.6 0 .92-.387 1.653-1.16 2.2-.76.533-1.82.8-3.18.8zm12.505-.74c-.267.24-.6.427-1 .56-.387.12-.793.18-1.22.18-.987 0-1.747-.267-2.28-.8-.533-.533-.8-1.287-.8-2.26v-6.36h-1.88v-1.2h1.88v-2.3h1.42v2.3h3.2v1.2h-3.2v6.28c0 .627.153 1.107.46 1.44.32.32.773.48 1.36.48.293 0 .573-.047.84-.14.28-.093.52-.227.72-.4l.5 1.02zm2.585-9.88h1.42V656h-1.42v-10.52zm.72-2.3c-.293 0-.54-.1-.74-.3-.2-.2-.3-.44-.3-.72 0-.267.1-.5.3-.7.2-.2.447-.3.74-.3s.54.1.74.3c.2.187.3.413.3.68 0 .293-.1.54-.3.74-.2.2-.447.3-.74.3zm8.951 12.92c-1.013 0-1.927-.227-2.74-.68a5.114 5.114 0 0 1-1.92-1.92c-.467-.813-.7-1.733-.7-2.76 0-1.027.233-1.947.7-2.76a4.965 4.965 0 0 1 1.92-1.9c.813-.453 1.727-.68 2.74-.68 1.013 0 1.927.227 2.74.68a4.823 4.823 0 0 1 1.9 1.9c.467.813.7 1.733.7 2.76 0 1.027-.233 1.947-.7 2.76a4.965 4.965 0 0 1-1.9 1.92c-.813.453-1.727.68-2.74.68zm0-1.26c.747 0 1.413-.167 2-.5a3.601 3.601 0 0 0 1.4-1.46c.333-.627.5-1.34.5-2.14s-.167-1.513-.5-2.14a3.466 3.466 0 0 0-1.4-1.44c-.587-.347-1.253-.52-2-.52-.747 0-1.42.173-2.02.52a3.636 3.636 0 0 0-1.4 1.44c-.333.627-.5 1.34-.5 2.14s.167 1.513.5 2.14a3.784 3.784 0 0 0 1.4 1.46c.6.333 1.273.5 2.02.5zm13.599-9.44c1.32 0 2.367.387 3.14 1.16.787.76 1.18 1.873 1.18 3.34v6.1h-1.42v-5.96c0-1.093-.273-1.927-.82-2.5-.547-.573-1.327-.86-2.34-.86-1.133 0-2.033.34-2.7 1.02-.653.667-.98 1.593-.98 2.78V656h-1.42v-10.52h1.36v1.94c.387-.64.92-1.133 1.6-1.48.693-.36 1.493-.54 2.4-.54zm10.995 10.7c-.853 0-1.673-.12-2.46-.36-.773-.253-1.38-.567-1.82-.94l.64-1.12c.44.347.993.633 1.66.86.667.213 1.36.32 2.08.32.96 0 1.667-.147 2.12-.44.467-.307.7-.733.7-1.28 0-.387-.127-.687-.38-.9a2.347 2.347 0 0 0-.96-.5c-.387-.12-.9-.233-1.54-.34-.853-.16-1.54-.32-2.06-.48a3.176 3.176 0 0 1-1.34-.86c-.36-.4-.54-.953-.54-1.66 0-.88.367-1.6 1.1-2.16.733-.56 1.753-.84 3.06-.84.68 0 1.36.093 2.04.28.68.173 1.24.407 1.68.7l-.62 1.14c-.867-.6-1.9-.9-3.1-.9-.907 0-1.593.16-2.06.48-.453.32-.68.74-.68 1.26 0 .4.127.72.38.96.267.24.593.42.98.54.387.107.92.22 1.6.34.84.16 1.513.32 2.02.48.507.16.94.433 1.3.82.36.387.54.92.54 1.6 0 .92-.387 1.653-1.16 2.2-.76.533-1.82.8-3.18.8zM535.52 518c1.787 0 3.187.427 4.2 1.28 1.013.853 1.52 2.027 1.52 3.52 0 1.493-.507 2.667-1.52 3.52-1.013.84-2.413 1.26-4.2 1.26h-3.76V532h-1.48v-14h5.24zm-.04 8.28c1.387 0 2.447-.3 3.18-.9.733-.613 1.1-1.473 1.1-2.58 0-1.133-.367-2-1.1-2.6-.733-.613-1.793-.92-3.18-.92h-3.72v7h3.72zm14.215-4.88c1.32 0 2.367.387 3.14 1.16.787.76 1.18 1.873 1.18 3.34v6.1h-1.42v-5.96c0-1.093-.273-1.927-.82-2.5-.546-.573-1.326-.86-2.34-.86-1.133 0-2.033.34-2.7 1.02-.653.667-.98 1.593-.98 2.78V532h-1.42v-14.84h1.42v6.16a3.852 3.852 0 0 1 1.6-1.42c.68-.333 1.46-.5 2.34-.5zm12.515 10.7c-1.014 0-1.927-.227-2.74-.68a5.1 5.1 0 0 1-1.92-1.92c-.467-.813-.7-1.733-.7-2.76 0-1.027.233-1.947.7-2.76a4.952 4.952 0 0 1 1.92-1.9c.813-.453 1.726-.68 2.74-.68 1.013 0 1.926.227 2.74.68a4.829 4.829 0 0 1 1.9 1.9c.466.813.7 1.733.7 2.76 0 1.027-.234 1.947-.7 2.76a4.972 4.972 0 0 1-1.9 1.92c-.814.453-1.727.68-2.74.68zm0-1.26c.746 0 1.413-.167 2-.5a3.607 3.607 0 0 0 1.4-1.46c.333-.627.5-1.34.5-2.14s-.167-1.513-.5-2.14a3.472 3.472 0 0 0-1.4-1.44c-.587-.347-1.254-.52-2-.52-.747 0-1.42.173-2.02.52a3.63 3.63 0 0 0-1.4 1.44c-.334.627-.5 1.34-.5 2.14s.166 1.513.5 2.14a3.777 3.777 0 0 0 1.4 1.46c.6.333 1.273.5 2.02.5zm13.599-9.44c1.32 0 2.366.387 3.14 1.16.786.76 1.18 1.873 1.18 3.34v6.1h-1.42v-5.96c0-1.093-.274-1.927-.82-2.5-.547-.573-1.327-.86-2.34-.86-1.134 0-2.034.34-2.7 1.02-.654.667-.98 1.593-.98 2.78V532h-1.42v-10.52h1.36v1.94c.386-.64.92-1.133 1.6-1.48.693-.36 1.493-.54 2.4-.54zm17.374 5.78h-8.8c.08 1.093.5 1.98 1.26 2.66.76.667 1.72 1 2.88 1a4.65 4.65 0 0 0 1.8-.34 4.04 4.04 0 0 0 1.42-1.04l.8.92a4.487 4.487 0 0 1-1.76 1.28c-.693.293-1.46.44-2.3.44-1.08 0-2.04-.227-2.88-.68a5.069 5.069 0 0 1-1.94-1.92c-.467-.813-.7-1.733-.7-2.76 0-1.027.22-1.947.66-2.76a4.944 4.944 0 0 1 1.84-1.9c.787-.453 1.667-.68 2.64-.68.973 0 1.847.227 2.62.68a4.805 4.805 0 0 1 1.82 1.9c.44.8.66 1.72.66 2.76l-.02.44zm-5.08-4.56c-1.013 0-1.867.327-2.56.98-.68.64-1.067 1.48-1.16 2.52h7.46c-.093-1.04-.487-1.88-1.18-2.52-.68-.653-1.533-.98-2.56-.98zm372.077 8.1V532h-9.9v-14h9.6v1.28h-8.12v4.98H959v1.26h-7.24v5.2h8.42zm2.008-4.76h5.24v1.24h-5.24v-1.24zm21.537-4.56c1.32 0 2.353.38 3.1 1.14.76.76 1.14 1.88 1.14 3.36v6.1h-1.42v-5.96c0-1.093-.267-1.927-.8-2.5-.52-.573-1.26-.86-2.22-.86-1.093 0-1.953.34-2.58 1.02-.627.667-.94 1.593-.94 2.78V532h-1.42v-5.96c0-1.093-.267-1.927-.8-2.5-.52-.573-1.267-.86-2.24-.86-1.08 0-1.94.34-2.58 1.02-.627.667-.94 1.593-.94 2.78V532h-1.42v-10.52h1.36v1.92a3.793 3.793 0 0 1 1.56-1.48c.667-.347 1.433-.52 2.3-.52.88 0 1.64.187 2.28.56.653.373 1.14.927 1.46 1.66a4.056 4.056 0 0 1 1.66-1.62c.733-.4 1.567-.6 2.5-.6zm11.771 0c1.373 0 2.427.347 3.16 1.04.733.68 1.1 1.693 1.1 3.04V532h-1.36v-1.64c-.32.547-.793.973-1.42 1.28-.613.307-1.347.46-2.2.46-1.173 0-2.107-.28-2.8-.84-.693-.56-1.04-1.3-1.04-2.22 0-.893.32-1.613.96-2.16.653-.547 1.687-.82 3.1-.82h3.34v-.64c0-.907-.253-1.593-.76-2.06-.507-.48-1.247-.72-2.22-.72-.667 0-1.307.113-1.92.34a4.695 4.695 0 0 0-1.58.9l-.64-1.06c.533-.453 1.173-.8 1.92-1.04a7.304 7.304 0 0 1 2.36-.38zm-.5 9.58c.8 0 1.487-.18 2.06-.54.573-.373 1-.907 1.28-1.6v-1.72h-3.3c-1.8 0-2.7.627-2.7 1.88 0 .613.233 1.1.7 1.46.467.347 1.12.52 1.96.52zm8.614-9.5h1.42V532h-1.42v-10.52zm.72-2.3c-.29 0-.54-.1-.74-.3-.2-.2-.3-.44-.3-.72 0-.267.1-.5.3-.7.2-.2.45-.3.74-.3.3 0 .54.1.74.3.2.187.3.413.3.68 0 .293-.1.54-.3.74-.2.2-.44.3-.74.3zm4.65-2.02h1.42V532h-1.42v-14.84zm53.38 306.986l1.74.98-.33.588-1.75-1.022v1.988h-.64l.01-1.988-1.75 1.022-.33-.588 1.75-.98-1.75-.98.33-.602 1.75 1.036-.01-1.988h.64v1.988l1.75-1.036.33.602-1.74.98zm7.3-1.946h1.04v9.8h-1.04v-9.8zm10.26 2.38c.96 0 1.69.243 2.21.728.51.476.77 1.185.77 2.128V832h-.95v-1.148c-.23.383-.56.681-1 .896-.43.215-.94.322-1.54.322-.82 0-1.47-.196-1.96-.588-.48-.392-.73-.91-.73-1.554 0-.625.23-1.129.68-1.512.45-.383 1.18-.574 2.17-.574h2.33v-.448c0-.635-.17-1.115-.53-1.442-.35-.336-.87-.504-1.55-.504-.47 0-.92.079-1.35.238-.43.149-.79.359-1.1.63l-.45-.742c.37-.317.82-.56 1.34-.728a5.191 5.191 0 0 1 1.66-.266zm-.35 6.706c.56 0 1.04-.126 1.44-.378.4-.261.7-.635.89-1.12v-1.204h-2.31c-1.26 0-1.89.439-1.89 1.316 0 .429.17.77.49 1.022.33.243.79.364 1.38.364zm9.11.784c-.73 0-1.39-.159-1.96-.476a3.506 3.506 0 0 1-1.35-1.33 3.96 3.96 0 0 1-.49-1.946c0-.719.17-1.363.49-1.932.33-.569.78-1.013 1.35-1.33.57-.317 1.23-.476 1.96-.476.63 0 1.2.126 1.69.378.5.243.9.602 1.19 1.078l-.74.504a2.225 2.225 0 0 0-.93-.812c-.37-.187-.78-.28-1.21-.28-.54 0-1.02.121-1.45.364a2.49 2.49 0 0 0-.99 1.008 3.18 3.18 0 0 0-.35 1.498c0 .569.12 1.073.35 1.512.24.429.57.765.99 1.008.43.233.91.35 1.45.35.43 0 .84-.089 1.21-.266.38-.177.69-.448.93-.812l.74.504c-.29.476-.69.84-1.19 1.092-.5.243-1.07.364-1.69.364zm7.76 0c-.73 0-1.38-.159-1.96-.476a3.414 3.414 0 0 1-1.34-1.33c-.33-.579-.49-1.227-.49-1.946 0-.719.16-1.363.49-1.932.32-.569.77-1.013 1.34-1.33.58-.317 1.23-.476 1.96-.476.64 0 1.2.126 1.7.378.5.243.9.602 1.19 1.078l-.75.504a2.26 2.26 0 0 0-.92-.812c-.37-.187-.78-.28-1.22-.28-.53 0-1.01.121-1.44.364a2.49 2.49 0 0 0-.99 1.008c-.24.439-.35.938-.35 1.498 0 .569.11 1.073.35 1.512.24.429.57.765.99 1.008.43.233.91.35 1.44.35.44 0 .85-.089 1.22-.266.37-.177.68-.448.92-.812l.75.504c-.29.476-.69.84-1.19 1.092a3.88 3.88 0 0 1-1.7.364zm11.13-3.444h-6.16c.05.765.35 1.386.88 1.862.53.467 1.2.7 2.02.7.45 0 .87-.079 1.26-.238.38-.168.71-.411.99-.728l.56.644c-.33.392-.74.691-1.23.896-.49.205-1.02.308-1.61.308-.76 0-1.43-.159-2.02-.476a3.568 3.568 0 0 1-1.36-1.344 3.878 3.878 0 0 1-.49-1.932c0-.719.16-1.363.47-1.932a3.4 3.4 0 0 1 1.28-1.33 3.646 3.646 0 0 1 1.85-.476c.68 0 1.29.159 1.84.476.54.317.96.761 1.27 1.33.31.56.46 1.204.46 1.932l-.01.308zm-3.56-3.192c-.71 0-1.31.229-1.79.686-.48.448-.75 1.036-.81 1.764h5.22c-.07-.728-.34-1.316-.83-1.764-.47-.457-1.07-.686-1.79-.686zm9.39-.854c.69 0 1.31.159 1.87.476.56.308 1 .747 1.32 1.316.32.569.48 1.218.48 1.946 0 .737-.16 1.391-.48 1.96a3.43 3.43 0 0 1-1.32 1.33c-.55.308-1.17.462-1.87.462-.6 0-1.14-.121-1.63-.364a3.179 3.179 0 0 1-1.17-1.092v4.102h-1v-10.08h.96v1.456c.3-.485.69-.859 1.17-1.12.5-.261 1.05-.392 1.67-.392zm-.07 6.608c.51 0 .98-.117 1.4-.35a2.5 2.5 0 0 0 .98-1.022c.24-.439.36-.938.36-1.498s-.12-1.055-.36-1.484a2.5 2.5 0 0 0-.98-1.022 2.753 2.753 0 0 0-1.4-.364c-.52 0-1 .121-1.42.364-.41.243-.73.583-.98 1.022-.23.429-.35.924-.35 1.484 0 .56.12 1.059.35 1.498.25.439.57.779.98 1.022.42.233.9.35 1.42.35zm9.64.364c-.19.168-.42.299-.7.392-.27.084-.55.126-.85.126-.69 0-1.23-.187-1.6-.56-.37-.373-.56-.901-.56-1.582v-4.452h-1.31v-.84h1.31v-1.61h1v1.61h2.24v.84h-2.24v4.396c0 .439.1.775.32 1.008.22.224.54.336.95.336.2 0 .4-.033.59-.098.19-.065.36-.159.5-.28l.35.714zm9.35 0c-.18.168-.42.299-.7.392-.27.084-.55.126-.85.126-.69 0-1.22-.187-1.6-.56-.37-.373-.56-.901-.56-1.582v-4.452h-1.31v-.84h1.31v-1.61h1v1.61h2.24v.84h-2.24v4.396c0 .439.1.775.32 1.008.22.224.54.336.95.336.21 0 .4-.033.59-.098.19-.065.36-.159.5-.28l.35.714zm5.56-6.972c.93 0 1.66.271 2.2.812.55.532.83 1.311.83 2.338V832h-1v-4.172c0-.765-.19-1.349-.57-1.75-.38-.401-.93-.602-1.64-.602-.79 0-1.42.238-1.89.714-.46.467-.68 1.115-.68 1.946V832h-1v-10.388h1v4.312c.27-.429.64-.761 1.12-.994.47-.233 1.02-.35 1.63-.35zm12.17 4.046h-6.16c.05.765.35 1.386.88 1.862.53.467 1.2.7 2.01.7.46 0 .88-.079 1.26-.238.39-.168.72-.411 1-.728l.56.644c-.33.392-.74.691-1.23.896-.49.205-1.03.308-1.61.308-.76 0-1.43-.159-2.02-.476a3.568 3.568 0 0 1-1.36-1.344 3.878 3.878 0 0 1-.49-1.932c0-.719.16-1.363.46-1.932.32-.569.75-1.013 1.29-1.33a3.646 3.646 0 0 1 1.85-.476c.68 0 1.29.159 1.83.476.55.317.97.761 1.28 1.33.31.56.46 1.204.46 1.932l-.01.308zm-3.56-3.192c-.71 0-1.31.229-1.79.686-.48.448-.75 1.036-.81 1.764h5.22c-.07-.728-.34-1.316-.83-1.764-.47-.457-1.07-.686-1.79-.686zm13.05-.854c.69 0 1.32.159 1.88.476.56.308 1 .747 1.31 1.316.32.569.48 1.218.48 1.946 0 .737-.16 1.391-.48 1.96a3.34 3.34 0 0 1-1.31 1.33c-.55.308-1.18.462-1.88.462-.6 0-1.14-.121-1.62-.364a3.13 3.13 0 0 1-1.18-1.092v4.102h-.99v-10.08h.95v1.456c.3-.485.69-.859 1.18-1.12a3.495 3.495 0 0 1 1.66-.392zm-.07 6.608c.51 0 .98-.117 1.4-.35a2.5 2.5 0 0 0 .98-1.022c.24-.439.37-.938.37-1.498s-.13-1.055-.37-1.484a2.5 2.5 0 0 0-.98-1.022 2.753 2.753 0 0 0-1.4-.364c-.52 0-.99.121-1.41.364-.41.243-.74.583-.98 1.022-.24.429-.35.924-.35 1.484 0 .56.11 1.059.35 1.498.24.439.57.779.98 1.022.42.233.89.35 1.41.35zm6.72-5.11c.23-.495.58-.868 1.03-1.12.47-.252 1.04-.378 1.73-.378v.966l-.24-.014c-.78 0-1.38.238-1.82.714-.44.476-.66 1.143-.66 2.002V832h-.99v-7.364h.95v1.442zm4.56-1.442h.99V832h-.99v-7.364zm.5-1.61c-.21 0-.38-.07-.52-.21a.687.687 0 0 1-.21-.504c0-.187.07-.35.21-.49.14-.14.31-.21.52-.21.2 0 .38.07.52.21.14.131.21.289.21.476a.717.717 0 0 1-.73.728zm9.44 1.61l-3.27 7.364h-1.02l-3.27-7.364h1.04l2.76 6.272 2.78-6.272h.98zm3.76-.056c.96 0 1.7.243 2.21.728.52.476.77 1.185.77 2.128V832h-.95v-1.148c-.22.383-.56.681-.99.896-.43.215-.95.322-1.54.322-.83 0-1.48-.196-1.96-.588-.49-.392-.73-.91-.73-1.554 0-.625.22-1.129.67-1.512.46-.383 1.18-.574 2.17-.574h2.34v-.448c0-.635-.18-1.115-.53-1.442-.36-.336-.88-.504-1.56-.504-.46 0-.91.079-1.34.238-.43.149-.8.359-1.11.63l-.45-.742c.38-.317.83-.56 1.35-.728a5.086 5.086 0 0 1 1.65-.266zm-.35 6.706c.56 0 1.04-.126 1.44-.378.4-.261.7-.635.9-1.12v-1.204h-2.31c-1.26 0-1.89.439-1.89 1.316 0 .429.16.77.49 1.022.32.243.78.364 1.37.364zm9.11.784c-.73 0-1.38-.159-1.96-.476a3.414 3.414 0 0 1-1.34-1.33c-.33-.579-.49-1.227-.49-1.946 0-.719.16-1.363.49-1.932.32-.569.77-1.013 1.34-1.33.58-.317 1.23-.476 1.96-.476.64 0 1.2.126 1.7.378.5.243.9.602 1.19 1.078l-.75.504a2.26 2.26 0 0 0-.92-.812c-.37-.187-.78-.28-1.22-.28-.53 0-1.01.121-1.44.364a2.49 2.49 0 0 0-.99 1.008c-.24.439-.35.938-.35 1.498 0 .569.11 1.073.35 1.512.24.429.57.765.99 1.008.43.233.91.35 1.44.35.44 0 .85-.089 1.22-.266.37-.177.68-.448.92-.812l.75.504c-.29.476-.69.84-1.19 1.092a3.88 3.88 0 0 1-1.7.364zm10.92-7.434l-3.69 8.246c-.29.691-.64 1.181-1.03 1.47-.39.289-.86.434-1.42.434-.35 0-.68-.056-.99-.168-.31-.112-.57-.28-.8-.504l.46-.742c.38.373.83.56 1.35.56.33 0 .62-.093.85-.28.25-.187.47-.504.67-.952l.33-.714-3.29-7.35h1.03l2.77 6.258 2.78-6.258h.98zm8.85-.056c.7 0 1.32.159 1.88.476.56.308 1 .747 1.32 1.316.31.569.47 1.218.47 1.946 0 .737-.16 1.391-.47 1.96a3.43 3.43 0 0 1-1.32 1.33c-.55.308-1.18.462-1.88.462-.59 0-1.13-.121-1.62-.364a3.13 3.13 0 0 1-1.18-1.092v4.102h-.99v-10.08h.95v1.456c.3-.485.69-.859 1.18-1.12a3.495 3.495 0 0 1 1.66-.392zm-.07 6.608c.52 0 .98-.117 1.4-.35a2.5 2.5 0 0 0 .98-1.022c.25-.439.37-.938.37-1.498s-.12-1.055-.37-1.484a2.5 2.5 0 0 0-.98-1.022 2.727 2.727 0 0 0-1.4-.364c-.52 0-.99.121-1.41.364-.41.243-.74.583-.98 1.022-.23.429-.35.924-.35 1.484 0 .56.12 1.059.35 1.498.24.439.57.779.98 1.022.42.233.89.35 1.41.35zm8.78.882c-.71 0-1.35-.159-1.92-.476a3.516 3.516 0 0 1-1.34-1.344c-.33-.569-.49-1.213-.49-1.932 0-.719.16-1.363.49-1.932.32-.569.77-1.013 1.34-1.33a3.883 3.883 0 0 1 1.92-.476c.71 0 1.35.159 1.92.476.57.317 1.01.761 1.33 1.33.32.569.49 1.213.49 1.932 0 .719-.17 1.363-.49 1.932a3.49 3.49 0 0 1-1.33 1.344c-.57.317-1.21.476-1.92.476zm0-.882c.52 0 .99-.117 1.4-.35a2.5 2.5 0 0 0 .98-1.022c.23-.439.35-.938.35-1.498s-.12-1.059-.35-1.498a2.407 2.407 0 0 0-.98-1.008 2.701 2.701 0 0 0-1.4-.364c-.52 0-1 .121-1.42.364-.41.233-.73.569-.98 1.008a3.18 3.18 0 0 0-.35 1.498c0 .56.12 1.059.35 1.498.25.439.57.779.98 1.022.42.233.9.35 1.42.35zm5.77-9.576h.99V832h-.99v-10.388zm3.76 3.024h.99V832h-.99v-7.364zm.5-1.61c-.21 0-.38-.07-.52-.21a.687.687 0 0 1-.21-.504c0-.187.07-.35.21-.49.14-.14.31-.21.52-.21.21 0 .38.07.52.21.14.131.21.289.21.476 0 .205-.07.378-.21.518-.14.14-.31.21-.52.21zm6.31 9.044c-.73 0-1.38-.159-1.96-.476a3.506 3.506 0 0 1-1.35-1.33 3.96 3.96 0 0 1-.49-1.946c0-.719.17-1.363.49-1.932.33-.569.78-1.013 1.35-1.33.58-.317 1.23-.476 1.96-.476.63 0 1.2.126 1.69.378.51.243.9.602 1.19 1.078l-.74.504a2.26 2.26 0 0 0-.92-.812c-.38-.187-.78-.28-1.22-.28-.53 0-1.01.121-1.44.364-.42.233-.76.569-1 1.008a3.18 3.18 0 0 0-.35 1.498c0 .569.12 1.073.35 1.512.24.429.58.765 1 1.008.43.233.91.35 1.44.35.44 0 .84-.089 1.22-.266.37-.177.68-.448.92-.812l.74.504c-.29.476-.68.84-1.19 1.092-.5.243-1.07.364-1.69.364zm10.91-7.434l-3.68 8.246c-.3.691-.64 1.181-1.03 1.47-.4.289-.87.434-1.42.434-.35 0-.68-.056-.99-.168-.31-.112-.58-.28-.8-.504l.46-.742c.37.373.82.56 1.35.56.33 0 .62-.093.85-.28.24-.187.47-.504.67-.952l.32-.714-3.29-7.35h1.04l2.77 6.258 2.77-6.258h.98z" fill="#6F6767"/><path fill="#727272" d="M101 548h400v1H101zm0 124h1240v1H101zm420-124h400v1H521zm420 0h400v1H941z"/></mask><g mask="url(#a)"><path fill="#FCFF78" d="M0 6h1440v271H0z"/></g></svg>