<svg width="45" height="45" viewBox="0 0 45 45" fill="none" xmlns="http://www.w3.org/2000/svg"><path d="M43.682 29.092h-3.955v-3.955c0-.729-.59-1.319-1.319-1.319h-14.59v-2.636h3.955a1.318 1.318 0 1 0 0-2.637h-3.955v-2.637h9.229c.728 0 1.318-.59 1.318-1.318V1.318C34.365.59 33.775 0 33.047 0H11.953c-.728 0-1.318.59-1.318 1.318V14.59c0 .728.59 1.318 1.318 1.318h9.229v2.637h-3.955a1.318 1.318 0 1 0 0 2.637h3.955v2.636H6.592c-.729 0-1.319.59-1.319 1.319v3.955H1.318C.59 29.092 0 29.682 0 30.41v13.272C0 44.41.59 45 1.318 45h10.547c.729 0 1.319-.59 1.319-1.318V30.41c0-.728-.59-1.318-1.319-1.318H7.91v-2.637h13.272v2.637h-3.955c-.729 0-1.319.59-1.319 1.318v13.272c0 .728.59 1.318 1.319 1.318h10.546c.729 0 1.319-.59 1.319-1.318V30.41c0-.728-.59-1.318-1.319-1.318h-3.955v-2.637H37.09v2.637h-3.955c-.729 0-1.319.59-1.319 1.318v13.272c0 .728.59 1.318 1.319 1.318h10.547C44.41 45 45 44.41 45 43.682V30.41c0-.728-.59-1.318-1.318-1.318zM6.592 39.727a1.318 1.318 0 1 1 0-2.637 1.318 1.318 0 0 1 0 2.637zm15.908 0a1.318 1.318 0 1 1 0-2.637 1.318 1.318 0 0 1 0 2.637zm15.908 0a1.318 1.318 0 1 1 0-2.637 1.318 1.318 0 0 1 0 2.637z" fill="#00CC06"/></svg>