<svg width="50" height="50" viewBox="0 0 50 50" fill="none" xmlns="http://www.w3.org/2000/svg"><g clip-path="url(#clip0)" fill="#00CC06"><path d="M49.01 26.086a24.164 24.164 0 0 0-5.824-9.946l.803-.804a1.442 1.442 0 0 0 0-2.04l-7.285-7.285a1.442 1.442 0 0 0-2.04 0l-.803.803A24.165 24.165 0 0 0 23.914.991 24.158 24.158 0 0 0 12.07.523a1.442 1.442 0 0 0-.035 2.814l1.412.336a21.19 21.19 0 0 1 10.09 5.635l3.915 3.916-.437.437a1.442 1.442 0 0 0 0 2.04l7.285 7.285a1.442 1.442 0 0 0 2.04 0l.437-.437 3.916 3.916a21.19 21.19 0 0 1 5.635 10.088l.336 1.413c.155.65.736 1.108 1.403 1.108h.018a1.442 1.442 0 0 0 1.393-1.143c.83-3.913.67-8.01-.468-11.845zm-23.599-7.908L.422 43.166a1.442 1.442 0 0 0 0 2.04l4.372 4.371a1.438 1.438 0 0 0 2.04 0L31.821 24.59l-6.41-6.411z"/></g><defs><clipPath id="clip0"><path fill="#fff" d="M0 0h50v50H0z"/></clipPath></defs></svg>