<svg width="58" height="58" viewBox="0 0 58 58" fill="none" xmlns="http://www.w3.org/2000/svg"><g clip-path="url(#clip0)" fill="#00CC06"><path d="M56.3 58H25.489a1.7 1.7 0 0 1-1.699-1.7v-1.812a3.398 3.398 0 0 1 3.398-3.398v-2.032a4.884 4.884 0 0 1 4.88-4.878h17.656a4.884 4.884 0 0 1 4.879 4.878v2.032A3.398 3.398 0 0 1 58 54.488v1.813A1.7 1.7 0 0 1 56.3 58zM36.733 37.422a3.398 3.398 0 1 1-5.428-4.091l10.226-13.57a3.398 3.398 0 1 1 5.428 4.09l-10.226 13.57zM12.306 19.014a3.399 3.399 0 0 1-5.428-4.09l10.227-13.57a3.398 3.398 0 1 1 5.427 4.09l-10.226 13.57zm7.454 9.873c-2.511-1.893-4.397-4.243-5.576-6.718L26.083 6.38c2.704.452 5.482 1.616 7.994 3.51 2.512 1.892 4.398 4.242 5.577 6.716l-11.9 15.791c-2.703-.452-5.481-1.616-7.994-3.51zm-4.588.443c.791.805 1.625 1.578 2.543 2.27.92.693 1.892 1.281 2.885 1.82l-2.216 2.94-5.428-4.09 2.216-2.94zm-4.262 5.654l5.43 4.09-10.227 13.57a3.398 3.398 0 1 1-5.428-4.09l10.226-13.57z"/></g><defs><clipPath id="clip0"><path fill="#fff" transform="matrix(-1 0 0 1 58 0)" d="M0 0h58v58H0z"/></clipPath></defs></svg>