<svg width="135" height="32" viewBox="0 0 135 32" fill="none" xmlns="http://www.w3.org/2000/svg"><g clip-path="url(#clip0)"><path d="M28.016.5H2.503C1.118.5 0 1.635 0 3.042v25.94c0 1.407 1.118 2.543 2.503 2.543H28.04c1.385 0 2.503-1.136 2.503-2.542V3.043C30.518 1.634 29.4.5 28.016.5zm0 1.9c.34 0 .631.297.631.642a.648.648 0 0 1-.631.642.648.648 0 0 1-.632-.642c.024-.37.291-.642.632-.642zm-25.513 0c.34 0 .631.297.631.642a.632.632 0 0 1-.631.642.648.648 0 0 1-.632-.642c0-.37.267-.642.632-.642zm0 27.2a.648.648 0 0 1-.632-.642c0-.346.292-.642.632-.642s.631.296.631.642c-.024.37-.291.642-.631.642zm25.513 0a.648.648 0 0 1-.632-.642c0-.346.291-.642.632-.642.34 0 .631.296.631.642 0 .37-.267.642-.631.642zm-12.757.444C7.63 30.044 1.434 23.75 1.434 16c0-7.75 6.196-14.044 13.825-14.044 7.63 0 13.802 6.294 13.802 14.044.024 7.75-6.172 14.044-13.802 14.044z" fill="#C2FF42"/><path d="M3.256 17.53a.664.664 0 0 0 1.215.297c1.19-1.728 3.45-2.69 6.779-2.863-.073.32-.121.641-.121.987-3.888 1.21-5.978 3.16-6.22 5.825-.025.345.024.592.218.888a11.983 11.983 0 0 0 2.697 2.962c.486.37 1.166-.05 1.07-.666-.365-2.074.582-4.37 2.818-6.911.17.296.364.543.607.79-1.895 3.652-2.017 6.516-.34 8.589.219.246.437.395.753.469a11.88 11.88 0 0 0 3.96.148c.608-.074.803-.864.292-1.234-1.7-1.21-2.648-3.505-2.818-6.887.316.075.631.124.972.124 1.19 3.949 3.11 6.072 5.734 6.318.34.025.583-.024.875-.222a11.937 11.937 0 0 0 2.916-2.74c.364-.493-.05-1.184-.657-1.085-2.04.37-4.3-.593-6.803-2.863.292-.173.535-.37.778-.617 3.596 1.925 6.414 2.048 8.455.345.243-.222.39-.444.462-.765.267-1.358.316-2.666.146-4.023a.664.664 0 0 0-1.215-.296c-1.19 1.727-3.45 2.69-6.78 2.863a4.39 4.39 0 0 0 .122-.988c3.888-1.209 5.977-3.159 6.22-5.824.025-.346-.024-.593-.218-.889A11.981 11.981 0 0 0 22.476 6.3c-.486-.37-1.167.05-1.07.667.365 2.073-.582 4.368-2.818 6.91a3.78 3.78 0 0 0-.607-.79c1.895-3.652 2.016-6.515.34-8.588-.219-.247-.438-.395-.754-.47a11.877 11.877 0 0 0-3.96-.147c-.607.074-.802.863-.292 1.234 1.701 1.209 2.649 3.504 2.819 6.886a4.191 4.191 0 0 0-.972-.124c-1.19-3.949-3.11-6.071-5.734-6.318-.34-.025-.583.025-.875.222a11.938 11.938 0 0 0-2.916 2.74c-.364.493.049 1.184.656 1.086 2.041-.37 4.301.592 6.804 2.863a3.7 3.7 0 0 0-.778.617c-3.596-1.925-6.415-2.049-8.456-.346-.243.222-.388.444-.461.765a12.442 12.442 0 0 0-.146 4.023zm8.553-1.555c0-1.875 1.506-3.406 3.353-3.406 1.847 0 3.353 1.53 3.353 3.406 0 1.876-1.506 3.406-3.353 3.406-1.847 0-3.353-1.53-3.353-3.405z" fill="#C2FF42"/><path d="M50.977 25.922l-.024-10.366-5.005 8.54h-1.774l-4.981-8.318v10.144h-3.694V8.645h3.256l6.366 10.736 6.27-10.736h3.231l.049 17.277h-3.694zm7.727-17.277h3.936v17.277h-3.936V8.645zm23.569 0v17.277h-3.231l-8.48-10.49v10.49h-3.888V8.645h3.256l8.455 10.49V8.645h3.888zm17.203 14.068v3.21h-13.17V8.644H99.16v3.209h-8.94v3.751h7.897v3.11H90.22v3.998h9.257zm13.972 3.209l-3.28-4.813h-3.621v4.813h-3.936V8.645h7.362c1.507 0 2.819.247 3.936.765 1.118.518 1.969 1.234 2.552 2.172.607.938.899 2.049.899 3.332 0 1.284-.316 2.394-.924 3.307-.607.938-1.457 1.654-2.599 2.148l3.814 5.553h-4.203zm-.996-13.23c-.608-.518-1.507-.764-2.698-.764h-3.207v6.022h3.207c1.191 0 2.09-.271 2.698-.79.607-.518.923-1.259.923-2.221 0-.988-.316-1.728-.923-2.246zm15.939 7.109v6.121h-3.937v-6.17L117.87 8.645h4.179l4.544 7.676 4.543-7.676H135l-6.609 11.156z" fill="#fff"/></g><defs><clipPath id="clip0"><path fill="#fff" transform="translate(0 .5)" d="M0 0h135v31H0z"/></clipPath></defs></svg>