<svg xmlns="http://www.w3.org/2000/svg" width="120.877" height="17.278" viewBox="0 0 120.877 17.278" fill="none"><g clip-path="url(#clip0)" transform="translate(-14.123 -8.301)" fill="#000"><path d="M29.725 8.301H15.517c-.771 0-1.394.632-1.394 1.416v14.446c0 .783.623 1.416 1.394 1.416H29.74c.771 0 1.394-.633 1.394-1.416V9.717c-.014-.784-.636-1.416-1.408-1.416zm0 1.058c.19 0 .352.165.352.358a.361.361 0 0 1-.352.357.361.361 0 0 1-.351-.357c.013-.206.162-.358.351-.358zm-14.208 0c.19 0 .352.165.352.358a.352.352 0 0 1-.352.357.361.361 0 0 1-.352-.357c0-.206.15-.358.352-.358zm0 15.148a.361.361 0 0 1-.352-.358c0-.192.163-.357.352-.357a.36.36 0 0 1 .352.357c-.014.206-.162.358-.352.358zm14.208 0a.361.361 0 0 1-.351-.358.36.36 0 0 1 .351-.357.36.36 0 0 1 .352.357.344.344 0 0 1-.352.358zm-7.104.247c-4.249 0-7.7-3.505-7.7-7.821s3.451-7.821 7.7-7.821c4.25 0 7.686 3.505 7.686 7.82.014 4.317-3.437 7.822-7.686 7.822z"/><path d="M15.937 17.785a.37.37 0 0 0 .676.165c.663-.962 1.922-1.498 3.776-1.594a2.415 2.415 0 0 0-.068.55c-2.165.673-3.329 1.759-3.464 3.243a.717.717 0 0 0 .122.495c.42.646.906 1.182 1.502 1.65.27.206.65-.028.595-.372-.203-1.154.325-2.432 1.57-3.848.094.165.203.302.338.44-1.056 2.034-1.123 3.628-.19 4.783.122.137.244.22.42.261a6.614 6.614 0 0 0 2.206.083c.338-.042.446-.482.162-.688-.947-.673-1.475-1.952-1.57-3.835a2.3 2.3 0 0 0 .542.07c.663 2.198 1.732 3.38 3.193 3.518a.69.69 0 0 0 .487-.124 6.647 6.647 0 0 0 1.624-1.526.381.381 0 0 0-.365-.604c-1.137.206-2.395-.33-3.79-1.595.163-.096.299-.206.434-.343 2.003 1.072 3.572 1.14 4.709.192a.774.774 0 0 0 .257-.426 6.931 6.931 0 0 0 .081-2.24.37.37 0 0 0-.676-.165c-.664.962-1.922 1.498-3.776 1.594a2.48 2.48 0 0 0 .068-.55c2.165-.673 3.329-1.76 3.464-3.244a.717.717 0 0 0-.122-.495 6.672 6.672 0 0 0-1.502-1.649c-.27-.206-.65.028-.595.371.203 1.155-.325 2.433-1.57 3.849a2.106 2.106 0 0 0-.338-.44c1.055-2.034 1.123-3.629.19-4.783a.759.759 0 0 0-.42-.261 6.615 6.615 0 0 0-2.206-.083c-.338.041-.446.481-.162.687.947.674 1.475 1.952 1.57 3.835a2.337 2.337 0 0 0-.542-.069c-.663-2.199-1.732-3.38-3.193-3.518a.689.689 0 0 0-.487.123 6.648 6.648 0 0 0-1.624 1.526.381.381 0 0 0 .365.605c1.137-.206 2.395.33 3.789 1.594a2.082 2.082 0 0 0-.433.344c-2.003-1.072-3.572-1.14-4.709-.192a.775.775 0 0 0-.257.426 6.929 6.929 0 0 0-.081 2.24zm4.763-.866c0-1.044.839-1.897 1.867-1.897 1.029 0 1.868.853 1.868 1.897 0 1.045-.84 1.897-1.868 1.897s-1.867-.852-1.867-1.897zm30.277 8.66l-.024-10.367-5.005 8.54h-1.774l-4.981-8.317v10.144h-3.694V8.302h3.256l6.366 10.736 6.27-10.736h3.231l.049 17.277zm7.727-17.277h3.936v17.277h-3.936zm23.569 0v17.277h-3.231l-8.48-10.49v10.49h-3.888V8.302h3.256l8.455 10.49V8.301zM99.476 22.37v3.209h-13.17V8.302H99.16v3.208h-8.94v3.752h7.897v3.11H90.22v3.998zm13.972 3.209l-3.28-4.813h-3.621v4.813h-3.936V8.302h7.362c1.507 0 2.819.246 3.936.765 1.118.518 1.969 1.234 2.552 2.172.607.937.899 2.048.899 3.332 0 1.283-.316 2.394-.924 3.307-.607.938-1.457 1.654-2.599 2.147l3.814 5.554zm-.996-13.23c-.608-.518-1.507-.765-2.698-.765h-3.207v6.022h3.207c1.191 0 2.09-.271 2.698-.79.607-.518.923-1.258.923-2.22 0-.988-.316-1.728-.923-2.247zm15.939 7.109v6.12h-3.937v-6.17L117.87 8.302h4.179l4.544 7.676 4.543-7.676H135z"/></g><defs id="defs23"><clipPath id="clip0"><path transform="translate(0 .157)" id="rect20" fill="#fff" d="M0 0h135v31H0z"/></clipPath></defs></svg>