<svg width="155" height="45" viewBox="0 0 155 45" fill="none" xmlns="http://www.w3.org/2000/svg"><path d="M55.795 11.366V7.814c0-.247.213-.463.457-.463h6.498c.244 0 .458.216.458.463v3.552a.472.472 0 0 1-.458.463h-6.498a.472.472 0 0 1-.457-.463zm0 20.878v-18.5c0-.247.213-.463.457-.463h6.498c.244 0 .458.216.458.463v18.5a.472.472 0 0 1-.458.464h-6.498a.452.452 0 0 1-.457-.464zM81.726 13.28c4.606 0 6.558 1.947 6.558 6.61v12.354a.472.472 0 0 1-.457.464H81.45a.472.472 0 0 1-.457-.464V21.218c0-1.482-.428-1.915-1.922-1.915h-1.434c-1.281 0-2.227.247-2.807.803l-.64.556a.515.515 0 0 0-.153.371v11.242a.472.472 0 0 1-.457.464h-6.407a.472.472 0 0 1-.457-.464V13.744c0-.247.213-.463.457-.463h5.308c.214 0 .397.154.458.34l.305 1.111c.092.34.488.464.732.248.824-.65 1.617-1.112 2.319-1.329.823-.247 2.135-.401 3.843-.401h1.587v.03zm24.496 0c4.606 0 6.558 1.947 6.558 6.61v3.706a.472.472 0 0 1-.457.464H98.961a.472.472 0 0 0-.457.463v.772c0 1.483.457 1.946 1.952 1.946h3.752c1.19 0 1.587-.402 1.587-1.606v-.37h6.558c.244 0 .458.215.458.463v1.235c0 3.953-1.8 5.745-5.674 5.745h-9.365c-4.607 0-6.56-1.946-6.56-6.61V19.89c0-4.633 1.953-6.61 6.56-6.61h8.45zm-7.26 7.074h6.345a.472.472 0 0 0 .457-.464c0-1.482-.457-1.915-1.952-1.915h-3.386c-1.465 0-1.953.433-1.953 1.915.03.247.214.463.488.463zm31.389-6.61v5.96a.473.473 0 0 1-.458.464h-3.142c-1.281 0-2.227.247-2.806.803l-.641.556a.513.513 0 0 0-.153.37v10.378a.472.472 0 0 1-.457.464h-6.406a.473.473 0 0 1-.458-.464V13.744c0-.247.214-.463.458-.463h4.423c.214 0 .397.154.458.34l.396 1.513c.092.34.488.463.763.247.945-.834 1.8-1.359 2.562-1.637.915-.34 2.227-.463 4.058-.463h.945c.244 0 .458.216.458.463zm17.51-.464h6.68c.336 0 .58.371.428.68l-8.481 18.655c-1.068 2.44-2.227 4.015-3.447 4.787-1.251.772-3.203 1.112-5.857 1.112h-3.661a.473.473 0 0 1-.458-.463v-4.91c0-.248.214-.464.458-.464h3.996c.702 0 1.281-.062 1.708-.247a.478.478 0 0 0 .245-.649l-8.115-17.852c-.153-.309.092-.68.427-.68h7.016a.46.46 0 0 1 .427.31l3.631 9.945c.152.401.732.401.884 0l3.661-9.914c.092-.186.244-.31.458-.31z" fill="#333"/><path d="M25.9 3.86v41.11L1.89 33.448A3.344 3.344 0 0 1 0 30.422V2.563c0-.772.671-1.39 1.434-1.297l24.465 2.595z" fill="#000"/><path d="M51.77 2.563v27.612a3.37 3.37 0 0 1-1.862 3.027L25.9 45V3.86l24.436-2.594c.762-.092 1.433.525 1.433 1.297z" fill="#333"/><path d="M50.67 1.235L25.9 3.892 1.13 1.235c-.092 0-.092-.154 0-.154L25.838.031 50.64 1.05c.122 0 .122.154.03.184z" fill="#00CC06"/><path d="M25.9 20.106L10.098 6.95l.03 30.422 6.956 3.398.06-20.663 8.756 7.722v-7.722z" fill="#A4C931"/><path d="M25.9 20.106L41.702 6.95l-.06 30.422-6.925 3.398-.092-20.663-8.725 7.722v-7.722z" fill="#C2FF42"/></svg>