<svg width="135" height="32" viewBox="0 0 135 32" fill="none" xmlns="http://www.w3.org/2000/svg"><g clip-path="url(#clip0)"><path d="M28.016.157H2.503C1.118.157 0 1.292 0 2.699v25.94c0 1.407 1.118 2.542 2.503 2.542H28.04c1.385 0 2.503-1.135 2.503-2.542V2.7C30.518 1.292 29.4.157 28.016.157zm0 1.9c.34 0 .631.296.631.642a.648.648 0 0 1-.631.642.648.648 0 0 1-.632-.642c.024-.37.291-.642.632-.642zm-25.513 0c.34 0 .631.296.631.642a.632.632 0 0 1-.631.642.648.648 0 0 1-.632-.642c0-.37.267-.642.632-.642zm0 27.2a.648.648 0 0 1-.632-.643c0-.345.292-.641.632-.641s.631.296.631.641c-.024.37-.291.642-.631.642zm25.513 0a.648.648 0 0 1-.632-.643c0-.345.291-.641.632-.641.34 0 .631.296.631.641 0 .37-.267.642-.631.642zm-12.757.443c-7.63 0-13.825-6.293-13.825-14.043 0-7.75 6.196-14.044 13.825-14.044 7.63 0 13.802 6.294 13.802 14.044.024 7.75-6.172 14.043-13.802 14.043z" fill="#3FBCFF"/><path d="M3.256 17.187a.664.664 0 0 0 1.215.296c1.19-1.728 3.45-2.69 6.779-2.863a4.39 4.39 0 0 0-.121.987c-3.888 1.21-5.978 3.16-6.22 5.825-.025.346.024.593.218.889a11.983 11.983 0 0 0 2.697 2.961c.486.37 1.166-.049 1.07-.666-.365-2.073.582-4.369 2.818-6.91.17.295.364.542.607.789-1.895 3.653-2.017 6.516-.34 8.59.219.246.437.394.753.468a11.88 11.88 0 0 0 3.96.148c.608-.074.803-.864.292-1.234-1.7-1.21-2.648-3.505-2.818-6.886.316.074.631.123.972.123 1.19 3.95 3.11 6.072 5.734 6.319.34.025.583-.025.875-.222a11.937 11.937 0 0 0 2.916-2.74c.364-.494-.05-1.185-.657-1.086-2.04.37-4.3-.592-6.803-2.863.292-.173.535-.37.778-.617 3.596 1.925 6.414 2.049 8.455.346.243-.223.39-.445.462-.765.267-1.358.316-2.666.146-4.024a.664.664 0 0 0-1.215-.296c-1.19 1.728-3.45 2.69-6.78 2.863a4.39 4.39 0 0 0 .122-.987c3.888-1.21 5.977-3.16 6.22-5.825.025-.345-.024-.592-.218-.888a11.98 11.98 0 0 0-2.697-2.962c-.486-.37-1.167.05-1.07.666.365 2.073-.582 4.369-2.818 6.911a3.78 3.78 0 0 0-.607-.79c1.895-3.653 2.016-6.516.34-8.589-.219-.247-.438-.395-.754-.469a11.877 11.877 0 0 0-3.96-.148c-.607.074-.802.864-.292 1.234 1.701 1.21 2.649 3.505 2.819 6.886a4.191 4.191 0 0 0-.972-.123c-1.19-3.95-3.11-6.072-5.734-6.319-.34-.024-.583.025-.875.223a11.938 11.938 0 0 0-2.916 2.74c-.364.493.049 1.184.656 1.085 2.041-.37 4.301.593 6.804 2.863-.292.173-.535.37-.778.617-3.596-1.925-6.415-2.048-8.456-.345-.243.222-.388.444-.461.765a12.442 12.442 0 0 0-.146 4.023zm8.553-1.555c0-1.876 1.506-3.406 3.353-3.406 1.847 0 3.353 1.53 3.353 3.406 0 1.876-1.506 3.406-3.353 3.406-1.847 0-3.353-1.53-3.353-3.406z" fill="url(#paint0_linear)"/><path d="M50.977 25.579l-.024-10.367-5.005 8.54h-1.774l-4.981-8.317v10.144h-3.694V8.302h3.256l6.366 10.736 6.27-10.736h3.231l.049 17.277h-3.694zm7.727-17.277h3.936v17.277h-3.936V8.302zm23.569 0v17.277h-3.231l-8.48-10.49v10.49h-3.888V8.302h3.256l8.455 10.49V8.301h3.888zM99.476 22.37v3.209h-13.17V8.302H99.16v3.208h-8.94v3.752h7.897v3.11H90.22v3.998h9.257zm13.972 3.209l-3.28-4.813h-3.621v4.813h-3.936V8.302h7.362c1.507 0 2.819.246 3.936.765 1.118.518 1.969 1.234 2.552 2.172.607.938.899 2.048.899 3.332 0 1.283-.316 2.394-.924 3.307-.607.938-1.457 1.654-2.599 2.147l3.814 5.554h-4.203zm-.996-13.23c-.608-.518-1.507-.765-2.698-.765h-3.207v6.022h3.207c1.191 0 2.09-.271 2.698-.79.607-.518.923-1.258.923-2.22 0-.988-.316-1.728-.923-2.247zm15.939 7.109v6.12h-3.937v-6.17L117.87 8.302h4.179l4.544 7.675 4.543-7.675H135l-6.609 11.156z" fill="#000"/></g><defs><linearGradient id="paint0_linear" x1="27.183" y1="15.626" x2="3.161" y2="15.626" gradientUnits="userSpaceOnUse"><stop stop-color="#3FBCFF"/><stop offset="1" stop-color="#007ED4"/></linearGradient><clipPath id="clip0"><path fill="#fff" transform="translate(0 .157)" d="M0 0h135v31H0z"/></clipPath></defs></svg>