<svg width="228" height="51" viewBox="0 0 228 51" fill="none" xmlns="http://www.w3.org/2000/svg"><g clip-path="url(#clip0)"><path d="M47.315 0H4.227C1.887 0 0 1.868 0 4.182v42.676c0 2.315 1.888 4.183 4.227 4.183h43.13c2.339 0 4.226-1.868 4.226-4.183V4.182A4.26 4.26 0 0 0 47.315 0zm0 3.127c.575 0 1.067.487 1.067 1.055 0 .569-.492 1.056-1.067 1.056-.574 0-1.067-.487-1.067-1.056.041-.609.493-1.055 1.067-1.055zm-43.088 0c.574 0 1.067.487 1.067 1.055 0 .569-.452 1.056-1.067 1.056-.575 0-1.067-.487-1.067-1.056 0-.609.451-1.055 1.067-1.055zm0 44.746c-.575 0-1.067-.487-1.067-1.055 0-.569.492-1.056 1.067-1.056.574 0 1.067.487 1.067 1.056-.041.609-.493 1.055-1.067 1.055zm43.088 0c-.574 0-1.067-.487-1.067-1.055 0-.569.493-1.056 1.067-1.056.575 0 1.067.487 1.067 1.056 0 .609-.451 1.055-1.067 1.055zm-21.544.731c-12.886 0-23.35-10.354-23.35-23.104S12.886 2.396 25.771 2.396C38.657 2.396 49.08 12.75 49.08 25.5c.041 12.75-10.423 23.104-23.309 23.104z" fill="url(#paint0_linear)"/><path d="M5.499 28.017c.123 1.016 1.436 1.34 2.051.488 2.011-2.843 5.828-4.426 11.45-4.71a7.045 7.045 0 0 0-.206 1.624C12.23 27.409 8.7 30.616 8.29 35.002c-.04.568.041.974.37 1.461a19.91 19.91 0 0 0 4.554 4.873c.821.61 1.97-.081 1.806-1.096-.615-3.411.985-7.187 4.76-11.37.288.488.616.893 1.026 1.3-3.2 6.01-3.406 10.72-.574 14.13.37.406.738.65 1.272.772 2.257.446 4.432.527 6.689.243 1.026-.121 1.354-1.42.492-2.03-2.872-1.99-4.473-5.766-4.76-11.329a7.265 7.265 0 0 0 1.642.203c2.01 6.497 5.252 9.99 9.684 10.395.575.04.985-.04 1.478-.365a19.959 19.959 0 0 0 4.924-4.508c.615-.812-.082-1.948-1.108-1.786-3.447.609-7.263-.975-11.49-4.71.492-.284.902-.61 1.313-1.015 6.073 3.167 10.834 3.37 14.28.568.411-.365.657-.73.78-1.259a19.95 19.95 0 0 0 .247-6.618c-.123-1.015-1.437-1.34-2.052-.488-2.011 2.843-5.828 4.426-11.45 4.71a7.045 7.045 0 0 0 .206-1.624c6.566-1.99 10.095-5.197 10.505-9.582.041-.569-.041-.975-.37-1.462a19.91 19.91 0 0 0-4.554-4.873c-.821-.609-1.97.081-1.806 1.097.616 3.41-.985 7.187-4.76 11.369a6.249 6.249 0 0 0-1.026-1.3c3.2-6.009 3.406-10.72.574-14.13-.369-.406-.738-.65-1.272-.771a20.583 20.583 0 0 0-6.689-.244c-1.026.122-1.354 1.421-.492 2.03 2.872 1.99 4.473 5.766 4.76 11.329a7.265 7.265 0 0 0-1.641-.203c-2.011-6.497-5.253-9.989-9.685-10.395-.575-.04-.985.04-1.477.365a19.957 19.957 0 0 0-4.925 4.508c-.615.812.082 1.949 1.108 1.786 3.447-.609 7.264.975 11.49 4.71-.492.285-.902.61-1.313 1.016-6.073-3.168-10.833-3.37-14.28-.569-.41.366-.657.731-.78 1.259a19.947 19.947 0 0 0-.246 6.618zm14.445-2.558c0-3.086 2.544-5.603 5.663-5.603 3.118 0 5.663 2.517 5.663 5.603s-2.545 5.604-5.663 5.604c-3.12 0-5.663-2.518-5.663-5.604z" fill="url(#paint1_linear)"/><path d="M86.096 41.823l-.042-17.054-8.453 14.05h-2.996l-8.412-13.685v16.69h-6.238V13.4h5.499l10.752 17.663L86.793 13.4h5.458l.082 28.423h-6.237zM99.145 13.4h6.648v28.423h-6.648V13.4zm39.806 0v28.423h-5.458l-14.322-17.257v17.257h-6.566V13.4h5.499l14.281 17.257V13.4h6.566zm29.054 23.145v5.278h-22.242V13.4h21.708v5.278H152.37v6.172h13.337v5.116H152.37v6.579h15.635zm23.596 5.278l-5.54-7.918h-6.114v7.918h-6.648V13.4h12.434c2.544 0 4.76.406 6.648 1.258 1.888.853 3.324 2.03 4.309 3.574 1.026 1.543 1.518 3.37 1.518 5.481 0 2.112-.533 3.939-1.559 5.441-1.026 1.543-2.462 2.721-4.391 3.533l6.443 9.136h-7.1zm-1.682-21.764c-1.026-.853-2.545-1.259-4.555-1.259h-5.417v9.908h5.417c2.01 0 3.529-.447 4.555-1.3 1.026-.852 1.559-2.07 1.559-3.654 0-1.624-.533-2.842-1.559-3.695zm26.919 11.694v10.07h-6.648V31.672L199.069 13.4h7.059l7.674 12.628 7.673-12.628H228l-11.162 18.353z" fill="#000"/></g><defs><linearGradient id="paint0_linear" x1="51.538" y1="25.498" x2="0" y2="25.498" gradientUnits="userSpaceOnUse"><stop stop-color="#3FBCFF"/><stop offset="1" stop-color="#007ED4"/></linearGradient><linearGradient id="paint1_linear" x1="45.908" y1="25.45" x2="5.338" y2="25.45" gradientUnits="userSpaceOnUse"><stop stop-color="#3FBCFF"/><stop offset="1" stop-color="#007ED4"/></linearGradient><clipPath id="clip0"><path fill="#fff" d="M0 0h228v51H0z"/></clipPath></defs></svg>