<svg width="120" height="120" viewBox="0 0 120 120" fill="none" xmlns="http://www.w3.org/2000/svg"><path d="M89 59.5L44.75 84.182V34.818L89 59.5zM50.312.065V11.96l-3.23 1.035-4.197-5.884v7.242l-3.23 1.034-7.04-9.569 3.1-1.034 4.393 6.142.064-7.63 2.777-.905L47.341 8.6V.905l2.971-.84zm13.692 9.181l-4.779-.13-.969 2.199-3.23-.13L60.324 0l3.165.13 4.65 11.443-3.294-.129-.84-2.198zm-.84-2.393l-1.356-3.685-1.55 3.556 2.907.13zm11.949-2.327L71.819 3.49l.71-2.457 9.688 2.91-.71 2.457-3.359-.905L75.63 13.9l-3.036-.905 2.519-8.47zm8.848 12.414a6.013 6.013 0 0 1-.775-2.975c0-1.034.323-2.068.904-3.038.582-.97 1.357-1.681 2.26-2.134a5.837 5.837 0 0 1 2.972-.582c1.033.065 2.067.453 3.1 1.035a5.982 5.982 0 0 1 2.067 1.94c.516.775.84 1.551.904 2.456l-2.713.518c-.129-1.164-.646-2.005-1.55-2.522-.516-.323-1.033-.517-1.614-.517-.582 0-1.034.129-1.55.388-.517.258-.905.71-1.228 1.228a4.086 4.086 0 0 0-.58 1.617 2.505 2.505 0 0 0 .322 1.551c.258.453.646.905 1.163 1.229.904.581 1.873.646 2.97.258l.776 2.651c-.84.323-1.68.388-2.584.259a6.134 6.134 0 0 1-2.648-1.035c-.904-.646-1.68-1.422-2.196-2.327zm24.543 7.435l-8.461 7.5-2.131-2.392 3.294-2.91-2.907-3.297-3.294 2.91-2.13-2.393 8.524-7.5 2.132 2.392-3.165 2.78 2.906 3.298 3.165-2.78 2.067 2.392zm10.85 24.892l-12.207-1.422-.904-3.039 9.494-7.823.969 3.297-6.2 5.043 7.944.97.904 2.974zm.323 5.173l.194 3.168-11.303.711-.193-3.168 11.302-.711zM120 64.461l-.904 5.302c-.194 1.228-.581 2.263-1.227 3.168-.646.84-1.357 1.487-2.325 1.875-.905.388-1.938.453-3.101.259-1.097-.194-2.066-.582-2.841-1.293-.775-.647-1.292-1.488-1.55-2.522-.323-1.034-.323-2.134-.13-3.362l.905-5.302L120 64.461zm-9.494 3.686c-.129.97 0 1.745.452 2.456.452.647 1.163 1.1 2.131 1.229.969.13 1.744 0 2.39-.517.646-.518 1.033-1.229 1.227-2.199l.323-2.004-6.136-1.034-.387 2.069zm-6.588 18.426l-2.196-1.099 3.94-8.146 10.14 4.913-3.875 7.953-2.196-1.1 2.519-5.107-1.744-.84-2.196 4.525-2.131-1.034 2.196-4.526-1.873-.905-2.584 5.366zm-5.425 4.203a5.492 5.492 0 0 1 3.036-.259c1.033.194 1.937.647 2.777 1.423a5.822 5.822 0 0 1 1.679 2.65c.323 1.035.323 2.005.065 3.104-.259 1.1-.776 2.004-1.615 2.909-.775.906-1.744 1.488-2.713 1.875a5.488 5.488 0 0 1-3.035.259c-1.034-.194-1.938-.711-2.777-1.422a5.819 5.819 0 0 1-1.68-2.651c-.323-1.035-.323-2.005-.064-3.104.258-1.099.775-2.004 1.614-2.91.775-.904 1.68-1.55 2.713-1.874zm-1.486 5.043c-.129.517-.064 1.034.13 1.552a3.5 3.5 0 0 0 .969 1.422c.452.453.968.711 1.55.84.516.13 1.097.13 1.55-.064.516-.13.968-.453 1.356-.905.387-.453.646-.905.775-1.423.129-.517.064-1.034-.129-1.551a3.505 3.505 0 0 0-.969-1.423 3.062 3.062 0 0 0-1.55-.84c-.517-.13-1.098-.13-1.55.064-.517.13-.969.453-1.356.906-.453.452-.71.905-.776 1.422zM70.14 119.806l-.065-11.896 3.23-1.1 4.198 5.819v-7.241l3.229-1.099 7.04 9.569-3.1 1.034-4.457-6.142v7.629l-2.777.905-4.456-6.077.064 7.694-2.906.905zm-13.757-9.052l4.78.13.968-2.199 3.23.065L60.065 120l-3.165-.065-4.715-11.444 3.294.065.904 2.198zm.84 2.393l1.356 3.685 1.55-3.556-2.906-.129zm-11.948 2.392l3.358.97-.71 2.456-9.688-2.844.71-2.457 3.294.97 2.454-8.406 3.036.906-2.454 8.405zm-8.849-12.349c.517.905.84 1.875.775 2.974 0 1.034-.323 2.069-.904 3.039a6.135 6.135 0 0 1-2.26 2.198c-.905.452-1.938.711-2.971.646a6.32 6.32 0 0 1-3.1-1.034 5.98 5.98 0 0 1-2.067-1.94c-.517-.776-.84-1.551-.904-2.457l2.712-.517c.194 1.164.71 2.004 1.55 2.522.517.323 1.034.517 1.615.517s1.033-.129 1.55-.388c.517-.259.904-.711 1.227-1.228.323-.518.517-1.1.517-1.617 0-.582-.065-1.099-.323-1.552a3.496 3.496 0 0 0-1.163-1.228c-.904-.517-1.873-.647-2.97-.259l-.776-2.651c.84-.323 1.68-.388 2.584-.258a6.915 6.915 0 0 1 2.648.97 7.541 7.541 0 0 1 2.26 2.263zm-24.671-7.242l8.396-7.564 2.131 2.392-3.294 2.91 2.907 3.232 3.293-2.91 2.132 2.393-8.396 7.565-2.132-2.393 3.165-2.844-2.906-3.233-3.165 2.845-2.131-2.393zM.775 71.056l12.207 1.422.904 3.04-9.43 7.823-.968-3.298L9.688 75l-7.944-.905-.969-3.039zm-.387-5.108L.129 62.78l11.303-.84.258 3.168-11.302.84zM0 55.927l.84-5.302c.193-1.228.58-2.263 1.227-3.168.581-.905 1.356-1.487 2.325-1.875.969-.388 1.937-.517 3.1-.323 1.098.194 2.067.582 2.842 1.228.775.647 1.291 1.487 1.614 2.522.323 1.034.388 2.133.194 3.362l-.84 5.301L0 55.928zm9.494-3.75c.13-.97 0-1.746-.452-2.457-.452-.647-1.163-1.1-2.131-1.229-.97-.129-1.744 0-2.39.518-.646.517-1.033 1.228-1.163 2.198l-.322 2.004 6.135.97.323-2.004zm6.459-18.492l2.26 1.035-3.94 8.211-10.204-4.85 3.81-8.016 2.26 1.034-2.453 5.173 1.744.84 2.13-4.526 2.132 1.035-2.131 4.526 1.873.905 2.519-5.367zm5.36-4.202a5.444 5.444 0 0 1-3.035.258c-1.034-.194-1.938-.646-2.777-1.422-.84-.776-1.421-1.616-1.68-2.65-.323-1.035-.323-2.005-.064-3.104.258-1.035.775-2.005 1.614-2.91.775-.905 1.68-1.487 2.713-1.875a5.444 5.444 0 0 1 3.035-.258c1.034.194 1.938.646 2.778 1.422.84.776 1.42 1.616 1.679 2.65.323 1.035.323 2.005.064 3.104-.258 1.035-.774 2.005-1.614 2.91-.775.905-1.68 1.487-2.713 1.875zm1.486-5.108c.129-.517.064-1.035-.13-1.552a3.5 3.5 0 0 0-.968-1.422 3.061 3.061 0 0 0-1.55-.84c-.582-.13-1.098-.13-1.55.064-.452.194-.97.453-1.357.905-.387.453-.645.905-.71 1.423-.13.517-.065 1.034.13 1.551a3.5 3.5 0 0 0 .968 1.423c.452.388.969.71 1.55.84.581.13 1.098.13 1.55-.064.452-.194.969-.453 1.356-.906.388-.387.646-.84.71-1.422z" fill="#00CC06"/></svg>