<svg width="20" height="20" viewBox="0 0 20 20" fill="none" xmlns="http://www.w3.org/2000/svg"><path d="M19.873 10.389c-.179.245-4.436 5.985-9.873 5.985-5.437 0-9.695-5.74-9.873-5.985a.66.66 0 0 1 0-.778C.305 9.367 4.563 3.626 10 3.626c5.437 0 9.694 5.74 9.873 5.985a.66.66 0 0 1 0 .778zM10 4.945c-4.005 0-7.474 3.81-8.5 5.056 1.025 1.246 4.486 5.054 8.5 5.054 4.005 0 7.473-3.81 8.5-5.055-1.025-1.247-4.486-5.055-8.5-5.055z" fill="#9D9D9D"/><path d="M9.999 13.956A3.96 3.96 0 0 1 6.043 10a3.96 3.96 0 0 1 3.956-3.956A3.96 3.96 0 0 1 13.955 10 3.96 3.96 0 0 1 10 13.956zm0-6.593A2.64 2.64 0 0 0 7.362 10a2.64 2.64 0 0 0 2.637 2.637A2.64 2.64 0 0 0 12.636 10 2.64 2.64 0 0 0 10 7.363z" fill="#9D9D9D"/></svg>