<svg width="51" height="51" viewBox="0 0 51 51" fill="none" xmlns="http://www.w3.org/2000/svg"><path d="M6.076 42.035h8.965v2.988L24.006 51v-9.659l-8.965-5.977v3.683H9.064v-18.03h5.977V0H0v21.018h6.076v21.017zm0-35.959h2.988v2.988H6.076V6.076zm0 5.977h2.988v2.988H6.076v-2.988zm29.883 8.965h5.976v18.029H35.96v-3.683l-8.965 5.977V51l8.965-5.977v-2.988h8.965V21.018H51V0H35.959v21.018zm5.976-14.942h2.989v2.988h-2.989V6.076zm0 5.977h2.989v2.988h-2.989v-2.988z" fill="#00CC06"/><path d="M16.535 32.769l8.965 5.976 8.964-5.976-7.47-4.73v-7.021h5.977V0H18.029v21.018h5.977v7.022l-7.47 4.729zm7.47-26.693h2.99v2.988h-2.99V6.076zm0 5.977h2.99v2.988h-2.99v-2.988z" fill="#00CC06"/></svg>