<svg width="48" height="48" viewBox="0 0 48 48" fill="none" xmlns="http://www.w3.org/2000/svg"><path d="M42.281 20.769V12.75C42.281 5.771 36.604 0 29.625 0h-11.25C11.396 0 5.719 5.771 5.719 12.75v8.019C2.405 22.355 0 25.713 0 29.625c0 5.427 4.51 9.938 9.938 9.938h1.406V19.78H9.938c-.482 0-.943.075-1.407.142v-5.767h2.813V12.75a7.039 7.039 0 0 1 7.031-7.031h11.25a7.039 7.039 0 0 1 7.031 7.031v1.406h2.813v5.767c-.464-.067-.925-.142-1.407-.142h-1.406v19.782h1.407c.481 0 .942-.076 1.406-.143v2.955c0 .776-.632 1.406-1.407 1.406h-8.868c-.49-.825-1.352-1.406-2.381-1.406h-5.625a2.813 2.813 0 0 0 0 5.625h5.625c1.03 0 1.89-.58 2.38-1.406h8.87a4.223 4.223 0 0 0 4.218-4.219v-3.8C45.595 36.99 48 33.537 48 29.625c0-3.912-2.405-7.27-5.719-8.856z" fill="#00CC06"/></svg>