<svg width="52" height="52" viewBox="0 0 52 52" fill="none" xmlns="http://www.w3.org/2000/svg"><path d="M4.469 14.879H3.25A3.254 3.254 0 0 0 0 18.129v25.39a3.254 3.254 0 0 0 3.25 3.25h1.219a.813.813 0 0 0 .812-.812V15.691a.813.813 0 0 0-.812-.812zm44.281 0h-1.219a.812.812 0 0 0-.812.812v30.266c0 .449.364.813.812.813h1.219A3.254 3.254 0 0 0 52 43.52V18.129a3.254 3.254 0 0 0-3.25-3.25zM37.07 2.488H14.93a2.44 2.44 0 0 0-2.438 2.438v4.672c0 .448.364.812.813.812h25.39a.813.813 0 0 0 .813-.812V4.926a2.44 2.44 0 0 0-2.438-2.438zm-5.078 4.266h-.305a.813.813 0 0 1 0-1.625h.305a.813.813 0 0 1 0 1.625zm.813 1.828a.813.813 0 0 1-.813.813h-.305a.813.813 0 0 1 0-1.625h.305c.449 0 .813.363.813.812zm-4.672-2.031v1.422a.61.61 0 0 1-.61.609h-3.046a.61.61 0 0 1-.61-.61v-1.42a.61.61 0 0 1 .61-.61h3.046a.61.61 0 0 1 .61.61zm-7.82.203h-.305a.813.813 0 0 1 0-1.625h.305a.813.813 0 0 1 0 1.625zm.812 1.828a.813.813 0 0 1-.813.813h-.304a.813.813 0 0 1 0-1.625h.305c.448 0 .812.363.812.812zm9.149 16.819a6.897 6.897 0 0 0-8.548 0L26 29.675l4.274-4.274zm0 10.846L26 31.973l-4.274 4.274a6.897 6.897 0 0 0 8.548 0z" fill="#00CC06"/><path d="M31.43 24.245l3.386-3.386c-5.022-4.454-12.605-4.459-17.632 0l3.386 3.386a8.526 8.526 0 0 1 10.86 0zM20.577 35.098l4.274-4.274-4.274-4.274a6.897 6.897 0 0 0 0 8.548zm10.846-8.548l-4.274 4.274 4.274 4.274a6.897 6.897 0 0 0 0-8.548zM20.57 37.404l-3.386 3.385c5.022 4.454 12.605 4.46 17.632 0l-3.386-3.385a8.526 8.526 0 0 1-10.86 0z" fill="#00CC06"/><path d="M19.42 25.394l-3.385-3.385c-4.454 5.021-4.459 12.604 0 17.63l3.386-3.384a8.525 8.525 0 0 1 0-10.861z" fill="#00CC06"/><path d="M43.469 12.137H8.53c-.673 0-1.219.545-1.219 1.218v34.938a1.22 1.22 0 0 0 1.22 1.219h34.937c.673 0 1.218-.546 1.218-1.219V13.355c0-.673-.545-1.218-1.218-1.218zm-4.86 30.148c.514.513.143 1.387-.574 1.387-.425 0-.444-.108-2.068-1.732-5.66 5.088-14.27 5.09-19.934 0-1.584 1.585-1.624 1.732-2.068 1.732-.717 0-1.088-.874-.575-1.387l1.494-1.494c-5.087-5.66-5.09-14.27 0-19.934l-1.494-1.493a.812.812 0 1 1 1.15-1.15l1.493 1.494c5.66-5.087 14.27-5.09 19.934 0l1.494-1.493a.812.812 0 1 1 1.148 1.149l-1.493 1.493c5.087 5.66 5.09 14.27 0 19.934l1.494 1.494z" fill="#00CC06"/><path d="M35.965 22.009l-3.386 3.385a8.525 8.525 0 0 1 0 10.86l3.386 3.386c4.454-5.022 4.459-12.605 0-17.631z" fill="#00CC06"/></svg>