<svg width="1440" height="1342" viewBox="0 0 1440 1342" fill="none" xmlns="http://www.w3.org/2000/svg"><path d="M423.5 216.959C151.906 259.527-99 371.006-99 371.006V382h1575V0s-162 32.68-264.5 57.93c-132.3 32.591-197.5 95.548-352 132.515-154.5 36.966-319.221 8.21-436 26.514z" fill="#FCFF78"/><path d="M1091.5 632.057c271.59-42.586 384.5-290.058 384.5-290.058V331H-99l-23 631s291.995-126.935 394.5-152.196c132.305-32.605 247.5-49.67 402-86.652s300.221-72.784 417-91.095z" fill="#FCFF78"/><path d="M424.5 590.051C152.906 625.574-98 718.602-98 718.602V1342h1575V409s-162 27.27-264.5 48.342c-132.3 27.197-197.5 79.734-352 110.583-154.5 30.848-319.221 6.851-436 22.126z" fill="#FCFF78"/></svg>