<svg width="49" height="49" viewBox="0 0 49 49" fill="none" xmlns="http://www.w3.org/2000/svg"><g clip-path="url(#clip0)" fill="#00CC06"><path d="M12.25 19.246H1.753A1.76 1.76 0 0 0 0 21v26.243c0 .974.79 1.753 1.753 1.753H12.25c.974 0 1.753-.79 1.753-1.753V20.999c0-.974-.79-1.753-1.753-1.753zM29.749.005H19.252a1.75 1.75 0 0 0-1.753 1.743v45.494c0 .974.789 1.753 1.753 1.753h10.497c.973 0 1.753-.79 1.753-1.753V1.758c0-.974-.79-1.753-1.753-1.753zm17.498 13.993H36.75c-.974 0-1.753.779-1.753 1.753v31.49c0 .975.79 1.754 1.753 1.754h10.497c.974 0 1.753-.79 1.753-1.753V15.75c0-.974-.79-1.753-1.753-1.753z"/></g><defs><clipPath id="clip0"><path fill="#fff" d="M0 0h49v49H0z"/></clipPath></defs></svg>