<svg width="50" height="50" viewBox="0 0 50 50" fill="none" xmlns="http://www.w3.org/2000/svg"><path d="M26.563 2.389v-.826a1.563 1.563 0 0 0-3.125 0v.826C10.832 3.129 0 12.855 0 25.78a1.564 1.564 0 0 0 2.209 1.423c6.998-3.18 11.549.553 12.229 1.167.53.63 1.577.794 2.32.05 1.234-1.127 3.68-2.284 6.68-2.566V44.53A5.475 5.475 0 0 0 28.905 50a5.475 5.475 0 0 0 5.469-5.469 1.563 1.563 0 0 0-3.125 0 2.346 2.346 0 0 1-2.344 2.344 2.346 2.346 0 0 1-2.343-2.344V25.855c2.914.274 5.355 1.377 6.67 2.56.188.174.364.34.693.436a1.562 1.562 0 0 0 1.633-.475c.687-.622 5.237-4.352 12.232-1.172A1.564 1.564 0 0 0 50 25.781C50 12.862 39.176 3.131 26.562 2.39z" fill="#00CC06"/></svg>