<svg width="320" height="500" viewBox="0 0 320 500" fill="none" xmlns="http://www.w3.org/2000/svg"><path fill-rule="evenodd" clip-rule="evenodd" d="M-172.542 233.972v-87.627C-44.102 113.05 11.11 90.93 55.188 73.27c59.897-23.997 99.236-39.757 273.816-64.128 195.351-27.271 193.184 1.37 180.016 175.376l-.147 1.934h35.333l93.34 79.768-199.009 32.919s297.031 135.238 25.437 173.572c-51.919 7.328-87.173-2.285-123.896-12.298-45.876-12.509-94.044-25.643-179.854-7.154-36.519 7.869-66.892 17.284-93.507 25.534-85.984 26.654-132.736 41.146-220.718-47.979-73.763-74.721 74.815-146.638 74.815-146.638l17.926-50.204h-111.282z" fill="#FCFF78"/></svg>