<svg width="320" height="669" viewBox="0 0 320 669" fill="none" xmlns="http://www.w3.org/2000/svg"><path d="M312.347 373.372c81.93-68.302 138.077-173.32 138.077-173.32l-2.978-6.387-127.323 59.357-414.66 193.313L8.929 668.267s46.894-44.974 75.328-76.088c36.701-40.16 42.084-87.195 85.238-133.457 43.153-46.263 107.625-55.982 142.853-85.35z" fill="#FCFF78"/><path d="M-3.132 296.902c-87.31 56.762-90.426 151.531-90.426 151.531l1.589 3.407 127.322-59.357 414.66-193.313L366.807.023s-82.15 86.163-113.776 110.432c-40.82 31.325-77.996 55.091-125.821 91.332-47.826 36.241-92.8 70.709-130.342 95.115z" fill="#FCFF78"/></svg>