<svg width="1105" height="1112" viewBox="0 0 1105 1112" fill="none" xmlns="http://www.w3.org/2000/svg"><path d="M1249.97 823.501c229.96-149.502 414.95-346.506 414.95-346.506l-4.18-8.973-335.35 156.338-1092.151 509.15 145.352 311.79s134.389-95.12 217.686-159.04c107.513-82.51 142.647-161.44 268.612-256.89 125.965-95.457 286.201-141.587 385.081-205.869z" fill="#FCFF78"/><path d="M473.983 739.931C244.022 889.433 235.816 1139.04 235.816 1139.04l4.183 8.97 335.348-156.335L1667.49 482.521 1448.34-42s-216.37 226.938-299.66 290.86c-107.52 82.504-205.433 145.1-331.398 240.553-125.965 95.454-244.421 186.236-343.299 250.518z" fill="#FCFF78"/></svg>