<svg width="24" height="25" viewBox="0 0 24 25" fill="none" xmlns="http://www.w3.org/2000/svg"><g clip-path="url(#clip0)" fill="#090F21"><path d="M12.171 11.875c-1.588 0-2.964-.57-4.087-1.694C6.96 9.059 6.39 7.683 6.39 6.095c0-1.587.57-2.963 1.694-4.087C9.208.884 10.583.314 12.17.314c1.588 0 2.963.57 4.087 1.694 1.124 1.123 1.694 2.498 1.694 4.086 0 1.589-.57 2.964-1.694 4.088-1.124 1.123-2.5 1.693-4.087 1.693zM2.056 18.769c.033-.468.098-.978.195-1.516a11.9 11.9 0 0 1 .373-1.525 7.51 7.51 0 0 1 .627-1.422c.27-.476.588-.89.945-1.232.373-.357.83-.644 1.358-.853a4.694 4.694 0 0 1 1.733-.314c.245 0 .482.1.94.399.281.183.61.396.978.63.314.201.74.389 1.266.559.514.166 1.035.25 1.55.25.513 0 1.034-.084 1.548-.25.526-.17.952-.358 1.266-.558.364-.233.693-.445.98-.631.456-.298.693-.399.938-.399.624 0 1.207.106 1.733.314.528.21.985.496 1.358.853.357.341.675.756.945 1.232.26.459.472.937.627 1.422.15.469.275.982.373 1.525.096.537.162 1.048.194 1.517.032.459.048.935.048 1.417 0 1.252-.398 2.267-1.183 3.015-.776.738-1.802 1.112-3.05 1.112H6.242c-1.249 0-2.274-.374-3.05-1.112-.786-.748-1.184-1.762-1.184-3.015 0-.484.016-.961.048-1.418z"/></g><defs><clipPath id="clip0"><path fill="#fff" transform="matrix(-1 0 0 1 24 .314)" d="M0 0h24v24H0z"/></clipPath></defs></svg>