<svg width="483" height="517" viewBox="0 0 483 517" fill="none" xmlns="http://www.w3.org/2000/svg">
<path d="M291.705 137.586V151.143L360.784 110.472V97.0979L291.705 137.586Z" fill="url(#paint0_linear)"/>
<path d="M291.705 137.586V151.143L222.627 110.838V97.4642L291.705 137.586Z" fill="url(#paint1_linear)"/>
<path d="M222.627 97.4642L291.705 137.586L360.784 97.0978L291.522 56.7931L222.627 97.4642Z" fill="url(#paint2_linear)"/>
<path d="M291.705 136.487L223.543 96.9146L222.627 97.4642L291.705 137.586L360.784 97.0978L359.868 96.5482L291.705 136.487Z" fill="url(#paint3_radial)"/>
<path d="M291.705 118.716V132.09L360.784 91.6017V78.0447L291.705 118.716Z" fill="url(#paint4_linear)"/>
<path d="M291.705 118.716V132.09L222.627 91.9681V78.411L291.705 118.716Z" fill="url(#paint5_linear)"/>
<path d="M222.627 78.411L291.705 118.716L360.784 78.0446L291.522 37.9231L222.627 78.411Z" fill="url(#paint6_linear)"/>
<path d="M291.705 99.846V113.22L360.784 72.7319V59.1748L291.705 99.846Z" fill="url(#paint7_linear)"/>
<path d="M291.705 99.8459V113.22L222.627 72.915V59.5411L291.705 99.8459Z" fill="url(#paint8_linear)"/>
<path d="M222.627 59.5412L291.705 99.8459L360.784 59.1747L291.522 18.87L222.627 59.5412Z" fill="url(#paint9_linear)"/>
<path d="M291.705 80.7928V94.3498L360.784 53.6787V40.3048L291.705 80.7928Z" fill="url(#paint10_linear)"/>
<path d="M291.705 80.7927V94.3497L222.627 54.045V40.6711L291.705 80.7927Z" fill="url(#paint11_linear)"/>
<path d="M222.627 40.6712L291.705 80.7927L360.784 40.3047L291.522 0L222.627 40.6712Z" fill="url(#paint12_linear)"/>
<path d="M233.438 40.6711L291.522 6.41211L349.79 40.3047L291.705 74.5638L233.438 40.6711Z" fill="url(#paint13_linear)"/>
<path d="M291.522 9.16016L347.591 41.5872L349.79 40.3047L291.522 6.41211L233.438 40.6711L235.82 41.9536L291.522 9.16016Z" fill="#00CC06"/>
<path d="M291.522 9.16016L347.591 41.5872L349.79 40.3047L291.522 6.41211V9.16016Z" fill="#00CC06"/>
<path d="M327.252 43.7857C320.106 39.7552 315.342 34.4423 313.51 28.763C303.615 27.6638 294.453 24.9157 287.491 20.8852L287.307 20.702L283.46 23.4501C269.9 32.7934 267.702 42.32 269.351 54.2282L269.717 54.4115C290.606 55.5107 306.913 54.2282 323.221 46.3505L327.802 44.1521L327.252 43.7857Z" fill="#00CC06"/>
<path d="M335.682 306.133V376.483L404.76 335.995V265.645L335.682 306.133Z" fill="#25E652"/>
<path d="M335.681 306.133V376.483L266.603 336.178V266.011L335.681 306.133Z" fill="#25E652"/>
<path d="M266.603 266.011L335.681 306.133L404.76 265.645L335.498 225.34L266.603 266.011Z" fill="#45108A"/>
<path d="M335.681 305.034L267.519 265.462L266.603 266.011L335.681 306.133L404.76 265.645L403.843 265.095L335.681 305.034Z" fill="url(#paint14_radial)"/>
<path d="M253.594 352.85V423.017L322.672 382.529V312.179L253.594 352.85Z" fill="#00CC06"/>
<path d="M253.593 352.85V423.017L184.515 382.712V312.545L253.593 352.85Z" fill="#330A66"/>
<path d="M184.515 312.545L253.593 352.85L322.672 312.179L253.41 271.874L184.515 312.545Z" fill="#45108A"/>
<path d="M253.593 351.751L185.431 311.995L184.515 312.545L253.593 352.85L322.672 312.179L321.756 311.629L253.593 351.751Z" fill="url(#paint15_radial)"/>
<path d="M413.738 353.583V423.749L483 383.261V312.911L413.738 353.583Z" fill="#00CC06"/>
<path d="M413.921 353.582V423.749L344.843 383.628V313.278L413.921 353.582Z" fill="#330A66"/>
<path d="M344.843 313.278L413.921 353.582L483 312.911L413.738 272.79L344.843 313.278Z" fill="#00AA05"/>
<path d="M333.666 400.116V470.283L402.745 429.795V359.445L333.666 400.116Z" fill="url(#paint16_linear)"/>
<path d="M333.665 400.116V470.283L264.587 430.161V359.811L333.665 400.116Z" fill="#10CC1A"/>
<path d="M264.587 359.811L333.665 400.116L402.744 359.445L333.665 319.323L264.587 359.811Z" fill="#00AA05"/>
<path d="M59.5504 296.423L29.6836 314.194L98.7621 354.315V424.665L128.812 406.895V336.545L59.5504 296.423Z" fill="#07B70C"/>
<path d="M69.0791 372.086V442.253L99.1292 424.665V354.315L69.0791 372.086Z" fill="url(#paint17_linear)"/>
<path d="M69.0785 372.086V442.253L0 402.131V331.781L69.0785 372.086Z" fill="url(#paint18_linear)"/>
<path d="M5.49707 398.834V341.491L63.5817 375.201V432.726L5.49707 398.834Z" fill="url(#paint19_linear)"/>
<path d="M7.51262 397.918V342.59L5.49707 341.491V398.834L63.5817 432.726V430.528L7.51262 397.918Z" fill="#00CC06"/>
<path d="M7.51262 397.918L5.49707 398.834L63.5817 432.726V430.528L7.51262 397.918Z" fill="#00CC06"/>
<path d="M0 331.781L69.0785 372.086L99.1286 354.315L29.8668 314.011L0 331.781Z" fill="url(#paint20_linear)"/>
<path d="M69.0785 370.987L0.916161 331.232L0 331.781L69.0785 372.086L99.1286 354.315L98.2124 353.766L69.0785 370.987Z" fill="url(#paint21_radial)"/>
<path d="M37.7458 390.773V406.162L30.783 402.132V386.742C28.0345 383.628 26.2021 379.414 26.2021 375.567C26.2021 370.437 29.8668 368.422 34.2644 370.987C38.6619 373.552 42.3266 379.781 42.3266 384.91C42.3266 388.758 40.4943 390.956 37.7458 390.773Z" fill="#00CC06"/>
<path d="M175.354 400.849V471.016L244.432 430.528V360.178L175.354 400.849Z" fill="url(#paint22_linear)"/>
<path d="M175.353 400.849V471.016L106.274 430.894V360.544L175.353 400.849Z" fill="url(#paint23_linear)"/>
<path d="M106.274 360.544L175.353 400.849L244.431 360.178L175.353 320.056L106.274 360.544Z" fill="#00B705"/>
<path d="M97.1133 274.805V345.155L166.192 304.484V234.317L97.1133 274.805Z" fill="url(#paint24_linear)"/>
<path d="M97.1127 274.805V345.155L28.0342 304.85V234.684L97.1127 274.805Z" fill="url(#paint25_linear)"/>
<path d="M28.0342 234.684L97.1127 274.805L166.191 234.317L97.1127 194.012L28.0342 234.684Z" fill="#00AA05"/>
<path d="M253.594 446.65V517L322.672 476.329V406.162L253.594 446.65Z" fill="#00CC06"/>
<path d="M253.593 446.65V517L184.515 476.695V406.345L253.593 446.65Z" fill="url(#paint26_linear)"/>
<path d="M184.515 406.345L253.593 446.65L322.672 406.162L253.41 365.857L184.515 406.345Z" fill="#00B705"/>
<path d="M175.354 320.606V390.956L244.432 350.285V280.118L175.354 320.606Z" fill="#01B206"/>
<path d="M175.353 320.606V390.956L106.274 350.651V280.484L175.353 320.606Z" fill="url(#paint27_linear)"/>
<path d="M106.274 280.484L175.353 320.606L244.431 280.118L175.353 239.813L106.274 280.484Z" fill="#00AA05"/>
<path d="M253.594 423.383V436.757L322.672 396.269V382.712L253.594 423.383Z" fill="url(#paint28_linear)"/>
<path d="M253.593 423.383V436.757L184.515 396.452V383.078L253.593 423.383Z" fill="#2DE43F"/>
<path d="M184.515 383.078L253.593 423.383L322.672 382.712L253.41 342.407L184.515 383.078Z" fill="#00B705"/>
<path d="M191.111 377.582L253.593 414.04L316.075 377.399L253.593 340.942L191.111 377.582ZM253.593 416.055C253.41 416.055 253.227 416.055 253.043 415.872L188.729 378.498C188.362 378.315 188.362 377.949 188.362 377.765C188.362 377.399 188.546 377.216 188.729 377.033L252.86 339.293C253.226 339.109 253.41 339.109 253.776 339.293L318.091 376.849C318.457 377.033 318.457 377.399 318.457 377.582C318.457 377.949 318.274 378.132 318.091 378.315L253.959 415.872C253.959 415.872 253.776 416.055 253.593 416.055Z" fill="#89FF9C"/>
<path d="M191.111 369.704L253.593 406.162L316.075 369.521L253.593 333.064L191.111 369.704ZM253.593 407.994C253.41 407.994 253.227 407.994 253.043 407.811L188.729 370.437C188.362 370.254 188.362 369.888 188.362 369.704C188.362 369.338 188.546 369.155 188.729 368.972L252.86 331.232C253.226 331.048 253.41 331.048 253.776 331.232L318.091 368.788C318.457 368.972 318.457 369.338 318.457 369.521C318.457 369.888 318.274 370.071 318.091 370.254L253.776 407.994C253.959 407.994 253.776 407.994 253.593 407.994Z" fill="#89FF9C"/>
<path d="M191.111 361.643L253.593 398.101L316.075 361.46L253.593 325.003L191.111 361.643ZM253.593 399.933C253.41 399.933 253.227 399.933 253.043 399.75L188.729 362.376C188.362 362.193 188.362 361.827 188.362 361.643C188.362 361.277 188.546 361.094 188.729 360.911L252.86 323.171C253.226 322.988 253.41 322.988 253.776 323.171L318.091 360.727C318.457 360.911 318.457 361.277 318.457 361.46C318.457 361.827 318.274 362.01 318.091 362.193L253.776 399.933C253.959 399.933 253.776 399.933 253.593 399.933Z" fill="#89FF9C"/>
<path d="M191.111 353.583L253.593 390.04L316.075 353.399L253.41 316.942L191.111 353.583ZM253.593 391.872C253.41 391.872 253.227 391.872 253.043 391.689L188.729 354.315C188.362 354.132 188.362 353.766 188.362 353.583C188.362 353.216 188.546 353.033 188.729 352.85L252.86 315.11C253.226 314.927 253.41 314.927 253.776 315.11L318.091 352.667C318.457 352.85 318.457 353.216 318.457 353.399C318.457 353.766 318.274 353.949 318.091 354.132L253.776 391.872C253.959 391.872 253.776 391.872 253.593 391.872Z" fill="#89FF9C"/>
<g opacity="0.5">
<path opacity="0.5" d="M191.111 345.522L253.593 381.979L316.075 345.338L253.593 308.881L191.111 345.522ZM253.593 383.994C253.41 383.994 253.227 383.994 253.043 383.811L188.729 346.438C188.362 346.254 188.362 345.888 188.362 345.705C188.362 345.338 188.546 345.155 188.729 344.972L252.86 307.232C253.226 307.049 253.41 307.049 253.776 307.232L318.091 344.789C318.457 344.972 318.457 345.338 318.457 345.522C318.457 345.888 318.274 346.071 318.091 346.254L253.776 383.994C253.959 383.811 253.776 383.994 253.593 383.994Z" fill="#89FF9C"/>
</g>
<path d="M253.594 366.59V378.132L322.672 337.644V325.919L253.594 366.59Z" fill="url(#paint29_linear)"/>
<path d="M253.593 366.59V378.132L184.515 337.827V326.285L253.593 366.59Z" fill="#2DE43F"/>
<path d="M184.515 326.285L253.593 366.59L322.672 325.919L253.41 285.614L184.515 326.285Z" fill="#00B705"/>
<path opacity="0.2" d="M322.672 337.644V325.919L273.383 354.865L283.277 360.727L322.672 337.644Z" fill="url(#paint30_radial)"/>
<path opacity="0.3" d="M253.594 366.59V436.757L322.672 396.269V325.919L253.594 366.59Z" fill="url(#paint31_linear)"/>
<path opacity="0.1" d="M253.593 366.59V436.757L184.515 396.452V326.285L253.593 366.59Z" fill="#2DE43F"/>
<path d="M413.738 273.34V343.69L483 303.018V232.852L413.738 273.34Z" fill="url(#paint32_linear)"/>
<path d="M413.921 273.339V343.69L344.843 303.385V233.218L413.921 273.339Z" fill="#16D822"/>
<path d="M344.843 233.218L413.921 273.339L483 232.852L413.738 192.547L344.843 233.218Z" fill="#28EF61"/>
<path d="M402.744 417.154V430.528L471.823 390.04V376.483L402.744 417.154Z" fill="url(#paint33_linear)"/>
<path d="M402.745 417.154V430.528L333.666 390.223V376.849L402.745 417.154Z" fill="url(#paint34_linear)"/>
<path d="M333.666 376.849L402.745 417.154L471.823 376.483L402.561 336.178L333.666 376.849Z" fill="url(#paint35_linear)"/>
<path d="M402.744 398.101V411.658L471.823 370.987V357.613L402.744 398.101Z" fill="url(#paint36_linear)"/>
<path d="M402.745 398.101V411.658L333.666 371.353V357.979L402.745 398.101Z" fill="url(#paint37_linear)"/>
<path d="M333.666 357.979L402.745 398.101L471.823 357.613L402.561 317.308L333.666 357.979Z" fill="url(#paint38_linear)"/>
<path d="M402.744 379.231V392.605L471.823 352.117V338.56L402.744 379.231Z" fill="url(#paint39_linear)"/>
<path d="M402.745 379.231V392.605L333.666 352.483V338.926L402.745 379.231Z" fill="url(#paint40_linear)"/>
<path d="M333.666 338.926L402.745 379.231L471.823 338.56L402.561 298.438L333.666 338.926Z" fill="url(#paint41_linear)"/>
<path d="M402.744 360.361V373.735L471.823 333.247V319.69L402.744 360.361Z" fill="url(#paint42_linear)"/>
<path d="M402.745 360.361V373.735L333.666 333.43V320.056L402.745 360.361Z" fill="url(#paint43_linear)"/>
<path d="M333.666 320.056L402.745 360.361L471.823 319.69L402.561 279.385L333.666 320.056Z" fill="url(#paint44_linear)"/>
<path d="M344.477 320.056L402.561 285.797L460.829 319.69L402.744 353.949L344.477 320.056Z" fill="#32EA5D"/>
<path d="M402.561 288.545L458.63 321.156L460.829 319.69L402.561 285.797L344.477 320.056L346.859 321.339L402.561 288.545Z" fill="#00CC06"/>
<path d="M402.562 288.545L458.631 321.156L460.829 319.69L402.562 285.797V288.545Z" fill="#00CC06"/>
<path d="M382.956 334.163L386.987 331.781C385.887 331.232 384.788 330.499 383.505 329.766L381.856 328.85L377.825 331.049C377.276 331.415 376.359 331.415 375.81 331.049L372.328 329.033C371.779 328.667 371.779 328.301 372.328 327.934L376.359 325.736L372.328 323.354C371.779 322.988 371.779 322.621 372.328 322.255L406.409 302.469C406.959 302.102 407.875 302.102 408.425 302.469L412.456 304.851L416.487 302.652C417.037 302.286 417.953 302.286 418.503 302.652L421.984 304.667C422.534 305.034 422.534 305.4 421.984 305.767L417.953 307.965L421.801 310.163C422.351 310.347 422.717 310.713 423.084 310.896L427.115 308.515C427.664 308.148 428.581 308.148 429.13 308.515L432.612 310.53C433.161 310.896 433.161 311.263 432.612 311.629L428.214 314.194C429.13 315.11 429.863 316.026 430.23 316.942C430.596 318.041 430.596 319.14 430.046 320.24C429.497 321.522 428.397 322.438 426.748 323.537C425.466 324.27 423.633 324.82 421.801 325.186C419.236 325.553 416.487 325.552 413.922 325.003C415.571 326.652 416.121 328.301 415.754 329.766C415.388 331.415 414.105 332.697 412.09 333.98C410.441 334.896 408.425 335.629 406.226 335.995C403.844 336.361 401.645 336.545 399.263 336.362C397.065 336.178 394.866 335.629 392.85 334.529L388.636 336.911C388.086 337.278 387.17 337.278 386.62 336.911L382.956 335.262C382.406 334.896 382.406 334.346 382.956 334.163ZM408.425 309.431L399.996 314.194L404.76 316.942C407.692 318.591 409.524 319.507 410.257 319.873C411.723 320.423 413.006 320.789 414.472 320.789C415.938 320.789 417.22 320.423 418.32 319.873C419.419 319.14 419.969 318.591 420.152 317.858C420.152 317.125 419.785 316.392 418.686 315.476C417.953 314.927 415.938 313.827 412.456 311.812L408.425 309.431ZM394.133 317.858L384.422 323.354L391.201 327.201C393.766 328.667 395.599 329.583 396.515 329.949C397.798 330.499 399.08 330.682 400.546 330.682C402.012 330.682 403.295 330.316 404.577 329.583C405.677 329.033 406.226 328.301 406.593 327.568C406.776 326.835 406.593 326.102 405.86 325.369C405.127 324.637 403.295 323.171 399.813 321.339L394.133 317.858Z" fill="#00CC06"/>
<path d="M335.682 147.479V217.646L404.76 177.158V106.808L335.682 147.479Z" fill="url(#paint45_linear)"/>
<path d="M335.681 147.479V217.646L266.603 177.341V107.174L335.681 147.479Z" fill="#10CC1A"/>
<path d="M266.603 107.174L335.681 147.479L404.76 106.808L335.498 66.686L266.603 107.174Z" fill="url(#paint46_linear)"/>
<g opacity="0.7">
<path opacity="0.7" d="M424.583 156.656L410.396 192.811L416.196 195.086L430.382 158.93L424.583 156.656Z" fill="#42CA2C"/>
<path opacity="0.5" d="M425.282 158.301L412.431 191.045L414.819 191.982L427.67 159.238L425.282 158.301Z" fill="#42CA2C"/>
</g>
<g opacity="0.7">
<path opacity="0.7" d="M396.331 224.241C395.048 224.241 393.949 223.508 393.399 222.226L380.573 187.784C380.39 187.051 380.39 186.318 380.573 185.585L392.483 153.891C392.483 153.708 392.666 153.708 392.666 153.525L410.623 120.914L416.12 123.846L398.346 156.089L386.986 186.318L398.53 217.096L435.909 210.501L437.008 216.546L397.064 223.508C396.697 224.241 396.514 224.241 396.331 224.241Z" fill="#42CA2C"/>
<path opacity="0.5" d="M395.965 221.676C395.415 221.676 394.866 221.31 394.682 220.76L381.856 186.501C381.673 186.135 381.673 185.952 381.856 185.585L393.95 153.891V153.708L410.99 122.746L413.189 124.029L396.332 154.807L384.605 185.952L396.881 218.928L434.077 212.333L434.444 214.898L396.332 221.676C396.148 221.676 396.148 221.676 395.965 221.676Z" fill="#42CA2C"/>
</g>
<g opacity="0.7">
<path opacity="0.7" d="M447.636 182.104C446.719 182.104 445.986 181.738 445.437 181.188L426.014 161.036L397.063 158.654L397.613 152.425L427.663 154.807C428.396 154.807 429.129 155.173 429.679 155.723L447.819 174.776L471.273 155.906L475.12 160.853L449.468 181.555C449.101 181.738 448.369 182.104 447.636 182.104Z" fill="#42CA2C"/>
<path opacity="0.5" d="M447.269 179.539C446.903 179.539 446.537 179.356 446.353 179.173L426.564 158.471L398.713 156.273L398.896 153.708L427.114 156.089C427.48 156.089 427.664 156.273 427.847 156.456L447.269 176.608L470.54 157.921L472.189 159.937L448.002 179.356C447.819 179.356 447.636 179.539 447.269 179.539Z" fill="#42CA2C"/>
</g>
<g opacity="0.7">
<path opacity="0.7" d="M470.723 218.745L448.736 185.951L439.391 214.898L433.527 213.066L444.888 177.891C445.254 176.791 446.17 175.875 447.453 175.692C448.736 175.509 449.835 176.058 450.385 176.975L476.037 215.081L470.723 218.745Z" fill="#42CA2C"/>
<path opacity="0.5" d="M447.82 181.188L437.925 211.966L435.543 211.233L446.354 177.89C446.537 177.341 446.903 177.158 447.453 176.974H447.636C448.003 176.974 448.369 177.158 448.736 177.524L473.289 213.981L471.09 215.447L447.82 181.188Z" fill="#42CA2C"/>
</g>
<g opacity="0.7">
<path opacity="0.7" d="M413.372 197.127C413.005 197.127 412.639 197.127 412.272 196.944C411.539 196.577 410.806 196.028 410.623 195.295L395.598 158.654L354.554 161.402C353.088 161.585 351.806 160.669 351.439 159.204C351.073 157.921 351.622 156.273 352.722 155.54L411.906 119.815L415.204 125.128L367.014 154.257L397.431 152.242C398.713 152.059 399.996 152.975 400.545 154.074L415.204 189.799L447.27 175.326L449.835 181.005L414.838 196.761C414.288 197.127 413.738 197.127 413.372 197.127Z" fill="#42CA2C"/>
<path opacity="0.5" d="M413.005 194.562C412.822 194.562 412.639 194.562 412.455 194.562C412.089 194.379 411.906 194.196 411.722 193.829L396.148 156.089L353.821 158.837C353.088 158.837 352.722 158.471 352.538 157.921C352.355 157.372 352.538 156.822 353.088 156.456L410.623 121.647L411.906 123.846L365.548 152.059L366.647 155.54L397.064 153.524C397.614 153.524 398.163 153.891 398.346 154.257L413.738 191.631L445.804 177.158L446.903 179.539L413.555 194.562C413.372 194.562 413.188 194.562 413.005 194.562Z" fill="#42CA2C"/>
</g>
<g opacity="0.7">
<path opacity="0.7" d="M413.372 256.302C412.822 256.302 412.273 256.118 411.723 255.935L352.539 220.577C351.623 220.027 351.073 218.928 351.073 217.829V158.288H357.303V216.18L413.189 249.523L466.143 217.646L412.273 196.944L414.472 191.081L474.388 213.982C475.488 214.348 476.221 215.447 476.404 216.546C476.587 217.646 475.854 218.928 474.938 219.478L414.838 255.752C414.472 256.118 413.922 256.302 413.372 256.302Z" fill="#42CA2C"/>
<path opacity="0.5" d="M413.006 253.737C412.823 253.737 412.456 253.737 412.273 253.553L353.272 218.378C352.906 218.195 352.723 217.646 352.723 217.279V159.387H355.288V216.363L413.006 250.805L470.174 216.363L414.289 195.112L415.205 192.73L473.473 214.898C473.839 215.081 474.206 215.447 474.206 215.997C474.206 216.546 474.022 216.913 473.656 217.279L413.739 253.553C413.372 253.553 413.189 253.737 413.006 253.737Z" fill="#42CA2C"/>
</g>
<g opacity="0.7">
<path opacity="0.7" d="M471.822 161.036L420.884 129.708L430.778 157.005L424.915 159.021L412.089 123.296C411.722 122.013 412.089 120.731 413.005 119.815C414.104 118.899 415.387 118.899 416.669 119.632L474.937 155.723L471.822 161.036Z" fill="#42CA2C"/>
<path opacity="0.5" d="M417.036 124.761L428.03 155.356L425.648 156.272L413.372 122.197C413.188 121.647 413.372 121.097 413.738 120.731C413.921 120.548 414.288 120.365 414.471 120.365C414.654 120.365 415.021 120.365 415.204 120.548L472.189 155.54L470.907 157.738L417.036 124.761Z" fill="#42CA2C"/>
</g>
<g opacity="0.7">
<path opacity="0.7" d="M355.47 220.76L353.088 214.898L410.256 191.814V122.93H416.486V194.012C416.486 195.295 415.753 196.394 414.471 196.944L355.47 220.76Z" fill="#42CA2C"/>
<path opacity="0.5" d="M355.104 215.264L411.722 192.547V124.029H414.288V193.28C414.288 193.829 413.921 194.196 413.555 194.562L356.203 217.646L355.104 215.264Z" fill="#42CA2C"/>
</g>
<g opacity="0.7">
<path opacity="0.7" d="M356.544 156.088L352.06 160.412L381.061 190.478L385.545 186.154L356.544 156.088Z" fill="#42CA2C"/>
<path opacity="0.5" d="M356.114 157.934L354.267 159.713L380.705 187.157L382.553 185.378L356.114 157.934Z" fill="#42CA2C"/>
</g>
<g opacity="0.7">
<path opacity="0.7" d="M399.079 222.775L393.766 219.478L410.806 192.364C411.539 191.081 413.371 190.532 414.654 191.081L441.772 202.989L439.207 208.669L414.654 197.86L399.079 222.775Z" fill="#42CA2C"/>
<path opacity="0.5" d="M395.965 218.012L411.906 192.547C412.089 192.18 412.456 191.997 413.005 191.997C413.189 191.997 413.372 191.997 413.555 192.18L438.841 203.356L437.742 205.737L413.372 194.928L397.98 219.478L395.965 218.012Z" fill="#42CA2C"/>
</g>
<g opacity="0.7">
<path opacity="0.7" d="M413.372 256.302C412.273 256.302 411.173 255.569 410.624 254.653L394.499 224.058L354.005 220.943C352.722 220.943 351.806 220.027 351.256 218.928C350.89 217.829 351.073 216.546 351.806 215.63L381.123 184.486L385.704 188.7L360.968 215.264L396.698 218.012C397.797 218.012 398.714 218.745 399.263 219.661L413.555 246.775L437.742 204.455C438.475 203.173 439.941 202.623 441.407 202.989L470.358 212.516V161.036H427.664V154.807H473.472C475.122 154.807 476.587 156.273 476.587 157.921V216.913C476.587 217.829 476.038 218.928 475.305 219.478C474.572 220.027 473.472 220.211 472.556 219.844L441.956 209.768L416.121 254.653C415.571 255.569 414.472 256.302 413.372 256.302Z" fill="#42CA2C"/>
<path opacity="0.5" d="M413.006 253.737C412.639 253.737 412.09 253.554 411.906 253.004L395.232 221.493L353.822 218.378C353.272 218.378 352.906 218.012 352.722 217.646C352.539 217.096 352.722 216.73 352.906 216.363L380.94 186.501L382.772 188.333L356.57 216.18L395.965 219.111C396.332 219.111 396.881 219.478 397.065 219.844L413.006 249.889L438.841 204.821C439.025 204.455 439.574 204.089 439.941 204.089C440.124 204.089 440.124 204.089 440.307 204.089L471.64 214.348V158.471H428.947V155.906H472.923C473.656 155.906 474.205 156.456 474.205 157.189V216.18C474.205 216.546 474.022 216.913 473.656 217.279C473.472 217.462 473.106 217.462 472.923 217.462C472.739 217.462 472.739 217.462 472.556 217.462L440.491 207.02L414.105 253.004C413.922 253.37 413.372 253.737 413.006 253.737Z" fill="#42CA2C"/>
</g>
<path d="M363.532 217.829C363.532 222.959 359.318 227.172 354.188 227.172C349.057 227.172 344.843 222.959 344.843 217.829C344.843 212.699 349.057 208.485 354.188 208.485C359.501 208.485 363.532 212.699 363.532 217.829Z" fill="url(#paint47_radial)"/>
<path d="M363.532 158.288C363.532 163.418 359.318 167.631 354.188 167.631C349.057 167.631 344.843 163.418 344.843 158.288C344.843 153.158 349.057 148.944 354.188 148.944C359.501 148.944 363.532 153.158 363.532 158.288Z" fill="url(#paint48_radial)"/>
<path d="M422.716 194.012C422.716 199.142 418.502 203.356 413.371 203.356C408.241 203.356 404.026 199.142 404.026 194.012C404.026 188.883 408.241 184.669 413.371 184.669C418.502 184.669 422.716 188.883 422.716 194.012Z" fill="url(#paint49_radial)"/>
<path d="M405.676 221.127C405.676 226.256 401.462 230.47 396.331 230.47C391.201 230.47 386.986 226.256 386.986 221.127C386.986 215.997 391.201 211.783 396.331 211.783C401.645 211.783 405.676 215.997 405.676 221.127Z" fill="url(#paint50_radial)"/>
<path d="M482.633 158.288C482.633 163.418 478.419 167.631 473.288 167.631C468.158 167.631 463.943 163.418 463.943 158.288C463.943 153.158 468.158 148.944 473.288 148.944C478.602 148.944 482.633 153.158 482.633 158.288Z" fill="url(#paint51_radial)"/>
<path d="M482.633 216.913C482.633 222.043 478.419 226.256 473.288 226.256C468.158 226.256 463.943 222.043 463.943 216.913C463.943 211.783 468.158 207.569 473.288 207.569C478.602 207.569 482.633 211.783 482.633 216.913Z" fill="url(#paint52_radial)"/>
<path d="M422.716 253.187C422.716 258.317 418.502 262.531 413.371 262.531C408.241 262.531 404.026 258.317 404.026 253.187C404.026 248.057 408.241 243.844 413.371 243.844C418.502 243.844 422.716 248.057 422.716 253.187Z" fill="url(#paint53_radial)"/>
<path d="M422.716 122.563C422.716 127.693 418.502 131.906 413.371 131.906C408.241 131.906 404.026 127.693 404.026 122.563C404.026 117.433 408.241 113.22 413.371 113.22C418.502 113.22 422.716 117.433 422.716 122.563Z" fill="url(#paint54_radial)"/>
<path d="M436.825 157.921C436.825 163.051 432.611 167.265 427.481 167.265C422.35 167.265 418.136 163.051 418.136 157.921C418.136 152.792 422.35 148.578 427.481 148.578C432.794 148.578 436.825 152.792 436.825 157.921Z" fill="url(#paint55_radial)"/>
<path d="M456.981 178.99C456.981 184.119 452.766 188.333 447.636 188.333C442.505 188.333 438.291 184.119 438.291 178.99C438.291 173.86 442.505 169.646 447.636 169.646C452.95 169.646 456.981 173.86 456.981 178.99Z" fill="url(#paint56_radial)"/>
<path d="M445.804 213.249C445.804 218.378 441.59 222.592 436.459 222.592C431.329 222.592 427.114 218.378 427.114 213.249C427.114 208.119 431.329 203.905 436.459 203.905C441.59 203.905 445.804 208.119 445.804 213.249Z" fill="url(#paint57_radial)"/>
<path d="M392.85 186.684C392.85 191.814 388.636 196.028 383.505 196.028C378.375 196.028 374.16 191.814 374.16 186.684C374.16 181.555 378.375 177.341 383.505 177.341C388.819 177.341 392.85 181.555 392.85 186.684Z" fill="url(#paint58_radial)"/>
<path d="M404.76 155.173C404.76 160.303 400.546 164.517 395.415 164.517C390.285 164.517 386.07 160.303 386.07 155.173C386.07 150.044 390.285 145.83 395.415 145.83C400.729 145.83 404.76 150.044 404.76 155.173Z" fill="url(#paint59_radial)"/>
<path d="M177.369 148.212V218.378L246.448 177.891V107.54L177.369 148.212Z" fill="#01AA06"/>
<path d="M177.369 148.211V218.378L108.29 178.074V107.907L177.369 148.211Z" fill="#10CC1A"/>
<path d="M108.29 107.907L177.369 148.212L246.447 107.54L177.185 67.2356L108.29 107.907Z" fill="url(#paint60_linear)"/>
<path d="M253.594 194.012V264.179L322.672 223.691V153.341L253.594 194.012Z" fill="#01AA06"/>
<path d="M253.593 194.012V264.179L184.515 224.058V153.708L253.593 194.012Z" fill="#10CC1A"/>
<path d="M184.515 153.708L253.593 194.012L322.672 153.341L253.41 113.22L184.515 153.708Z" fill="url(#paint61_linear)"/>
<path d="M333.666 239.813V310.163L402.745 269.492V199.325L333.666 239.813Z" fill="#00CC06"/>
<path d="M333.665 239.813V310.163L264.587 269.859V199.692L333.665 239.813Z" fill="#10CC1A"/>
<path d="M264.587 199.692L333.665 239.813L402.744 199.325L333.665 159.021L264.587 199.692Z" fill="url(#paint62_linear)"/>
<path opacity="0.2" d="M334.399 239.447L333.666 239.813V245.859L382.772 274.439L333.666 303.202V310.163L394.499 274.439L334.399 239.447Z" fill="url(#paint63_radial)"/>
<path opacity="0.2" d="M333.666 292.942L365.182 274.805C365.732 274.439 365.732 274.072 365.182 273.706L361.151 271.324L365.182 269.126C365.732 268.759 365.732 268.393 365.182 268.027L361.701 266.011C361.151 265.645 360.235 265.645 359.685 266.011L355.654 268.21L354.005 267.294C352.722 266.561 351.623 265.828 350.523 265.279L354.555 262.897C355.104 262.531 355.104 262.164 354.555 261.798L351.073 259.782C350.523 259.416 349.607 259.416 349.058 259.782L344.477 261.981C342.461 261.065 340.262 260.515 338.064 260.149C336.598 259.966 335.132 259.966 333.666 260.149V266.561C334.582 266.195 335.498 266.011 336.598 266.011C338.064 266.011 339.346 266.195 340.629 266.744C341.545 267.111 343.194 268.027 345.943 269.492L352.722 273.34L343.011 278.836L337.147 275.355C335.682 274.622 334.582 273.889 333.666 273.34V280.301L336.964 282.317L333.666 284.332V292.942Z" fill="url(#paint64_radial)"/>
<path d="M97.1133 194.745V264.912L166.192 224.424V154.074L97.1133 194.745Z" fill="#01AA06"/>
<path d="M97.1127 194.745V264.912L28.0342 224.607V154.44L97.1127 194.745Z" fill="url(#paint65_linear)"/>
<path d="M28.0342 154.44L97.1127 194.745L166.191 154.074L97.1127 113.953L28.0342 154.44Z" fill="url(#paint66_linear)"/>
<path d="M175.354 240.546V310.713L244.432 270.225V200.058L175.354 240.546Z" fill="#01AA06"/>
<path d="M175.353 240.546V310.713L106.274 270.591V200.241L175.353 240.546Z" fill="url(#paint67_linear)"/>
<path d="M106.274 200.241L175.353 240.546L244.431 200.058L175.353 159.753L106.274 200.241Z" fill="url(#paint68_linear)"/>
<path d="M112.138 266.927V246.592L169.673 280.118V300.454L112.138 266.927Z" fill="#00CC06"/>
<path d="M161.794 282.133L163.993 283.416V280.851L161.794 279.568V282.133Z" fill="#2AF6FF"/>
<path d="M157.579 279.752L159.778 281.034V278.469L157.579 277.187V279.752Z" fill="#2AF6FF"/>
<path d="M153.365 277.37L155.564 278.652V276.088L153.365 274.805V277.37Z" fill="#54B84B"/>
<path d="M149.151 274.988L151.35 276.271V273.706L149.151 272.423V274.988Z" fill="#7DE774"/>
<path d="M144.937 272.423L147.319 273.706V271.141L144.937 269.859V272.423Z" fill="#7DE774"/>
<path d="M140.905 270.042L143.104 271.324V268.759L140.905 267.477V270.042Z" fill="#54B84B"/>
<path d="M136.691 267.66L138.89 268.943V266.378L136.691 265.095V267.66Z" fill="#54B84B"/>
<path d="M132.477 265.279L134.675 266.561V263.996L132.477 262.714V265.279Z" fill="#54B84B"/>
<path d="M128.263 262.897L130.461 264.179V261.614L128.263 260.332V262.897Z" fill="#7DE774"/>
<path d="M124.048 260.332L126.247 261.798V259.233L124.048 257.95V260.332Z" fill="#54B84B"/>
<path d="M120.018 257.95L122.216 259.233V256.668L120.018 255.385V257.95Z" fill="#2AF6FF"/>
<path d="M115.803 255.569L118.002 256.851V254.286L115.803 253.004V255.569Z" fill="#2AF6FF"/>
<path d="M161.794 286.713L163.993 287.996V285.431L161.794 284.148V286.713Z" fill="#54B84B"/>
<path d="M157.579 284.332L159.778 285.614V283.049L157.579 281.767V284.332Z" fill="#2AF6FF"/>
<path d="M153.365 281.95L155.564 283.233V280.668L153.365 279.385V281.95Z" fill="#2AF6FF"/>
<path d="M149.151 279.385L151.35 280.668V278.103L149.151 276.82V279.385Z" fill="#7DE774"/>
<path d="M144.937 277.004L147.319 278.286V275.721L144.937 274.439V277.004Z" fill="#2AF6FF"/>
<path d="M140.905 274.622L143.104 275.904V273.34L140.905 272.057V274.622Z" fill="#2AF6FF"/>
<path d="M136.691 272.24L138.89 273.523V270.958L136.691 269.675V272.24Z" fill="#2AF6FF"/>
<path d="M132.477 269.859L134.675 271.141V268.576L132.477 267.294V269.859Z" fill="#54B84B"/>
<path d="M128.263 267.294L130.461 268.576V266.195L128.263 264.912V267.294Z" fill="#54B84B"/>
<path d="M124.048 264.912L126.247 266.195V263.63L124.048 262.347V264.912Z" fill="#54B84B"/>
<path d="M120.018 262.53L122.216 263.813V261.248L120.018 259.966V262.53Z" fill="#54B84B"/>
<path d="M115.803 260.149L118.002 261.431V258.866L115.803 257.584V260.149Z" fill="#54B84B"/>
<path d="M161.794 291.11L163.993 292.393V290.011L161.794 288.729V291.11Z" fill="#2AF6FF"/>
<path d="M157.579 288.729L159.778 290.011V287.446L157.579 286.164V288.729Z" fill="#54B84B"/>
<path d="M153.365 286.347L155.564 287.629V285.065L153.365 283.782V286.347Z" fill="#54B84B"/>
<path d="M149.151 283.965L151.35 285.248V282.683L149.151 281.4V283.965Z" fill="#54B84B"/>
<path d="M144.937 281.584L147.319 282.866V280.301L144.937 279.019V281.584Z" fill="#54B84B"/>
<path d="M140.905 279.202L143.104 280.484V277.92L140.905 276.637V279.202Z" fill="#54B84B"/>
<path d="M136.691 276.637L138.89 277.92V275.355L136.691 274.072V276.637Z" fill="#7DE774"/>
<path d="M132.477 274.256L134.675 275.538V272.973L132.477 271.691V274.256Z" fill="#2AF6FF"/>
<path d="M128.263 271.874L130.461 273.156V270.591L128.263 269.309V271.874Z" fill="#54B84B"/>
<path d="M124.048 269.492L126.247 270.775V268.21L124.048 266.927V269.492Z" fill="#54B84B"/>
<path d="M120.018 267.11L122.216 268.393V265.828L120.018 264.546V267.11Z" fill="#2AF6FF"/>
<path d="M115.803 264.729L118.002 266.011V263.446L115.803 262.164V264.729Z" fill="#2AF6FF"/>
<path d="M188.545 282.133L186.347 283.416V280.851L188.545 279.568V282.133Z" fill="#2AF6FF"/>
<path d="M192.76 279.752L190.562 281.034V278.469L192.76 277.187V279.752Z" fill="#7DE774"/>
<path d="M196.974 277.37L194.775 278.652V276.088L196.974 274.805V277.37Z" fill="#54B84B"/>
<path d="M201.189 274.988L198.807 276.271V273.706L201.189 272.423V274.988Z" fill="#7DE774"/>
<path d="M205.219 272.423L203.021 273.706V271.141L205.219 269.859V272.423Z" fill="#7DE774"/>
<path d="M209.434 270.042L207.235 271.324V268.759L209.434 267.477V270.042Z" fill="#54B84B"/>
<path d="M213.648 267.66L211.449 268.943V266.378L213.648 265.095V267.66Z" fill="#54B84B"/>
<path d="M217.863 265.279L215.664 266.561V263.996L217.863 262.714V265.279Z" fill="#54B84B"/>
<path d="M222.077 262.897L219.695 264.179V261.614L222.077 260.332V262.897Z" fill="#7DE774"/>
<path d="M226.108 260.332L223.909 261.798V259.233L226.108 257.95V260.332Z" fill="#7DE774"/>
<path d="M230.322 257.95L228.123 259.233V256.668L230.322 255.385V257.95Z" fill="#2AF6FF"/>
<path d="M234.537 255.569L232.338 256.851V254.286L234.537 253.004V255.569Z" fill="#2AF6FF"/>
<path d="M188.545 286.713L186.347 287.996V285.431L188.545 284.148V286.713Z" fill="#54B84B"/>
<path d="M192.76 284.332L190.562 285.614V283.049L192.76 281.767V284.332Z" fill="#7DE774"/>
<path d="M196.974 281.95L194.775 283.233V280.668L196.974 279.385V281.95Z" fill="#2AF6FF"/>
<path d="M201.189 279.385L198.807 280.668V278.103L201.189 276.82V279.385Z" fill="#7DE774"/>
<path d="M205.219 277.004L203.021 278.286V275.721L205.219 274.439V277.004Z" fill="#2AF6FF"/>
<path d="M209.434 274.622L207.235 275.904V273.34L209.434 272.057V274.622Z" fill="#2AF6FF"/>
<path d="M213.648 272.24L211.449 273.523V270.958L213.648 269.675V272.24Z" fill="#2AF6FF"/>
<path d="M217.863 269.859L215.664 271.141V268.576L217.863 267.294V269.859Z" fill="#54B84B"/>
<path d="M222.077 267.294L219.695 268.576V266.195L222.077 264.912V267.294Z" fill="#54B84B"/>
<path d="M226.108 264.912L223.909 266.195V263.63L226.108 262.347V264.912Z" fill="#54B84B"/>
<path d="M230.322 262.53L228.123 263.813V261.248L230.322 259.966V262.53Z" fill="#54B84B"/>
<path d="M234.537 260.149L232.338 261.431V258.866L234.537 257.584V260.149Z" fill="#54B84B"/>
<path d="M188.545 291.11L186.347 292.393V290.011L188.545 288.729V291.11Z" fill="#2AF6FF"/>
<path d="M192.76 288.729L190.562 290.011V287.446L192.76 286.164V288.729Z" fill="#54B84B"/>
<path d="M196.974 286.347L194.775 287.629V285.065L196.974 283.782V286.347Z" fill="#54B84B"/>
<path d="M201.189 283.965L198.807 285.248V282.683L201.189 281.4V283.965Z" fill="#54B84B"/>
<path d="M205.219 281.584L203.021 282.866V280.301L205.219 279.019V281.584Z" fill="#54B84B"/>
<path d="M209.434 279.202L207.235 280.484V277.92L209.434 276.637V279.202Z" fill="#54B84B"/>
<path d="M213.648 276.637L211.449 277.92V275.355L213.648 274.072V276.637Z" fill="#7DE774"/>
<path d="M217.863 274.256L215.664 275.538V272.973L217.863 271.691V274.256Z" fill="#2AF6FF"/>
<path d="M222.077 271.874L219.695 273.156V270.591L222.077 269.309V271.874Z" fill="#54B84B"/>
<path d="M226.108 269.492L223.909 270.775V268.21L226.108 266.927V269.492Z" fill="#54B84B"/>
<path d="M230.322 267.11L228.123 268.393V265.828L230.322 264.546V267.11Z" fill="#54B84B"/>
<path d="M234.537 264.729L232.338 266.011V263.446L234.537 262.164V264.729Z" fill="#2AF6FF"/>
<path d="M112.138 230.653V210.501L169.673 243.844V264.179L112.138 230.653Z" fill="#00CC06"/>
<path d="M161.794 246.042L163.993 247.325V244.76L161.794 243.477V246.042Z" fill="#2AF6FF"/>
<path d="M157.579 243.477L159.778 244.76V242.195L157.579 240.912V243.477Z" fill="#2AF6FF"/>
<path d="M153.365 241.096L155.564 242.378V239.813L153.365 238.531V241.096Z" fill="#54B84B"/>
<path d="M149.151 238.714L151.35 239.996V237.432L149.151 236.149V238.714Z" fill="#7DE774"/>
<path d="M144.937 236.332L147.319 237.615V235.05L144.937 233.768V236.332Z" fill="#7DE774"/>
<path d="M140.905 233.951L143.104 235.233V232.668L140.905 231.386V233.951Z" fill="#54B84B"/>
<path d="M136.691 231.569L138.89 232.852V230.287L136.691 229.004V231.569Z" fill="#54B84B"/>
<path d="M132.477 229.004L134.675 230.287V227.722L132.477 226.439V229.004Z" fill="#54B84B"/>
<path d="M128.263 226.623L130.461 227.905V225.34L128.263 224.058V226.623Z" fill="#7DE774"/>
<path d="M124.048 224.241L126.247 225.523V222.959L124.048 221.676V224.241Z" fill="#54B84B"/>
<path d="M120.018 221.859L122.216 223.142V220.577L120.018 219.295V221.859Z" fill="#2AF6FF"/>
<path d="M115.803 219.478L118.002 220.76V218.195L115.803 216.913V219.478Z" fill="#2AF6FF"/>
<path d="M161.794 250.439L163.993 251.722V249.157L161.794 247.874V250.439Z" fill="#54B84B"/>
<path d="M157.579 248.057L159.778 249.34V246.775L157.579 245.493V248.057Z" fill="#2AF6FF"/>
<path d="M153.365 245.676L155.564 246.958V244.394L153.365 243.111V245.676Z" fill="#2AF6FF"/>
<path d="M149.151 243.294L151.35 244.577V242.012L149.151 240.729V243.294Z" fill="#7DE774"/>
<path d="M144.937 240.913L147.319 242.195V239.63L144.937 238.348V240.913Z" fill="#2AF6FF"/>
<path d="M140.905 238.348L143.104 239.63V237.248L140.905 235.966V238.348Z" fill="#2AF6FF"/>
<path d="M136.691 235.966L138.89 237.249V234.684L136.691 233.401V235.966Z" fill="#2AF6FF"/>
<path d="M132.477 233.584L134.675 234.867V232.302L132.477 231.02V233.584Z" fill="#54B84B"/>
<path d="M128.263 231.203L130.461 232.485V229.92L128.263 228.638V231.203Z" fill="#54B84B"/>
<path d="M124.048 228.821L126.247 230.104V227.539L124.048 226.256V228.821Z" fill="#54B84B"/>
<path d="M120.018 226.439L122.216 227.722V225.157L120.018 223.875V226.439Z" fill="#54B84B"/>
<path d="M115.803 223.875L118.002 225.157V222.592L115.803 221.31V223.875Z" fill="#54B84B"/>
<path d="M161.794 255.019L163.993 256.301V253.737L161.794 252.454V255.019Z" fill="#2AF6FF"/>
<path d="M157.579 252.637L159.778 253.92V251.355L157.579 250.073V252.637Z" fill="#54B84B"/>
<path d="M153.365 250.256L155.564 251.538V248.973L153.365 247.691V250.256Z" fill="#54B84B"/>
<path d="M149.151 247.691L151.35 248.973V246.409L149.151 245.126V247.691Z" fill="#54B84B"/>
<path d="M144.937 245.309L147.319 246.592V244.027L144.937 242.745V245.309Z" fill="#54B84B"/>
<path d="M140.905 242.928L143.104 244.21V241.645L140.905 240.363V242.928Z" fill="#54B84B"/>
<path d="M136.691 240.546L138.89 241.828V239.264L136.691 237.981V240.546Z" fill="#7DE774"/>
<path d="M132.477 238.164L134.675 239.447V236.882L132.477 235.6V238.164Z" fill="#2AF6FF"/>
<path d="M128.263 235.783L130.461 237.065V234.5L128.263 233.218V235.783Z" fill="#54B84B"/>
<path d="M124.048 233.218L126.247 234.5V231.935L124.048 230.653V233.218Z" fill="#54B84B"/>
<path d="M120.018 230.836L122.216 232.119V229.554L120.018 228.271V230.836Z" fill="#2AF6FF"/>
<path d="M115.803 228.455L118.002 229.737V227.172L115.803 225.89V228.455Z" fill="#2AF6FF"/>
<path d="M124.231 200.791L174.987 230.287L226.292 200.791L175.536 171.295L124.231 200.791Z" fill="#00CC06"/>
<path d="M253.594 286.347V356.697L322.672 316.026V245.859L253.594 286.347Z" fill="#00AA05"/>
<path d="M253.593 286.347V356.697L184.515 316.392V246.225L253.593 286.347Z" fill="url(#paint69_linear)"/>
<path d="M184.515 246.225L253.593 286.347L322.672 245.859L253.41 205.554L184.515 246.225Z" fill="url(#paint70_linear)"/>
<defs>
<linearGradient id="paint0_linear" x1="329.715" y1="131.98" x2="344.402" y2="164.94" gradientUnits="userSpaceOnUse">
<stop offset="0.0353535" stop-color="#FFA98C"/>
<stop offset="0.3169" stop-color="#FFB892"/>
<stop offset="0.8601" stop-color="#FEE1A3"/>
<stop offset="1" stop-color="#FEECA8"/>
</linearGradient>
<linearGradient id="paint1_linear" x1="183.634" y1="34.7363" x2="324.76" y2="206.63" gradientUnits="userSpaceOnUse">
<stop offset="0.0353535" stop-color="#FFA98C"/>
<stop offset="0.3169" stop-color="#FFB892"/>
<stop offset="0.8601" stop-color="#FEE1A3"/>
<stop offset="1" stop-color="#FEECA8"/>
</linearGradient>
<linearGradient id="paint2_linear" x1="326.153" y1="-56.4761" x2="282.19" y2="139.555" gradientUnits="userSpaceOnUse">
<stop offset="0.0353535" stop-color="#FFA98C"/>
<stop offset="0.3169" stop-color="#FFB892"/>
<stop offset="0.8601" stop-color="#FEE1A3"/>
<stop offset="1" stop-color="#FEECA8"/>
</linearGradient>
<radialGradient id="paint3_radial" cx="0" cy="0" r="1" gradientUnits="userSpaceOnUse" gradientTransform="translate(291.67 117.076) scale(50.9656 50.9576)">
<stop offset="0.0959596" stop-color="#FFE4A7"/>
<stop offset="0.4205" stop-color="#F4BE4C"/>
<stop offset="0.6717" stop-color="#ECA30A"/>
<stop offset="1"/>
</radialGradient>
<linearGradient id="paint4_linear" x1="329.715" y1="113.048" x2="344.402" y2="146.009" gradientUnits="userSpaceOnUse">
<stop offset="0.0353535" stop-color="#FFA98C"/>
<stop offset="0.3169" stop-color="#FFB892"/>
<stop offset="0.8601" stop-color="#FEE1A3"/>
<stop offset="1" stop-color="#FEECA8"/>
</linearGradient>
<linearGradient id="paint5_linear" x1="183.634" y1="15.8053" x2="324.76" y2="187.699" gradientUnits="userSpaceOnUse">
<stop offset="0.0353535" stop-color="#FFA98C"/>
<stop offset="0.3169" stop-color="#FFB892"/>
<stop offset="0.8601" stop-color="#FEE1A3"/>
<stop offset="1" stop-color="#FEECA8"/>
</linearGradient>
<linearGradient id="paint6_linear" x1="326.153" y1="-75.4067" x2="282.19" y2="120.624" gradientUnits="userSpaceOnUse">
<stop offset="0.0353535" stop-color="#FFA98C"/>
<stop offset="0.3169" stop-color="#FFB892"/>
<stop offset="0.8601" stop-color="#FEE1A3"/>
<stop offset="1" stop-color="#FEECA8"/>
</linearGradient>
<linearGradient id="paint7_linear" x1="329.715" y1="94.1176" x2="344.402" y2="127.078" gradientUnits="userSpaceOnUse">
<stop offset="0.0353535" stop-color="#FFA98C"/>
<stop offset="0.3169" stop-color="#FFB892"/>
<stop offset="0.8601" stop-color="#FEE1A3"/>
<stop offset="1" stop-color="#FEECA8"/>
</linearGradient>
<linearGradient id="paint8_linear" x1="183.634" y1="-3.12559" x2="324.76" y2="168.768" gradientUnits="userSpaceOnUse">
<stop offset="0.0353535" stop-color="#FFA98C"/>
<stop offset="0.3169" stop-color="#FFB892"/>
<stop offset="0.8601" stop-color="#FEE1A3"/>
<stop offset="1" stop-color="#FEECA8"/>
</linearGradient>
<linearGradient id="paint9_linear" x1="326.153" y1="-94.3376" x2="282.19" y2="101.693" gradientUnits="userSpaceOnUse">
<stop offset="0.0353535" stop-color="#FFA98C"/>
<stop offset="0.3169" stop-color="#FFB892"/>
<stop offset="0.8601" stop-color="#FEE1A3"/>
<stop offset="1" stop-color="#FEECA8"/>
</linearGradient>
<linearGradient id="paint10_linear" x1="329.715" y1="75.1866" x2="344.402" y2="108.147" gradientUnits="userSpaceOnUse">
<stop offset="0.0353535" stop-color="#FFA98C"/>
<stop offset="0.3169" stop-color="#FFB892"/>
<stop offset="0.8601" stop-color="#FEE1A3"/>
<stop offset="1" stop-color="#FEECA8"/>
</linearGradient>
<linearGradient id="paint11_linear" x1="183.634" y1="-22.0568" x2="324.76" y2="149.837" gradientUnits="userSpaceOnUse">
<stop offset="0.0353535" stop-color="#FFA98C"/>
<stop offset="0.3169" stop-color="#FFB892"/>
<stop offset="0.8601" stop-color="#FEE1A3"/>
<stop offset="1" stop-color="#FEECA8"/>
</linearGradient>
<linearGradient id="paint12_linear" x1="336.896" y1="-161.158" x2="292.933" y2="34.8728" gradientUnits="userSpaceOnUse">
<stop offset="0.0353535" stop-color="#FFA98C"/>
<stop offset="0.3169" stop-color="#FFB892"/>
<stop offset="0.8601" stop-color="#FEE1A3"/>
<stop offset="1" stop-color="#FEECA8"/>
</linearGradient>
<linearGradient id="paint13_linear" x1="291.614" y1="6.41211" x2="291.614" y2="74.5638" gradientUnits="userSpaceOnUse">
<stop stop-color="#2EFC74"/>
<stop offset="1" stop-color="#20DB42"/>
</linearGradient>
<radialGradient id="paint14_radial" cx="0" cy="0" r="1" gradientUnits="userSpaceOnUse" gradientTransform="translate(335.656 285.663) scale(70.8372 70.8261)">
<stop offset="0.0959596" stop-color="#45108A"/>
<stop offset="0.6717" stop-color="#25054D"/>
<stop offset="1"/>
</radialGradient>
<radialGradient id="paint15_radial" cx="0" cy="0" r="1" gradientUnits="userSpaceOnUse" gradientTransform="translate(253.557 332.214) scale(70.8372 70.8261)">
<stop offset="0.0959596" stop-color="#45108A"/>
<stop offset="0.6717" stop-color="#25054D"/>
<stop offset="1"/>
</radialGradient>
<linearGradient id="paint16_linear" x1="380.351" y1="442.151" x2="430.928" y2="555.658" gradientUnits="userSpaceOnUse">
<stop stop-color="#00C206"/>
<stop offset="1" stop-color="#11E517"/>
</linearGradient>
<linearGradient id="paint17_linear" x1="95.3885" y1="423.687" x2="142.536" y2="529.498" gradientUnits="userSpaceOnUse">
<stop offset="0.0353535" stop-color="#FFA98C"/>
<stop offset="0.3169" stop-color="#FFB892"/>
<stop offset="0.8601" stop-color="#FEE1A3"/>
<stop offset="1" stop-color="#FEECA8"/>
</linearGradient>
<linearGradient id="paint18_linear" x1="-111.842" y1="208.825" x2="141.015" y2="516.808" gradientUnits="userSpaceOnUse">
<stop offset="0.0353535" stop-color="#FFA98C"/>
<stop offset="0.3169" stop-color="#FFB892"/>
<stop offset="0.8601" stop-color="#FEE1A3"/>
<stop offset="1" stop-color="#FEECA8"/>
</linearGradient>
<linearGradient id="paint19_linear" x1="34.5394" y1="341.491" x2="34.5394" y2="432.726" gradientUnits="userSpaceOnUse">
<stop stop-color="#00CC06"/>
<stop offset="1" stop-color="#3FEE56"/>
</linearGradient>
<linearGradient id="paint20_linear" x1="72.9574" y1="238.795" x2="46.1708" y2="358.237" gradientUnits="userSpaceOnUse">
<stop offset="0.0353535" stop-color="#FFA98C"/>
<stop offset="0.3169" stop-color="#FFB892"/>
<stop offset="0.8601" stop-color="#FEE1A3"/>
<stop offset="1" stop-color="#FEECA8"/>
</linearGradient>
<radialGradient id="paint21_radial" cx="0" cy="0" r="1" gradientUnits="userSpaceOnUse" gradientTransform="translate(49.5603 351.686) scale(65.7479 65.7376)">
<stop offset="0.0959596" stop-color="#FFE4A7"/>
<stop offset="0.4205" stop-color="#F4BE4C"/>
<stop offset="0.6717" stop-color="#ECA30A"/>
<stop offset="1"/>
</radialGradient>
<linearGradient id="paint22_linear" x1="222.016" y1="442.862" x2="272.593" y2="556.368" gradientUnits="userSpaceOnUse">
<stop stop-color="#01B306"/>
<stop offset="1" stop-color="#00CC06"/>
</linearGradient>
<linearGradient id="paint23_linear" x1="140.814" y1="360.544" x2="140.814" y2="471.016" gradientUnits="userSpaceOnUse">
<stop stop-color="#00CC06"/>
<stop offset="1" stop-color="#3FEE56"/>
</linearGradient>
<linearGradient id="paint24_linear" x1="143.826" y1="316.886" x2="194.402" y2="430.392" gradientUnits="userSpaceOnUse">
<stop stop-color="#01B206"/>
<stop offset="1" stop-color="#01B206"/>
</linearGradient>
<linearGradient id="paint25_linear" x1="62.5734" y1="234.684" x2="62.5734" y2="345.155" gradientUnits="userSpaceOnUse">
<stop stop-color="#00CC06"/>
<stop offset="1" stop-color="#3FEE56"/>
</linearGradient>
<linearGradient id="paint26_linear" x1="219.054" y1="406.345" x2="219.054" y2="517" gradientUnits="userSpaceOnUse">
<stop stop-color="#00CC06"/>
<stop offset="1" stop-color="#3FEE56"/>
</linearGradient>
<linearGradient id="paint27_linear" x1="140.814" y1="280.484" x2="140.814" y2="390.956" gradientUnits="userSpaceOnUse">
<stop stop-color="#00CC06"/>
<stop offset="1" stop-color="#3FEE56"/>
</linearGradient>
<linearGradient id="paint28_linear" x1="291.603" y1="417.662" x2="306.29" y2="450.622" gradientUnits="userSpaceOnUse">
<stop stop-color="#00CC06"/>
<stop offset="1" stop-color="#00CC06"/>
</linearGradient>
<linearGradient id="paint29_linear" x1="291.326" y1="359.33" x2="304.855" y2="389.692" gradientUnits="userSpaceOnUse">
<stop stop-color="#00AA05"/>
<stop offset="1" stop-color="#00AA05"/>
</linearGradient>
<radialGradient id="paint30_radial" cx="0" cy="0" r="1" gradientUnits="userSpaceOnUse" gradientTransform="translate(327.703 356.339) scale(70.8533 70.8422)">
<stop stop-color="#FDD65B"/>
<stop offset="0.2056" stop-color="#B19540"/>
<stop offset="0.4744" stop-color="#52461E"/>
<stop offset="0.6629" stop-color="#171308"/>
<stop offset="0.7525"/>
</radialGradient>
<linearGradient id="paint31_linear" x1="300.207" y1="408.567" x2="350.783" y2="522.074" gradientUnits="userSpaceOnUse">
<stop stop-color="#00AA05"/>
<stop offset="1" stop-color="#00AA05"/>
</linearGradient>
<linearGradient id="paint32_linear" x1="448.369" y1="232.852" x2="448.369" y2="343.69" gradientUnits="userSpaceOnUse">
<stop stop-color="#00CC06"/>
<stop offset="1" stop-color="#1BF321"/>
</linearGradient>
<linearGradient id="paint33_linear" x1="440.765" y1="411.415" x2="455.451" y2="444.376" gradientUnits="userSpaceOnUse">
<stop offset="0.0353535" stop-color="#FFA98C"/>
<stop offset="0.3169" stop-color="#FFB892"/>
<stop offset="0.8601" stop-color="#FEE1A3"/>
<stop offset="1" stop-color="#FEECA8"/>
</linearGradient>
<linearGradient id="paint34_linear" x1="294.683" y1="314.172" x2="435.809" y2="486.066" gradientUnits="userSpaceOnUse">
<stop offset="0.0353535" stop-color="#FFA98C"/>
<stop offset="0.3169" stop-color="#FFB892"/>
<stop offset="0.8601" stop-color="#FEE1A3"/>
<stop offset="1" stop-color="#FEECA8"/>
</linearGradient>
<linearGradient id="paint35_linear" x1="437.202" y1="222.96" x2="393.24" y2="418.99" gradientUnits="userSpaceOnUse">
<stop offset="0.0353535" stop-color="#FFA98C"/>
<stop offset="0.3169" stop-color="#FFB892"/>
<stop offset="0.8601" stop-color="#FEE1A3"/>
<stop offset="1" stop-color="#FEECA8"/>
</linearGradient>
<linearGradient id="paint36_linear" x1="440.765" y1="392.484" x2="455.452" y2="425.445" gradientUnits="userSpaceOnUse">
<stop offset="0.0353535" stop-color="#FFA98C"/>
<stop offset="0.3169" stop-color="#FFB892"/>
<stop offset="0.8601" stop-color="#FEE1A3"/>
<stop offset="1" stop-color="#FEECA8"/>
</linearGradient>
<linearGradient id="paint37_linear" x1="294.684" y1="295.241" x2="435.81" y2="467.135" gradientUnits="userSpaceOnUse">
<stop offset="0.0353535" stop-color="#FFA98C"/>
<stop offset="0.3169" stop-color="#FFB892"/>
<stop offset="0.8601" stop-color="#FEE1A3"/>
<stop offset="1" stop-color="#FEECA8"/>
</linearGradient>
<linearGradient id="paint38_linear" x1="437.202" y1="204.029" x2="393.24" y2="400.059" gradientUnits="userSpaceOnUse">
<stop offset="0.0353535" stop-color="#FFA98C"/>
<stop offset="0.3169" stop-color="#FFB892"/>
<stop offset="0.8601" stop-color="#FEE1A3"/>
<stop offset="1" stop-color="#FEECA8"/>
</linearGradient>
<linearGradient id="paint39_linear" x1="440.765" y1="373.553" x2="455.452" y2="406.514" gradientUnits="userSpaceOnUse">
<stop offset="0.0353535" stop-color="#FFA98C"/>
<stop offset="0.3169" stop-color="#FFB892"/>
<stop offset="0.8601" stop-color="#FEE1A3"/>
<stop offset="1" stop-color="#FEECA8"/>
</linearGradient>
<linearGradient id="paint40_linear" x1="294.683" y1="276.31" x2="435.81" y2="448.204" gradientUnits="userSpaceOnUse">
<stop offset="0.0353535" stop-color="#FFA98C"/>
<stop offset="0.3169" stop-color="#FFB892"/>
<stop offset="0.8601" stop-color="#FEE1A3"/>
<stop offset="1" stop-color="#FEECA8"/>
</linearGradient>
<linearGradient id="paint41_linear" x1="437.202" y1="185.098" x2="393.24" y2="381.128" gradientUnits="userSpaceOnUse">
<stop offset="0.0353535" stop-color="#FFA98C"/>
<stop offset="0.3169" stop-color="#FFB892"/>
<stop offset="0.8601" stop-color="#FEE1A3"/>
<stop offset="1" stop-color="#FEECA8"/>
</linearGradient>
<linearGradient id="paint42_linear" x1="440.765" y1="354.622" x2="455.451" y2="387.582" gradientUnits="userSpaceOnUse">
<stop offset="0.0353535" stop-color="#FFA98C"/>
<stop offset="0.3169" stop-color="#FFB892"/>
<stop offset="0.8601" stop-color="#FEE1A3"/>
<stop offset="1" stop-color="#FEECA8"/>
</linearGradient>
<linearGradient id="paint43_linear" x1="294.683" y1="257.379" x2="435.809" y2="429.273" gradientUnits="userSpaceOnUse">
<stop offset="0.0353535" stop-color="#FFA98C"/>
<stop offset="0.3169" stop-color="#FFB892"/>
<stop offset="0.8601" stop-color="#FEE1A3"/>
<stop offset="1" stop-color="#FEECA8"/>
</linearGradient>
<linearGradient id="paint44_linear" x1="447.945" y1="118.278" x2="403.983" y2="314.308" gradientUnits="userSpaceOnUse">
<stop offset="0.0353535" stop-color="#FFA98C"/>
<stop offset="0.3169" stop-color="#FFB892"/>
<stop offset="0.8601" stop-color="#FEE1A3"/>
<stop offset="1" stop-color="#FEECA8"/>
</linearGradient>
<linearGradient id="paint45_linear" x1="382.306" y1="189.489" x2="432.882" y2="302.995" gradientUnits="userSpaceOnUse">
<stop stop-color="#00AA05"/>
<stop offset="1" stop-color="#08D80E"/>
</linearGradient>
<linearGradient id="paint46_linear" x1="335.681" y1="66.686" x2="335.681" y2="147.479" gradientUnits="userSpaceOnUse">
<stop stop-color="#2EFC74"/>
<stop offset="1" stop-color="#20DB42"/>
</linearGradient>
<radialGradient id="paint47_radial" cx="0" cy="0" r="1" gradientUnits="userSpaceOnUse" gradientTransform="translate(351.167 214.756) scale(12.9373 12.9352)">
<stop offset="0.1515" stop-color="#B8FFB1"/>
<stop offset="0.2544" stop-color="#7EEF49"/>
<stop offset="0.7959" stop-color="#41D12A"/>
<stop offset="0.9694" stop-color="#37CB1E"/>
</radialGradient>
<radialGradient id="paint48_radial" cx="0" cy="0" r="1" gradientUnits="userSpaceOnUse" gradientTransform="translate(351.167 155.215) scale(12.9373 12.9352)">
<stop offset="0.1515" stop-color="#B8FFB1"/>
<stop offset="0.2544" stop-color="#7EEF49"/>
<stop offset="0.7959" stop-color="#41D12A"/>
<stop offset="0.9694" stop-color="#37CB1E"/>
</radialGradient>
<radialGradient id="paint49_radial" cx="0" cy="0" r="1" gradientUnits="userSpaceOnUse" gradientTransform="translate(410.259 190.94) scale(12.9373 12.9353)">
<stop offset="0.1515" stop-color="#AAFD9C"/>
<stop offset="0.2544" stop-color="#2AD93C"/>
<stop offset="0.7959" stop-color="#68C71E"/>
<stop offset="0.9694" stop-color="#45BC0D"/>
</radialGradient>
<radialGradient id="paint50_radial" cx="0" cy="0" r="1" gradientUnits="userSpaceOnUse" gradientTransform="translate(393.31 217.962) scale(12.9373 12.9352)">
<stop offset="0.1515" stop-color="#B1FF9D"/>
<stop offset="0.2544" stop-color="#73E94A"/>
<stop offset="0.7959" stop-color="#60E93E"/>
<stop offset="0.9694" stop-color="#53CB29"/>
</radialGradient>
<radialGradient id="paint51_radial" cx="0" cy="0" r="1" gradientUnits="userSpaceOnUse" gradientTransform="translate(470.267 155.215) scale(12.9373 12.9352)">
<stop offset="0.1515" stop-color="#B8FFB1"/>
<stop offset="0.2544" stop-color="#7EEF49"/>
<stop offset="0.7959" stop-color="#41D12A"/>
<stop offset="0.9694" stop-color="#37CB1E"/>
</radialGradient>
<radialGradient id="paint52_radial" cx="0" cy="0" r="1" gradientUnits="userSpaceOnUse" gradientTransform="translate(470.267 213.84) scale(12.9373 12.9353)">
<stop offset="0.1515" stop-color="#B8FFB1"/>
<stop offset="0.2544" stop-color="#7EEF49"/>
<stop offset="0.7959" stop-color="#41D12A"/>
<stop offset="0.9694" stop-color="#37CB1E"/>
</radialGradient>
<radialGradient id="paint53_radial" cx="0" cy="0" r="1" gradientUnits="userSpaceOnUse" gradientTransform="translate(410.259 250.023) scale(12.9373 12.9353)">
<stop offset="0.1515" stop-color="#BCE9AD"/>
<stop offset="0.2544" stop-color="#2BE00D"/>
<stop offset="0.7959" stop-color="#27A811"/>
<stop offset="0.9694" stop-color="#30B70E"/>
</radialGradient>
<radialGradient id="paint54_radial" cx="0" cy="0" r="1" gradientUnits="userSpaceOnUse" gradientTransform="translate(410.259 119.491) scale(12.9373 12.9353)">
<stop offset="0.1515" stop-color="#AAFD9C"/>
<stop offset="0.2544" stop-color="#2AD93C"/>
<stop offset="0.7959" stop-color="#68C71E"/>
<stop offset="0.9694" stop-color="#45BC0D"/>
</radialGradient>
<radialGradient id="paint55_radial" cx="0" cy="0" r="1" gradientUnits="userSpaceOnUse" gradientTransform="translate(424.46 154.757) scale(12.9373 12.9353)">
<stop offset="0.1515" stop-color="#B1FF9D"/>
<stop offset="0.2544" stop-color="#73E94A"/>
<stop offset="0.7959" stop-color="#60E93E"/>
<stop offset="0.9694" stop-color="#53CB29"/>
</radialGradient>
<radialGradient id="paint56_radial" cx="0" cy="0" r="1" gradientUnits="userSpaceOnUse" gradientTransform="translate(444.615 175.826) scale(12.9373 12.9353)">
<stop offset="0.1515" stop-color="#B1FF9D"/>
<stop offset="0.2544" stop-color="#73E94A"/>
<stop offset="0.7959" stop-color="#60E93E"/>
<stop offset="0.9694" stop-color="#53CB29"/>
</radialGradient>
<radialGradient id="paint57_radial" cx="0" cy="0" r="1" gradientUnits="userSpaceOnUse" gradientTransform="translate(433.393 210.176) scale(12.9373 12.9353)">
<stop offset="0.1515" stop-color="#BBF9A6"/>
<stop offset="0.2544" stop-color="#57CF1E"/>
<stop offset="0.7959" stop-color="#2BAE15"/>
<stop offset="0.9694" stop-color="#3EBA13"/>
</radialGradient>
<radialGradient id="paint58_radial" cx="0" cy="0" r="1" gradientUnits="userSpaceOnUse" gradientTransform="translate(380.484 183.612) scale(12.9373 12.9353)">
<stop offset="0.1515" stop-color="#B8FFB1"/>
<stop offset="0.2544" stop-color="#7EEF49"/>
<stop offset="0.7959" stop-color="#41D12A"/>
<stop offset="0.9694" stop-color="#37CB1E"/>
</radialGradient>
<radialGradient id="paint59_radial" cx="0" cy="0" r="1" gradientUnits="userSpaceOnUse" gradientTransform="translate(392.394 152.009) scale(12.9373 12.9353)">
<stop offset="0.1515" stop-color="#B1FF9D"/>
<stop offset="0.2544" stop-color="#73E94A"/>
<stop offset="0.7959" stop-color="#60E93E"/>
<stop offset="0.9694" stop-color="#53CB29"/>
</radialGradient>
<linearGradient id="paint60_linear" x1="177.369" y1="67.2356" x2="177.369" y2="148.212" gradientUnits="userSpaceOnUse">
<stop stop-color="#2EFC74"/>
<stop offset="1" stop-color="#20DB42"/>
</linearGradient>
<linearGradient id="paint61_linear" x1="253.593" y1="113.22" x2="253.593" y2="194.012" gradientUnits="userSpaceOnUse">
<stop stop-color="#2EFC74"/>
<stop offset="1" stop-color="#20DB42"/>
</linearGradient>
<linearGradient id="paint62_linear" x1="333.665" y1="159.021" x2="333.665" y2="239.813" gradientUnits="userSpaceOnUse">
<stop stop-color="#2EFC74"/>
<stop offset="1" stop-color="#20DB42"/>
</linearGradient>
<radialGradient id="paint63_radial" cx="0" cy="0" r="1" gradientUnits="userSpaceOnUse" gradientTransform="translate(351.981 341.683) scale(169.668 169.641)">
<stop stop-color="#FDD65B"/>
<stop offset="0.2056" stop-color="#B19540"/>
<stop offset="0.4744" stop-color="#52461E"/>
<stop offset="0.6629" stop-color="#171308"/>
<stop offset="0.7525"/>
</radialGradient>
<radialGradient id="paint64_radial" cx="0" cy="0" r="1" gradientUnits="userSpaceOnUse" gradientTransform="translate(327.551 310.843) scale(116.788 116.769)">
<stop stop-color="#43E8E1"/>
<stop offset="0.1619" stop-color="#33B1AB"/>
<stop offset="0.4524" stop-color="#185250"/>
<stop offset="0.6557" stop-color="#071716"/>
<stop offset="0.7525"/>
</radialGradient>
<linearGradient id="paint65_linear" x1="62.5734" y1="154.44" x2="62.5734" y2="264.912" gradientUnits="userSpaceOnUse">
<stop stop-color="#00CC06"/>
<stop offset="1" stop-color="#3FEE56"/>
</linearGradient>
<linearGradient id="paint66_linear" x1="97.1127" y1="113.953" x2="97.1127" y2="194.745" gradientUnits="userSpaceOnUse">
<stop stop-color="#2EFC74"/>
<stop offset="1" stop-color="#20DB42"/>
</linearGradient>
<linearGradient id="paint67_linear" x1="140.814" y1="200.241" x2="140.814" y2="310.713" gradientUnits="userSpaceOnUse">
<stop stop-color="#0FD419"/>
<stop offset="1" stop-color="#35E949"/>
</linearGradient>
<linearGradient id="paint68_linear" x1="175.353" y1="159.753" x2="175.353" y2="240.546" gradientUnits="userSpaceOnUse">
<stop stop-color="#2EFC74"/>
<stop offset="1" stop-color="#20DB42"/>
</linearGradient>
<linearGradient id="paint69_linear" x1="219.054" y1="246.225" x2="219.054" y2="356.697" gradientUnits="userSpaceOnUse">
<stop stop-color="#00CC06"/>
<stop offset="1" stop-color="#3FEE56"/>
</linearGradient>
<linearGradient id="paint70_linear" x1="253.593" y1="205.554" x2="253.593" y2="286.347" gradientUnits="userSpaceOnUse">
<stop stop-color="#2EFC74"/>
<stop offset="1" stop-color="#20DB42"/>
</linearGradient>
</defs>
</svg>
