<svg width="458" height="362" viewBox="0 0 458 362" fill="none" xmlns="http://www.w3.org/2000/svg">
<path opacity="0.3" fill-rule="evenodd" clip-rule="evenodd" d="M72.5896 186.495C63.3681 216.07 38.541 243.279 1.41869 264.337L0 265.283L23.8813 276.64C108.057 317.099 192.469 323.96 300.053 318.518L301.471 317.808C310.929 255.582 124.135 181.053 73.0625 186.258L72.5896 186.495Z" fill="#D1CB2B"/>
<path d="M0 197.799C37.1224 176.741 63.3681 161.599 72.5896 132.024L73.0625 131.787C124.135 126.582 171.188 112.149 207.601 90.6185L209.02 89.9087L228.882 103.632C299.107 152.135 310.693 201.111 301.471 263.101L300.053 265.703C192.469 271.145 108.057 264.284 23.8813 223.825L0 212.468V197.799Z" fill="#10F216"/>
<path d="M1.41869 197.089C38.541 176.032 63.3681 148.823 72.5896 119.247L73.0625 119.011C124.135 113.806 171.188 99.3729 207.601 77.8421L209.02 77.1323L228.882 90.8552C299.107 139.358 310.693 188.335 301.471 250.324L300.053 251.034C192.469 256.476 108.057 249.615 23.8813 209.156L0 197.799L1.41869 197.089Z" fill="#00CC06"/>
<path d="M1.41869 305.453C0.945793 305.689 0.472896 305.926 0 306.399L1.41869 305.453Z" fill="url(#paint0_linear)"/>
<path opacity="0.2" d="M1.41869 239.677C0.945793 239.914 0.472896 240.15 0 240.624L1.41869 239.677C1.41869 239.914 1.41869 239.677 1.41869 239.677Z" fill="url(#paint1_linear)"/>
<path d="M241.177 249.141C152.745 249.141 88.4315 236.128 25.5363 206.08L7.80273 197.562C42.5606 176.741 65.7325 150.952 75.4269 122.56C126.263 117.118 172.371 102.922 209.02 81.6277L226.99 94.1676C296.979 142.671 306.437 190.938 298.397 247.958C277.354 248.668 258.674 249.141 241.177 249.141Z" fill="#00CC06"/>
<path d="M241.177 240.151C154.401 240.151 91.0328 227.611 29.5562 197.799L26.4824 196.38C53.4375 177.451 72.3534 155.211 82.0477 130.841C129.574 124.926 173.08 111.676 208.311 92.0383L221.552 101.266C284.92 145.274 296.033 186.915 289.886 238.731C272.388 239.678 256.31 240.151 241.177 240.151Z" fill="#16EE1C"/>
<path d="M30.2656 198.272C55.0926 180.054 72.8263 158.76 82.0477 135.573C129.574 129.658 173.08 116.408 208.311 96.7701L221.552 105.998C274.28 142.671 290.831 177.688 291.304 218.147C292.014 175.558 276.172 139.358 221.552 101.266L208.548 92.2747C173.08 111.913 129.81 125.162 82.2842 131.077C72.3534 155.211 53.4375 177.688 26.4824 196.379L29.5562 197.799C29.7927 198.035 30.0291 198.035 30.2656 198.272Z" fill="#06BD0B"/>
<path d="M165.986 226.191C163.385 226.191 160.784 224.298 159.129 220.985C155.582 213.887 151.799 206.789 150.853 198.981C150.38 194.723 150.853 190.464 152.272 186.915C150.853 185.259 149.671 183.602 148.489 182.183C146.361 179.817 144.233 177.451 142.105 175.085C138.321 170.826 134.538 166.804 131.228 162.308C131.701 167.277 131.464 171.772 130.519 176.031C128.391 185.495 122.716 193.776 114.204 198.981L113.021 197.089C120.824 192.12 126.263 184.312 128.391 175.321C129.573 170.353 129.573 164.911 128.627 158.759C124.371 153.081 121.061 147.166 118.933 140.778C118.696 140.304 118.933 140.068 119.169 139.831C119.406 139.595 119.878 139.358 120.115 139.595C126.499 141.014 128.154 147.639 128.864 149.768C129.573 152.608 130.282 155.447 130.519 158.049C134.538 163.491 139.031 168.46 143.76 173.665C145.888 176.031 148.016 178.397 150.144 181C151.09 182.183 152.272 183.602 153.454 184.785C154.873 181.946 157.237 179.344 159.838 177.214C160.311 176.741 161.02 176.268 161.73 175.795C163.621 174.375 165.749 172.955 166.695 171.299C166.695 170.353 166.932 169.406 167.168 168.46C167.405 167.987 167.641 167.514 168.35 167.75C168.823 167.75 169.296 168.223 169.296 168.697C169.533 169.88 169.296 171.063 168.823 172.009C168.587 175.558 169.296 178.87 171.188 182.183C172.37 176.978 173.316 171.536 171.897 166.331C170.478 161.362 165.986 154.974 157.237 153.317C156.764 153.317 156.291 152.608 156.291 152.134C156.291 151.661 157.001 151.188 157.474 151.188L183.01 154.974C183.247 154.974 183.719 155.21 183.719 155.447C183.956 155.683 183.956 156.157 183.719 156.393C179.227 166.804 179.463 177.214 184.429 186.442C187.739 188.098 192.468 188.098 196.724 186.678C196.961 183.602 197.433 180.527 198.143 177.687C198.616 175.795 199.325 173.665 201.453 172.246C203.108 171.299 205 171.063 206.891 170.826C208.074 170.589 209.256 170.589 210.438 170.116C210.675 170.116 210.911 169.88 211.147 169.88C210.911 165.147 210.675 160.179 210.438 155.447C210.438 155.21 210.438 154.737 210.675 154.5C210.911 154.264 211.147 154.264 211.62 154.264L216.586 154.737C217.059 154.737 217.295 154.974 217.532 155.447C218.004 156.866 218.477 158.049 218.714 159.706C220.132 155.92 220.132 153.081 220.369 150.478C220.605 146.929 220.605 143.144 223.679 136.992L225.571 137.938C222.97 143.617 222.733 146.929 222.497 150.715C222.261 154.264 222.26 158.049 219.187 164.201C218.95 164.674 218.714 165.147 218.477 165.621C217.768 169.17 216.113 172.719 213.512 176.268C213.748 183.839 213.748 191.41 213.748 198.981C213.748 201.584 213.748 204.66 212.33 207.499C210.675 210.575 207.364 212.941 203.581 213.178C203.108 213.178 202.635 212.941 202.635 212.704C198.852 205.37 196.961 197.325 196.961 189.281C192.232 190.7 187.03 190.227 183.483 188.334C183.247 188.334 183.01 188.098 183.01 187.861C177.808 178.161 177.335 167.514 181.591 156.866L165.986 154.5C169.769 157.103 172.843 161.125 174.025 165.621C175.917 172.246 174.262 178.87 172.843 184.785C172.843 185.259 172.37 185.495 172.134 185.495C171.661 185.495 171.188 185.495 170.951 185.022C168.587 181.71 167.168 177.924 166.932 174.138C165.749 175.085 164.567 176.031 163.385 176.978C162.676 177.451 162.203 177.924 161.493 178.397C158.656 180.527 156.528 183.129 155.346 186.205C163.621 196.852 171.661 210.812 168.114 225.008C168.114 225.481 167.641 225.717 167.168 225.717C166.459 226.191 166.222 226.191 165.986 226.191ZM153.927 188.808C152.981 191.883 152.508 195.196 152.981 198.508C153.691 205.843 157.474 212.941 161.02 219.802C161.73 221.222 163.385 223.825 165.749 223.825C168.35 211.285 161.493 198.745 153.927 188.808ZM198.852 188.571C198.616 196.142 200.507 203.95 204.054 211.048C207.128 210.575 209.492 208.446 210.202 206.553C211.384 204.187 211.384 201.347 211.384 198.981C211.384 192.357 211.384 185.732 211.147 178.87C210.675 179.58 209.965 180.053 209.492 180.763C206.182 184.785 202.635 187.151 198.852 188.571ZM211.147 172.719C209.965 173.192 208.547 173.192 207.364 173.429C205.709 173.665 204.054 173.902 202.872 174.612C201.453 175.321 200.98 176.741 200.507 178.634C199.798 181.236 199.562 183.839 199.325 186.442C202.399 185.022 205.473 182.893 208.547 179.817C209.492 178.87 210.438 177.687 211.62 176.031C211.147 174.848 211.147 173.665 211.147 172.719ZM213.275 171.772C213.275 172.009 213.275 172.482 213.275 172.719C213.512 172.246 213.985 171.772 214.221 171.063C213.985 171.299 213.512 171.536 213.275 171.772ZM212.566 157.103C212.803 161.125 213.039 165.147 213.275 169.17C214.694 168.223 215.64 166.804 216.349 165.147C216.822 162.545 216.822 159.942 215.64 157.34L212.566 157.103ZM121.77 142.434C123.189 146.219 125.317 150.005 127.681 153.554C127.445 152.371 127.208 151.425 126.735 150.242C125.553 146.219 124.135 143.617 121.77 142.434Z" fill="#00CC06"/>
<path d="M233.61 136.992C231.009 138.412 223.206 140.305 222.024 137.702C220.605 135.1 226.28 129.184 228.881 127.765C231.482 126.345 234.556 127.292 235.974 129.894C237.157 132.497 236.211 135.809 233.61 136.992Z" fill="url(#paint2_radial)"/>
<path d="M277.826 127.528C291.067 120.667 273.334 86.3596 258.91 94.8772C244.487 103.158 228.409 124.926 228.409 124.926C226.517 127.055 226.044 130.131 228.172 133.68C230.064 137.465 231.955 138.412 235.739 138.412C235.739 138.412 264.585 134.626 277.826 127.528Z" fill="url(#paint3_linear)"/>
<path d="M310.692 110.256L292.485 76.6589L258.673 94.8772C258.673 94.8772 258.673 94.8772 258.437 94.8772C252.999 97.7164 252.762 107.654 257.728 116.881C262.693 126.109 271.205 131.314 276.643 128.475C276.643 128.475 276.643 128.475 276.88 128.475L310.692 110.256Z" fill="url(#paint4_linear)"/>
<path d="M310.692 110.256C305.254 113.095 296.742 107.89 291.776 98.6625C286.811 89.435 287.047 79.4978 292.486 76.6586C297.924 73.8194 306.436 79.0246 311.402 88.252C316.367 97.4795 316.131 107.417 310.692 110.256Z" fill="url(#paint5_linear)"/>
<path d="M434.59 43.7712L416.384 10.1738L292.485 77.132C292.485 77.132 292.485 77.132 292.248 77.132C286.81 79.9712 286.574 89.9085 291.539 99.3725C296.505 108.6 305.017 113.805 310.455 110.966C310.455 110.966 310.455 110.966 310.691 110.966L434.59 43.7712Z" fill="#16EE1C"/>
<path d="M434.354 43.7713C428.916 46.6105 420.404 41.4053 415.439 32.1779C410.473 22.9504 410.71 13.0132 416.148 10.174C421.586 7.33473 430.098 12.54 435.064 21.7674C440.266 30.9949 439.793 40.9321 434.354 43.7713Z" fill="#00CC06"/>
<path d="M454.217 29.3387L438.848 0.709961L419.695 11.357C415.203 13.723 414.73 22.2407 418.986 30.0485C423.242 37.8564 430.335 42.3518 435.064 39.7492L454.217 29.3387Z" fill="#10F517"/>
<path d="M454.216 29.3386C449.723 31.7046 442.393 27.4458 438.137 19.6379C433.881 11.8301 434.118 3.31242 438.847 0.946402C443.339 -1.41961 450.669 2.83921 454.925 10.6471C459.181 18.4549 458.945 26.7359 454.216 29.3386Z" fill="#00CC06"/>
<defs>
<linearGradient id="paint0_linear" x1="0.672931" y1="306.241" x2="0.554332" y2="306.707" gradientUnits="userSpaceOnUse">
<stop stop-color="white"/>
<stop offset="1" stop-color="#A3653D"/>
</linearGradient>
<linearGradient id="paint1_linear" x1="0.674587" y1="240.503" x2="0.555977" y2="240.97" gradientUnits="userSpaceOnUse">
<stop stop-color="#FEE2A6"/>
<stop offset="0.466" stop-color="#F9BA96"/>
<stop offset="0.6313" stop-color="#F7AA90"/>
<stop offset="0.6334" stop-color="#F7A990"/>
<stop offset="0.6915" stop-color="#F59E8B"/>
<stop offset="0.7731" stop-color="#F49788"/>
<stop offset="1" stop-color="#F49587"/>
</linearGradient>
<radialGradient id="paint2_radial" cx="0" cy="0" r="1" gradientUnits="userSpaceOnUse" gradientTransform="translate(229.139 133.051) rotate(90) scale(5.94576 7.33896)">
<stop stop-color="#21DF02"/>
<stop offset="1" stop-color="#4AC102"/>
</radialGradient>
<linearGradient id="paint3_linear" x1="254.628" y1="93.5273" x2="254.628" y2="138.412" gradientUnits="userSpaceOnUse">
<stop stop-color="#40FF45"/>
<stop offset="1" stop-color="#0CC608"/>
</linearGradient>
<linearGradient id="paint4_linear" x1="269" y1="77" x2="306.5" y2="129" gradientUnits="userSpaceOnUse">
<stop stop-color="#16EE1C"/>
<stop offset="0.15625" stop-color="#7AFF7E"/>
<stop offset="0.302083" stop-color="#10DB16"/>
<stop offset="1" stop-color="#097C0C"/>
</linearGradient>
<linearGradient id="paint5_linear" x1="304.177" y1="56.149" x2="299.429" y2="125.885" gradientUnits="userSpaceOnUse">
<stop stop-color="#D6DAE6"/>
<stop offset="0.0147448" stop-color="#D4D8E6"/>
<stop offset="0.2778" stop-color="#B4B8E3"/>
<stop offset="0.3952" stop-color="#9A9FC8"/>
<stop offset="0.5296" stop-color="#838AB0"/>
<stop offset="0.6539" stop-color="#757DA1"/>
<stop offset="0.7576" stop-color="#70789C"/>
<stop offset="0.8533" stop-color="#777EA2"/>
<stop offset="0.9888" stop-color="#898EB3"/>
<stop offset="1" stop-color="#8B90B5"/>
</linearGradient>
</defs>
</svg>
