<svg width="1440" height="897" viewBox="0 0 1440 897" fill="none" xmlns="http://www.w3.org/2000/svg">
<path d="M414.5 196.079C142.906 234.413 -108 334.802 -108 334.802L-108 344.703L262 344.703L1467 344.703V0.702637C1467 0.702637 1305 30.1309 1202.5 52.8698C1070.2 82.2193 1005 138.913 850.5 172.203C696 205.492 531.279 179.596 414.5 196.079Z" fill="#FCFF78"/>
<path d="M1082.5 599.702C1354.09 561.369 1467 338.605 1467 338.605L1467 328.705L1097 328.705L-108 328.705L-131 896.702C-131 896.702 160.995 782.441 263.5 759.702C395.805 730.353 511 714.992 665.5 681.702C820 648.413 965.721 616.185 1082.5 599.702Z" fill="#FCFF78"/>
</svg>
