<svg width="1440" height="1658" viewBox="0 0 1440 1658" fill="none" xmlns="http://www.w3.org/2000/svg">
<path d="M414.5 361.56C142.906 432.449 -108 618.093 -108 618.093L-108 636.401H262L1467 636.401V0.261719C1467 0.261719 1305 54.6817 1202.5 96.7314C1070.2 151.006 1005 255.847 850.5 317.407C696 378.966 531.279 331.08 414.5 361.56Z" fill="#FCFF78"/>
<path d="M1082.5 1107.96C1354.09 1037.07 1467 625.125 1467 625.125L1467 606.817L1097 606.817L-108 606.817L-131 1657.18C-131 1657.18 160.995 1445.89 263.5 1403.84C395.805 1349.56 511 1321.16 665.5 1259.6C820 1198.04 965.721 1138.44 1082.5 1107.96Z" fill="#FCFF78"/>
</svg>
