<svg width="1440" height="933" viewBox="0 0 1440 933" fill="none" xmlns="http://www.w3.org/2000/svg">
<mask id="mask0" mask-type="alpha" maskUnits="userSpaceOnUse" x="-98" y="0" width="1575" height="933">
<path d="M424.5 181.051C152.906 216.574 -98 309.602 -98 309.602L-98 933H272L1477 933L1477 0C1477 0 1315 27.2705 1212.5 48.342C1080.2 75.5394 1015 128.076 860.5 158.925C706 189.773 541.279 165.776 424.5 181.051Z" fill="#FCFF78"/>
<path d="M130.464 395.6H112.264L108.792 404H99.496L116.968 364.8H125.928L143.456 404H133.936L130.464 395.6ZM127.608 388.712L121.392 373.704L115.176 388.712H127.608ZM165.219 373.424C168.952 373.424 171.958 374.544 174.235 376.784C176.55 379.024 177.707 382.347 177.707 386.752V404H168.971V388.096C168.971 385.707 168.448 383.933 167.403 382.776C166.358 381.581 164.846 380.984 162.867 380.984C160.664 380.984 158.91 381.675 157.603 383.056C156.296 384.4 155.643 386.416 155.643 389.104V404H146.907V373.872H155.251V377.4C156.408 376.131 157.846 375.16 159.563 374.488C161.28 373.779 163.166 373.424 165.219 373.424ZM214.983 373.872L201.375 405.848C199.994 409.32 198.276 411.765 196.223 413.184C194.207 414.603 191.762 415.312 188.887 415.312C187.319 415.312 185.77 415.069 184.239 414.584C182.708 414.099 181.458 413.427 180.487 412.568L183.679 406.352C184.351 406.949 185.116 407.416 185.975 407.752C186.871 408.088 187.748 408.256 188.607 408.256C189.802 408.256 190.772 407.957 191.519 407.36C192.266 406.8 192.938 405.848 193.535 404.504L193.647 404.224L180.599 373.872H189.615L198.071 394.312L206.583 373.872H214.983ZM264.983 373.872V414.864H256.247V400.808C254.082 403.235 251.076 404.448 247.231 404.448C244.394 404.448 241.818 403.813 239.503 402.544C237.226 401.275 235.434 399.464 234.127 397.112C232.82 394.76 232.167 392.035 232.167 388.936C232.167 385.837 232.82 383.112 234.127 380.76C235.434 378.408 237.226 376.597 239.503 375.328C241.818 374.059 244.394 373.424 247.231 373.424C251.338 373.424 254.474 374.731 256.639 377.344V373.872H264.983ZM248.743 397.28C250.946 397.28 252.775 396.533 254.231 395.04C255.687 393.509 256.415 391.475 256.415 388.936C256.415 386.397 255.687 384.381 254.231 382.888C252.775 381.357 250.946 380.592 248.743 380.592C246.503 380.592 244.655 381.357 243.199 382.888C241.743 384.381 241.015 386.397 241.015 388.936C241.015 391.475 241.743 393.509 243.199 395.04C244.655 396.533 246.503 397.28 248.743 397.28ZM303.423 373.872V404H295.135V400.416C293.978 401.723 292.596 402.731 290.991 403.44C289.386 404.112 287.65 404.448 285.783 404.448C281.826 404.448 278.69 403.309 276.375 401.032C274.06 398.755 272.903 395.376 272.903 390.896V373.872H281.639V389.608C281.639 394.461 283.674 396.888 287.743 396.888C289.834 396.888 291.514 396.216 292.783 394.872C294.052 393.491 294.687 391.456 294.687 388.768V373.872H303.423ZM341.028 389.048C341.028 389.16 340.972 389.944 340.86 391.4H318.068C318.479 393.267 319.45 394.741 320.98 395.824C322.511 396.907 324.415 397.448 326.692 397.448C328.26 397.448 329.642 397.224 330.836 396.776C332.068 396.291 333.207 395.544 334.252 394.536L338.9 399.576C336.063 402.824 331.919 404.448 326.468 404.448C323.071 404.448 320.066 403.795 317.452 402.488C314.839 401.144 312.823 399.296 311.404 396.944C309.986 394.592 309.276 391.923 309.276 388.936C309.276 385.987 309.967 383.336 311.348 380.984C312.767 378.595 314.69 376.747 317.116 375.44C319.58 374.096 322.324 373.424 325.348 373.424C328.298 373.424 330.967 374.059 333.356 375.328C335.746 376.597 337.612 378.427 338.956 380.816C340.338 383.168 341.028 385.912 341.028 389.048ZM325.404 380.032C323.426 380.032 321.764 380.592 320.42 381.712C319.076 382.832 318.255 384.363 317.956 386.304H332.796C332.498 384.4 331.676 382.888 330.332 381.768C328.988 380.611 327.346 380.032 325.404 380.032ZM356.981 404.448C354.479 404.448 352.034 404.149 349.645 403.552C347.255 402.917 345.351 402.133 343.933 401.2L346.845 394.928C348.189 395.787 349.813 396.496 351.717 397.056C353.621 397.579 355.487 397.84 357.317 397.84C361.013 397.84 362.861 396.925 362.861 395.096C362.861 394.237 362.357 393.621 361.349 393.248C360.341 392.875 358.791 392.557 356.701 392.296C354.237 391.923 352.202 391.493 350.597 391.008C348.991 390.523 347.591 389.664 346.397 388.432C345.239 387.2 344.66 385.445 344.66 383.168C344.66 381.264 345.202 379.584 346.285 378.128C347.405 376.635 349.01 375.477 351.101 374.656C353.229 373.835 355.73 373.424 358.605 373.424C360.733 373.424 362.842 373.667 364.933 374.152C367.061 374.6 368.815 375.235 370.197 376.056L367.285 382.272C364.634 380.779 361.741 380.032 358.605 380.032C356.738 380.032 355.338 380.293 354.405 380.816C353.471 381.339 353.005 382.011 353.005 382.832C353.005 383.765 353.509 384.419 354.517 384.792C355.525 385.165 357.13 385.52 359.333 385.856C361.797 386.267 363.813 386.715 365.381 387.2C366.949 387.648 368.311 388.488 369.469 389.72C370.626 390.952 371.205 392.669 371.205 394.872C371.205 396.739 370.645 398.4 369.525 399.856C368.405 401.312 366.762 402.451 364.597 403.272C362.469 404.056 359.93 404.448 356.981 404.448ZM396.027 402.544C395.168 403.179 394.104 403.664 392.835 404C391.603 404.299 390.296 404.448 388.915 404.448C385.331 404.448 382.549 403.533 380.571 401.704C378.629 399.875 377.659 397.187 377.659 393.64V381.264H373.011V374.544H377.659V367.208H386.395V374.544H393.899V381.264H386.395V393.528C386.395 394.797 386.712 395.787 387.346 396.496C388.019 397.168 388.952 397.504 390.147 397.504C391.528 397.504 392.704 397.131 393.675 396.384L396.027 402.544ZM400.93 373.872H409.666V404H400.93V373.872ZM405.298 369.672C403.693 369.672 402.386 369.205 401.378 368.272C400.37 367.339 399.866 366.181 399.866 364.8C399.866 363.419 400.37 362.261 401.378 361.328C402.386 360.395 403.693 359.928 405.298 359.928C406.904 359.928 408.21 360.376 409.218 361.272C410.226 362.168 410.73 363.288 410.73 364.632C410.73 366.088 410.226 367.301 409.218 368.272C408.21 369.205 406.904 369.672 405.298 369.672ZM432.11 404.448C428.937 404.448 426.081 403.795 423.542 402.488C421.041 401.144 419.081 399.296 417.662 396.944C416.244 394.592 415.534 391.923 415.534 388.936C415.534 385.949 416.244 383.28 417.662 380.928C419.081 378.576 421.041 376.747 423.542 375.44C426.081 374.096 428.937 373.424 432.11 373.424C435.284 373.424 438.121 374.096 440.622 375.44C443.124 376.747 445.084 378.576 446.502 380.928C447.921 383.28 448.63 385.949 448.63 388.936C448.63 391.923 447.921 394.592 446.502 396.944C445.084 399.296 443.124 401.144 440.622 402.488C438.121 403.795 435.284 404.448 432.11 404.448ZM432.11 397.28C434.35 397.28 436.18 396.533 437.598 395.04C439.054 393.509 439.782 391.475 439.782 388.936C439.782 386.397 439.054 384.381 437.598 382.888C436.18 381.357 434.35 380.592 432.11 380.592C429.87 380.592 428.022 381.357 426.566 382.888C425.11 384.381 424.382 386.397 424.382 388.936C424.382 391.475 425.11 393.509 426.566 395.04C428.022 396.533 429.87 397.28 432.11 397.28ZM472.782 373.424C476.515 373.424 479.52 374.544 481.798 376.784C484.112 379.024 485.27 382.347 485.27 386.752V404H476.534V388.096C476.534 385.707 476.011 383.933 474.966 382.776C473.92 381.581 472.408 380.984 470.43 380.984C468.227 380.984 466.472 381.675 465.166 383.056C463.859 384.4 463.206 386.416 463.206 389.104V404H454.47V373.872H462.814V377.4C463.971 376.131 465.408 375.16 467.126 374.488C468.843 373.779 470.728 373.424 472.782 373.424ZM503.324 404.448C500.823 404.448 498.378 404.149 495.988 403.552C493.599 402.917 491.695 402.133 490.276 401.2L493.188 394.928C494.532 395.787 496.156 396.496 498.06 397.056C499.964 397.579 501.831 397.84 503.66 397.84C507.356 397.84 509.204 396.925 509.204 395.096C509.204 394.237 508.7 393.621 507.692 393.248C506.684 392.875 505.135 392.557 503.044 392.296C500.58 391.923 498.546 391.493 496.94 391.008C495.335 390.523 493.935 389.664 492.74 388.432C491.583 387.2 491.004 385.445 491.004 383.168C491.004 381.264 491.546 379.584 492.628 378.128C493.748 376.635 495.354 375.477 497.444 374.656C499.572 373.835 502.074 373.424 504.948 373.424C507.076 373.424 509.186 373.667 511.276 374.152C513.404 374.6 515.159 375.235 516.54 376.056L513.628 382.272C510.978 380.779 508.084 380.032 504.948 380.032C503.082 380.032 501.682 380.293 500.748 380.816C499.815 381.339 499.348 382.011 499.348 382.832C499.348 383.765 499.852 384.419 500.86 384.792C501.868 385.165 503.474 385.52 505.676 385.856C508.14 386.267 510.156 386.715 511.724 387.2C513.292 387.648 514.655 388.488 515.812 389.72C516.97 390.952 517.548 392.669 517.548 394.872C517.548 396.739 516.988 398.4 515.868 399.856C514.748 401.312 513.106 402.451 510.94 403.272C508.812 404.056 506.274 404.448 503.324 404.448ZM530.293 390.392C530.293 388.451 530.722 386.845 531.581 385.576C532.477 384.307 533.765 382.907 535.445 381.376C536.677 380.256 537.573 379.323 538.133 378.576C538.73 377.792 539.029 376.915 539.029 375.944C539.029 374.563 538.469 373.48 537.349 372.696C536.266 371.875 534.81 371.464 532.981 371.464C531.226 371.464 529.658 371.837 528.277 372.584C526.933 373.293 525.794 374.301 524.861 375.608L518.085 371.632C519.653 369.243 521.762 367.395 524.413 366.088C527.101 364.781 530.274 364.128 533.933 364.128C538.226 364.128 541.661 365.043 544.237 366.872C546.85 368.701 548.157 371.24 548.157 374.488C548.157 376.019 547.895 377.363 547.373 378.52C546.887 379.677 546.271 380.667 545.525 381.488C544.815 382.272 543.882 383.187 542.725 384.232C541.343 385.464 540.335 386.509 539.701 387.368C539.066 388.189 538.749 389.197 538.749 390.392H530.293ZM534.549 404.448C533.018 404.448 531.73 403.963 530.685 402.992C529.677 401.984 529.173 400.771 529.173 399.352C529.173 397.933 529.677 396.757 530.685 395.824C531.693 394.853 532.981 394.368 534.549 394.368C536.117 394.368 537.405 394.853 538.413 395.824C539.421 396.757 539.925 397.933 539.925 399.352C539.925 400.771 539.402 401.984 538.357 402.992C537.349 403.963 536.079 404.448 534.549 404.448Z" fill="#161515"/>
<rect x="1059" y="731" width="282" height="60" rx="30" fill="#00CC06"/>
<path d="M1171.89 769.264C1170.67 769.264 1169.49 769.103 1168.34 768.78C1167.21 768.443 1166.31 768.01 1165.62 767.482L1166.83 764.798C1167.49 765.282 1168.27 765.671 1169.18 765.964C1170.09 766.257 1171 766.404 1171.91 766.404C1172.92 766.404 1173.67 766.257 1174.15 765.964C1174.64 765.656 1174.88 765.253 1174.88 764.754C1174.88 764.387 1174.73 764.087 1174.44 763.852C1174.16 763.603 1173.79 763.405 1173.34 763.258C1172.9 763.111 1172.3 762.95 1171.53 762.774C1170.36 762.495 1169.4 762.217 1168.65 761.938C1167.9 761.659 1167.26 761.212 1166.72 760.596C1166.19 759.98 1165.92 759.159 1165.92 758.132C1165.92 757.237 1166.17 756.431 1166.65 755.712C1167.13 754.979 1167.86 754.399 1168.83 753.974C1169.81 753.549 1171.01 753.336 1172.41 753.336C1173.4 753.336 1174.36 753.453 1175.3 753.688C1176.23 753.923 1177.06 754.26 1177.76 754.7L1176.66 757.406C1175.24 756.599 1173.81 756.196 1172.39 756.196C1171.39 756.196 1170.65 756.357 1170.17 756.68C1169.7 757.003 1169.47 757.428 1169.47 757.956C1169.47 758.484 1169.74 758.88 1170.28 759.144C1170.84 759.393 1171.68 759.643 1172.81 759.892C1173.98 760.171 1174.94 760.449 1175.69 760.728C1176.44 761.007 1177.08 761.447 1177.61 762.048C1178.15 762.649 1178.42 763.463 1178.42 764.49C1178.42 765.37 1178.17 766.177 1177.67 766.91C1177.19 767.629 1176.45 768.201 1175.47 768.626C1174.49 769.051 1173.29 769.264 1171.89 769.264ZM1194.21 766.14V769H1182.29V753.6H1193.92V756.46H1185.83V759.804H1192.98V762.576H1185.83V766.14H1194.21ZM1212.6 753.6V769H1209.67L1202 759.65V769H1198.48V753.6H1201.42L1209.08 762.95V753.6H1212.6ZM1217.67 753.6H1224.67C1226.34 753.6 1227.81 753.923 1229.09 754.568C1230.38 755.199 1231.38 756.093 1232.08 757.252C1232.8 758.411 1233.16 759.76 1233.16 761.3C1233.16 762.84 1232.8 764.189 1232.08 765.348C1231.38 766.507 1230.38 767.409 1229.09 768.054C1227.81 768.685 1226.34 769 1224.67 769H1217.67V753.6ZM1224.49 766.074C1226.03 766.074 1227.26 765.649 1228.17 764.798C1229.09 763.933 1229.55 762.767 1229.55 761.3C1229.55 759.833 1229.09 758.675 1228.17 757.824C1227.26 756.959 1226.03 756.526 1224.49 756.526H1221.24V766.074H1224.49Z" fill="white"/>
<path d="M115.08 527.16V532H113.62V527.16L108.02 518H109.6L114.4 525.86L119.2 518H120.68L115.08 527.16ZM125.784 532.1C124.771 532.1 123.857 531.873 123.044 531.42C122.231 530.953 121.591 530.313 121.124 529.5C120.657 528.687 120.424 527.767 120.424 526.74C120.424 525.713 120.657 524.793 121.124 523.98C121.591 523.167 122.231 522.533 123.044 522.08C123.857 521.627 124.771 521.4 125.784 521.4C126.797 521.4 127.711 521.627 128.524 522.08C129.337 522.533 129.971 523.167 130.424 523.98C130.891 524.793 131.124 525.713 131.124 526.74C131.124 527.767 130.891 528.687 130.424 529.5C129.971 530.313 129.337 530.953 128.524 531.42C127.711 531.873 126.797 532.1 125.784 532.1ZM125.784 530.84C126.531 530.84 127.197 530.673 127.784 530.34C128.384 529.993 128.851 529.507 129.184 528.88C129.517 528.253 129.684 527.54 129.684 526.74C129.684 525.94 129.517 525.227 129.184 524.6C128.851 523.973 128.384 523.493 127.784 523.16C127.197 522.813 126.531 522.64 125.784 522.64C125.037 522.64 124.364 522.813 123.764 523.16C123.177 523.493 122.711 523.973 122.364 524.6C122.031 525.227 121.864 525.94 121.864 526.74C121.864 527.54 122.031 528.253 122.364 528.88C122.711 529.507 123.177 529.993 123.764 530.34C124.364 530.673 125.037 530.84 125.784 530.84ZM143.503 521.48V532H142.143V530.08C141.77 530.72 141.256 531.22 140.603 531.58C139.95 531.927 139.203 532.1 138.363 532.1C136.99 532.1 135.903 531.72 135.103 530.96C134.316 530.187 133.923 529.06 133.923 527.58V521.48H135.343V527.44C135.343 528.547 135.616 529.387 136.163 529.96C136.71 530.533 137.49 530.82 138.503 530.82C139.61 530.82 140.483 530.487 141.123 529.82C141.763 529.14 142.083 528.2 142.083 527V521.48H143.503ZM148.84 523.54C149.173 522.833 149.667 522.3 150.32 521.94C150.987 521.58 151.807 521.4 152.78 521.4V522.78L152.44 522.76C151.333 522.76 150.467 523.1 149.84 523.78C149.213 524.46 148.9 525.413 148.9 526.64V532H147.48V521.48H148.84V523.54ZM166.102 521.4C167.422 521.4 168.468 521.787 169.242 522.56C170.028 523.32 170.422 524.433 170.422 525.9V532H169.002V526.04C169.002 524.947 168.728 524.113 168.182 523.54C167.635 522.967 166.855 522.68 165.842 522.68C164.708 522.68 163.808 523.02 163.142 523.7C162.488 524.367 162.162 525.293 162.162 526.48V532H160.742V521.48H162.102V523.42C162.488 522.78 163.022 522.287 163.702 521.94C164.395 521.58 165.195 521.4 166.102 521.4ZM177.957 521.4C179.33 521.4 180.384 521.747 181.117 522.44C181.85 523.12 182.217 524.133 182.217 525.48V532H180.857V530.36C180.537 530.907 180.064 531.333 179.437 531.64C178.824 531.947 178.09 532.1 177.237 532.1C176.064 532.1 175.13 531.82 174.437 531.26C173.744 530.7 173.397 529.96 173.397 529.04C173.397 528.147 173.717 527.427 174.357 526.88C175.01 526.333 176.044 526.06 177.457 526.06H180.797V525.42C180.797 524.513 180.544 523.827 180.037 523.36C179.53 522.88 178.79 522.64 177.817 522.64C177.15 522.64 176.51 522.753 175.897 522.98C175.284 523.193 174.757 523.493 174.317 523.88L173.677 522.82C174.21 522.367 174.85 522.02 175.597 521.78C176.344 521.527 177.13 521.4 177.957 521.4ZM177.457 530.98C178.257 530.98 178.944 530.8 179.517 530.44C180.09 530.067 180.517 529.533 180.797 528.84V527.12H177.497C175.697 527.12 174.797 527.747 174.797 529C174.797 529.613 175.03 530.1 175.497 530.46C175.964 530.807 176.617 530.98 177.457 530.98ZM199.194 521.4C200.514 521.4 201.547 521.78 202.294 522.54C203.054 523.3 203.434 524.42 203.434 525.9V532H202.014V526.04C202.014 524.947 201.747 524.113 201.214 523.54C200.694 522.967 199.954 522.68 198.994 522.68C197.9 522.68 197.04 523.02 196.414 523.7C195.787 524.367 195.474 525.293 195.474 526.48V532H194.054V526.04C194.054 524.947 193.787 524.113 193.254 523.54C192.734 522.967 191.987 522.68 191.014 522.68C189.934 522.68 189.074 523.02 188.434 523.7C187.807 524.367 187.494 525.293 187.494 526.48V532H186.074V521.48H187.434V523.4C187.807 522.76 188.327 522.267 188.994 521.92C189.66 521.573 190.427 521.4 191.294 521.4C192.174 521.4 192.934 521.587 193.574 521.96C194.227 522.333 194.714 522.887 195.034 523.62C195.42 522.927 195.974 522.387 196.694 522C197.427 521.6 198.26 521.4 199.194 521.4ZM216.484 527.18H207.684C207.764 528.273 208.184 529.16 208.944 529.84C209.704 530.507 210.664 530.84 211.824 530.84C212.477 530.84 213.077 530.727 213.624 530.5C214.17 530.26 214.644 529.913 215.044 529.46L215.844 530.38C215.377 530.94 214.79 531.367 214.084 531.66C213.39 531.953 212.624 532.1 211.784 532.1C210.704 532.1 209.744 531.873 208.904 531.42C208.077 530.953 207.43 530.313 206.964 529.5C206.497 528.687 206.264 527.767 206.264 526.74C206.264 525.713 206.484 524.793 206.924 523.98C207.377 523.167 207.99 522.533 208.764 522.08C209.55 521.627 210.43 521.4 211.404 521.4C212.377 521.4 213.25 521.627 214.024 522.08C214.797 522.533 215.404 523.167 215.844 523.98C216.284 524.78 216.504 525.7 216.504 526.74L216.484 527.18ZM211.404 522.62C210.39 522.62 209.537 522.947 208.844 523.6C208.164 524.24 207.777 525.08 207.684 526.12H215.144C215.05 525.08 214.657 524.24 213.964 523.6C213.284 522.947 212.43 522.62 211.404 522.62Z" fill="#6F6767"/>
<path d="M124.38 657.18C123.953 657.7 123.447 658.093 122.86 658.36C122.287 658.64 121.66 658.78 120.98 658.78C120.153 658.78 119.367 658.573 118.62 658.16C117.887 657.76 117.06 657.08 116.14 656.12C114.793 656.08 113.58 655.747 112.5 655.12C111.42 654.493 110.573 653.647 109.96 652.58C109.347 651.513 109.04 650.32 109.04 649C109.04 647.653 109.353 646.44 109.98 645.36C110.62 644.28 111.5 643.433 112.62 642.82C113.753 642.193 115.013 641.88 116.4 641.88C117.787 641.88 119.033 642.187 120.14 642.8C121.26 643.413 122.14 644.267 122.78 645.36C123.42 646.44 123.74 647.653 123.74 649C123.74 650.173 123.493 651.253 123 652.24C122.52 653.213 121.84 654.027 120.96 654.68C120.093 655.333 119.093 655.767 117.96 655.98C118.987 657.06 120 657.6 121 657.6C122.04 657.6 122.927 657.173 123.66 656.32L124.38 657.18ZM110.5 649C110.5 650.093 110.753 651.08 111.26 651.96C111.78 652.84 112.487 653.533 113.38 654.04C114.287 654.547 115.293 654.8 116.4 654.8C117.507 654.8 118.507 654.547 119.4 654.04C120.293 653.533 120.993 652.84 121.5 651.96C122.007 651.08 122.26 650.093 122.26 649C122.26 647.907 122.007 646.92 121.5 646.04C120.993 645.16 120.293 644.467 119.4 643.96C118.507 643.453 117.507 643.2 116.4 643.2C115.293 643.2 114.287 643.453 113.38 643.96C112.487 644.467 111.78 645.16 111.26 646.04C110.753 646.92 110.5 647.907 110.5 649ZM136.237 645.48V656H134.877V654.08C134.504 654.72 133.991 655.22 133.337 655.58C132.684 655.927 131.937 656.1 131.097 656.1C129.724 656.1 128.637 655.72 127.837 654.96C127.051 654.187 126.657 653.06 126.657 651.58V645.48H128.077V651.44C128.077 652.547 128.351 653.387 128.897 653.96C129.444 654.533 130.224 654.82 131.237 654.82C132.344 654.82 133.217 654.487 133.857 653.82C134.497 653.14 134.817 652.2 134.817 651V645.48H136.237ZM149.374 651.18H140.574C140.654 652.273 141.074 653.16 141.834 653.84C142.594 654.507 143.554 654.84 144.714 654.84C145.368 654.84 145.968 654.727 146.514 654.5C147.061 654.26 147.534 653.913 147.934 653.46L148.734 654.38C148.268 654.94 147.681 655.367 146.974 655.66C146.281 655.953 145.514 656.1 144.674 656.1C143.594 656.1 142.634 655.873 141.794 655.42C140.968 654.953 140.321 654.313 139.854 653.5C139.388 652.687 139.154 651.767 139.154 650.74C139.154 649.713 139.374 648.793 139.814 647.98C140.268 647.167 140.881 646.533 141.654 646.08C142.441 645.627 143.321 645.4 144.294 645.4C145.268 645.4 146.141 645.627 146.914 646.08C147.688 646.533 148.294 647.167 148.734 647.98C149.174 648.78 149.394 649.7 149.394 650.74L149.374 651.18ZM144.294 646.62C143.281 646.62 142.428 646.947 141.734 647.6C141.054 648.24 140.668 649.08 140.574 650.12H148.034C147.941 649.08 147.548 648.24 146.854 647.6C146.174 646.947 145.321 646.62 144.294 646.62ZM155.105 656.1C154.251 656.1 153.431 655.98 152.645 655.74C151.871 655.487 151.265 655.173 150.825 654.8L151.465 653.68C151.905 654.027 152.458 654.313 153.125 654.54C153.791 654.753 154.485 654.86 155.205 654.86C156.165 654.86 156.871 654.713 157.325 654.42C157.791 654.113 158.025 653.687 158.025 653.14C158.025 652.753 157.898 652.453 157.645 652.24C157.391 652.013 157.071 651.847 156.685 651.74C156.298 651.62 155.785 651.507 155.145 651.4C154.291 651.24 153.605 651.08 153.085 650.92C152.565 650.747 152.118 650.46 151.745 650.06C151.385 649.66 151.205 649.107 151.205 648.4C151.205 647.52 151.571 646.8 152.305 646.24C153.038 645.68 154.058 645.4 155.365 645.4C156.045 645.4 156.725 645.493 157.405 645.68C158.085 645.853 158.645 646.087 159.085 646.38L158.465 647.52C157.598 646.92 156.565 646.62 155.365 646.62C154.458 646.62 153.771 646.78 153.305 647.1C152.851 647.42 152.625 647.84 152.625 648.36C152.625 648.76 152.751 649.08 153.005 649.32C153.271 649.56 153.598 649.74 153.985 649.86C154.371 649.967 154.905 650.08 155.585 650.2C156.425 650.36 157.098 650.52 157.605 650.68C158.111 650.84 158.545 651.113 158.905 651.5C159.265 651.887 159.445 652.42 159.445 653.1C159.445 654.02 159.058 654.753 158.285 655.3C157.525 655.833 156.465 656.1 155.105 656.1ZM167.61 655.36C167.343 655.6 167.01 655.787 166.61 655.92C166.223 656.04 165.817 656.1 165.39 656.1C164.403 656.1 163.643 655.833 163.11 655.3C162.577 654.767 162.31 654.013 162.31 653.04V646.68H160.43V645.48H162.31V643.18H163.73V645.48H166.93V646.68H163.73V652.96C163.73 653.587 163.883 654.067 164.19 654.4C164.51 654.72 164.963 654.88 165.55 654.88C165.843 654.88 166.123 654.833 166.39 654.74C166.67 654.647 166.91 654.513 167.11 654.34L167.61 655.36ZM170.195 645.48H171.615V656H170.195V645.48ZM170.915 643.18C170.622 643.18 170.375 643.08 170.175 642.88C169.975 642.68 169.875 642.44 169.875 642.16C169.875 641.893 169.975 641.66 170.175 641.46C170.375 641.26 170.622 641.16 170.915 641.16C171.208 641.16 171.455 641.26 171.655 641.46C171.855 641.647 171.955 641.873 171.955 642.14C171.955 642.433 171.855 642.68 171.655 642.88C171.455 643.08 171.208 643.18 170.915 643.18ZM179.866 656.1C178.853 656.1 177.939 655.873 177.126 655.42C176.313 654.953 175.673 654.313 175.206 653.5C174.739 652.687 174.506 651.767 174.506 650.74C174.506 649.713 174.739 648.793 175.206 647.98C175.673 647.167 176.313 646.533 177.126 646.08C177.939 645.627 178.853 645.4 179.866 645.4C180.879 645.4 181.793 645.627 182.606 646.08C183.419 646.533 184.053 647.167 184.506 647.98C184.973 648.793 185.206 649.713 185.206 650.74C185.206 651.767 184.973 652.687 184.506 653.5C184.053 654.313 183.419 654.953 182.606 655.42C181.793 655.873 180.879 656.1 179.866 656.1ZM179.866 654.84C180.613 654.84 181.279 654.673 181.866 654.34C182.466 653.993 182.933 653.507 183.266 652.88C183.599 652.253 183.766 651.54 183.766 650.74C183.766 649.94 183.599 649.227 183.266 648.6C182.933 647.973 182.466 647.493 181.866 647.16C181.279 646.813 180.613 646.64 179.866 646.64C179.119 646.64 178.446 646.813 177.846 647.16C177.259 647.493 176.793 647.973 176.446 648.6C176.113 649.227 175.946 649.94 175.946 650.74C175.946 651.54 176.113 652.253 176.446 652.88C176.793 653.507 177.259 653.993 177.846 654.34C178.446 654.673 179.119 654.84 179.866 654.84ZM193.465 645.4C194.785 645.4 195.832 645.787 196.605 646.56C197.392 647.32 197.785 648.433 197.785 649.9V656H196.365V650.04C196.365 648.947 196.092 648.113 195.545 647.54C194.998 646.967 194.218 646.68 193.205 646.68C192.072 646.68 191.172 647.02 190.505 647.7C189.852 648.367 189.525 649.293 189.525 650.48V656H188.105V645.48H189.465V647.42C189.852 646.78 190.385 646.287 191.065 645.94C191.758 645.58 192.558 645.4 193.465 645.4ZM204.46 656.1C203.607 656.1 202.787 655.98 202 655.74C201.227 655.487 200.62 655.173 200.18 654.8L200.82 653.68C201.26 654.027 201.813 654.313 202.48 654.54C203.147 654.753 203.84 654.86 204.56 654.86C205.52 654.86 206.227 654.713 206.68 654.42C207.147 654.113 207.38 653.687 207.38 653.14C207.38 652.753 207.253 652.453 207 652.24C206.747 652.013 206.427 651.847 206.04 651.74C205.653 651.62 205.14 651.507 204.5 651.4C203.647 651.24 202.96 651.08 202.44 650.92C201.92 650.747 201.473 650.46 201.1 650.06C200.74 649.66 200.56 649.107 200.56 648.4C200.56 647.52 200.927 646.8 201.66 646.24C202.393 645.68 203.413 645.4 204.72 645.4C205.4 645.4 206.08 645.493 206.76 645.68C207.44 645.853 208 646.087 208.44 646.38L207.82 647.52C206.953 646.92 205.92 646.62 204.72 646.62C203.813 646.62 203.127 646.78 202.66 647.1C202.207 647.42 201.98 647.84 201.98 648.36C201.98 648.76 202.107 649.08 202.36 649.32C202.627 649.56 202.953 649.74 203.34 649.86C203.727 649.967 204.26 650.08 204.94 650.2C205.78 650.36 206.453 650.52 206.96 650.68C207.467 650.84 207.9 651.113 208.26 651.5C208.62 651.887 208.8 652.42 208.8 653.1C208.8 654.02 208.413 654.753 207.64 655.3C206.88 655.833 205.82 656.1 204.46 656.1Z" fill="#6F6767"/>
<path d="M535.52 518C537.307 518 538.707 518.427 539.72 519.28C540.733 520.133 541.24 521.307 541.24 522.8C541.24 524.293 540.733 525.467 539.72 526.32C538.707 527.16 537.307 527.58 535.52 527.58H531.76V532H530.28V518H535.52ZM535.48 526.28C536.867 526.28 537.927 525.98 538.66 525.38C539.393 524.767 539.76 523.907 539.76 522.8C539.76 521.667 539.393 520.8 538.66 520.2C537.927 519.587 536.867 519.28 535.48 519.28H531.76V526.28H535.48ZM549.695 521.4C551.015 521.4 552.062 521.787 552.835 522.56C553.622 523.32 554.015 524.433 554.015 525.9V532H552.595V526.04C552.595 524.947 552.322 524.113 551.775 523.54C551.229 522.967 550.449 522.68 549.435 522.68C548.302 522.68 547.402 523.02 546.735 523.7C546.082 524.367 545.755 525.293 545.755 526.48V532H544.335V517.16H545.755V523.32C546.142 522.707 546.675 522.233 547.355 521.9C548.035 521.567 548.815 521.4 549.695 521.4ZM562.21 532.1C561.196 532.1 560.283 531.873 559.47 531.42C558.656 530.953 558.016 530.313 557.55 529.5C557.083 528.687 556.85 527.767 556.85 526.74C556.85 525.713 557.083 524.793 557.55 523.98C558.016 523.167 558.656 522.533 559.47 522.08C560.283 521.627 561.196 521.4 562.21 521.4C563.223 521.4 564.136 521.627 564.95 522.08C565.763 522.533 566.396 523.167 566.85 523.98C567.316 524.793 567.55 525.713 567.55 526.74C567.55 527.767 567.316 528.687 566.85 529.5C566.396 530.313 565.763 530.953 564.95 531.42C564.136 531.873 563.223 532.1 562.21 532.1ZM562.21 530.84C562.956 530.84 563.623 530.673 564.21 530.34C564.81 529.993 565.276 529.507 565.61 528.88C565.943 528.253 566.11 527.54 566.11 526.74C566.11 525.94 565.943 525.227 565.61 524.6C565.276 523.973 564.81 523.493 564.21 523.16C563.623 522.813 562.956 522.64 562.21 522.64C561.463 522.64 560.79 522.813 560.19 523.16C559.603 523.493 559.136 523.973 558.79 524.6C558.456 525.227 558.29 525.94 558.29 526.74C558.29 527.54 558.456 528.253 558.79 528.88C559.136 529.507 559.603 529.993 560.19 530.34C560.79 530.673 561.463 530.84 562.21 530.84ZM575.809 521.4C577.129 521.4 578.175 521.787 578.949 522.56C579.735 523.32 580.129 524.433 580.129 525.9V532H578.709V526.04C578.709 524.947 578.435 524.113 577.889 523.54C577.342 522.967 576.562 522.68 575.549 522.68C574.415 522.68 573.515 523.02 572.849 523.7C572.195 524.367 571.869 525.293 571.869 526.48V532H570.449V521.48H571.809V523.42C572.195 522.78 572.729 522.287 573.409 521.94C574.102 521.58 574.902 521.4 575.809 521.4ZM593.183 527.18H584.383C584.463 528.273 584.883 529.16 585.643 529.84C586.403 530.507 587.363 530.84 588.523 530.84C589.176 530.84 589.776 530.727 590.323 530.5C590.87 530.26 591.343 529.913 591.743 529.46L592.543 530.38C592.076 530.94 591.49 531.367 590.783 531.66C590.09 531.953 589.323 532.1 588.483 532.1C587.403 532.1 586.443 531.873 585.603 531.42C584.776 530.953 584.13 530.313 583.663 529.5C583.196 528.687 582.963 527.767 582.963 526.74C582.963 525.713 583.183 524.793 583.623 523.98C584.076 523.167 584.69 522.533 585.463 522.08C586.25 521.627 587.13 521.4 588.103 521.4C589.076 521.4 589.95 521.627 590.723 522.08C591.496 522.533 592.103 523.167 592.543 523.98C592.983 524.78 593.203 525.7 593.203 526.74L593.183 527.18ZM588.103 522.62C587.09 522.62 586.236 522.947 585.543 523.6C584.863 524.24 584.476 525.08 584.383 526.12H591.843C591.75 525.08 591.356 524.24 590.663 523.6C589.983 522.947 589.13 522.62 588.103 522.62Z" fill="#6F6767"/>
<path d="M960.18 530.72V532H950.28V518H959.88V519.28H951.76V524.26H959V525.52H951.76V530.72H960.18ZM962.188 525.96H967.428V527.2H962.188V525.96ZM983.725 521.4C985.045 521.4 986.078 521.78 986.825 522.54C987.585 523.3 987.965 524.42 987.965 525.9V532H986.545V526.04C986.545 524.947 986.278 524.113 985.745 523.54C985.225 522.967 984.485 522.68 983.525 522.68C982.432 522.68 981.572 523.02 980.945 523.7C980.318 524.367 980.005 525.293 980.005 526.48V532H978.585V526.04C978.585 524.947 978.318 524.113 977.785 523.54C977.265 522.967 976.518 522.68 975.545 522.68C974.465 522.68 973.605 523.02 972.965 523.7C972.338 524.367 972.025 525.293 972.025 526.48V532H970.605V521.48H971.965V523.4C972.338 522.76 972.858 522.267 973.525 521.92C974.192 521.573 974.958 521.4 975.825 521.4C976.705 521.4 977.465 521.587 978.105 521.96C978.758 522.333 979.245 522.887 979.565 523.62C979.952 522.927 980.505 522.387 981.225 522C981.958 521.6 982.792 521.4 983.725 521.4ZM995.496 521.4C996.869 521.4 997.923 521.747 998.656 522.44C999.389 523.12 999.756 524.133 999.756 525.48V532H998.396V530.36C998.076 530.907 997.603 531.333 996.976 531.64C996.363 531.947 995.629 532.1 994.776 532.1C993.603 532.1 992.669 531.82 991.976 531.26C991.283 530.7 990.936 529.96 990.936 529.04C990.936 528.147 991.256 527.427 991.896 526.88C992.549 526.333 993.583 526.06 994.996 526.06H998.336V525.42C998.336 524.513 998.083 523.827 997.576 523.36C997.069 522.88 996.329 522.64 995.356 522.64C994.689 522.64 994.049 522.753 993.436 522.98C992.823 523.193 992.296 523.493 991.856 523.88L991.216 522.82C991.749 522.367 992.389 522.02 993.136 521.78C993.883 521.527 994.669 521.4 995.496 521.4ZM994.996 530.98C995.796 530.98 996.483 530.8 997.056 530.44C997.629 530.067 998.056 529.533 998.336 528.84V527.12H995.036C993.236 527.12 992.336 527.747 992.336 529C992.336 529.613 992.569 530.1 993.036 530.46C993.503 530.807 994.156 530.98 994.996 530.98ZM1003.61 521.48H1005.03V532H1003.61V521.48ZM1004.33 519.18C1004.04 519.18 1003.79 519.08 1003.59 518.88C1003.39 518.68 1003.29 518.44 1003.29 518.16C1003.29 517.893 1003.39 517.66 1003.59 517.46C1003.79 517.26 1004.04 517.16 1004.33 517.16C1004.63 517.16 1004.87 517.26 1005.07 517.46C1005.27 517.647 1005.37 517.873 1005.37 518.14C1005.37 518.433 1005.27 518.68 1005.07 518.88C1004.87 519.08 1004.63 519.18 1004.33 519.18ZM1008.98 517.16H1010.4V532H1008.98V517.16Z" fill="#6F6767"/>
<path d="M1062.36 824.146L1064.1 825.126L1063.77 825.714L1062.02 824.692V826.68H1061.38L1061.39 824.692L1059.64 825.714L1059.31 825.126L1061.06 824.146L1059.31 823.166L1059.64 822.564L1061.39 823.6L1061.38 821.612H1062.02V823.6L1063.77 822.564L1064.1 823.166L1062.36 824.146ZM1069.66 822.2H1070.7V832H1069.66V822.2ZM1079.92 824.58C1080.88 824.58 1081.61 824.823 1082.13 825.308C1082.64 825.784 1082.9 826.493 1082.9 827.436V832H1081.95V830.852C1081.72 831.235 1081.39 831.533 1080.95 831.748C1080.52 831.963 1080.01 832.07 1079.41 832.07C1078.59 832.07 1077.94 831.874 1077.45 831.482C1076.97 831.09 1076.72 830.572 1076.72 829.928C1076.72 829.303 1076.95 828.799 1077.4 828.416C1077.85 828.033 1078.58 827.842 1079.57 827.842H1081.9V827.394C1081.9 826.759 1081.73 826.279 1081.37 825.952C1081.02 825.616 1080.5 825.448 1079.82 825.448C1079.35 825.448 1078.9 825.527 1078.47 825.686C1078.04 825.835 1077.68 826.045 1077.37 826.316L1076.92 825.574C1077.29 825.257 1077.74 825.014 1078.26 824.846C1078.79 824.669 1079.34 824.58 1079.92 824.58ZM1079.57 831.286C1080.13 831.286 1080.61 831.16 1081.01 830.908C1081.41 830.647 1081.71 830.273 1081.9 829.788V828.584H1079.59C1078.33 828.584 1077.7 829.023 1077.7 829.9C1077.7 830.329 1077.87 830.67 1078.19 830.922C1078.52 831.165 1078.98 831.286 1079.57 831.286ZM1088.68 832.07C1087.95 832.07 1087.29 831.911 1086.72 831.594C1086.15 831.277 1085.7 830.833 1085.37 830.264C1085.05 829.685 1084.88 829.037 1084.88 828.318C1084.88 827.599 1085.05 826.955 1085.37 826.386C1085.7 825.817 1086.15 825.373 1086.72 825.056C1087.29 824.739 1087.95 824.58 1088.68 824.58C1089.31 824.58 1089.88 824.706 1090.37 824.958C1090.87 825.201 1091.27 825.56 1091.56 826.036L1090.82 826.54C1090.58 826.176 1090.27 825.905 1089.89 825.728C1089.52 825.541 1089.11 825.448 1088.68 825.448C1088.14 825.448 1087.66 825.569 1087.23 825.812C1086.81 826.045 1086.48 826.381 1086.24 826.82C1086.01 827.259 1085.89 827.758 1085.89 828.318C1085.89 828.887 1086.01 829.391 1086.24 829.83C1086.48 830.259 1086.81 830.595 1087.23 830.838C1087.66 831.071 1088.14 831.188 1088.68 831.188C1089.11 831.188 1089.52 831.099 1089.89 830.922C1090.27 830.745 1090.58 830.474 1090.82 830.11L1091.56 830.614C1091.27 831.09 1090.87 831.454 1090.37 831.706C1089.87 831.949 1089.3 832.07 1088.68 832.07ZM1096.44 832.07C1095.71 832.07 1095.06 831.911 1094.48 831.594C1093.91 831.277 1093.46 830.833 1093.14 830.264C1092.81 829.685 1092.65 829.037 1092.65 828.318C1092.65 827.599 1092.81 826.955 1093.14 826.386C1093.46 825.817 1093.91 825.373 1094.48 825.056C1095.06 824.739 1095.71 824.58 1096.44 824.58C1097.08 824.58 1097.64 824.706 1098.14 824.958C1098.64 825.201 1099.04 825.56 1099.33 826.036L1098.58 826.54C1098.34 826.176 1098.03 825.905 1097.66 825.728C1097.29 825.541 1096.88 825.448 1096.44 825.448C1095.91 825.448 1095.43 825.569 1095 825.812C1094.58 826.045 1094.25 826.381 1094.01 826.82C1093.77 827.259 1093.66 827.758 1093.66 828.318C1093.66 828.887 1093.77 829.391 1094.01 829.83C1094.25 830.259 1094.58 830.595 1095 830.838C1095.43 831.071 1095.91 831.188 1096.44 831.188C1096.88 831.188 1097.29 831.099 1097.66 830.922C1098.03 830.745 1098.34 830.474 1098.58 830.11L1099.33 830.614C1099.04 831.09 1098.64 831.454 1098.14 831.706C1097.63 831.949 1097.07 832.07 1096.44 832.07ZM1107.57 828.626H1101.41C1101.46 829.391 1101.76 830.012 1102.29 830.488C1102.82 830.955 1103.49 831.188 1104.31 831.188C1104.76 831.188 1105.18 831.109 1105.57 830.95C1105.95 830.782 1106.28 830.539 1106.56 830.222L1107.12 830.866C1106.79 831.258 1106.38 831.557 1105.89 831.762C1105.4 831.967 1104.87 832.07 1104.28 832.07C1103.52 832.07 1102.85 831.911 1102.26 831.594C1101.68 831.267 1101.23 830.819 1100.9 830.25C1100.58 829.681 1100.41 829.037 1100.41 828.318C1100.41 827.599 1100.57 826.955 1100.88 826.386C1101.19 825.817 1101.62 825.373 1102.16 825.056C1102.71 824.739 1103.33 824.58 1104.01 824.58C1104.69 824.58 1105.3 824.739 1105.85 825.056C1106.39 825.373 1106.81 825.817 1107.12 826.386C1107.43 826.946 1107.58 827.59 1107.58 828.318L1107.57 828.626ZM1104.01 825.434C1103.3 825.434 1102.7 825.663 1102.22 826.12C1101.74 826.568 1101.47 827.156 1101.41 827.884H1106.63C1106.56 827.156 1106.29 826.568 1105.8 826.12C1105.33 825.663 1104.73 825.434 1104.01 825.434ZM1113.4 824.58C1114.09 824.58 1114.71 824.739 1115.27 825.056C1115.83 825.364 1116.27 825.803 1116.59 826.372C1116.91 826.941 1117.07 827.59 1117.07 828.318C1117.07 829.055 1116.91 829.709 1116.59 830.278C1116.27 830.847 1115.83 831.291 1115.27 831.608C1114.72 831.916 1114.1 832.07 1113.4 832.07C1112.8 832.07 1112.26 831.949 1111.77 831.706C1111.3 831.454 1110.91 831.09 1110.6 830.614V834.716H1109.6V824.636H1110.56V826.092C1110.86 825.607 1111.25 825.233 1111.73 824.972C1112.23 824.711 1112.78 824.58 1113.4 824.58ZM1113.33 831.188C1113.84 831.188 1114.31 831.071 1114.73 830.838C1115.15 830.595 1115.48 830.255 1115.71 829.816C1115.95 829.377 1116.07 828.878 1116.07 828.318C1116.07 827.758 1115.95 827.263 1115.71 826.834C1115.48 826.395 1115.15 826.055 1114.73 825.812C1114.31 825.569 1113.84 825.448 1113.33 825.448C1112.81 825.448 1112.33 825.569 1111.91 825.812C1111.5 826.055 1111.18 826.395 1110.93 826.834C1110.7 827.263 1110.58 827.758 1110.58 828.318C1110.58 828.878 1110.7 829.377 1110.93 829.816C1111.18 830.255 1111.5 830.595 1111.91 830.838C1112.33 831.071 1112.81 831.188 1113.33 831.188ZM1122.97 831.552C1122.78 831.72 1122.55 831.851 1122.27 831.944C1122 832.028 1121.72 832.07 1121.42 832.07C1120.73 832.07 1120.19 831.883 1119.82 831.51C1119.45 831.137 1119.26 830.609 1119.26 829.928V825.476H1117.95V824.636H1119.26V823.026H1120.26V824.636H1122.5V825.476H1120.26V829.872C1120.26 830.311 1120.36 830.647 1120.58 830.88C1120.8 831.104 1121.12 831.216 1121.53 831.216C1121.73 831.216 1121.93 831.183 1122.12 831.118C1122.31 831.053 1122.48 830.959 1122.62 830.838L1122.97 831.552ZM1132.32 831.552C1132.14 831.72 1131.9 831.851 1131.62 831.944C1131.35 832.028 1131.07 832.07 1130.77 832.07C1130.08 832.07 1129.55 831.883 1129.17 831.51C1128.8 831.137 1128.61 830.609 1128.61 829.928V825.476H1127.3V824.636H1128.61V823.026H1129.61V824.636H1131.85V825.476H1129.61V829.872C1129.61 830.311 1129.71 830.647 1129.93 830.88C1130.15 831.104 1130.47 831.216 1130.88 831.216C1131.09 831.216 1131.28 831.183 1131.47 831.118C1131.66 831.053 1131.83 830.959 1131.97 830.838L1132.32 831.552ZM1137.88 824.58C1138.81 824.58 1139.54 824.851 1140.08 825.392C1140.63 825.924 1140.91 826.703 1140.91 827.73V832H1139.91V827.828C1139.91 827.063 1139.72 826.479 1139.34 826.078C1138.96 825.677 1138.41 825.476 1137.7 825.476C1136.91 825.476 1136.28 825.714 1135.81 826.19C1135.35 826.657 1135.13 827.305 1135.13 828.136V832H1134.13V821.612H1135.13V825.924C1135.4 825.495 1135.77 825.163 1136.25 824.93C1136.72 824.697 1137.27 824.58 1137.88 824.58ZM1150.05 828.626H1143.89C1143.94 829.391 1144.24 830.012 1144.77 830.488C1145.3 830.955 1145.97 831.188 1146.78 831.188C1147.24 831.188 1147.66 831.109 1148.04 830.95C1148.43 830.782 1148.76 830.539 1149.04 830.222L1149.6 830.866C1149.27 831.258 1148.86 831.557 1148.37 831.762C1147.88 831.967 1147.34 832.07 1146.76 832.07C1146 832.07 1145.33 831.911 1144.74 831.594C1144.16 831.267 1143.71 830.819 1143.38 830.25C1143.06 829.681 1142.89 829.037 1142.89 828.318C1142.89 827.599 1143.05 826.955 1143.35 826.386C1143.67 825.817 1144.1 825.373 1144.64 825.056C1145.19 824.739 1145.81 824.58 1146.49 824.58C1147.17 824.58 1147.78 824.739 1148.32 825.056C1148.87 825.373 1149.29 825.817 1149.6 826.386C1149.91 826.946 1150.06 827.59 1150.06 828.318L1150.05 828.626ZM1146.49 825.434C1145.78 825.434 1145.18 825.663 1144.7 826.12C1144.22 826.568 1143.95 827.156 1143.89 827.884H1149.11C1149.04 827.156 1148.77 826.568 1148.28 826.12C1147.81 825.663 1147.21 825.434 1146.49 825.434ZM1159.54 824.58C1160.23 824.58 1160.86 824.739 1161.42 825.056C1161.98 825.364 1162.42 825.803 1162.73 826.372C1163.05 826.941 1163.21 827.59 1163.21 828.318C1163.21 829.055 1163.05 829.709 1162.73 830.278C1162.42 830.847 1161.98 831.291 1161.42 831.608C1160.87 831.916 1160.24 832.07 1159.54 832.07C1158.94 832.07 1158.4 831.949 1157.92 831.706C1157.44 831.454 1157.05 831.09 1156.74 830.614V834.716H1155.75V824.636H1156.7V826.092C1157 825.607 1157.39 825.233 1157.88 824.972C1158.37 824.711 1158.93 824.58 1159.54 824.58ZM1159.47 831.188C1159.98 831.188 1160.45 831.071 1160.87 830.838C1161.29 830.595 1161.62 830.255 1161.85 829.816C1162.09 829.377 1162.22 828.878 1162.22 828.318C1162.22 827.758 1162.09 827.263 1161.85 826.834C1161.62 826.395 1161.29 826.055 1160.87 825.812C1160.45 825.569 1159.98 825.448 1159.47 825.448C1158.95 825.448 1158.48 825.569 1158.06 825.812C1157.65 826.055 1157.32 826.395 1157.08 826.834C1156.84 827.263 1156.73 827.758 1156.73 828.318C1156.73 828.878 1156.84 829.377 1157.08 829.816C1157.32 830.255 1157.65 830.595 1158.06 830.838C1158.48 831.071 1158.95 831.188 1159.47 831.188ZM1166.19 826.078C1166.42 825.583 1166.77 825.21 1167.22 824.958C1167.69 824.706 1168.26 824.58 1168.95 824.58V825.546L1168.71 825.532C1167.93 825.532 1167.33 825.77 1166.89 826.246C1166.45 826.722 1166.23 827.389 1166.23 828.248V832H1165.24V824.636H1166.19V826.078ZM1170.75 824.636H1171.74V832H1170.75V824.636ZM1171.25 823.026C1171.04 823.026 1170.87 822.956 1170.73 822.816C1170.59 822.676 1170.52 822.508 1170.52 822.312C1170.52 822.125 1170.59 821.962 1170.73 821.822C1170.87 821.682 1171.04 821.612 1171.25 821.612C1171.45 821.612 1171.63 821.682 1171.77 821.822C1171.91 821.953 1171.98 822.111 1171.98 822.298C1171.98 822.503 1171.91 822.676 1171.77 822.816C1171.63 822.956 1171.45 823.026 1171.25 823.026ZM1180.69 824.636L1177.42 832H1176.4L1173.13 824.636H1174.17L1176.93 830.908L1179.71 824.636H1180.69ZM1184.45 824.58C1185.41 824.58 1186.15 824.823 1186.66 825.308C1187.18 825.784 1187.43 826.493 1187.43 827.436V832H1186.48V830.852C1186.26 831.235 1185.92 831.533 1185.49 831.748C1185.06 831.963 1184.54 832.07 1183.95 832.07C1183.12 832.07 1182.47 831.874 1181.99 831.482C1181.5 831.09 1181.26 830.572 1181.26 829.928C1181.26 829.303 1181.48 828.799 1181.93 828.416C1182.39 828.033 1183.11 827.842 1184.1 827.842H1186.44V827.394C1186.44 826.759 1186.26 826.279 1185.91 825.952C1185.55 825.616 1185.03 825.448 1184.35 825.448C1183.89 825.448 1183.44 825.527 1183.01 825.686C1182.58 825.835 1182.21 826.045 1181.9 826.316L1181.45 825.574C1181.83 825.257 1182.28 825.014 1182.8 824.846C1183.32 824.669 1183.87 824.58 1184.45 824.58ZM1184.1 831.286C1184.66 831.286 1185.14 831.16 1185.54 830.908C1185.94 830.647 1186.24 830.273 1186.44 829.788V828.584H1184.13C1182.87 828.584 1182.24 829.023 1182.24 829.9C1182.24 830.329 1182.4 830.67 1182.73 830.922C1183.05 831.165 1183.51 831.286 1184.1 831.286ZM1193.21 832.07C1192.48 832.07 1191.83 831.911 1191.25 831.594C1190.68 831.277 1190.23 830.833 1189.91 830.264C1189.58 829.685 1189.42 829.037 1189.42 828.318C1189.42 827.599 1189.58 826.955 1189.91 826.386C1190.23 825.817 1190.68 825.373 1191.25 825.056C1191.83 824.739 1192.48 824.58 1193.21 824.58C1193.85 824.58 1194.41 824.706 1194.91 824.958C1195.41 825.201 1195.81 825.56 1196.1 826.036L1195.35 826.54C1195.11 826.176 1194.8 825.905 1194.43 825.728C1194.06 825.541 1193.65 825.448 1193.21 825.448C1192.68 825.448 1192.2 825.569 1191.77 825.812C1191.35 826.045 1191.02 826.381 1190.78 826.82C1190.54 827.259 1190.43 827.758 1190.43 828.318C1190.43 828.887 1190.54 829.391 1190.78 829.83C1191.02 830.259 1191.35 830.595 1191.77 830.838C1192.2 831.071 1192.68 831.188 1193.21 831.188C1193.65 831.188 1194.06 831.099 1194.43 830.922C1194.8 830.745 1195.11 830.474 1195.35 830.11L1196.1 830.614C1195.81 831.09 1195.41 831.454 1194.91 831.706C1194.4 831.949 1193.84 832.07 1193.21 832.07ZM1204.13 824.636L1200.44 832.882C1200.15 833.573 1199.8 834.063 1199.41 834.352C1199.02 834.641 1198.55 834.786 1197.99 834.786C1197.64 834.786 1197.31 834.73 1197 834.618C1196.69 834.506 1196.43 834.338 1196.2 834.114L1196.66 833.372C1197.04 833.745 1197.49 833.932 1198.01 833.932C1198.34 833.932 1198.63 833.839 1198.86 833.652C1199.11 833.465 1199.33 833.148 1199.53 832.7L1199.86 831.986L1196.57 824.636H1197.6L1200.37 830.894L1203.15 824.636H1204.13ZM1212.98 824.58C1213.68 824.58 1214.3 824.739 1214.86 825.056C1215.42 825.364 1215.86 825.803 1216.18 826.372C1216.49 826.941 1216.65 827.59 1216.65 828.318C1216.65 829.055 1216.49 829.709 1216.18 830.278C1215.86 830.847 1215.42 831.291 1214.86 831.608C1214.31 831.916 1213.68 832.07 1212.98 832.07C1212.39 832.07 1211.85 831.949 1211.36 831.706C1210.88 831.454 1210.49 831.09 1210.18 830.614V834.716H1209.19V824.636H1210.14V826.092C1210.44 825.607 1210.83 825.233 1211.32 824.972C1211.81 824.711 1212.37 824.58 1212.98 824.58ZM1212.91 831.188C1213.43 831.188 1213.89 831.071 1214.31 830.838C1214.73 830.595 1215.06 830.255 1215.29 829.816C1215.54 829.377 1215.66 828.878 1215.66 828.318C1215.66 827.758 1215.54 827.263 1215.29 826.834C1215.06 826.395 1214.73 826.055 1214.31 825.812C1213.89 825.569 1213.43 825.448 1212.91 825.448C1212.39 825.448 1211.92 825.569 1211.5 825.812C1211.09 826.055 1210.76 826.395 1210.52 826.834C1210.29 827.263 1210.17 827.758 1210.17 828.318C1210.17 828.878 1210.29 829.377 1210.52 829.816C1210.76 830.255 1211.09 830.595 1211.5 830.838C1211.92 831.071 1212.39 831.188 1212.91 831.188ZM1221.69 832.07C1220.98 832.07 1220.34 831.911 1219.77 831.594C1219.2 831.267 1218.75 830.819 1218.43 830.25C1218.1 829.681 1217.94 829.037 1217.94 828.318C1217.94 827.599 1218.1 826.955 1218.43 826.386C1218.75 825.817 1219.2 825.373 1219.77 825.056C1220.34 824.739 1220.98 824.58 1221.69 824.58C1222.4 824.58 1223.04 824.739 1223.61 825.056C1224.18 825.373 1224.62 825.817 1224.94 826.386C1225.26 826.955 1225.43 827.599 1225.43 828.318C1225.43 829.037 1225.26 829.681 1224.94 830.25C1224.62 830.819 1224.18 831.267 1223.61 831.594C1223.04 831.911 1222.4 832.07 1221.69 832.07ZM1221.69 831.188C1222.21 831.188 1222.68 831.071 1223.09 830.838C1223.51 830.595 1223.84 830.255 1224.07 829.816C1224.3 829.377 1224.42 828.878 1224.42 828.318C1224.42 827.758 1224.3 827.259 1224.07 826.82C1223.84 826.381 1223.51 826.045 1223.09 825.812C1222.68 825.569 1222.21 825.448 1221.69 825.448C1221.17 825.448 1220.69 825.569 1220.27 825.812C1219.86 826.045 1219.54 826.381 1219.29 826.82C1219.06 827.259 1218.94 827.758 1218.94 828.318C1218.94 828.878 1219.06 829.377 1219.29 829.816C1219.54 830.255 1219.86 830.595 1220.27 830.838C1220.69 831.071 1221.17 831.188 1221.69 831.188ZM1227.46 821.612H1228.45V832H1227.46V821.612ZM1231.22 824.636H1232.21V832H1231.22V824.636ZM1231.72 823.026C1231.51 823.026 1231.34 822.956 1231.2 822.816C1231.06 822.676 1230.99 822.508 1230.99 822.312C1230.99 822.125 1231.06 821.962 1231.2 821.822C1231.34 821.682 1231.51 821.612 1231.72 821.612C1231.93 821.612 1232.1 821.682 1232.24 821.822C1232.38 821.953 1232.45 822.111 1232.45 822.298C1232.45 822.503 1232.38 822.676 1232.24 822.816C1232.1 822.956 1231.93 823.026 1231.72 823.026ZM1238.03 832.07C1237.3 832.07 1236.65 831.911 1236.07 831.594C1235.5 831.277 1235.05 830.833 1234.72 830.264C1234.4 829.685 1234.23 829.037 1234.23 828.318C1234.23 827.599 1234.4 826.955 1234.72 826.386C1235.05 825.817 1235.5 825.373 1236.07 825.056C1236.65 824.739 1237.3 824.58 1238.03 824.58C1238.66 824.58 1239.23 824.706 1239.72 824.958C1240.23 825.201 1240.62 825.56 1240.91 826.036L1240.17 826.54C1239.93 826.176 1239.62 825.905 1239.25 825.728C1238.87 825.541 1238.47 825.448 1238.03 825.448C1237.5 825.448 1237.02 825.569 1236.59 825.812C1236.17 826.045 1235.83 826.381 1235.59 826.82C1235.36 827.259 1235.24 827.758 1235.24 828.318C1235.24 828.887 1235.36 829.391 1235.59 829.83C1235.83 830.259 1236.17 830.595 1236.59 830.838C1237.02 831.071 1237.5 831.188 1238.03 831.188C1238.47 831.188 1238.87 831.099 1239.25 830.922C1239.62 830.745 1239.93 830.474 1240.17 830.11L1240.91 830.614C1240.62 831.09 1240.23 831.454 1239.72 831.706C1239.22 831.949 1238.65 832.07 1238.03 832.07ZM1248.94 824.636L1245.26 832.882C1244.96 833.573 1244.62 834.063 1244.23 834.352C1243.83 834.641 1243.36 834.786 1242.81 834.786C1242.46 834.786 1242.13 834.73 1241.82 834.618C1241.51 834.506 1241.24 834.338 1241.02 834.114L1241.48 833.372C1241.85 833.745 1242.3 833.932 1242.83 833.932C1243.16 833.932 1243.45 833.839 1243.68 833.652C1243.92 833.465 1244.15 833.148 1244.35 832.7L1244.67 831.986L1241.38 824.636H1242.42L1245.19 830.894L1247.96 824.636H1248.94Z" fill="#6F6767"/>
<rect x="101" y="548" width="400" height="1" fill="#727272"/>
<rect x="101" y="672" width="1240" height="1" fill="#727272"/>
<rect x="521" y="548" width="400" height="1" fill="#727272"/>
<rect x="941" y="548" width="400" height="1" fill="#727272"/>
</mask>
<g mask="url(#mask0)">
<rect y="6" width="1440" height="271" fill="#FCFF78"/>
</g>
</svg>
