<svg width="45" height="45" viewBox="0 0 45 45" fill="none" xmlns="http://www.w3.org/2000/svg">
<path d="M43.6816 29.0918H39.7266V25.1367C39.7266 24.4082 39.1367 23.8184 38.4082 23.8184H23.8184V21.1816H27.7734C28.502 21.1816 29.0918 20.5918 29.0918 19.8633C29.0918 19.1348 28.502 18.5449 27.7734 18.5449H23.8184V15.9082H33.0469C33.7754 15.9082 34.3652 15.3184 34.3652 14.5898V1.31836C34.3652 0.589829 33.7754 0 33.0469 0H11.9531C11.2246 0 10.6348 0.589829 10.6348 1.31836V14.5898C10.6348 15.3184 11.2246 15.9082 11.9531 15.9082H21.1816V18.5449H17.2266C16.498 18.5449 15.9082 19.1348 15.9082 19.8633C15.9082 20.5918 16.498 21.1816 17.2266 21.1816H21.1816V23.8184H6.5918C5.86327 23.8184 5.27344 24.4082 5.27344 25.1367V29.0918H1.31836C0.589829 29.0918 0 29.6816 0 30.4102V43.6816C0 44.4102 0.589829 45 1.31836 45H11.8652C12.5938 45 13.1836 44.4102 13.1836 43.6816V30.4102C13.1836 29.6816 12.5938 29.0918 11.8652 29.0918H7.91016V26.4551H21.1816V29.0918H17.2266C16.498 29.0918 15.9082 29.6816 15.9082 30.4102V43.6816C15.9082 44.4102 16.498 45 17.2266 45H27.7734C28.502 45 29.0918 44.4102 29.0918 43.6816V30.4102C29.0918 29.6816 28.502 29.0918 27.7734 29.0918H23.8184V26.4551H37.0898V29.0918H33.1348C32.4062 29.0918 31.8164 29.6816 31.8164 30.4102V43.6816C31.8164 44.4102 32.4062 45 33.1348 45H43.6816C44.4102 45 45 44.4102 45 43.6816V30.4102C45 29.6816 44.4102 29.0918 43.6816 29.0918ZM6.5918 39.7266C5.86361 39.7266 5.27344 39.1364 5.27344 38.4082C5.27344 37.68 5.86361 37.0898 6.5918 37.0898C7.31998 37.0898 7.91016 37.68 7.91016 38.4082C7.91016 39.1364 7.31998 39.7266 6.5918 39.7266ZM22.5 39.7266C21.7718 39.7266 21.1816 39.1364 21.1816 38.4082C21.1816 37.68 21.7718 37.0898 22.5 37.0898C23.2282 37.0898 23.8184 37.68 23.8184 38.4082C23.8184 39.1364 23.2282 39.7266 22.5 39.7266ZM38.4082 39.7266C37.68 39.7266 37.0898 39.1364 37.0898 38.4082C37.0898 37.68 37.68 37.0898 38.4082 37.0898C39.1364 37.0898 39.7266 37.68 39.7266 38.4082C39.7266 39.1364 39.1364 39.7266 38.4082 39.7266Z" fill="#00CC06"/>
</svg>
