<svg width="50" height="50" viewBox="0 0 50 50" fill="none" xmlns="http://www.w3.org/2000/svg">
<g clip-path="url(#clip0)">
<path d="M49.0094 26.0858C47.9048 22.3584 45.8941 18.9265 43.1857 16.1397L43.9889 15.3365C44.5521 14.7733 44.5521 13.86 43.9889 13.2967L36.7035 6.01134C36.1403 5.44806 35.2269 5.44806 34.6637 6.01134L33.8605 6.81446C31.0736 4.10597 27.6417 2.09532 23.9144 0.990732C20.0785 -0.146182 15.9822 -0.307998 12.0686 0.522861C11.4087 0.662998 10.934 1.24171 10.9258 1.91642C10.9176 2.59093 11.3781 3.18106 12.0344 3.33712L13.4465 3.67276C17.2687 4.58136 20.7573 6.52989 23.5353 9.30792L27.4512 13.2237L27.0141 13.6608C26.4508 14.2241 26.4508 15.1374 27.0141 15.7007L34.2994 22.986C34.8626 23.5493 35.776 23.5493 36.3393 22.986L36.7764 22.5489L40.6922 26.4648C43.4701 29.2428 45.4187 32.7314 46.3273 36.5534L46.663 37.9655C46.8176 38.6161 47.3989 39.0743 48.066 39.0743C48.072 39.0743 48.0777 39.0743 48.0837 39.0742C48.7582 39.066 49.3371 38.5914 49.4771 37.9314C50.3079 34.0178 50.1462 29.9216 49.0094 26.0858Z" fill="#00CC06"/>
<path d="M25.4112 18.1777L0.422461 43.1665C-0.14082 43.7298 -0.14082 44.6431 0.422461 45.2063L4.79365 49.5775C5.07529 49.8592 5.44443 50.0001 5.81348 50.0001C6.18252 50.0001 6.55176 49.8594 6.8333 49.5775L31.8221 24.5888L25.4112 18.1777Z" fill="#00CC06"/>
</g>
<defs>
<clipPath id="clip0">
<rect width="50" height="50" fill="white"/>
</clipPath>
</defs>
</svg>
