<svg width="51" height="51" viewBox="0 0 51 51" fill="none" xmlns="http://www.w3.org/2000/svg">
<path d="M40.2992 0.738741C40.0632 0.286699 39.5954 0 39.0852 0H19.0661C18.4607 0 17.9271 0.400693 17.7539 0.980595L10.6027 24.945C10.479 25.3596 10.5584 25.8058 10.8168 26.1526C11.0753 26.4995 11.4825 26.7015 11.9149 26.7015H23.1396L18.6176 49.3601C18.486 50.0191 18.8519 50.6775 19.4815 50.9125C19.6384 50.9711 19.8004 51 19.96 51C20.4403 51 20.9008 50.7467 21.1503 50.3085L38.7853 19.3403C39.0266 18.9163 39.0242 18.3932 38.7791 17.9715C38.534 17.5497 38.0832 17.2875 37.5953 17.2875H29.6547L40.2083 2.15409C40.5002 1.7356 40.5352 1.19113 40.2992 0.738741Z" fill="#00CC06"/>
</svg>
