<svg width="58" height="58" viewBox="0 0 58 58" fill="none" xmlns="http://www.w3.org/2000/svg">
<g clip-path="url(#clip0)">
<path d="M56.3008 58H25.4883C24.5497 58 23.7891 57.2393 23.7891 56.3008V54.4883C23.7891 52.6112 25.3104 51.0898 27.1875 51.0898V49.0583C27.1875 46.3683 29.3761 44.1797 32.0661 44.1797H49.7229C52.4129 44.1797 54.6016 46.3683 54.6016 49.0583V51.0898C56.4787 51.0898 58 52.6112 58 54.4883V56.3008C58 57.2389 57.2389 58 56.3008 58Z" fill="#00CC06"/>
<path d="M36.7332 37.4217C35.604 38.9205 33.4729 39.22 31.9741 38.0903C30.4749 36.9611 30.1758 34.83 31.305 33.3307L41.5313 19.7605C42.661 18.2612 44.7917 17.9621 46.2904 19.0914C47.7896 20.2211 48.0892 22.3518 46.9595 23.851L36.7332 37.4217Z" fill="#00CC06"/>
<path d="M12.3065 19.0142C11.1768 20.513 9.04613 20.8126 7.54693 19.6829C6.04816 18.5536 5.74859 16.4229 6.8783 14.9237L17.1046 1.35342C18.2339 -0.145789 20.365 -0.445365 21.8637 0.68435C23.3625 1.81407 23.6621 3.94473 22.5324 5.44393L12.3065 19.0142Z" fill="#00CC06"/>
<path d="M19.7605 28.8867C17.2488 26.9941 15.3633 24.644 14.1841 22.1695L26.083 6.37915C28.7867 6.83095 31.5652 7.99518 34.0773 9.88821C36.589 11.7808 38.4745 14.131 39.6537 16.605L27.7548 32.3962C25.0511 31.9444 22.2726 30.7798 19.7605 28.8867Z" fill="#00CC06"/>
<path d="M15.1722 29.3291C15.9634 30.1353 16.7966 30.9084 17.7152 31.6009C18.6343 32.293 19.6074 32.8811 20.5999 33.4196L18.3843 36.3601L12.9561 32.27L15.1722 29.3291Z" fill="#00CC06"/>
<path d="M10.9108 34.9839L16.3391 39.074L6.11276 52.6447C4.98305 54.1439 2.85239 54.443 1.35362 53.3138C-0.145582 52.1841 -0.444715 50.0534 0.684557 48.5542L10.9108 34.9839Z" fill="#00CC06"/>
</g>
<defs>
<clipPath id="clip0">
<rect width="58" height="58" fill="white" transform="matrix(-1 0 0 1 58 0)"/>
</clipPath>
</defs>
</svg>
