<?xml version="1.0" encoding="UTF-8" standalone="no"?>
<svg
   xmlns:dc="http://purl.org/dc/elements/1.1/"
   xmlns:cc="http://creativecommons.org/ns#"
   xmlns:rdf="http://www.w3.org/1999/02/22-rdf-syntax-ns#"
   xmlns:svg="http://www.w3.org/2000/svg"
   xmlns="http://www.w3.org/2000/svg"
   xmlns:sodipodi="http://sodipodi.sourceforge.net/DTD/sodipodi-0.dtd"
   xmlns:inkscape="http://www.inkscape.org/namespaces/inkscape"
   width="120.87659"
   height="17.277693"
   viewBox="0 0 120.87659 17.277693"
   version="1.1"
   id="svg25"
   sodipodi:docname="logo.svg"
   inkscape:version="0.92.3 (2405546, 2018-03-11)"
   style="fill:none">
  <metadata
     id="metadata29">
    <rdf:RDF>
      <cc:Work
         rdf:about="">
        <dc:format>image/svg+xml</dc:format>
        <dc:type
           rdf:resource="http://purl.org/dc/dcmitype/StillImage" />
        <dc:title></dc:title>
      </cc:Work>
    </rdf:RDF>
  </metadata>
  <sodipodi:namedview
     pagecolor="#ffffff"
     bordercolor="#666666"
     borderopacity="1"
     objecttolerance="10"
     gridtolerance="10"
     guidetolerance="10"
     inkscape:pageopacity="0"
     inkscape:pageshadow="2"
     inkscape:window-width="1853"
     inkscape:window-height="796"
     id="namedview27"
     showgrid="false"
     inkscape:zoom="8"
     inkscape:cx="55.249433"
     inkscape:cy="11.49474"
     inkscape:window-x="0"
     inkscape:window-y="0"
     inkscape:window-maximized="0"
     inkscape:current-layer="svg25"
     fit-margin-top="0"
     fit-margin-left="0"
     fit-margin-right="0"
     fit-margin-bottom="0" />
  <g
     clip-path="url(#clip0)"
     id="g18"
     transform="translate(-14.123416,-8.3009546)">
    <path
       d="M 29.7254,8.3009546 H 15.517173 c -0.771303,0 -1.393757,0.6322808 -1.393757,1.4157512 V 24.162892 c 0,0.783449 0.622454,1.415756 1.393757,1.415756 h 14.22176 c 0.771252,0 1.393756,-0.632307 1.393756,-1.415756 V 9.7167058 C 31.11916,8.9332354 30.496653,8.3009546 29.7254,8.3009546 Z m 0,1.0583768 c 0.189402,0 0.351794,0.1649429 0.351794,0.3573744 0,0.1924315 -0.162392,0.3573752 -0.351794,0.3573752 -0.189458,0 -0.35185,-0.1649437 -0.35185,-0.3573752 0.01353,-0.2061748 0.162392,-0.3573744 0.35185,-0.3573744 z m -14.208227,0 c 0.189441,0 0.351823,0.1649429 0.351823,0.3573744 0,0.1924315 -0.148849,0.3573752 -0.351823,0.3573752 -0.189442,0 -0.351823,-0.1649437 -0.351823,-0.3573752 0,-0.2061748 0.148849,-0.3573744 0.351823,-0.3573744 z m 0,15.1471686 c -0.189442,0 -0.351823,-0.164899 -0.351823,-0.357363 0,-0.19241 0.162381,-0.357364 0.351823,-0.357364 0.189441,0 0.351823,0.164954 0.351823,0.357364 -0.01354,0.206164 -0.162382,0.357363 -0.351823,0.357363 z m 14.208227,0 c -0.189458,0 -0.35185,-0.164899 -0.35185,-0.357363 0,-0.19241 0.162392,-0.357364 0.35185,-0.357364 0.189402,0 0.351794,0.164954 0.351794,0.357364 0,0.206164 -0.14886,0.357363 -0.351794,0.357363 z m -7.104114,0.247432 c -4.248941,0 -7.699502,-3.505026 -7.699502,-7.821013 0,-4.315975 3.450561,-7.8209964 7.699502,-7.8209964 4.248936,0 7.685964,3.5050214 7.685964,7.8209964 0.01354,4.315987 -3.437028,7.821013 -7.685964,7.821013 z"
       id="path2"
       style="fill:#000000;fill-opacity:1;stroke-width:1"
       inkscape:connector-curvature="0" />
    <path
       d="m 15.936664,17.785146 c 0.0406,0.343608 0.473606,0.453595 0.67658,0.164898 0.663046,-0.962158 1.921489,-1.498177 3.775313,-1.594409 -0.04061,0.178654 -0.06767,0.357364 -0.06767,0.549773 -2.165042,0.673517 -3.328767,1.759419 -3.464082,3.243895 -0.01353,0.19241 0.01354,0.329853 0.121788,0.494807 0.419481,0.646062 0.906619,1.182079 1.502008,1.64943 0.270631,0.206165 0.64952,-0.02751 0.595389,-0.371118 -0.202974,-1.154568 0.324763,-2.432879 1.569682,-3.848635 0.09472,0.164954 0.202991,0.302398 0.338263,0.439841 -1.05544,2.034305 -1.123104,3.628715 -0.189403,4.783338 0.121739,0.137443 0.243533,0.21992 0.419458,0.261131 0.744244,0.151199 1.461421,0.17871 2.205665,0.08248 0.338261,-0.04121 0.446524,-0.481108 0.162392,-0.687273 -0.947234,-0.673516 -1.474955,-1.951828 -1.569683,-3.834879 0.175926,0.04121 0.351795,0.06872 0.541252,0.06872 0.663048,2.199204 1.732076,3.381283 3.19344,3.518782 0.189459,0.0137 0.324786,-0.01376 0.487179,-0.123744 0.635981,-0.426085 1.163701,-0.920892 1.623757,-1.525687 0.202991,-0.274942 -0.02707,-0.659761 -0.365327,-0.604795 -1.136637,0.206165 -2.395122,-0.329909 -3.78888,-1.594464 0.162394,-0.09618 0.29772,-0.206165 0.433047,-0.343608 2.002673,1.07209 3.572356,1.140869 4.708992,0.192409 0.135327,-0.123688 0.216523,-0.247377 0.257121,-0.426086 0.148804,-0.755994 0.17587,-1.484476 0.0812,-2.240469 -0.04061,-0.343608 -0.473644,-0.453597 -0.676579,-0.164955 -0.663102,0.962158 -1.921533,1.498232 -3.775346,1.594464 0.04061,-0.178709 0.06766,-0.357363 0.06766,-0.549828 2.165065,-0.673518 3.328768,-1.759363 3.464094,-3.243845 0.01353,-0.192432 -0.01354,-0.329887 -0.121794,-0.494829 -0.419459,-0.646024 -0.906636,-1.182085 -1.50202,-1.64942 -0.270599,-0.206182 -0.649514,0.02749 -0.595383,0.37112 0.202991,1.154595 -0.324729,2.432896 -1.569682,3.84865 -0.09473,-0.164954 -0.202935,-0.302397 -0.338263,-0.43984 1.055441,-2.034294 1.123104,-3.628732 0.189459,-4.783328 -0.121789,-0.137452 -0.243584,-0.219923 -0.419509,-0.261157 -0.744243,-0.151197 -1.461421,-0.178687 -2.205664,-0.08248 -0.338261,0.04124 -0.446524,0.48108 -0.162336,0.687255 0.947177,0.673518 1.474897,1.951818 1.569627,3.834908 -0.17587,-0.04121 -0.351796,-0.06872 -0.541252,-0.06872 -0.663048,-2.199232 -1.732021,-3.381317 -3.193463,-3.518771 -0.189441,-0.01375 -0.324758,0.01375 -0.487139,0.12371 -0.635986,0.426097 -1.163718,0.920926 -1.623791,1.525715 -0.202979,0.274903 0.02706,0.659766 0.36535,0.604784 1.136658,-0.206176 2.395116,0.329887 3.788872,1.594471 -0.162392,0.09618 -0.297718,0.206164 -0.433045,0.343608 -2.002663,-1.072147 -3.572334,-1.140868 -4.708986,-0.192466 -0.135317,0.123744 -0.216507,0.247432 -0.257105,0.426141 -0.148843,0.755994 -0.175909,1.484477 -0.08119,2.240471 z m 4.763145,-0.865982 c 0,-1.044636 0.838973,-1.896806 1.867347,-1.896806 1.02843,0 1.867346,0.85217 1.867346,1.896806 0,1.044635 -0.838916,1.896862 -1.867346,1.896862 -1.028374,0 -1.867347,-0.852227 -1.867347,-1.896862 z"
       id="path4"
       style="fill:#000000;fill-opacity:1;stroke-width:1"
       inkscape:connector-curvature="0" />
    <path
       d="M 50.9774,25.5786 50.9531,15.2123 45.9477,23.7522 H 44.1739 L 39.1928,15.4345 V 25.5786 H 35.4995 V 8.30151 h 3.2559 L 45.1215,19.038 51.3904,8.30151 h 3.2317 l 0.0486,17.27709 z"
       id="path6"
       inkscape:connector-curvature="0"
       style="fill:#000000" />
    <path
       d="m 58.7041,8.30151 h 3.9363 V 25.5786 h -3.9363 z"
       id="path8"
       inkscape:connector-curvature="0"
       style="fill:#000000" />
    <path
       d="M 82.2732,8.30151 V 25.5786 h -3.2317 l -8.48,-10.4897 V 25.5786 H 66.6738 V 8.30151 h 3.256 L 78.3855,18.7912 V 8.30151 Z"
       id="path10"
       inkscape:connector-curvature="0"
       style="fill:#000000" />
    <path
       d="m 99.4762,22.37 v 3.2086 H 86.3066 V 8.30151 h 12.8537 v 3.20859 h -8.9417 v 3.7516 h 7.8969 v 3.1099 H 90.2186 V 22.37 Z"
       id="path12"
       inkscape:connector-curvature="0"
       style="fill:#000000" />
    <path
       d="m 113.448,25.5786 -3.28,-4.8129 h -0.195 -3.426 v 4.8129 h -3.936 V 8.30151 h 7.362 c 1.507,0 2.819,0.24682 3.936,0.76513 1.118,0.51831 1.969,1.23406 2.552,2.17196 0.607,0.9379 0.899,2.0486 0.899,3.332 0,1.2835 -0.316,2.3941 -0.924,3.3073 -0.607,0.9379 -1.457,1.6537 -2.599,2.1473 l 3.814,5.5534 z m -0.996,-13.2293 c -0.608,-0.5183 -1.507,-0.7651 -2.698,-0.7651 h -3.207 v 6.0222 h 3.207 c 1.191,0 2.09,-0.2714 2.698,-0.7898 0.607,-0.5183 0.923,-1.2587 0.923,-2.2213 0,-0.9873 -0.316,-1.7277 -0.923,-2.246 z"
       id="path14"
       inkscape:connector-curvature="0"
       style="fill:#000000" />
    <path
       d="m 128.391,19.4576 v 6.121 h -3.937 V 19.4082 L 117.87,8.30151 h 4.179 l 4.544,7.67599 4.543,-7.67599 H 135 Z"
       id="path16"
       inkscape:connector-curvature="0"
       style="fill:#000000" />
  </g>
  <defs
     id="defs23">
    <clipPath
       id="clip0">
      <rect
         width="135"
         height="31"
         transform="translate(0,0.156616)"
         id="rect20"
         x="0"
         y="0"
         style="fill:#ffffff" />
    </clipPath>
  </defs>
</svg>
