<svg width="135" height="32" viewBox="0 0 135 32" fill="none" xmlns="http://www.w3.org/2000/svg">
<g clip-path="url(#clip0)">
<path d="M28.0157 0.156616H2.5027C1.11771 0.156616 0 1.29197 0 2.69881V28.6391C0 30.0459 1.11771 31.1813 2.5027 31.1813H28.04C29.4249 31.1813 30.5427 30.0459 30.5427 28.6391V2.69881C30.5184 1.29197 29.4006 0.156616 28.0157 0.156616ZM28.0157 2.05709C28.3558 2.05709 28.6474 2.35327 28.6474 2.69881C28.6474 3.04435 28.3558 3.34053 28.0157 3.34053C27.6755 3.34053 27.3839 3.04435 27.3839 2.69881C27.4082 2.32859 27.6755 2.05709 28.0157 2.05709ZM2.5027 2.05709C2.84287 2.05709 3.13445 2.35327 3.13445 2.69881C3.13445 3.04435 2.86717 3.34053 2.5027 3.34053C2.16253 3.34053 1.87095 3.04435 1.87095 2.69881C1.87095 2.32859 2.13823 2.05709 2.5027 2.05709ZM2.5027 29.2561C2.16253 29.2561 1.87095 28.96 1.87095 28.6144C1.87095 28.2689 2.16253 27.9727 2.5027 27.9727C2.84287 27.9727 3.13445 28.2689 3.13445 28.6144C3.11015 28.9846 2.84287 29.2561 2.5027 29.2561ZM28.0157 29.2561C27.6755 29.2561 27.3839 28.96 27.3839 28.6144C27.3839 28.2689 27.6755 27.9727 28.0157 27.9727C28.3558 27.9727 28.6474 28.2689 28.6474 28.6144C28.6474 28.9846 28.3801 29.2561 28.0157 29.2561ZM15.2592 29.7004C7.62959 29.7004 1.43359 23.4066 1.43359 15.6566C1.43359 7.90662 7.62959 1.61283 15.2592 1.61283C22.8888 1.61283 29.0605 7.90662 29.0605 15.6566C29.0848 23.4066 22.8888 29.7004 15.2592 29.7004Z" fill="#00CC06"/>
<path d="M3.25596 17.1869C3.32885 17.8039 4.10639 18.0014 4.47086 17.483C5.66146 15.7553 7.92118 14.7928 11.25 14.62C11.1771 14.9408 11.1285 15.2617 11.1285 15.6072C7.24084 16.8166 5.1512 18.7665 4.90822 21.4321C4.88393 21.7776 4.93252 22.0244 5.12691 22.3206C5.88015 23.4807 6.75488 24.4432 7.82399 25.2824C8.30995 25.6526 8.9903 25.233 8.8931 24.616C8.52863 22.5428 9.47626 20.2474 11.7117 17.7052C11.8818 18.0014 12.0762 18.2482 12.3191 18.495C10.4239 22.1479 10.3024 25.0109 11.979 27.0842C12.1976 27.331 12.4163 27.4791 12.7322 27.5531C14.0686 27.8246 15.3564 27.874 16.6928 27.7012C17.3002 27.6272 17.4946 26.8373 16.9844 26.4671C15.2835 25.2577 14.3359 22.9623 14.1658 19.581C14.4817 19.655 14.7975 19.7044 15.1377 19.7044C16.3283 23.6534 18.2479 25.776 20.872 26.0229C21.2122 26.0475 21.4552 25.9982 21.7468 25.8007C22.8888 25.0356 23.8364 24.1471 24.6625 23.0611C25.027 22.5674 24.6139 21.8764 24.0065 21.9751C21.9655 22.3453 19.7057 21.3827 17.203 19.112C17.4946 18.9393 17.7376 18.7418 17.9806 18.495C21.5767 20.4201 24.3953 20.5436 26.4363 18.8405C26.6793 18.6184 26.8251 18.3963 26.898 18.0754C27.1652 16.7179 27.2138 15.4098 27.0438 14.0523C26.9709 13.4353 26.1933 13.2378 25.8289 13.7561C24.6382 15.4838 22.3785 16.4464 19.0497 16.6192C19.1226 16.2983 19.1712 15.9775 19.1712 15.6319C23.0589 14.4225 25.1485 12.4727 25.3915 9.80709C25.4158 9.46155 25.3672 9.21473 25.1728 8.91855C24.4196 7.75852 23.5448 6.79594 22.4757 5.95677C21.9898 5.58654 21.3094 6.00613 21.4066 6.62317C21.7711 8.69642 20.8235 10.9918 18.588 13.534C18.4179 13.2378 18.2236 12.991 17.9806 12.7442C19.8758 9.09132 19.9973 6.22827 18.3208 4.15502C18.1021 3.9082 17.8834 3.76011 17.5675 3.68607C16.2311 3.41457 14.9433 3.36521 13.6069 3.53798C12.9995 3.61202 12.8051 4.40183 13.3154 4.77205C15.0162 5.98145 15.9638 8.27683 16.1339 11.6582C15.8181 11.5842 15.5022 11.5348 15.162 11.5348C13.9714 7.58575 12.0519 5.46314 9.42766 5.21632C9.08749 5.19164 8.84451 5.241 8.55293 5.43846C7.41092 6.20358 6.4633 7.09212 5.63717 8.17811C5.27269 8.67174 5.68576 9.36282 6.29321 9.26409C8.33425 8.89387 10.594 9.85645 13.0967 12.1272C12.8051 12.2999 12.5621 12.4974 12.3191 12.7442C8.72302 10.819 5.90444 10.6956 3.86341 12.3986C3.62043 12.6208 3.47464 12.8429 3.40174 13.1638C3.13447 14.5213 3.08587 15.8294 3.25596 17.1869ZM11.8089 15.6319C11.8089 13.7561 13.3154 12.2259 15.162 12.2259C17.0087 12.2259 18.5151 13.7561 18.5151 15.6319C18.5151 17.5077 17.0087 19.038 15.162 19.038C13.3154 19.038 11.8089 17.5077 11.8089 15.6319Z" fill="#00CC06"/>
<path d="M50.9774 25.5786L50.9531 15.2123L45.9477 23.7522H44.1739L39.1928 15.4345V25.5786H35.4995V8.30151H38.7554L45.1215 19.038L51.3904 8.30151H54.6221L54.6707 25.5786H50.9774Z" fill="black"/>
<path d="M58.7041 8.30151H62.6404V25.5786H58.7041V8.30151Z" fill="black"/>
<path d="M82.2732 8.30151V25.5786H79.0415L70.5615 15.0889V25.5786H66.6738V8.30151H69.9298L78.3855 18.7912V8.30151H82.2732Z" fill="black"/>
<path d="M99.4762 22.37V25.5786H86.3066V8.30151H99.1603V11.5101H90.2186V15.2617H98.1155V18.3716H90.2186V22.37H99.4762Z" fill="black"/>
<path d="M113.448 25.5786L110.168 20.7657H109.973H106.547V25.5786H102.611V8.30151H109.973C111.48 8.30151 112.792 8.54833 113.909 9.06664C115.027 9.58495 115.878 10.3007 116.461 11.2386C117.068 12.1765 117.36 13.2872 117.36 14.5706C117.36 15.8541 117.044 16.9647 116.436 17.8779C115.829 18.8158 114.979 19.5316 113.837 20.0252L117.651 25.5786H113.448ZM112.452 12.3493C111.844 11.831 110.945 11.5842 109.754 11.5842H106.547V17.6064H109.754C110.945 17.6064 111.844 17.335 112.452 16.8166C113.059 16.2983 113.375 15.5579 113.375 14.5953C113.375 13.608 113.059 12.8676 112.452 12.3493Z" fill="black"/>
<path d="M128.391 19.4576V25.5786H124.454V19.4082L117.87 8.30151H122.049L126.593 15.9775L131.136 8.30151H135L128.391 19.4576Z" fill="black"/>
</g>
<defs>
<clipPath id="clip0">
<rect width="135" height="31" fill="white" transform="translate(0 0.156616)"/>
</clipPath>
</defs>
</svg>
