<svg width="155" height="45" viewBox="0 0 155 45" fill="none" xmlns="http://www.w3.org/2000/svg">
<path d="M55.7949 11.3658V7.81399C55.7949 7.56691 56.0085 7.35071 56.2525 7.35071H62.7502C62.9943 7.35071 63.2078 7.56691 63.2078 7.81399V11.3658C63.2078 11.6129 62.9943 11.8291 62.7502 11.8291H56.2525C56.0085 11.8291 55.7949 11.6129 55.7949 11.3658ZM55.7949 32.2443V13.744C55.7949 13.4969 56.0085 13.2807 56.2525 13.2807H62.7502C62.9943 13.2807 63.2078 13.4969 63.2078 13.744V32.2443C63.2078 32.4914 62.9943 32.7076 62.7502 32.7076H56.2525C56.0085 32.7076 55.7949 32.5223 55.7949 32.2443Z" fill="#333333"/>
<path d="M81.7257 13.2808C86.332 13.2808 88.2844 15.2265 88.2844 19.8902V32.2444C88.2844 32.4915 88.0709 32.7077 87.8268 32.7077H81.4511C81.2071 32.7077 80.9935 32.4915 80.9935 32.2444V21.2183C80.9935 19.7358 80.5664 19.3034 79.0717 19.3034H77.6379C76.3566 19.3034 75.411 19.5505 74.8313 20.1064L74.1907 20.6624C74.0992 20.755 74.0382 20.8786 74.0382 21.033V32.2753C74.0382 32.5224 73.8247 32.7386 73.5806 32.7386H67.1744C66.9303 32.7386 66.7168 32.5224 66.7168 32.2753V13.744C66.7168 13.497 66.9303 13.2808 67.1744 13.2808H72.4824C72.6959 13.2808 72.879 13.4352 72.94 13.6205L73.245 14.7324C73.3366 15.0721 73.7331 15.1957 73.9772 14.9795C74.8008 14.3309 75.594 13.8676 76.2956 13.6514C77.1193 13.4043 78.431 13.2499 80.1394 13.2499H81.7257V13.2808Z" fill="#333333"/>
<path d="M106.222 13.2808C110.828 13.2808 112.78 15.2265 112.78 19.8902V23.5965C112.78 23.8436 112.567 24.0598 112.323 24.0598H98.9614C98.7173 24.0598 98.5038 24.276 98.5038 24.523V25.2952C98.5038 26.7777 98.9614 27.241 100.456 27.241H104.208C105.398 27.241 105.795 26.8394 105.795 25.6349V25.2643H112.353C112.597 25.2643 112.811 25.4805 112.811 25.7276V26.963C112.811 30.9163 111.011 32.7077 107.137 32.7077H97.7716C93.1653 32.7077 91.2129 30.7619 91.2129 26.0982V19.8902C91.2129 15.2574 93.1653 13.2808 97.7716 13.2808H106.222ZM98.9614 20.3535H105.307C105.551 20.3535 105.764 20.1373 105.764 19.8902C105.764 18.4077 105.307 17.9753 103.812 17.9753H100.426C98.9614 17.9753 98.4733 18.4077 98.4733 19.8902C98.5038 20.1373 98.6868 20.3535 98.9614 20.3535Z" fill="#333333"/>
<path d="M130.351 13.744V19.7049C130.351 19.952 130.137 20.1682 129.893 20.1682H126.751C125.47 20.1682 124.524 20.4153 123.945 20.9712L123.304 21.5272C123.212 21.6198 123.151 21.7434 123.151 21.8978V32.2753C123.151 32.5224 122.938 32.7386 122.694 32.7386H116.288C116.044 32.7386 115.83 32.5224 115.83 32.2753V13.744C115.83 13.497 116.044 13.2808 116.288 13.2808H120.711C120.925 13.2808 121.108 13.4352 121.169 13.6205L121.565 15.1339C121.657 15.4736 122.053 15.5972 122.328 15.381C123.273 14.5471 124.128 14.022 124.89 13.744C125.805 13.4043 127.117 13.2808 128.948 13.2808H129.893C130.137 13.2808 130.351 13.497 130.351 13.744Z" fill="#333333"/>
<path d="M147.861 13.2808H154.541C154.877 13.2808 155.121 13.6514 154.969 13.9602L146.488 32.615C145.42 35.055 144.261 36.6301 143.041 37.4022C141.79 38.1744 139.838 38.5141 137.184 38.5141H133.523C133.279 38.5141 133.065 38.2979 133.065 38.0508V33.1401C133.065 32.893 133.279 32.6768 133.523 32.6768H137.519C138.221 32.6768 138.8 32.615 139.227 32.4297C139.472 32.337 139.594 32.0282 139.472 31.7811L131.357 13.9294C131.204 13.6205 131.449 13.2499 131.784 13.2499H138.8C138.983 13.2499 139.166 13.3734 139.227 13.5587L142.858 23.5038C143.01 23.9053 143.59 23.9053 143.742 23.5038L147.403 13.5896C147.495 13.4043 147.647 13.2808 147.861 13.2808Z" fill="#333333"/>
<path d="M25.8994 3.86068V44.9691L1.89136 33.4489C0.732139 32.8929 0 31.7193 0 30.4221V2.56349C0 1.79136 0.671128 1.17365 1.43377 1.2663L25.8994 3.86068Z" fill="black"/>
<path d="M51.7693 2.56349V30.175C51.7693 31.4722 51.0372 32.6459 49.9085 33.2018L25.9004 45V3.86068L50.3355 1.2663C51.0982 1.17365 51.7693 1.79136 51.7693 2.56349Z" fill="#333333"/>
<path d="M50.6706 1.23541L25.8999 3.89156L1.12918 1.23541C1.03767 1.23541 1.03767 1.08099 1.12918 1.08099L25.8389 0.0308838L50.6401 1.0501C50.7621 1.0501 50.7621 1.20453 50.6706 1.23541Z" fill="#00CC06"/>
<path d="M25.8997 20.1064L10.0977 6.94922L10.1282 37.3713L17.0835 40.7687L17.1445 20.1064L25.8997 27.8277V20.1064Z" fill="#A4C931"/>
<path d="M25.9004 20.1064L41.7024 6.94922L41.6414 37.3713L34.7166 40.7687L34.625 20.1064L25.9004 27.8277V20.1064Z" fill="#C2FF42"/>
</svg>
