<svg width="228" height="51" viewBox="0 0 228 51" fill="none" xmlns="http://www.w3.org/2000/svg">
<g clip-path="url(#clip0)">
<path d="M47.3153 0H4.22678C1.88769 0 0 1.86783 0 4.18232V46.8583C0 49.1728 1.88769 51.0406 4.22678 51.0406H47.3564C49.6955 51.0406 51.5832 49.1728 51.5832 46.8583V4.18232C51.5421 1.86783 49.6544 0 47.3153 0ZM47.3153 3.12659C47.8899 3.12659 48.3823 3.61385 48.3823 4.18232C48.3823 4.7508 47.8899 5.23806 47.3153 5.23806C46.7408 5.23806 46.2484 4.7508 46.2484 4.18232C46.2894 3.57325 46.7408 3.12659 47.3153 3.12659ZM4.22678 3.12659C4.8013 3.12659 5.29374 3.61385 5.29374 4.18232C5.29374 4.7508 4.84233 5.23806 4.22678 5.23806C3.65227 5.23806 3.15983 4.7508 3.15983 4.18232C3.15983 3.57325 3.61123 3.12659 4.22678 3.12659ZM4.22678 47.8734C3.65227 47.8734 3.15983 47.3861 3.15983 46.8177C3.15983 46.2492 3.65227 45.7619 4.22678 45.7619C4.8013 45.7619 5.29374 46.2492 5.29374 46.8177C5.2527 47.4267 4.8013 47.8734 4.22678 47.8734ZM47.3153 47.8734C46.7408 47.8734 46.2484 47.3861 46.2484 46.8177C46.2484 46.2492 46.7408 45.7619 47.3153 45.7619C47.8899 45.7619 48.3823 46.2492 48.3823 46.8177C48.3823 47.4267 47.9309 47.8734 47.3153 47.8734ZM25.7711 48.6043C12.8855 48.6043 2.42117 38.25 2.42117 25.5C2.42117 12.75 12.8855 2.3957 25.7711 2.3957C38.6566 2.3957 49.0799 12.75 49.0799 25.5C49.121 38.25 38.6566 48.6043 25.7711 48.6043Z" fill="url(#paint0_linear)"/>
<path d="M5.49862 28.0175C5.62173 29.0326 6.93491 29.3575 7.55046 28.5048C9.56126 25.6624 13.3777 24.0788 18.9997 23.7946C18.8766 24.3225 18.7945 24.8503 18.7945 25.4188C12.2286 27.4084 8.69949 30.6162 8.28912 35.0016C8.24808 35.5701 8.33015 35.9761 8.65845 36.4634C9.93059 38.3718 11.4079 39.9554 13.2135 41.336C14.0343 41.9451 15.1833 41.2548 15.0191 40.2397C14.4036 36.8288 16.004 33.0526 19.7794 28.8702C20.0667 29.3575 20.395 29.7635 20.8053 30.1696C17.6045 36.1791 17.3993 40.8893 20.2308 44.3002C20.6001 44.7062 20.9695 44.9498 21.5029 45.0717C23.76 45.5183 25.9349 45.5995 28.1919 45.3153C29.2178 45.1935 29.5461 43.8941 28.6844 43.285C25.8118 41.2954 24.2114 37.5191 23.9241 31.9562C24.4576 32.078 24.9911 32.1592 25.5656 32.1592C27.5764 38.6561 30.8183 42.1481 35.2502 42.5541C35.8248 42.5948 36.2351 42.5135 36.7276 42.1887C38.6563 40.9299 40.2567 39.4682 41.652 37.6815C42.2675 36.8694 41.5699 35.7325 40.544 35.8949C37.0969 36.504 33.2805 34.9204 29.0537 31.1847C29.5461 30.9005 29.9565 30.5756 30.3669 30.1696C36.4403 33.3368 41.2006 33.5398 44.6477 30.7381C45.058 30.3726 45.3042 30.0072 45.4273 29.4793C45.8787 27.246 45.9608 25.094 45.6736 22.8607C45.5505 21.8455 44.2373 21.5207 43.6217 22.3734C41.6109 25.2158 37.7945 26.7994 32.1725 27.0836C32.2956 26.5557 32.3777 26.0279 32.3777 25.4594C38.9435 23.4697 42.4727 20.2619 42.8831 15.8766C42.9241 15.3081 42.842 14.9021 42.5137 14.4148C41.2416 12.5064 39.7643 10.9228 37.9587 9.5422C37.1379 8.93312 35.9889 9.62341 36.153 10.6385C36.7686 14.0494 35.1682 17.8256 31.3928 22.008C31.1055 21.5207 30.7772 21.1147 30.3669 20.7086C33.5677 14.699 33.7729 9.98885 30.9414 6.57803C30.5721 6.17198 30.2027 5.92834 29.6693 5.80653C27.4122 5.35987 25.2373 5.27866 22.9803 5.5629C21.9543 5.68471 21.6261 6.98408 22.4878 7.59315C25.3604 9.5828 26.9608 13.3591 27.2481 18.922C26.7146 18.8002 26.1811 18.719 25.6066 18.719C23.5958 12.2221 20.3539 8.7301 15.9219 8.32405C15.3474 8.28344 14.9371 8.36465 14.4446 8.68949C12.5159 9.94825 10.9155 11.41 9.52022 13.1967C8.90467 14.0088 9.60229 15.1457 10.6282 14.9833C14.0753 14.3742 17.8917 15.9578 22.1185 19.6935C21.6261 19.9777 21.2157 20.3026 20.8053 20.7086C14.7319 17.5414 9.97162 17.3384 6.52454 20.1401C6.11417 20.5056 5.86795 20.871 5.74484 21.3989C5.29344 23.6322 5.21136 25.7842 5.49862 28.0175ZM19.9435 25.4594C19.9435 22.3734 22.4878 19.8559 25.6066 19.8559C28.7254 19.8559 31.2697 22.3734 31.2697 25.4594C31.2697 28.5454 28.7254 31.0629 25.6066 31.0629C22.4878 31.0629 19.9435 28.5454 19.9435 25.4594Z" fill="url(#paint1_linear)"/>
<path d="M86.0955 41.8232L86.0544 24.7691L77.6009 38.8184H74.6052L66.1927 25.1345V41.8232H59.9551V13.3997H65.454L76.2056 31.0629L86.7931 13.3997H92.251L92.333 41.8232H86.0955Z" fill="black"/>
<path d="M99.1455 13.3997H105.793V41.8232H99.1455V13.3997Z" fill="black"/>
<path d="M138.951 13.3997V41.8232H133.493L119.171 24.5661V41.8232H112.605V13.3997H118.104L132.385 30.6568V13.3997H138.951Z" fill="black"/>
<path d="M168.005 36.5446V41.8232H145.763V13.3997H167.471V18.6783H152.37V24.8503H165.707V29.9665H152.37V36.5446H168.005Z" fill="black"/>
<path d="M191.601 41.8232L186.061 33.9052H185.733H179.947V41.8232H173.299V13.3997H185.733C188.277 13.3997 190.493 13.8057 192.381 14.6584C194.269 15.5111 195.705 16.6887 196.69 18.2317C197.716 19.7747 198.208 21.6019 198.208 23.7134C198.208 25.8248 197.675 27.652 196.649 29.1544C195.623 30.6974 194.187 31.875 192.258 32.6871L198.701 41.8232H191.601ZM189.919 20.0589C188.893 19.2062 187.374 18.8001 185.364 18.8001H179.947V28.7078H185.364C187.374 28.7078 188.893 28.2611 189.919 27.4084C190.945 26.5557 191.478 25.3376 191.478 23.754C191.478 22.1298 190.945 20.9116 189.919 20.0589Z" fill="black"/>
<path d="M216.838 31.7532V41.8232H210.19V31.672L199.069 13.3997H206.128L213.802 26.0278L221.475 13.3997H228L216.838 31.7532Z" fill="black"/>
</g>
<defs>
<linearGradient id="paint0_linear" x1="51.538" y1="25.498" x2="0" y2="25.498" gradientUnits="userSpaceOnUse">
<stop stop-color="#3FBCFF"/>
<stop offset="1" stop-color="#007ED4"/>
</linearGradient>
<linearGradient id="paint1_linear" x1="45.9081" y1="25.4502" x2="5.3385" y2="25.4502" gradientUnits="userSpaceOnUse">
<stop stop-color="#3FBCFF"/>
<stop offset="1" stop-color="#007ED4"/>
</linearGradient>
<clipPath id="clip0">
<rect width="228" height="51" fill="white"/>
</clipPath>
</defs>
</svg>
