<svg width="135" height="32" viewBox="0 0 135 32" fill="none" xmlns="http://www.w3.org/2000/svg">
<g clip-path="url(#clip0)">
<path d="M28.0157 0.5H2.5027C1.11771 0.5 0 1.63535 0 3.0422V28.9825C0 30.3893 1.11771 31.5247 2.5027 31.5247H28.04C29.4249 31.5247 30.5427 30.3893 30.5427 28.9825V3.0422C30.5184 1.63535 29.4006 0.5 28.0157 0.5ZM28.0157 2.40048C28.3558 2.40048 28.6474 2.69666 28.6474 3.0422C28.6474 3.38774 28.3558 3.68392 28.0157 3.68392C27.6755 3.68392 27.3839 3.38774 27.3839 3.0422C27.4082 2.67197 27.6755 2.40048 28.0157 2.40048ZM2.5027 2.40048C2.84287 2.40048 3.13445 2.69666 3.13445 3.0422C3.13445 3.38774 2.86717 3.68392 2.5027 3.68392C2.16253 3.68392 1.87095 3.38774 1.87095 3.0422C1.87095 2.67197 2.13823 2.40048 2.5027 2.40048ZM2.5027 29.5995C2.16253 29.5995 1.87095 29.3033 1.87095 28.9578C1.87095 28.6123 2.16253 28.3161 2.5027 28.3161C2.84287 28.3161 3.13445 28.6123 3.13445 28.9578C3.11015 29.328 2.84287 29.5995 2.5027 29.5995ZM28.0157 29.5995C27.6755 29.5995 27.3839 29.3033 27.3839 28.9578C27.3839 28.6123 27.6755 28.3161 28.0157 28.3161C28.3558 28.3161 28.6474 28.6123 28.6474 28.9578C28.6474 29.328 28.3801 29.5995 28.0157 29.5995ZM15.2592 30.0438C7.62959 30.0438 1.43359 23.75 1.43359 16C1.43359 8.25 7.62959 1.95621 15.2592 1.95621C22.8888 1.95621 29.0605 8.25 29.0605 16C29.0848 23.75 22.8888 30.0438 15.2592 30.0438Z" fill="#C2FF42"/>
<path d="M3.25596 17.5304C3.32885 18.1475 4.10639 18.3449 4.47086 17.8266C5.66146 16.0989 7.92118 15.1363 11.25 14.9636C11.1771 15.2844 11.1285 15.6053 11.1285 15.9508C7.24084 17.1602 5.1512 19.1101 4.90822 21.7757C4.88393 22.1212 4.93252 22.368 5.12691 22.6642C5.88015 23.8242 6.75488 24.7868 7.82399 25.626C8.30995 25.9962 8.9903 25.5766 8.8931 24.9596C8.52863 22.8863 9.47626 20.5909 11.7117 18.0487C11.8818 18.3449 12.0762 18.5917 12.3191 18.8386C10.4239 22.4914 10.3024 25.3545 11.979 27.4277C12.1976 27.6745 12.4163 27.8226 12.7322 27.8967C14.0686 28.1682 15.3564 28.2175 16.6928 28.0448C17.3002 27.9707 17.4946 27.1809 16.9844 26.8107C15.2835 25.6013 14.3359 23.3059 14.1658 19.9245C14.4817 19.9986 14.7975 20.0479 15.1377 20.0479C16.3283 23.997 18.2479 26.1196 20.872 26.3664C21.2122 26.3911 21.4552 26.3417 21.7468 26.1443C22.8888 25.3792 23.8364 24.4906 24.6625 23.4046C25.027 22.911 24.6139 22.2199 24.0065 22.3187C21.9655 22.6889 19.7057 21.7263 17.203 19.4556C17.4946 19.2828 17.7376 19.0854 17.9806 18.8386C21.5767 20.7637 24.3953 20.8871 26.4363 19.1841C26.6793 18.962 26.8251 18.7398 26.898 18.419C27.1652 17.0615 27.2138 15.7534 27.0438 14.3959C26.9709 13.7788 26.1933 13.5814 25.8289 14.0997C24.6382 15.8274 22.3785 16.79 19.0497 16.9628C19.1226 16.6419 19.1712 16.321 19.1712 15.9755C23.0589 14.7661 25.1485 12.8163 25.3915 10.1507C25.4158 9.80511 25.3672 9.5583 25.1728 9.26212C24.4196 8.10209 23.5448 7.13951 22.4757 6.30033C21.9898 5.93011 21.3094 6.3497 21.4066 6.96674C21.7711 9.03999 20.8235 11.3354 18.588 13.8776C18.4179 13.5814 18.2236 13.3346 17.9806 13.0878C19.8758 9.43489 19.9973 6.57183 18.3208 4.49858C18.1021 4.25177 17.8834 4.10368 17.5675 4.02963C16.2311 3.75814 14.9433 3.70877 13.6069 3.88154C12.9995 3.95559 12.8051 4.7454 13.3154 5.11562C15.0162 6.32502 15.9638 8.6204 16.1339 12.0018C15.8181 11.9277 15.5022 11.8784 15.162 11.8784C13.9714 7.92932 12.0519 5.8067 9.42766 5.55989C9.08749 5.53521 8.84451 5.58457 8.55293 5.78202C7.41092 6.54715 6.4633 7.43569 5.63717 8.52167C5.27269 9.0153 5.68576 9.70639 6.29321 9.60766C8.33425 9.23744 10.594 10.2 13.0967 12.4707C12.8051 12.6435 12.5621 12.8409 12.3191 13.0878C8.72302 11.1626 5.90444 11.0392 3.86341 12.7422C3.62043 12.9643 3.47464 13.1865 3.40174 13.5073C3.13447 14.8648 3.08587 16.1729 3.25596 17.5304ZM11.8089 15.9755C11.8089 14.0997 13.3154 12.5694 15.162 12.5694C17.0087 12.5694 18.5151 14.0997 18.5151 15.9755C18.5151 17.8513 17.0087 19.3815 15.162 19.3815C13.3154 19.3815 11.8089 17.8513 11.8089 15.9755Z" fill="#C2FF42"/>
<path d="M50.9774 25.9221L50.9531 15.5558L45.9477 24.0957H44.1739L39.1928 15.778V25.9221H35.4995V8.64502H38.7554L45.1215 19.3815L51.3904 8.64502H54.6221L54.6707 25.9221H50.9774Z" fill="white"/>
<path d="M58.7041 8.64502H62.6404V25.9221H58.7041V8.64502Z" fill="white"/>
<path d="M82.2732 8.64502V25.9221H79.0415L70.5615 15.4324V25.9221H66.6738V8.64502H69.9298L78.3855 19.1347V8.64502H82.2732Z" fill="white"/>
<path d="M99.4762 22.7135V25.9221H86.3066V8.64502H99.1603V11.8536H90.2186V15.6052H98.1155V18.7151H90.2186V22.7135H99.4762Z" fill="white"/>
<path d="M113.448 25.9221L110.168 21.1092H109.973H106.547V25.9221H102.611V8.64502H109.973C111.48 8.64502 112.792 8.89183 113.909 9.41015C115.027 9.92846 115.878 10.6442 116.461 11.5821C117.068 12.52 117.36 13.6307 117.36 14.9141C117.36 16.1976 117.044 17.3082 116.436 18.2215C115.829 19.1594 114.979 19.8751 113.837 20.3687L117.651 25.9221H113.448ZM112.452 12.6928C111.844 12.1745 110.945 11.9277 109.754 11.9277H106.547V17.95H109.754C110.945 17.95 111.844 17.6785 112.452 17.1601C113.059 16.6418 113.375 15.9014 113.375 14.9388C113.375 13.9515 113.059 13.2111 112.452 12.6928Z" fill="white"/>
<path d="M128.391 19.8011V25.9221H124.454V19.7517L117.87 8.64502H122.049L126.593 16.321L131.136 8.64502H135L128.391 19.8011Z" fill="white"/>
</g>
<defs>
<clipPath id="clip0">
<rect width="135" height="31" fill="white" transform="translate(0 0.5)"/>
</clipPath>
</defs>
</svg>
