<svg width="1440" height="896" viewBox="0 0 1440 896" fill="none" xmlns="http://www.w3.org/2000/svg">
<path fill-rule="evenodd" clip-rule="evenodd" d="M-83.1861 328.002C-24.1011 305.68 192.197 228.024 423.5 195.376C472.003 188.531 528.777 188.995 589.654 189.493C675.347 190.195 769.17 190.963 859.5 171.5C940.346 154.081 996.738 130.253 1051.09 107.287C1100.61 86.3651 1148.43 66.1588 1211.5 52.1671C1314 29.4283 1476 0 1476 0L1476 328.002V337.903L1476 344H1472.67C1452.21 380.007 1336.34 564.443 1091.5 599C984.151 614.152 852.344 642.609 711.744 672.964C699.393 675.631 686.975 678.312 674.5 681C597.487 697.594 530.24 709.733 465.772 721.37C400.907 733.079 338.856 744.28 272.5 759C169.995 781.739 -122 896 -122 896L-99 328.002H-83.1861Z" fill="#FCFF78"/>
</svg>
