<svg width="120" height="120" viewBox="0 0 120 120" fill="none" xmlns="http://www.w3.org/2000/svg">
<path d="M89 59.5L44.75 84.1817L44.75 34.8183L89 59.5Z" fill="#00CC06"/>
<path d="M50.3122 0.0646973V11.9612L47.0829 12.9957L42.8848 7.11211V14.3535L39.6556 15.388L32.6157 5.81901L35.7158 4.78452L40.1076 10.9268L40.1722 3.29746L42.9494 2.39228L47.3412 8.59918V0.905214L50.3122 0.0646973Z" fill="#00CC06"/>
<path d="M64.0043 9.24569L59.225 9.11638L58.2562 11.3147L55.0269 11.1853L60.3229 0L63.4876 0.12931L68.1378 11.5733L64.8439 11.444L64.0043 9.24569ZM63.1647 6.85345L61.8084 3.1681L60.2584 6.72414L63.1647 6.85345Z" fill="#00CC06"/>
<path d="M75.113 4.5258L71.8192 3.49132L72.5296 1.03442L82.2174 3.94391L81.507 6.4008L78.1485 5.49563L75.6297 13.9008L72.5942 12.9956L75.113 4.5258Z" fill="#00CC06"/>
<path d="M83.9612 16.9397C83.4446 16.0345 83.1862 15 83.1862 13.9655C83.1862 12.931 83.5091 11.8966 84.0904 10.9267C84.6717 9.95691 85.4467 9.2457 86.3509 8.79312C87.2551 8.34053 88.2885 8.14656 89.3218 8.21122C90.3552 8.27587 91.3886 8.66381 92.422 9.2457C93.3262 9.76294 93.972 10.4095 94.4887 11.1854C95.0054 11.9612 95.3283 12.7371 95.3929 13.6423L92.6803 14.1595C92.5511 12.9957 92.0344 12.1552 91.1302 11.6379C90.6136 11.3147 90.0969 11.1207 89.5156 11.1207C88.9343 11.1207 88.4822 11.25 87.9655 11.5086C87.4489 11.7673 87.0614 12.2198 86.7384 12.7371C86.4155 13.2543 86.2217 13.8362 86.1571 14.3535C86.0926 14.9354 86.2217 15.4526 86.4801 15.9052C86.7384 16.3578 87.1259 16.8104 87.6426 17.1336C88.5468 17.7155 89.5156 17.7802 90.6136 17.3923L91.3886 20.0431C90.549 20.3664 89.7094 20.431 88.8052 20.3017C87.901 20.1724 86.9968 19.8491 86.1571 19.2673C85.2529 18.6207 84.4779 17.8448 83.9612 16.9397Z" fill="#00CC06"/>
<path d="M108.504 24.375L100.043 31.875L97.9117 29.4827L101.206 26.5733L98.2992 23.2758L95.0054 26.1853L92.8741 23.7931L101.399 16.2931L103.531 18.6853L100.366 21.4655L103.272 24.7629L106.437 21.9827L108.504 24.375Z" fill="#00CC06"/>
<path d="M119.354 49.2673L107.147 47.8449L106.243 44.8061L115.737 36.9828L116.706 40.2802L110.506 45.3233L118.45 46.2931L119.354 49.2673Z" fill="#00CC06"/>
<path d="M119.677 54.4397L119.871 57.6078L108.568 58.319L108.375 55.1509L119.677 54.4397Z" fill="#00CC06"/>
<path d="M120 64.4612L119.096 69.7629C118.902 70.9914 118.515 72.0258 117.869 72.931C117.223 73.7715 116.512 74.4181 115.544 74.806C114.639 75.1939 113.606 75.2586 112.443 75.0646C111.346 74.8707 110.377 74.4827 109.602 73.7715C108.827 73.125 108.31 72.2845 108.052 71.25C107.729 70.2155 107.729 69.1164 107.922 67.8879L108.827 62.5862L120 64.4612ZM110.506 68.1465C110.377 69.1164 110.506 69.8922 110.958 70.6034C111.41 71.25 112.121 71.7026 113.089 71.8319C114.058 71.9612 114.833 71.8319 115.479 71.3146C116.125 70.7974 116.512 70.0862 116.706 69.1164L117.029 67.112L110.893 66.0776L110.506 68.1465Z" fill="#00CC06"/>
<path d="M103.918 86.5733L101.722 85.4742L105.662 77.3276L115.802 82.2414L111.927 90.194L109.731 89.0949L112.25 83.9871L110.506 83.1466L108.31 87.6725L106.179 86.638L108.375 82.1121L106.502 81.2069L103.918 86.5733Z" fill="#00CC06"/>
<path d="M98.493 90.7759C99.5264 90.388 100.56 90.3233 101.529 90.5173C102.562 90.7113 103.466 91.1638 104.306 91.9397C105.145 92.7156 105.662 93.5561 105.985 94.5906C106.308 95.6251 106.308 96.5949 106.05 97.694C105.791 98.7932 105.274 99.6983 104.435 100.603C103.66 101.509 102.691 102.091 101.722 102.478C100.689 102.866 99.6555 102.931 98.6868 102.737C97.6534 102.543 96.7492 102.026 95.9096 101.315C95.07 100.539 94.5533 99.6983 94.2303 98.6638C93.9074 97.6294 93.9074 96.6595 94.1658 95.5604C94.4241 94.4613 94.9408 93.5561 95.7804 92.6509C96.5554 91.7457 97.4596 91.0992 98.493 90.7759ZM97.0075 95.819C96.8784 96.3363 96.9429 96.8535 97.1367 97.3707C97.3304 97.888 97.6534 98.4052 98.1055 98.7932C98.5576 99.2457 99.0743 99.5044 99.6555 99.6337C100.172 99.763 100.753 99.763 101.206 99.569C101.722 99.4397 102.174 99.1164 102.562 98.6638C102.949 98.2113 103.208 97.7587 103.337 97.2414C103.466 96.7242 103.401 96.2069 103.208 95.6897C103.014 95.1725 102.691 94.6552 102.239 94.2673C101.787 93.8147 101.27 93.5561 100.689 93.4268C100.172 93.2975 99.5909 93.2975 99.1388 93.4914C98.6222 93.6207 98.1701 93.944 97.7825 94.3966C97.3304 94.8492 97.0721 95.3018 97.0075 95.819Z" fill="#00CC06"/>
<path d="M70.1399 119.806L70.0753 107.91L73.3046 106.81L77.5027 112.629V105.388L80.732 104.289L87.7718 113.858L84.6717 114.892L80.2153 108.75V116.379L77.4381 117.284L72.9817 111.207L73.0463 118.901L70.1399 119.806Z" fill="#00CC06"/>
<path d="M56.3832 110.754L61.1625 110.884L62.1313 108.685L65.3606 108.75L60.0646 120L56.8999 119.935L52.1852 108.491L55.479 108.556L56.3832 110.754ZM57.2228 113.147L58.5791 116.832L60.1292 113.276L57.2228 113.147Z" fill="#00CC06"/>
<path d="M45.2745 115.539L48.6329 116.509L47.9225 118.965L38.2346 116.121L38.9451 113.664L42.239 114.634L44.6932 106.228L47.7287 107.134L45.2745 115.539Z" fill="#00CC06"/>
<path d="M36.4263 103.19C36.9429 104.095 37.2659 105.065 37.2013 106.164C37.2013 107.198 36.8784 108.233 36.2971 109.203C35.7158 110.172 34.9408 110.884 34.0366 111.401C33.1324 111.853 32.099 112.112 31.0657 112.047C30.0323 111.983 28.9343 111.659 27.9655 111.013C27.0614 110.496 26.4155 109.849 25.8988 109.073C25.3821 108.297 25.0592 107.522 24.9946 106.616L27.7072 106.099C27.901 107.263 28.4176 108.103 29.2573 108.621C29.7739 108.944 30.2906 109.138 30.8719 109.138C31.4532 109.138 31.9053 109.009 32.422 108.75C32.9386 108.491 33.3262 108.039 33.6491 107.522C33.972 107.004 34.1658 106.422 34.1658 105.905C34.1658 105.323 34.1012 104.806 33.8428 104.353C33.5845 103.901 33.197 103.448 32.6803 103.125C31.7761 102.608 30.8073 102.478 29.7094 102.866L28.9343 100.215C29.7739 99.8922 30.6136 99.8275 31.5178 99.9569C32.422 100.086 33.3262 100.409 34.1658 100.927C35.07 101.509 35.845 102.284 36.4263 103.19Z" fill="#00CC06"/>
<path d="M11.7546 95.9483L20.1507 88.3837L22.282 90.7759L18.9882 93.6854L21.8945 96.9182L25.1884 94.0087L27.3197 96.4009L18.9236 103.966L16.7923 101.573L19.9569 98.7285L17.0506 95.4957L13.8859 98.3406L11.7546 95.9483Z" fill="#00CC06"/>
<path d="M0.775024 71.056L12.9817 72.4784L13.8859 75.5172L4.4564 83.3405L3.48762 80.0431L9.68783 75L1.74381 74.0948L0.775024 71.056Z" fill="#00CC06"/>
<path d="M0.387508 65.9483L0.129166 62.7802L11.4316 61.9397L11.69 65.1078L0.387508 65.9483Z" fill="#00CC06"/>
<path d="M0 55.9268L0.839612 50.625C1.03337 49.3966 1.42088 48.3621 2.06674 47.4569C2.64801 46.5518 3.42304 45.9699 4.39182 45.5819C5.3606 45.194 6.32939 45.0647 7.49193 45.2587C8.58988 45.4526 9.55867 45.8406 10.3337 46.4871C11.1087 47.1337 11.6254 47.9742 11.9483 49.0087C12.2713 50.0432 12.3358 51.1423 12.1421 52.3707L11.3025 57.6725L0 55.9268ZM9.49408 52.1768C9.62325 51.2069 9.49408 50.4311 9.04198 49.7199C8.58988 49.0733 7.87944 48.6207 6.91066 48.4914C5.94187 48.3621 5.16685 48.4914 4.52099 49.0087C3.87513 49.5259 3.48762 50.2371 3.35845 51.2069L3.03552 53.2113L9.17115 54.1811L9.49408 52.1768Z" fill="#00CC06"/>
<path d="M15.9526 33.6854L18.2131 34.7199L14.2734 42.9311L4.06889 38.0819L7.87944 30.0647L10.1399 31.0992L7.68569 36.2716L9.4295 37.1121L11.5608 32.5863L13.6921 33.6207L11.5608 38.1466L13.4338 39.0518L15.9526 33.6854Z" fill="#00CC06"/>
<path d="M21.3132 29.4828C20.2799 29.8707 19.3111 29.9354 18.2777 29.7414C17.2444 29.5474 16.3402 29.0948 15.5005 28.319C14.6609 27.5431 14.0797 26.7026 13.8213 25.6681C13.4984 24.6336 13.4984 23.6638 13.7567 22.5647C14.0151 21.5302 14.5318 20.5604 15.3714 19.6552C16.1464 18.75 17.0506 18.1681 18.084 17.7802C19.1173 17.3923 20.0861 17.3276 21.1195 17.5216C22.1529 17.7155 23.0571 18.1681 23.8967 18.944C24.7363 19.7198 25.3176 20.5604 25.5759 21.5948C25.8988 22.6293 25.8988 23.5992 25.6405 24.6983C25.3821 25.7328 24.8655 26.7026 24.0258 27.6078C23.2508 28.5129 22.3466 29.0948 21.3132 29.4828ZM22.7987 24.375C22.9279 23.8578 22.8633 23.3405 22.6695 22.8233C22.4758 22.306 22.1529 21.7888 21.7008 21.4009C21.2487 20.9483 20.732 20.6897 20.1507 20.5604C19.5694 20.431 19.0527 20.431 18.6006 20.625C18.1486 20.819 17.6319 21.0776 17.2444 21.5302C16.8568 21.9828 16.5985 22.4354 16.5339 22.9526C16.4047 23.4698 16.4693 23.9871 16.6631 24.5043C16.8568 25.0216 17.1798 25.5388 17.6319 25.9267C18.084 26.3147 18.6007 26.6379 19.1819 26.7673C19.7632 26.8966 20.2799 26.8966 20.732 26.7026C21.1841 26.5086 21.7008 26.25 22.0883 25.7974C22.4758 25.4095 22.7341 24.9569 22.7987 24.375Z" fill="#00CC06"/>
</svg>
