<?xml version="1.0" encoding="UTF-8" standalone="no"?>
<svg
   xmlns:dc="http://purl.org/dc/elements/1.1/"
   xmlns:cc="http://creativecommons.org/ns#"
   xmlns:rdf="http://www.w3.org/1999/02/22-rdf-syntax-ns#"
   xmlns:svg="http://www.w3.org/2000/svg"
   xmlns="http://www.w3.org/2000/svg"
   xmlns:sodipodi="http://sodipodi.sourceforge.net/DTD/sodipodi-0.dtd"
   xmlns:inkscape="http://www.inkscape.org/namespaces/inkscape"
   width="1593"
   height="995.00012"
   viewBox="0 0 1593 995.00012"
   version="1.1"
   id="svg4"
   sodipodi:docname="main-top-bg.svg"
   style="fill:none"
   inkscape:version="0.92.3 (2405546, 2018-03-11)">
  <metadata
     id="metadata10">
    <rdf:RDF>
      <cc:Work
         rdf:about="">
        <dc:format>image/svg+xml</dc:format>
        <dc:type
           rdf:resource="http://purl.org/dc/dcmitype/StillImage" />
        <dc:title></dc:title>
      </cc:Work>
    </rdf:RDF>
  </metadata>
  <defs
     id="defs8" />
  <sodipodi:namedview
     pagecolor="#ffffff"
     bordercolor="#666666"
     borderopacity="1"
     objecttolerance="10"
     gridtolerance="10"
     guidetolerance="10"
     inkscape:pageopacity="0"
     inkscape:pageshadow="2"
     inkscape:window-width="1920"
     inkscape:window-height="1027"
     id="namedview6"
     showgrid="false"
     inkscape:zoom="0.35355339"
     inkscape:cx="218.35949"
     inkscape:cy="479.6711"
     inkscape:window-x="-8"
     inkscape:window-y="-8"
     inkscape:window-maximized="1"
     inkscape:current-layer="svg4"
     fit-margin-top="0"
     fit-margin-left="0"
     fit-margin-right="0"
     fit-margin-bottom="0" />
  <rect
     x="0"
     y="0"
     width="1593"
     height="651"
     id="rect2"
     style="fill:#c2ff42" />
  <g
     style="fill:none"
     id="g828"
     transform="translate(136.50185,315.96226)">
    <path
       id="path817"
       d="M 403.391,195.376 C 131.797,233.71 -119.109,334.1 -119.109,334.1 V 494 h 370 L 1456.4982,335.03774 1455.89,0 c 0,0 -161.99,29.4283 -264.5,52.1671 -132.3,29.3495 -254.999,90.5009 -409.499,123.7909 -154.5,33.289 -261.721,2.936 -378.5,19.418 z"
       inkscape:connector-curvature="0"
       style="fill:#fcff78"
       sodipodi:nodetypes="ccccccccc" />
  </g>
  <g
     style="fill:none"
     id="g841"
     transform="translate(63,487.00014)">
    <path
       id="path830"
       d="M 989.5,312.623 C 1261.09,274.29 1512,173.90018 1512,173.90018 l 18,-9.90032 -388,1.1e-4 -1205,-1.1e-4 V 508 c 0,0 161.9954,-29.428 264.5,-52.167 132.305,-29.35 197.5,-86.044 352,-119.333 154.5,-33.289 319.221,-7.394 436,-23.877 z"
       inkscape:connector-curvature="0"
       style="fill:#fcff78"
       sodipodi:nodetypes="cccccccsc" />
  </g>
</svg>
