<svg width="1440" height="698" viewBox="0 0 1440 698" fill="none" xmlns="http://www.w3.org/2000/svg">
<rect x="-54" y="-80" width="1593" height="873" fill="#C2FF42"/>
<path fill-rule="evenodd" clip-rule="evenodd" d="M-80.1862 460.002C-21.1012 437.68 195.197 360.024 426.5 327.376C475.003 320.531 531.777 320.995 592.654 321.493C678.347 322.195 772.17 322.963 862.5 303.5C943.346 286.081 999.738 262.253 1054.09 239.287C1103.61 218.365 1151.43 198.159 1214.5 184.167C1317 161.428 1479 132 1479 132V460.002V469.903V476H1475.67C1455.21 512.007 1339.34 696.443 1094.5 731C987.151 746.152 855.344 774.609 714.744 804.964C702.393 807.631 689.975 810.312 677.5 813C600.487 829.594 533.24 841.733 468.772 853.37C403.907 865.079 341.856 876.28 275.5 891C172.995 913.739 -119 1028 -119 1028L-96 460.002H-80.1862Z" fill="#FCFF78"/>
</svg>
