<svg width="20" height="20" viewBox="0 0 20 20" fill="none" xmlns="http://www.w3.org/2000/svg">
<path d="M19.8729 10.389C19.6942 10.6335 15.4371 16.3737 9.9999 16.3737C4.56274 16.3737 0.305391 10.6335 0.126914 10.3893C-0.0423048 10.1574 -0.0423048 9.8429 0.126914 9.61103C0.305391 9.36661 4.56274 3.62641 9.9999 3.62641C15.4371 3.62641 19.6942 9.36665 19.8729 9.61083C20.0423 9.84267 20.0423 10.1574 19.8729 10.389ZM9.9999 4.94508C5.99486 4.94508 2.52606 8.75497 1.49922 10.0005C2.52473 11.2471 5.98626 15.055 9.9999 15.055C14.0048 15.055 17.4733 11.2458 18.5006 9.99958C17.4751 8.75302 14.0135 4.94508 9.9999 4.94508Z" fill="#9D9D9D"/>
<path d="M9.99903 13.9561C7.8177 13.9561 6.04297 12.1813 6.04297 9.99999C6.04297 7.81866 7.8177 6.04393 9.99903 6.04393C12.1804 6.04393 13.9551 7.81866 13.9551 9.99999C13.9551 12.1813 12.1804 13.9561 9.99903 13.9561ZM9.99903 7.36264C8.54473 7.36264 7.36168 8.54573 7.36168 9.99999C7.36168 11.4543 8.54477 12.6373 9.99903 12.6373C11.4533 12.6373 12.6364 11.4543 12.6364 9.99999C12.6364 8.54573 11.4533 7.36264 9.99903 7.36264Z" fill="#9D9D9D"/>
</svg>
