<svg width="49" height="49" viewBox="0 0 49 49" fill="none" xmlns="http://www.w3.org/2000/svg">
<g clip-path="url(#clip0)">
<path d="M12.25 19.2463H1.75293C0.789331 19.2463 0.010251 20.0254 0 20.9993V47.2419C0 48.2158 0.789331 48.9949 1.75293 48.9949H12.25C13.2238 48.9949 14.0029 48.2055 14.0029 47.2419V20.9993C14.0029 20.0254 13.2136 19.2463 12.25 19.2463Z" fill="#00CC06"/>
<path d="M29.7486 0.00512695H19.2515C18.2879 0.00512695 17.4986 0.784207 17.4986 1.7478V47.242C17.4986 48.2158 18.2879 48.9949 19.2515 48.9949H29.7486C30.7224 48.9949 31.5015 48.2056 31.5015 47.242V1.75806C31.5015 0.784207 30.7122 0.00512695 29.7486 0.00512695Z" fill="#00CC06"/>
<path d="M47.2471 13.9978H36.75C35.7762 13.9978 34.9971 14.7769 34.9971 15.7507V47.2419C34.9971 48.2158 35.7864 48.9949 36.75 48.9949H47.2471C48.221 48.9949 49 48.2055 49 47.2419V15.7507C49 14.7769 48.2107 13.9978 47.2471 13.9978Z" fill="#00CC06"/>
</g>
<defs>
<clipPath id="clip0">
<rect width="49" height="49" fill="white"/>
</clipPath>
</defs>
</svg>
