<svg width="48" height="48" viewBox="0 0 48 48" fill="none" xmlns="http://www.w3.org/2000/svg">
<path d="M42.2812 20.7686V12.75C42.2812 5.77097 36.604 0 29.625 0H18.375C11.396 0 5.71875 5.77097 5.71875 12.75V20.7686C2.40516 22.355 0 25.7132 0 29.625C0 35.0523 4.51022 39.5625 9.9375 39.5625H11.3438V19.7812H9.9375C9.456 19.7812 8.99456 19.8563 8.53125 19.9234V14.1562H11.3438V12.75C11.3438 8.87316 14.4968 5.71875 18.375 5.71875H29.625C33.5032 5.71875 36.6562 8.87316 36.6562 12.75V14.1562H39.4688V19.9234C39.0054 19.8563 38.544 19.7812 38.0625 19.7812H36.6562V39.5625H38.0625C38.544 39.5625 39.0054 39.4875 39.4688 39.4204V42.375C39.4688 43.1509 38.8371 43.7812 38.0625 43.7812H29.1939C28.704 42.9557 27.8423 42.375 26.8125 42.375H21.1875C19.6342 42.375 18.375 43.6342 18.375 45.1875C18.375 46.7407 19.6342 48 21.1875 48H26.8125C27.8422 48 28.7039 47.4191 29.1939 46.5938H38.0625C40.3888 46.5938 42.2812 44.7013 42.2812 42.375V38.5751C45.5948 36.9888 48 33.5368 48 29.625C48 25.7132 45.5948 22.355 42.2812 20.7686Z" fill="#00CC06"/>
</svg>
