<svg width="1440" height="1342" viewBox="0 0 1440 1342" fill="none" xmlns="http://www.w3.org/2000/svg">
<path d="M423.5 216.959C151.906 259.527 -99 371.006 -99 371.006L-99 382L271 382L1476 382V0C1476 0 1314 32.6791 1211.5 57.9298C1079.2 90.5214 1014 153.478 859.5 190.445C705 227.411 540.279 198.655 423.5 216.959Z" fill="#FCFF78"/>
<path d="M1091.5 632.057C1363.09 589.471 1476 341.999 1476 341.999L1476 331L1106 331L-99.0001 331L-122 962C-122 962 169.995 835.065 272.5 809.804C404.805 777.199 520 760.134 674.5 723.152C829 686.17 974.721 650.368 1091.5 632.057Z" fill="#FCFF78"/>
<path d="M424.5 590.051C152.906 625.574 -98 718.602 -98 718.602L-98 1342H272L1477 1342L1477 409C1477 409 1315 436.27 1212.5 457.342C1080.2 484.539 1015 537.076 860.5 567.925C706 598.773 541.279 574.776 424.5 590.051Z" fill="#FCFF78"/>
</svg>
