<svg width="50" height="50" viewBox="0 0 50 50" fill="none" xmlns="http://www.w3.org/2000/svg">
<path d="M26.5625 2.38867V1.5625C26.5625 0.699609 25.8629 0 25 0C24.1371 0 23.4375 0.699609 23.4375 1.5625V2.38867C10.8323 3.12969 0 12.855 0 25.7812C0 26.9187 1.17803 27.6727 2.20898 27.2041C9.20703 24.0234 13.7578 27.7568 14.4375 28.3711C14.9687 29.0019 16.0146 29.165 16.7588 28.4219C17.9921 27.2938 20.4377 26.1367 23.4375 25.8545V44.5312C23.4375 47.5467 25.8908 50 28.9062 50C31.9217 50 34.375 47.5467 34.375 44.5312C34.375 43.6684 33.6754 42.9688 32.8125 42.9688C31.9496 42.9688 31.25 43.6684 31.25 44.5312C31.25 45.8236 30.1986 46.875 28.9062 46.875C27.6139 46.875 26.5625 45.8236 26.5625 44.5312V25.8545C29.4768 26.1287 31.9181 27.232 33.2324 28.4141C33.421 28.5885 33.5965 28.7552 33.9258 28.8506C34.5128 29.033 35.1678 28.8352 35.5586 28.376C36.2461 27.7539 40.7959 24.0244 47.791 27.2041C48.8225 27.673 50 26.9182 50 25.7812C50 12.862 39.1765 3.13018 26.5625 2.38867Z" fill="#00CC06"/>
</svg>
