<svg width="51" height="51" viewBox="0 0 51 51" fill="none" xmlns="http://www.w3.org/2000/svg">
<path d="M6.07617 42.0352H15.041V45.023L24.0059 51V41.341L15.041 35.3639V39.0469H9.06445V21.0176H15.041V0H0V21.0176H6.07617V42.0352ZM6.07617 6.07617H9.06445V9.06445H6.07617V6.07617ZM6.07617 12.0527H9.06445V15.041H6.07617V12.0527Z" fill="#00CC06"/>
<path d="M35.959 21.0176H41.9355V39.0469H35.959V35.3639L26.9941 41.341V51L35.959 45.023V42.0352H44.9238V21.0176H51V0H35.959V21.0176ZM41.9355 6.07617H44.9238V9.06445H41.9355V6.07617ZM41.9355 12.0527H44.9238V15.041H41.9355V12.0527Z" fill="#00CC06"/>
<path d="M16.5355 32.7685L25.5 38.7449L34.4644 32.7685L26.9941 28.0396V21.0176H32.9707V0H18.0293V21.0176H24.0058V28.0396L16.5355 32.7685ZM24.0058 6.07617H26.9941V9.06445H24.0058V6.07617ZM24.0058 12.0527H26.9941V15.041H24.0058V12.0527Z" fill="#00CC06"/>
</svg>
