<svg width="52" height="52" viewBox="0 0 52 52" fill="none" xmlns="http://www.w3.org/2000/svg">
<path d="M4.46875 14.8789H3.25C1.45793 14.8789 0 16.3368 0 18.1289V43.5195C0 45.3116 1.45793 46.7695 3.25 46.7695H4.46875C4.91745 46.7695 5.28125 46.4057 5.28125 45.957V15.6914C5.28125 15.2427 4.91745 14.8789 4.46875 14.8789Z" fill="#00CC06"/>
<path d="M48.75 14.8789H47.5312C47.0825 14.8789 46.7188 15.2427 46.7188 15.6914V45.957C46.7188 46.4057 47.0825 46.7695 47.5312 46.7695H48.75C50.5421 46.7695 52 45.3116 52 43.5195V18.1289C52 16.3368 50.5421 14.8789 48.75 14.8789Z" fill="#00CC06"/>
<path d="M37.0703 2.48828H14.9297C13.5856 2.48828 12.4922 3.5817 12.4922 4.92578V9.59766C12.4922 10.0464 12.856 10.4102 13.3047 10.4102H38.6953C39.144 10.4102 39.5078 10.0464 39.5078 9.59766V4.92578C39.5078 3.5817 38.4144 2.48828 37.0703 2.48828ZM31.9922 6.75391H31.6875C31.2388 6.75391 30.875 6.39011 30.875 5.94141C30.875 5.4927 31.2388 5.12891 31.6875 5.12891H31.9922C32.4409 5.12891 32.8047 5.4927 32.8047 5.94141C32.8047 6.39011 32.4409 6.75391 31.9922 6.75391ZM32.8047 8.58203C32.8047 9.03073 32.4409 9.39453 31.9922 9.39453H31.6875C31.2388 9.39453 30.875 9.03073 30.875 8.58203C30.875 8.13333 31.2388 7.76953 31.6875 7.76953H31.9922C32.4409 7.76953 32.8047 8.13333 32.8047 8.58203ZM28.1328 6.55078V7.97266C28.1328 8.30923 27.86 8.58203 27.5234 8.58203H24.4766C24.14 8.58203 23.8672 8.30923 23.8672 7.97266V6.55078C23.8672 6.2142 24.14 5.94141 24.4766 5.94141H27.5234C27.86 5.94141 28.1328 6.2142 28.1328 6.55078ZM20.3125 6.75391H20.0078C19.5591 6.75391 19.1953 6.39011 19.1953 5.94141C19.1953 5.4927 19.5591 5.12891 20.0078 5.12891H20.3125C20.7612 5.12891 21.125 5.4927 21.125 5.94141C21.125 6.39011 20.7612 6.75391 20.3125 6.75391ZM21.125 8.58203C21.125 9.03073 20.7612 9.39453 20.3125 9.39453H20.0078C19.5591 9.39453 19.1953 9.03073 19.1953 8.58203C19.1953 8.13333 19.5591 7.76953 20.0078 7.76953H20.3125C20.7612 7.76953 21.125 8.13333 21.125 8.58203Z" fill="#00CC06"/>
<path d="M30.2742 25.4011C27.7727 23.4226 24.2282 23.422 21.7259 25.4011L26 29.6754L30.2742 25.4011Z" fill="#00CC06"/>
<path d="M30.2742 36.2473L26 31.9731L21.7259 36.2473C24.227 38.2257 27.7718 38.2266 30.2742 36.2473Z" fill="#00CC06"/>
<path d="M31.4304 24.2447L34.8157 20.8594C29.794 16.405 22.2112 16.4004 17.1844 20.8594L20.5696 24.2447C23.7148 21.6406 28.285 21.6403 31.4304 24.2447Z" fill="#00CC06"/>
<path d="M20.5768 35.0984L24.8509 30.8242L20.5768 26.55C18.5984 29.0511 18.5976 32.5961 20.5768 35.0984Z" fill="#00CC06"/>
<path d="M31.4232 26.55L27.149 30.8242L31.4231 35.0984C33.4016 32.5973 33.4024 29.0523 31.4232 26.55Z" fill="#00CC06"/>
<path d="M20.5695 37.4038L17.1843 40.7891C22.2059 45.2434 29.7889 45.2481 34.8157 40.7891L31.4304 37.4038C28.2851 40.0079 23.7149 40.0082 20.5695 37.4038Z" fill="#00CC06"/>
<path d="M19.4206 25.3938L16.0353 22.0085C11.581 27.0302 11.5763 34.6131 16.0353 39.6399L19.4206 36.2546C16.8164 33.1094 16.8161 28.5392 19.4206 25.3938Z" fill="#00CC06"/>
<path d="M43.4688 12.1367H8.53125C7.8582 12.1367 7.3125 12.6824 7.3125 13.3555V48.293C7.3125 48.966 7.8582 49.5117 8.53125 49.5117H43.4688C44.1418 49.5117 44.6875 48.966 44.6875 48.293V13.3555C44.6875 12.6824 44.1418 12.1367 43.4688 12.1367ZM38.6097 42.2848C39.1231 42.7981 38.7525 43.6719 38.0352 43.6719C37.6103 43.6719 37.591 43.5643 35.9668 41.94C30.3068 47.0275 21.6968 47.0306 16.0332 41.94C14.4487 43.5245 14.4089 43.6719 13.9648 43.6719C13.2476 43.6719 12.8769 42.7982 13.3903 42.2848L14.8841 40.7911C9.79662 35.1309 9.79347 26.5211 14.8841 20.8574L13.3903 19.3636C13.0729 19.0463 13.0729 18.5319 13.3903 18.2146C13.7076 17.8972 14.222 17.8972 14.5393 18.2146L16.0331 19.7084C21.6931 14.6209 30.3031 14.6178 35.9667 19.7084L37.4605 18.2146C37.7778 17.8972 38.2922 17.8972 38.6095 18.2146C38.9269 18.5319 38.9269 19.0463 38.6095 19.3636L37.1157 20.8574C42.2032 26.5176 42.2063 35.1273 37.1157 40.7911L38.6097 42.2848Z" fill="#00CC06"/>
<path d="M35.9647 22.0085L32.5794 25.3938C35.1839 28.5392 35.1836 33.1097 32.5794 36.2547L35.9647 39.64C40.4191 34.6183 40.4237 27.0355 35.9647 22.0085Z" fill="#00CC06"/>
</svg>
