<svg width="1440" height="896" viewBox="0 0 1440 896" fill="none" xmlns="http://www.w3.org/2000/svg">
<path fill-rule="evenodd" clip-rule="evenodd" d="M-92.1861 328.002C-33.1011 305.68 183.197 228.024 414.5 195.376C463.003 188.531 519.777 188.995 580.654 189.493C666.347 190.195 760.17 190.963 850.5 171.5C931.346 154.081 987.738 130.253 1042.09 107.287C1091.61 86.3651 1139.43 66.1588 1202.5 52.1671C1305 29.4283 1467 0 1467 0V328.002V337.903V344H1463.67C1443.21 380.007 1327.34 564.443 1082.5 599C975.151 614.152 843.344 642.609 702.744 672.964C690.393 675.631 677.975 678.312 665.5 681C588.487 697.594 521.24 709.733 456.772 721.37C391.907 733.079 329.856 744.28 263.5 759C160.995 781.739 -131 896 -131 896L-108 328.002H-92.1861Z" fill="#FCFF78"/>
</svg>
