<svg width="320" height="500" viewBox="0 0 320 500" fill="none" xmlns="http://www.w3.org/2000/svg">
<path fill-rule="evenodd" clip-rule="evenodd" d="M-172.542 233.972V146.345C-44.1023 113.05 11.1098 90.9301 55.1886 73.2703C115.085 49.2733 154.424 33.5125 329.004 9.14158C524.355 -18.129 522.188 10.5129 509.02 184.518C508.971 185.161 508.922 185.806 508.873 186.452H544.206L637.546 266.22L438.537 299.139C438.537 299.139 735.568 434.377 463.974 472.711C412.055 480.039 376.801 470.426 340.078 460.413C294.202 447.904 246.034 434.77 160.224 453.259C123.705 461.128 93.3315 470.543 66.7168 478.793C-19.2675 505.447 -66.0185 519.939 -154.001 430.814C-227.764 356.093 -79.1857 284.176 -79.1857 284.176L-61.2604 233.972L-172.542 233.972Z" fill="#FCFF78"/>
</svg>
