<svg width="1105" height="1112" viewBox="0 0 1105 1112" fill="none" xmlns="http://www.w3.org/2000/svg">
<path d="M1249.97 823.501C1479.93 673.999 1664.92 476.995 1664.92 476.995L1660.74 468.022L1325.39 624.36L233.239 1133.51L378.591 1445.3C378.591 1445.3 512.98 1350.18 596.277 1286.26C703.79 1203.75 738.924 1124.82 864.889 1029.37C990.854 933.913 1151.09 887.783 1249.97 823.501Z" fill="#FCFF78"/>
<path d="M473.983 739.931C244.022 889.433 235.816 1139.04 235.816 1139.04L239.999 1148.01L575.347 991.675L1667.49 482.521L1448.34 -42C1448.34 -42 1231.97 184.938 1148.68 248.86C1041.16 331.364 943.247 393.96 817.282 489.413C691.317 584.867 572.861 675.649 473.983 739.931Z" fill="#FCFF78"/>
</svg>
