<svg width="320" height="669" viewBox="0 0 320 669" fill="none" xmlns="http://www.w3.org/2000/svg">
<path d="M312.347 373.372C394.277 305.07 450.424 200.052 450.424 200.052L447.446 193.665L320.123 253.022L-94.5362 446.335L8.92762 668.267C8.92762 668.267 55.8218 623.293 84.2561 592.179C120.957 552.019 126.34 504.984 169.494 458.722C212.647 412.459 277.119 402.74 312.347 373.372Z" fill="#FCFF78"/>
<path d="M-3.13174 296.902C-90.4419 353.664 -93.5577 448.433 -93.5577 448.433L-91.9694 451.84L35.3534 392.483L450.013 199.17L366.807 0.0234436C366.807 0.0234436 284.657 86.186 253.031 110.455C212.211 141.78 175.035 165.546 127.21 201.787C79.3843 238.028 34.4095 272.496 -3.13174 296.902Z" fill="#FCFF78"/>
</svg>
