<svg width="24" height="25" viewBox="0 0 24 25" fill="none" xmlns="http://www.w3.org/2000/svg">
<g clip-path="url(#clip0)">
<path d="M12.171 11.8751C10.5828 11.8751 9.20746 11.3054 8.08374 10.1815C6.96002 9.05783 6.39038 7.68289 6.39038 6.09446C6.39038 4.50658 6.96002 3.13146 8.08392 2.00738C9.20782 0.883848 10.5829 0.314209 12.171 0.314209C13.7595 0.314209 15.1344 0.883848 16.2581 2.00756C17.3818 3.13128 17.9517 4.50639 17.9517 6.09446C17.9517 7.68289 17.3818 9.05801 16.2579 10.1817C15.134 11.3053 13.7589 11.8751 12.171 11.8751Z" fill="#090F21"/>
<path d="M2.05646 18.769C2.08887 18.3013 2.15442 17.7912 2.25092 17.2525C2.34833 16.7098 2.47375 16.1967 2.6239 15.7278C2.77899 15.2431 2.98993 14.7645 3.25067 14.3058C3.5213 13.8297 3.83917 13.4152 4.19586 13.074C4.56885 12.7172 5.02551 12.4302 5.55359 12.2209C6.07983 12.0128 6.66302 11.9073 7.28687 11.9073C7.53186 11.9073 7.7688 12.0078 8.22638 12.3057C8.508 12.4894 8.8374 12.7018 9.20508 12.9367C9.51947 13.137 9.94537 13.3247 10.4714 13.4946C10.9847 13.6607 11.5058 13.7449 12.0201 13.7449C12.5345 13.7449 13.0554 13.6607 13.5692 13.4946C14.0947 13.3249 14.5206 13.1372 14.8347 12.9369C15.1989 12.7042 15.5284 12.4918 15.8143 12.3055C16.2713 12.0076 16.5084 11.9071 16.7534 11.9071C17.3774 11.9071 17.9604 12.0128 18.4865 12.2211C19.0142 12.4301 19.4711 12.717 19.8444 13.0742C20.2009 13.4155 20.519 13.8299 20.7892 14.3058C21.0498 14.7645 21.2607 15.2429 21.416 15.728C21.566 16.1969 21.6914 16.7098 21.7888 17.2525C21.8853 17.7904 21.9509 18.3008 21.9833 18.7695C22.0151 19.2287 22.0312 19.7054 22.0312 20.1867C22.0312 21.4395 21.633 22.4538 20.8477 23.2017C20.072 23.9398 19.0457 24.3143 17.7977 24.3143H6.24152C4.99347 24.3143 3.96753 23.94 3.19171 23.2017C2.40619 22.4543 2.00793 21.4399 2.00793 20.1866C2.00812 19.703 2.02441 19.226 2.05646 18.769Z" fill="#090F21"/>
</g>
<defs>
<clipPath id="clip0">
<rect width="24" height="24" fill="white" transform="matrix(-1 0 0 1 24 0.314209)"/>
</clipPath>
</defs>
</svg>
