<svg width="23" height="19" viewBox="0 0 23 19" fill="none" xmlns="http://www.w3.org/2000/svg">
<path d="M21.1648 2.53571L23 0.780044V0.395752H16.6424L12.1114 11.6734L6.95654 0.395752H0.290375V0.780044L2.43417 3.36083C2.64308 3.55154 2.75233 3.83042 2.72454 4.11121V14.2533C2.79067 14.6184 2.67183 14.994 2.415 15.2595L0 18.1862V18.5658H6.84729V18.1815L4.43229 15.2595C4.17067 14.9931 4.04704 14.6241 4.09975 14.2533V5.48067L10.1104 18.5705H10.809L15.9773 5.48067V15.9083C15.9773 16.1833 15.9773 16.2399 15.7972 16.42L13.938 18.2188V18.6041H22.9578V18.2198L21.1658 16.4651C21.0086 16.3463 20.9271 16.1469 20.9607 15.9533V3.04746C20.9271 2.85292 21.0076 2.65358 21.1648 2.53571Z" fill="#161515"/>
</svg>
